<svg width="471" height="425" viewBox="0 0 471 425" fill="none" xmlns="http://www.w3.org/2000/svg">
<line x1="129.375" y1="125.669" x2="159.375" y2="159.669" stroke="white"/>
<line x1="137.089" y1="101.508" x2="336.089" y2="137.508" stroke="white"/>
<line x1="65.4943" y1="143.075" x2="58.4943" y2="189.075" stroke="white"/>
<line x1="114.5" y1="138" x2="114.5" y2="324" stroke="white"/>
<line x1="146.948" y1="67.5027" x2="213.948" y2="60.5027" stroke="white"/>
<line x1="240.512" y1="142.893" x2="249.512" y2="101.893" stroke="white"/>
<line x1="342.748" y1="116.432" x2="294.748" y2="88.4319" stroke="white"/>
<line x1="380.51" y1="209.1" x2="372.51" y2="170.1" stroke="white"/>
<line x1="341.272" y1="155.419" x2="304.272" y2="179.419" stroke="white"/>
<line x1="344.533" y1="248.18" x2="287.533" y2="100.18" stroke="white"/>
<line x1="143.849" y1="370.523" x2="351.849" y2="304.523" stroke="white"/>
<line x1="167.354" y1="297.354" x2="133.354" y2="331.354" stroke="white"/>
<circle cx="90" cy="88" r="59.5" fill="#B8E4FC" stroke="white"/>
<path d="M104.308 83.4941L94.6284 73.6809C95.9471 71.8409 96.7317 69.5789 96.7317 67.1388C96.7317 60.9989 91.8064 56 85.7537 56C79.6943 55.9934 74.769 60.9923 74.769 67.1322C74.769 73.272 79.6943 78.2709 85.7471 78.2709C88.3712 78.2709 90.7778 77.3344 92.6701 75.7714L102.297 85.5385L104.308 83.4941ZM85.7471 75.6989C81.0921 75.6989 77.3009 71.8541 77.3009 67.1322C77.3009 62.4102 81.0921 58.5654 85.7471 58.5654C90.402 58.5654 94.1932 62.4102 94.1932 67.1322C94.1932 71.8541 90.4086 75.6989 85.7471 75.6989Z" fill="#081022"/>
<circle cx="262" cy="55" r="54.5" fill="#B8E4FC" stroke="white"/>
<path d="M247 43C247 34.7148 253.715 28 262 28C270.285 28 277 34.7148 277 43C277 51.2852 270.285 58 262 58C253.715 58 247 51.2852 247 43ZM256.463 37.9551C255.748 37.6504 254.922 37.9785 254.617 38.6934C254.313 39.4082 254.641 40.2344 255.355 40.5391L256.053 40.8379C257.066 41.2715 258.115 41.5937 259.193 41.793V44.7285C259.193 44.9805 259.152 45.2324 259.07 45.4668L257.389 50.5117C257.143 51.25 257.541 52.0469 258.279 52.293C259.018 52.5391 259.814 52.1406 260.061 51.4023L261.49 47.1133C261.566 46.8906 261.771 46.7383 262.006 46.7383C262.24 46.7383 262.451 46.8906 262.521 47.1133L263.951 51.4023C264.197 52.1406 264.994 52.5391 265.732 52.293C266.471 52.0469 266.863 51.2617 266.617 50.5234L264.936 45.4785C264.854 45.2383 264.812 44.9922 264.812 44.7402V41.8047C265.891 41.5996 266.939 41.2832 267.953 40.8496L268.65 40.5508C269.365 40.2461 269.693 39.4199 269.389 38.7051C269.084 37.9902 268.258 37.6621 267.543 37.9668L266.846 38.2539C265.316 38.9102 263.67 39.25 262 39.25C260.33 39.25 258.689 38.9102 257.154 38.2539L256.457 37.9551H256.463ZM262 37.375C263.295 37.375 264.344 36.3262 264.344 35.0312C264.344 33.7363 263.295 32.6875 262 32.6875C260.705 32.6875 259.656 33.7363 259.656 35.0312C259.656 36.3262 260.705 37.375 262 37.375Z" fill="#081022"/>
<circle cx="297" cy="380" r="44.5" fill="#B8E4FC" stroke="white"/>
<path d="M296.933 354.474C296.893 354.207 296.69 353.99 296.424 353.95C295.332 353.797 294.22 353.995 293.242 354.514L289.586 356.465C288.612 356.984 287.827 357.799 287.343 358.792L285.53 362.527C285.045 363.521 284.887 364.647 285.08 365.734L285.796 369.825C285.989 370.917 286.518 371.915 287.313 372.685L290.292 375.571C291.088 376.342 292.101 376.836 293.192 376.989L297.293 377.567C298.385 377.72 299.497 377.522 300.475 377.004L304.131 375.052C305.104 374.533 305.89 373.718 306.374 372.72L308.187 368.99C308.672 367.997 308.83 366.87 308.637 365.783C308.593 365.521 308.375 365.324 308.113 365.284C305.569 364.879 303.528 362.957 302.95 360.472C302.861 360.097 302.555 359.81 302.175 359.751C299.477 359.321 297.348 357.182 296.928 354.474H296.933ZM294.487 360.225C295.361 360.225 296.068 360.932 296.068 361.806C296.068 362.681 295.361 363.387 294.487 363.387C293.612 363.387 292.906 362.681 292.906 361.806C292.906 360.932 293.612 360.225 294.487 360.225ZM291.325 369.711C291.325 368.837 292.031 368.13 292.906 368.13C293.78 368.13 294.487 368.837 294.487 369.711C294.487 370.586 293.78 371.292 292.906 371.292C292.031 371.292 291.325 370.586 291.325 369.711ZM302.392 366.549C303.266 366.549 303.973 367.256 303.973 368.13C303.973 369.005 303.266 369.711 302.392 369.711C301.517 369.711 300.811 369.005 300.811 368.13C300.811 367.256 301.517 366.549 302.392 366.549Z" fill="#081022"/>
<circle cx="114" cy="368" r="44.5" fill="#B8E4FC" stroke="white"/>
<path d="M107.506 344.1C107.814 343.939 108.187 343.975 108.461 344.189L120.635 353.562C120.95 353.804 121.076 354.226 120.954 354.609C120.832 354.992 120.482 355.249 120.087 355.249H114.293L117.675 362.192C117.975 362.809 117.732 363.559 117.131 363.868C116.53 364.176 115.799 363.926 115.499 363.309L112.117 356.367L108.643 361.125C108.408 361.449 107.997 361.578 107.624 361.453C107.251 361.328 107 360.969 107 360.567V344.94C107 344.584 107.194 344.26 107.506 344.1Z" fill="#081022"/>
<circle cx="368" cy="134" r="39.5" fill="#B8E4FC" stroke="white"/>
<path d="M362.833 112.062H367.792V115.844C367.792 117.554 369.217 118.938 370.979 118.938H374.875V129.25C374.875 129.628 374.556 129.938 374.167 129.938H362.833C362.444 129.938 362.125 129.628 362.125 129.25V112.75C362.125 112.372 362.444 112.062 362.833 112.062ZM369.917 112.918L373.994 116.875H370.979C370.39 116.875 369.917 116.415 369.917 115.844V112.918ZM362.833 110C361.271 110 360 111.233 360 112.75V129.25C360 130.767 361.271 132 362.833 132H374.167C375.729 132 377 130.767 377 129.25V118.014C377 117.283 376.703 116.583 376.172 116.067L370.745 110.804C370.213 110.288 369.496 110 368.743 110H362.833ZM365.312 121C364.724 121 364.25 121.46 364.25 122.031C364.25 122.603 364.724 123.062 365.312 123.062H371.687C372.276 123.062 372.75 122.603 372.75 122.031C372.75 121.46 372.276 121 371.687 121H365.312ZM365.312 125.125C364.724 125.125 364.25 125.585 364.25 126.156C364.25 126.728 364.724 127.188 365.312 127.188H371.687C372.276 127.188 372.75 126.728 372.75 126.156C372.75 125.585 372.276 125.125 371.687 125.125H365.312Z" fill="#081022"/>
<circle cx="401" cy="267" r="69.5" fill="#B8E4FC" stroke="white"/>
<path d="M388 233.75C388 231.13 390.12 229 392.727 229H409.273C411.88 229 414 231.13 414 233.75V262.25C414 264.87 411.88 267 409.273 267H392.727C390.12 267 388 264.87 388 262.25V233.75ZM396.273 261.656C396.273 262.643 397.063 263.438 398.045 263.438H403.955C404.937 263.438 405.727 262.643 405.727 261.656C405.727 260.669 404.937 259.875 403.955 259.875H398.045C397.063 259.875 396.273 260.669 396.273 261.656ZM409.273 233.75H392.727V256.312H409.273V233.75Z" fill="#081022"/>
<circle cx="52.356" cy="235.356" r="51.856" fill="#B8E4FC" stroke="white"/>
<path d="M50 211.882V214.824H56V211.882C56 210.26 54.6547 208.941 53 208.941C51.3453 208.941 50 210.26 50 211.882ZM47 214.824V211.882C47 208.633 49.6859 206 53 206C56.3141 206 59 208.633 59 211.882V214.824C60.6547 214.824 62 216.142 62 217.765V228.059C62 229.681 60.6547 231 59 231H47C45.3453 231 44 229.681 44 228.059V217.765C44 216.142 45.3453 214.824 47 214.824Z" fill="#081022"/>
<circle cx="222" cy="229" r="99.5" fill="white"/>
<circle cx="222" cy="229" r="99.5" fill="#11A4F4" fill-opacity="0.3"/>
<circle cx="222" cy="229" r="99.5" stroke="white"/>
<path d="M75.0991 99.619C75.0063 98.7506 74.6152 98.0745 73.9258 97.5906C73.2431 97.1067 72.3548 96.8647 71.2611 96.8647C70.4921 96.8647 69.8326 96.9807 69.2824 97.2127C68.7322 97.4447 68.3113 97.7596 68.0196 98.1573C67.7279 98.5551 67.5788 99.0091 67.5722 99.5196C67.5722 99.9438 67.6683 100.312 67.8605 100.623C68.0594 100.935 68.3278 101.2 68.6659 101.419C69.004 101.631 69.3785 101.81 69.7895 101.956C70.2005 102.101 70.6148 102.224 71.0324 102.324L72.9415 102.801C73.7104 102.98 74.4495 103.222 75.1588 103.527C75.8747 103.832 76.5144 104.216 77.0778 104.68C77.6479 105.144 78.0987 105.704 78.4301 106.36C78.7616 107.017 78.9273 107.786 78.9273 108.667C78.9273 109.86 78.6223 110.911 78.0125 111.819C77.4026 112.721 76.521 113.427 75.3676 113.937C74.2208 114.441 72.8321 114.693 71.2014 114.693C69.6171 114.693 68.2417 114.448 67.075 113.957C65.915 113.467 65.0068 112.751 64.3506 111.809C63.7009 110.868 63.3496 109.721 63.2966 108.369H66.9258C66.9789 109.078 67.1976 109.668 67.5821 110.139C67.9666 110.61 68.467 110.961 69.0835 111.193C69.7066 111.425 70.4026 111.541 71.1716 111.541C71.9737 111.541 72.6763 111.422 73.2795 111.183C73.8894 110.938 74.3667 110.6 74.7114 110.169C75.0561 109.731 75.2317 109.221 75.2383 108.637C75.2317 108.107 75.0759 107.67 74.771 107.325C74.4661 106.974 74.0385 106.682 73.4883 106.45C72.9448 106.211 72.3084 105.999 71.5793 105.814L69.2625 105.217C67.5854 104.786 66.2597 104.133 65.2852 103.258C64.3174 102.377 63.8335 101.207 63.8335 99.7482C63.8335 98.5484 64.1583 97.4978 64.8079 96.5963C65.4642 95.6947 66.3558 94.9954 67.4827 94.4982C68.6096 93.9945 69.8856 93.7426 71.3108 93.7426C72.7559 93.7426 74.022 93.9945 75.1091 94.4982C76.2028 94.9954 77.0613 95.6881 77.6844 96.5764C78.3075 97.458 78.629 98.4722 78.6489 99.619H75.0991Z" fill="#081022"/>
<path d="M82.216 114.385V94.021H95.4603V97.1133H85.9049V102.642H94.7742V105.734H85.9049V111.292H95.5398V114.385H82.216Z" fill="#081022"/>
<path d="M117.42 104.203C117.42 106.397 117.009 108.276 116.187 109.841C115.372 111.398 114.258 112.592 112.846 113.42C111.441 114.249 109.846 114.663 108.063 114.663C106.28 114.663 104.683 114.249 103.271 113.42C101.865 112.585 100.752 111.388 99.9298 109.831C99.1144 108.266 98.7067 106.39 98.7067 104.203C98.7067 102.009 99.1144 100.133 99.9298 98.575C100.752 97.0106 101.865 95.8141 103.271 94.9855C104.683 94.1569 106.28 93.7426 108.063 93.7426C109.846 93.7426 111.441 94.1569 112.846 94.9855C114.258 95.8141 115.372 97.0106 116.187 98.575C117.009 100.133 117.42 102.009 117.42 104.203ZM113.711 104.203C113.711 102.658 113.469 101.356 112.985 100.295C112.508 99.2279 111.845 98.4225 110.997 97.8789C110.148 97.3287 109.17 97.0536 108.063 97.0536C106.956 97.0536 105.979 97.3287 105.13 97.8789C104.282 98.4225 103.615 99.2279 103.131 100.295C102.654 101.356 102.416 102.658 102.416 104.203C102.416 105.747 102.654 107.053 103.131 108.12C103.615 109.181 104.282 109.986 105.13 110.537C105.979 111.08 106.956 111.352 108.063 111.352C109.17 111.352 110.148 111.08 110.997 110.537C111.845 109.986 112.508 109.181 112.985 108.12C113.469 107.053 113.711 105.747 113.711 104.203Z" fill="#081022"/>
<path d="M221.047 78H219.078L222.663 67.8182H224.94L228.529 78H226.561L223.841 69.9062H223.762L221.047 78ZM221.112 74.0078H226.481V75.4893H221.112V74.0078Z" fill="#081022"/>
<path d="M232.889 78.1491C232.127 78.1491 231.473 77.9818 230.926 77.647C230.382 77.3123 229.963 76.8499 229.668 76.2599C229.376 75.6667 229.23 74.9839 229.23 74.2116C229.23 73.4361 229.379 72.7517 229.678 72.1584C229.976 71.5618 230.397 71.0978 230.941 70.7663C231.487 70.4316 232.134 70.2642 232.879 70.2642C233.499 70.2642 234.048 70.3785 234.525 70.6072C235.006 70.8326 235.388 71.1525 235.673 71.5668C235.959 71.9777 236.121 72.4583 236.161 73.0085H234.441C234.371 72.6406 234.205 72.334 233.943 72.0888C233.685 71.8402 233.338 71.7159 232.904 71.7159C232.536 71.7159 232.213 71.8153 231.935 72.0142C231.656 72.2097 231.439 72.4915 231.284 72.8594C231.131 73.2273 231.055 73.6681 231.055 74.1818C231.055 74.7022 231.131 75.1496 231.284 75.5241C231.436 75.8954 231.65 76.182 231.925 76.3842C232.203 76.5831 232.53 76.6825 232.904 76.6825C233.169 76.6825 233.406 76.6328 233.615 76.5334C233.827 76.4306 234.005 76.2831 234.147 76.0909C234.29 75.8987 234.388 75.665 234.441 75.3899H236.161C236.118 75.9302 235.959 76.4091 235.683 76.8267C235.408 77.241 235.034 77.5658 234.56 77.8011C234.086 78.0331 233.529 78.1491 232.889 78.1491Z" fill="#081022"/>
<path d="M240.969 78.1491C240.207 78.1491 239.553 77.9818 239.006 77.647C238.462 77.3123 238.043 76.8499 237.748 76.2599C237.456 75.6667 237.31 74.9839 237.31 74.2116C237.31 73.4361 237.46 72.7517 237.758 72.1584C238.056 71.5618 238.477 71.0978 239.021 70.7663C239.567 70.4316 240.214 70.2642 240.96 70.2642C241.579 70.2642 242.128 70.3785 242.605 70.6072C243.086 70.8326 243.469 71.1525 243.754 71.5668C244.039 71.9777 244.201 72.4583 244.241 73.0085H242.521C242.451 72.6406 242.285 72.334 242.023 72.0888C241.765 71.8402 241.419 71.7159 240.984 71.7159C240.616 71.7159 240.293 71.8153 240.015 72.0142C239.737 72.2097 239.519 72.4915 239.364 72.8594C239.211 73.2273 239.135 73.6681 239.135 74.1818C239.135 74.7022 239.211 75.1496 239.364 75.5241C239.516 75.8954 239.73 76.182 240.005 76.3842C240.283 76.5831 240.61 76.6825 240.984 76.6825C241.25 76.6825 241.487 76.6328 241.695 76.5334C241.907 76.4306 242.085 76.2831 242.227 76.0909C242.37 75.8987 242.468 75.665 242.521 75.3899H244.241C244.198 75.9302 244.039 76.4091 243.764 76.8267C243.488 77.241 243.114 77.5658 242.64 77.8011C242.166 78.0331 241.609 78.1491 240.969 78.1491Z" fill="#081022"/>
<path d="M249.099 78.1491C248.334 78.1491 247.672 77.9901 247.116 77.6719C246.562 77.3504 246.136 76.8963 245.838 76.3097C245.54 75.7197 245.39 75.0253 245.39 74.2266C245.39 73.441 245.54 72.7517 245.838 72.1584C246.14 71.5618 246.56 71.0978 247.101 70.7663C247.641 70.4316 248.276 70.2642 249.005 70.2642C249.475 70.2642 249.92 70.3404 250.337 70.4929C250.758 70.642 251.129 70.874 251.451 71.1889C251.776 71.5038 252.031 71.9048 252.216 72.392C252.402 72.8759 252.495 73.4526 252.495 74.1222V74.674H246.236V73.4609H250.77C250.766 73.1162 250.692 72.8097 250.546 72.5412C250.4 72.2694 250.196 72.0556 249.935 71.8999C249.676 71.7441 249.374 71.6662 249.03 71.6662C248.662 71.6662 248.339 71.7557 248.06 71.9347C247.782 72.1103 247.565 72.3423 247.409 72.6307C247.256 72.9157 247.179 73.2289 247.175 73.5703V74.6293C247.175 75.0734 247.256 75.4545 247.419 75.7727C247.581 76.0876 247.808 76.3295 248.1 76.4986C248.392 76.6643 248.733 76.7472 249.124 76.7472C249.386 76.7472 249.623 76.7107 249.835 76.6378C250.047 76.5615 250.231 76.4505 250.387 76.3047C250.543 76.1588 250.66 75.9782 250.74 75.7628L252.42 75.9517C252.314 76.3958 252.112 76.7836 251.814 77.1151C251.519 77.4432 251.141 77.6984 250.68 77.8807C250.22 78.0597 249.693 78.1491 249.099 78.1491Z" fill="#081022"/>
<path d="M260.053 72.3821L258.412 72.5611C258.366 72.3954 258.285 72.2396 258.169 72.0937C258.056 71.9479 257.904 71.8303 257.711 71.7408C257.519 71.6513 257.284 71.6065 257.005 71.6065C256.631 71.6065 256.316 71.6877 256.061 71.8501C255.809 72.0125 255.685 72.223 255.688 72.4815C255.685 72.7036 255.766 72.8842 255.931 73.0234C256.101 73.1626 256.379 73.277 256.767 73.3665L258.069 73.6449C258.792 73.8007 259.329 74.0476 259.68 74.3856C260.035 74.7237 260.214 75.1662 260.217 75.7131C260.214 76.1937 260.073 76.6179 259.794 76.9858C259.519 77.3504 259.137 77.6354 258.646 77.8409C258.155 78.0464 257.592 78.1491 256.956 78.1491C256.021 78.1491 255.269 77.9536 254.699 77.5625C254.128 77.1681 253.789 76.6195 253.679 75.9169L255.434 75.7479C255.514 76.0926 255.683 76.3527 255.941 76.5284C256.2 76.7041 256.536 76.7919 256.951 76.7919C257.378 76.7919 257.721 76.7041 257.98 76.5284C258.242 76.3527 258.373 76.1356 258.373 75.8771C258.373 75.6584 258.288 75.4777 258.119 75.3352C257.953 75.1927 257.695 75.0833 257.343 75.0071L256.041 74.7337C255.308 74.5812 254.766 74.3243 254.415 73.9631C254.064 73.5985 253.89 73.1378 253.893 72.581C253.89 72.1103 254.017 71.7026 254.276 71.3579C254.538 71.0099 254.901 70.7415 255.365 70.5526C255.832 70.3603 256.371 70.2642 256.98 70.2642C257.875 70.2642 258.58 70.4548 259.093 70.8359C259.61 71.2171 259.93 71.7325 260.053 72.3821Z" fill="#081022"/>
<path d="M267.737 72.3821L266.096 72.5611C266.049 72.3954 265.968 72.2396 265.852 72.0937C265.74 71.9479 265.587 71.8303 265.395 71.7408C265.203 71.6513 264.967 71.6065 264.689 71.6065C264.314 71.6065 264 71.6877 263.744 71.8501C263.492 72.0125 263.368 72.223 263.371 72.4815C263.368 72.7036 263.449 72.8842 263.615 73.0234C263.784 73.1626 264.063 73.277 264.45 73.3665L265.753 73.6449C266.475 73.8007 267.012 74.0476 267.364 74.3856C267.718 74.7237 267.897 75.1662 267.901 75.7131C267.897 76.1937 267.756 76.6179 267.478 76.9858C267.203 77.3504 266.82 77.6354 266.33 77.8409C265.839 78.0464 265.276 78.1491 264.639 78.1491C263.705 78.1491 262.952 77.9536 262.382 77.5625C261.812 77.1681 261.472 76.6195 261.363 75.9169L263.118 75.7479C263.197 76.0926 263.366 76.3527 263.625 76.5284C263.884 76.7041 264.22 76.7919 264.634 76.7919C265.062 76.7919 265.405 76.7041 265.663 76.5284C265.925 76.3527 266.056 76.1356 266.056 75.8771C266.056 75.6584 265.972 75.4777 265.803 75.3352C265.637 75.1927 265.378 75.0833 265.027 75.0071L263.724 74.7337C262.992 74.5812 262.45 74.3243 262.099 73.9631C261.747 73.5985 261.573 73.1378 261.577 72.581C261.573 72.1103 261.701 71.7026 261.96 71.3579C262.221 71.0099 262.584 70.7415 263.048 70.5526C263.516 70.3603 264.054 70.2642 264.664 70.2642C265.559 70.2642 266.263 70.4548 266.777 70.8359C267.294 71.2171 267.614 71.7325 267.737 72.3821Z" fill="#081022"/>
<path d="M269.385 78V70.3636H271.184V78H269.385ZM270.289 69.2798C270.004 69.2798 269.759 69.1854 269.554 68.9964C269.348 68.8042 269.245 68.5739 269.245 68.3054C269.245 68.0336 269.348 67.8033 269.554 67.6143C269.759 67.4221 270.004 67.326 270.289 67.326C270.578 67.326 270.823 67.4221 271.025 67.6143C271.231 67.8033 271.333 68.0336 271.333 68.3054C271.333 68.5739 271.231 68.8042 271.025 68.9964C270.823 69.1854 270.578 69.2798 270.289 69.2798Z" fill="#081022"/>
<path d="M273.115 78V67.8182H274.914V71.6264H274.989C275.082 71.4408 275.213 71.2436 275.382 71.0348C275.551 70.8227 275.779 70.642 276.068 70.4929C276.356 70.3404 276.724 70.2642 277.171 70.2642C277.761 70.2642 278.293 70.415 278.767 70.7166C279.245 71.0149 279.622 71.4574 279.901 72.044C280.182 72.6274 280.323 73.3433 280.323 74.1918C280.323 75.0303 280.186 75.7429 279.911 76.3295C279.636 76.9162 279.261 77.3636 278.787 77.6719C278.313 77.9801 277.776 78.1342 277.176 78.1342C276.739 78.1342 276.376 78.0613 276.088 77.9155C275.799 77.7696 275.567 77.594 275.392 77.3885C275.219 77.1797 275.085 76.9825 274.989 76.7969H274.884V78H273.115ZM274.879 74.1818C274.879 74.6757 274.949 75.1082 275.088 75.4794C275.231 75.8506 275.435 76.1406 275.7 76.3494C275.968 76.5549 276.293 76.6577 276.674 76.6577C277.072 76.6577 277.405 76.5516 277.673 76.3395C277.942 76.124 278.144 75.8307 278.28 75.4595C278.419 75.085 278.489 74.6591 278.489 74.1818C278.489 73.7079 278.421 73.2869 278.285 72.919C278.149 72.5511 277.947 72.2628 277.678 72.054C277.41 71.8452 277.075 71.7408 276.674 71.7408C276.29 71.7408 275.963 71.8419 275.695 72.044C275.426 72.2462 275.222 72.5296 275.083 72.8942C274.947 73.2588 274.879 73.688 274.879 74.1818Z" fill="#081022"/>
<path d="M281.853 78V70.3636H283.653V78H281.853ZM282.758 69.2798C282.473 69.2798 282.228 69.1854 282.022 68.9964C281.817 68.8042 281.714 68.5739 281.714 68.3054C281.714 68.0336 281.817 67.8033 282.022 67.6143C282.228 67.4221 282.473 67.326 282.758 67.326C283.047 67.326 283.292 67.4221 283.494 67.6143C283.699 67.8033 283.802 68.0336 283.802 68.3054C283.802 68.5739 283.699 68.8042 283.494 68.9964C283.292 69.1854 283.047 69.2798 282.758 69.2798Z" fill="#081022"/>
<path d="M287.303 67.8182V78H285.504V67.8182H287.303Z" fill="#081022"/>
<path d="M289.154 78V70.3636H290.954V78H289.154ZM290.059 69.2798C289.774 69.2798 289.529 69.1854 289.323 68.9964C289.118 68.8042 289.015 68.5739 289.015 68.3054C289.015 68.0336 289.118 67.8033 289.323 67.6143C289.529 67.4221 289.774 67.326 290.059 67.326C290.347 67.326 290.593 67.4221 290.795 67.6143C291 67.8033 291.103 68.0336 291.103 68.3054C291.103 68.5739 291 68.8042 290.795 68.9964C290.593 69.1854 290.347 69.2798 290.059 69.2798Z" fill="#081022"/>
<path d="M296.618 70.3636V71.7557H292.228V70.3636H296.618ZM293.312 68.5341H295.111V75.7031C295.111 75.9451 295.148 76.1307 295.221 76.2599C295.297 76.3859 295.396 76.4721 295.519 76.5185C295.642 76.5649 295.778 76.5881 295.927 76.5881C296.039 76.5881 296.142 76.5798 296.235 76.5632C296.331 76.5466 296.404 76.5317 296.454 76.5185L296.757 77.9254C296.661 77.9586 296.523 77.995 296.344 78.0348C296.169 78.0746 295.953 78.0978 295.698 78.1044C295.247 78.1177 294.841 78.0497 294.48 77.9006C294.119 77.7481 293.832 77.5128 293.62 77.1946C293.411 76.8764 293.308 76.4787 293.312 76.0014V68.5341Z" fill="#081022"/>
<path d="M299.241 80.8636C298.996 80.8636 298.769 80.8437 298.56 80.804C298.355 80.7675 298.191 80.7244 298.068 80.6747L298.486 79.2727C298.748 79.349 298.981 79.3854 299.187 79.3821C299.392 79.3788 299.573 79.3142 299.729 79.1882C299.888 79.0656 300.022 78.8601 300.131 78.5717L300.286 78.1591L297.516 70.3636H299.425L301.185 76.1307H301.265L303.03 70.3636H304.944L301.886 78.9247C301.744 79.3291 301.555 79.6754 301.32 79.9638C301.084 80.2554 300.796 80.4775 300.455 80.63C300.116 80.7857 299.712 80.8636 299.241 80.8636Z" fill="#081022"/>
<path d="M268.656 388.735H266.93C266.881 388.452 266.79 388.201 266.658 387.983C266.525 387.761 266.361 387.574 266.164 387.42C265.967 387.266 265.742 387.15 265.49 387.074C265.24 386.993 264.971 386.953 264.682 386.953C264.168 386.953 263.712 387.083 263.315 387.341C262.918 387.597 262.607 387.972 262.383 388.468C262.158 388.96 262.046 389.562 262.046 390.273C262.046 390.996 262.158 391.605 262.383 392.101C262.61 392.593 262.921 392.966 263.315 393.218C263.712 393.467 264.166 393.592 264.677 393.592C264.96 393.592 265.225 393.555 265.471 393.481C265.72 393.404 265.944 393.292 266.141 393.144C266.341 392.996 266.508 392.815 266.644 392.599C266.782 392.384 266.878 392.138 266.93 391.861L268.656 391.87C268.592 392.319 268.452 392.741 268.236 393.135C268.024 393.529 267.746 393.877 267.401 394.178C267.056 394.477 266.653 394.711 266.191 394.88C265.73 395.046 265.217 395.129 264.654 395.129C263.823 395.129 263.081 394.937 262.429 394.552C261.776 394.168 261.262 393.612 260.887 392.886C260.511 392.159 260.324 391.288 260.324 390.273C260.324 389.254 260.513 388.383 260.892 387.66C261.27 386.933 261.786 386.378 262.438 385.993C263.091 385.609 263.829 385.416 264.654 385.416C265.18 385.416 265.67 385.49 266.122 385.638C266.574 385.786 266.978 386.002 267.332 386.289C267.685 386.572 267.976 386.92 268.204 387.332C268.435 387.741 268.586 388.209 268.656 388.735Z" fill="#081022"/>
<path d="M273.244 395.138C272.552 395.138 271.952 394.986 271.444 394.681C270.936 394.377 270.542 393.951 270.262 393.403C269.985 392.855 269.846 392.215 269.846 391.482C269.846 390.75 269.985 390.108 270.262 389.557C270.542 389.006 270.936 388.578 271.444 388.274C271.952 387.969 272.552 387.817 273.244 387.817C273.937 387.817 274.537 387.969 275.045 388.274C275.552 388.578 275.945 389.006 276.222 389.557C276.502 390.108 276.642 390.75 276.642 391.482C276.642 392.215 276.502 392.855 276.222 393.403C275.945 393.951 275.552 394.377 275.045 394.681C274.537 394.986 273.937 395.138 273.244 395.138ZM273.253 393.8C273.629 393.8 273.943 393.697 274.195 393.49C274.447 393.281 274.635 393.001 274.758 392.65C274.885 392.299 274.948 391.909 274.948 391.478C274.948 391.044 274.885 390.651 274.758 390.3C274.635 389.946 274.447 389.665 274.195 389.456C273.943 389.246 273.629 389.142 273.253 389.142C272.869 389.142 272.549 389.246 272.293 389.456C272.041 389.665 271.851 389.946 271.725 390.3C271.602 390.651 271.541 391.044 271.541 391.478C271.541 391.909 271.602 392.299 271.725 392.65C271.851 393.001 272.041 393.281 272.293 393.49C272.549 393.697 272.869 393.8 273.253 393.8Z" fill="#081022"/>
<path d="M278.06 395V387.909H279.658V389.114H279.741C279.888 388.708 280.133 388.391 280.475 388.163C280.816 387.932 281.224 387.817 281.698 387.817C282.178 387.817 282.583 387.934 282.912 388.168C283.245 388.398 283.478 388.714 283.614 389.114H283.688C283.845 388.72 284.109 388.406 284.482 388.172C284.857 387.935 285.302 387.817 285.816 387.817C286.468 387.817 287.001 388.023 287.413 388.435C287.826 388.848 288.032 389.449 288.032 390.24V395H286.356V390.499C286.356 390.059 286.239 389.737 286.005 389.534C285.771 389.328 285.485 389.225 285.147 389.225C284.743 389.225 284.428 389.351 284.2 389.603C283.975 389.853 283.863 390.177 283.863 390.577V395H282.224V390.43C282.224 390.063 282.114 389.771 281.892 389.553C281.673 389.334 281.387 389.225 281.033 389.225C280.793 389.225 280.575 389.286 280.378 389.409C280.181 389.529 280.024 389.7 279.907 389.922C279.79 390.14 279.731 390.396 279.731 390.688V395H278.06Z" fill="#081022"/>
<path d="M289.727 397.659V387.909H291.371V389.082H291.468C291.554 388.909 291.675 388.726 291.832 388.532C291.989 388.335 292.202 388.168 292.469 388.029C292.737 387.888 293.079 387.817 293.494 387.817C294.042 387.817 294.536 387.957 294.976 388.237C295.419 388.514 295.77 388.925 296.029 389.469C296.29 390.011 296.421 390.676 296.421 391.464C296.421 392.242 296.293 392.904 296.038 393.449C295.783 393.994 295.435 394.409 294.995 394.695C294.555 394.982 294.056 395.125 293.499 395.125C293.093 395.125 292.756 395.057 292.488 394.922C292.22 394.786 292.005 394.623 291.842 394.432C291.682 394.238 291.557 394.055 291.468 393.883H291.398V397.659H289.727ZM291.366 391.455C291.366 391.913 291.431 392.315 291.56 392.659C291.692 393.004 291.882 393.273 292.128 393.467C292.377 393.658 292.679 393.754 293.033 393.754C293.402 393.754 293.711 393.655 293.961 393.458C294.21 393.258 294.398 392.986 294.524 392.641C294.653 392.293 294.718 391.898 294.718 391.455C294.718 391.014 294.655 390.624 294.528 390.282C294.402 389.94 294.214 389.673 293.965 389.479C293.716 389.285 293.405 389.188 293.033 389.188C292.676 389.188 292.372 389.282 292.123 389.469C291.874 389.657 291.685 389.92 291.555 390.259C291.429 390.597 291.366 390.996 291.366 391.455Z" fill="#081022"/>
<path d="M299.523 385.545V395H297.852V385.545H299.523Z" fill="#081022"/>
<path d="M301.242 395V387.909H302.913V395H301.242ZM302.082 386.903C301.817 386.903 301.59 386.815 301.399 386.64C301.208 386.461 301.113 386.247 301.113 385.998C301.113 385.745 301.208 385.532 301.399 385.356C301.59 385.178 301.817 385.088 302.082 385.088C302.35 385.088 302.578 385.178 302.765 385.356C302.956 385.532 303.052 385.745 303.052 385.998C303.052 386.247 302.956 386.461 302.765 386.64C302.578 386.815 302.35 386.903 302.082 386.903Z" fill="#081022"/>
<path d="M306.672 395.143C306.223 395.143 305.818 395.063 305.458 394.903C305.101 394.74 304.818 394.5 304.608 394.183C304.402 393.866 304.299 393.475 304.299 393.01C304.299 392.61 304.373 392.279 304.521 392.018C304.668 391.756 304.87 391.547 305.126 391.39C305.381 391.233 305.669 391.114 305.989 391.034C306.312 390.951 306.646 390.891 306.991 390.854C307.406 390.811 307.743 390.773 308.002 390.739C308.26 390.702 308.448 390.647 308.565 390.573C308.685 390.496 308.745 390.377 308.745 390.217V390.19C308.745 389.842 308.642 389.573 308.436 389.382C308.229 389.191 307.932 389.096 307.545 389.096C307.135 389.096 306.811 389.185 306.57 389.363C306.333 389.542 306.173 389.753 306.09 389.996L304.53 389.774C304.653 389.343 304.856 388.983 305.139 388.694C305.423 388.402 305.769 388.183 306.178 388.038C306.587 387.891 307.04 387.817 307.535 387.817C307.877 387.817 308.217 387.857 308.556 387.937C308.894 388.017 309.203 388.149 309.483 388.334C309.764 388.515 309.988 388.763 310.157 389.077C310.33 389.391 310.416 389.783 310.416 390.254V395H308.809V394.026H308.754C308.652 394.223 308.509 394.408 308.325 394.58C308.143 394.749 307.914 394.886 307.637 394.991C307.363 395.092 307.041 395.143 306.672 395.143ZM307.106 393.915C307.441 393.915 307.732 393.849 307.978 393.717C308.225 393.581 308.414 393.403 308.546 393.181C308.682 392.96 308.749 392.718 308.749 392.456V391.621C308.697 391.664 308.608 391.704 308.482 391.741C308.359 391.778 308.22 391.81 308.066 391.838C307.912 391.865 307.76 391.89 307.609 391.912C307.458 391.933 307.328 391.952 307.217 391.967C306.967 392.001 306.744 392.056 306.547 392.133C306.35 392.21 306.195 392.318 306.081 392.456C305.967 392.592 305.91 392.767 305.91 392.983C305.91 393.29 306.023 393.523 306.247 393.68C306.472 393.837 306.758 393.915 307.106 393.915Z" fill="#081022"/>
<path d="M313.768 390.845V395H312.096V387.909H313.694V389.114H313.777C313.94 388.717 314.2 388.402 314.557 388.168C314.917 387.934 315.362 387.817 315.891 387.817C316.38 387.817 316.807 387.921 317.17 388.131C317.536 388.34 317.819 388.643 318.019 389.04C318.222 389.437 318.322 389.919 318.319 390.485V395H316.648V390.744C316.648 390.27 316.525 389.899 316.279 389.631C316.036 389.363 315.699 389.229 315.268 389.229C314.976 389.229 314.715 389.294 314.488 389.423C314.263 389.549 314.086 389.733 313.957 389.973C313.831 390.213 313.768 390.504 313.768 390.845Z" fill="#081022"/>
<path d="M323.111 395.138C322.403 395.138 321.796 394.983 321.288 394.672C320.783 394.361 320.394 393.932 320.12 393.384C319.849 392.833 319.714 392.199 319.714 391.482C319.714 390.762 319.852 390.127 320.129 389.576C320.406 389.022 320.797 388.591 321.302 388.283C321.809 387.972 322.41 387.817 323.102 387.817C323.678 387.817 324.187 387.923 324.63 388.135C325.076 388.345 325.432 388.642 325.697 389.026C325.961 389.408 326.112 389.854 326.149 390.365H324.552C324.487 390.023 324.333 389.739 324.09 389.511C323.85 389.28 323.528 389.165 323.125 389.165C322.784 389.165 322.483 389.257 322.225 389.442C321.966 389.623 321.765 389.885 321.62 390.227C321.479 390.568 321.408 390.978 321.408 391.455C321.408 391.938 321.479 392.353 321.62 392.701C321.762 393.046 321.96 393.312 322.216 393.5C322.474 393.684 322.777 393.777 323.125 393.777C323.371 393.777 323.591 393.73 323.785 393.638C323.982 393.543 324.147 393.406 324.279 393.227C324.412 393.049 324.502 392.832 324.552 392.576H326.149C326.109 393.078 325.961 393.523 325.706 393.911C325.45 394.295 325.103 394.597 324.662 394.815C324.222 395.031 323.705 395.138 323.111 395.138Z" fill="#081022"/>
<path d="M330.66 395.138C329.949 395.138 329.335 394.991 328.818 394.695C328.304 394.397 327.909 393.975 327.632 393.43C327.355 392.883 327.217 392.238 327.217 391.496C327.217 390.767 327.355 390.127 327.632 389.576C327.912 389.022 328.303 388.591 328.805 388.283C329.306 387.972 329.896 387.817 330.573 387.817C331.01 387.817 331.422 387.888 331.81 388.029C332.201 388.168 332.545 388.383 332.844 388.675C333.146 388.968 333.383 389.34 333.555 389.793C333.727 390.242 333.813 390.777 333.813 391.399V391.912H328.001V390.785H332.212C332.208 390.465 332.139 390.18 332.004 389.931C331.868 389.679 331.679 389.48 331.436 389.336C331.196 389.191 330.916 389.119 330.596 389.119C330.254 389.119 329.954 389.202 329.696 389.368C329.437 389.531 329.235 389.746 329.091 390.014C328.949 390.279 328.877 390.57 328.874 390.887V391.87C328.874 392.282 328.949 392.636 329.1 392.932C329.251 393.224 329.462 393.449 329.732 393.606C330.003 393.76 330.32 393.837 330.683 393.837C330.927 393.837 331.147 393.803 331.344 393.735C331.541 393.664 331.711 393.561 331.856 393.426C332.001 393.29 332.11 393.123 332.184 392.923L333.744 393.098C333.646 393.51 333.458 393.87 333.181 394.178C332.907 394.483 332.556 394.72 332.128 394.889C331.701 395.055 331.211 395.138 330.66 395.138Z" fill="#081022"/>
<path d="M90.89 374.273V383H89.4838L85.3716 377.055H85.2991V383H83.7181V374.273H85.1329L89.2409 380.222H89.3176V374.273H90.89Z" fill="#081022"/>
<path d="M94.428 383.132C94.0133 383.132 93.6397 383.058 93.3073 382.91C92.9777 382.76 92.7164 382.538 92.5232 382.246C92.3329 381.953 92.2377 381.592 92.2377 381.163C92.2377 380.794 92.3059 380.489 92.4422 380.247C92.5786 380.006 92.7647 379.812 93.0005 379.668C93.2363 379.523 93.5019 379.413 93.7973 379.339C94.0956 379.263 94.4039 379.207 94.7221 379.173C95.1056 379.134 95.4167 379.098 95.6553 379.067C95.8939 379.033 96.0672 378.982 96.1752 378.913C96.286 378.842 96.3414 378.733 96.3414 378.585V378.56C96.3414 378.239 96.2462 377.99 96.0559 377.814C95.8655 377.638 95.5914 377.55 95.2334 377.55C94.8556 377.55 94.5559 377.632 94.3343 377.797C94.1155 377.962 93.9678 378.156 93.8911 378.381L92.4508 378.176C92.5644 377.778 92.7519 377.446 93.0133 377.179C93.2746 376.909 93.5942 376.707 93.9721 376.574C94.3499 376.437 94.7675 376.369 95.2249 376.369C95.5402 376.369 95.8542 376.406 96.1667 376.48C96.4792 376.554 96.7647 376.676 97.0232 376.847C97.2817 377.014 97.4891 377.243 97.6454 377.533C97.8044 377.822 97.884 378.185 97.884 378.619V383H96.401V382.101H96.3499C96.2561 382.283 96.124 382.453 95.9536 382.612C95.786 382.768 95.5743 382.895 95.3186 382.991C95.0658 383.085 94.7689 383.132 94.428 383.132ZM94.8286 381.999C95.1382 381.999 95.4067 381.937 95.634 381.815C95.8613 381.69 96.036 381.526 96.1581 381.321C96.2831 381.116 96.3456 380.893 96.3456 380.652V379.881C96.2973 379.92 96.215 379.957 96.0985 379.991C95.9848 380.026 95.857 380.055 95.715 380.081C95.5729 380.107 95.4323 380.129 95.2931 380.149C95.1539 380.169 95.0331 380.186 94.9309 380.2C94.7007 380.232 94.4948 380.283 94.313 380.354C94.1311 380.425 93.9877 380.524 93.8826 380.652C93.7775 380.777 93.7249 380.939 93.7249 381.138C93.7249 381.422 93.8286 381.636 94.036 381.781C94.2434 381.926 94.5076 381.999 94.8286 381.999Z" fill="#081022"/>
<path d="M105.047 376.455L102.716 383H101.012L98.6809 376.455H100.326L101.83 381.317H101.898L103.407 376.455H105.047Z" fill="#081022"/>
<path d="M106.115 383V376.455H107.657V383H106.115ZM106.89 375.526C106.646 375.526 106.436 375.445 106.26 375.283C106.084 375.118 105.995 374.92 105.995 374.69C105.995 374.457 106.084 374.26 106.26 374.098C106.436 373.933 106.646 373.851 106.89 373.851C107.138 373.851 107.348 373.933 107.521 374.098C107.697 374.26 107.785 374.457 107.785 374.69C107.785 374.92 107.697 375.118 107.521 375.283C107.348 375.445 107.138 375.526 106.89 375.526Z" fill="#081022"/>
<path d="M112.09 385.591C111.536 385.591 111.06 385.516 110.663 385.365C110.265 385.217 109.945 385.018 109.704 384.768C109.462 384.518 109.295 384.241 109.201 383.938L110.59 383.601C110.653 383.729 110.744 383.855 110.863 383.98C110.982 384.108 111.143 384.213 111.345 384.295C111.549 384.381 111.806 384.423 112.116 384.423C112.553 384.423 112.916 384.317 113.203 384.104C113.489 383.893 113.633 383.547 113.633 383.064V381.824H113.556C113.477 381.983 113.36 382.146 113.207 382.314C113.056 382.482 112.856 382.622 112.606 382.736C112.359 382.849 112.048 382.906 111.673 382.906C111.17 382.906 110.714 382.788 110.305 382.553C109.899 382.314 109.575 381.959 109.333 381.487C109.095 381.013 108.975 380.419 108.975 379.706C108.975 378.987 109.095 378.381 109.333 377.886C109.575 377.389 109.9 377.013 110.309 376.757C110.718 376.499 111.174 376.369 111.677 376.369C112.06 376.369 112.376 376.435 112.623 376.565C112.873 376.693 113.072 376.848 113.22 377.03C113.367 377.209 113.48 377.378 113.556 377.537H113.641V376.455H115.163V383.107C115.163 383.666 115.029 384.129 114.762 384.496C114.495 384.862 114.13 385.136 113.667 385.318C113.204 385.5 112.678 385.591 112.09 385.591ZM112.103 381.696C112.43 381.696 112.708 381.616 112.938 381.457C113.168 381.298 113.343 381.07 113.462 380.771C113.582 380.473 113.641 380.115 113.641 379.697C113.641 379.286 113.582 378.925 113.462 378.615C113.346 378.305 113.173 378.065 112.943 377.895C112.715 377.722 112.435 377.635 112.103 377.635C111.759 377.635 111.472 377.724 111.242 377.903C111.012 378.082 110.839 378.328 110.722 378.641C110.606 378.95 110.548 379.303 110.548 379.697C110.548 380.098 110.606 380.449 110.722 380.75C110.842 381.048 111.016 381.281 111.247 381.449C111.48 381.614 111.765 381.696 112.103 381.696Z" fill="#081022"/>
<path d="M118.627 383.132C118.212 383.132 117.839 383.058 117.507 382.91C117.177 382.76 116.916 382.538 116.722 382.246C116.532 381.953 116.437 381.592 116.437 381.163C116.437 380.794 116.505 380.489 116.641 380.247C116.778 380.006 116.964 379.812 117.2 379.668C117.435 379.523 117.701 379.413 117.997 379.339C118.295 379.263 118.603 379.207 118.921 379.173C119.305 379.134 119.616 379.098 119.855 379.067C120.093 379.033 120.266 378.982 120.374 378.913C120.485 378.842 120.541 378.733 120.541 378.585V378.56C120.541 378.239 120.445 377.99 120.255 377.814C120.065 377.638 119.791 377.55 119.433 377.55C119.055 377.55 118.755 377.632 118.533 377.797C118.315 377.962 118.167 378.156 118.09 378.381L116.65 378.176C116.764 377.778 116.951 377.446 117.212 377.179C117.474 376.909 117.793 376.707 118.171 376.574C118.549 376.437 118.967 376.369 119.424 376.369C119.739 376.369 120.053 376.406 120.366 376.48C120.678 376.554 120.964 376.676 121.222 376.847C121.481 377.014 121.688 377.243 121.845 377.533C122.004 377.822 122.083 378.185 122.083 378.619V383H120.6V382.101H120.549C120.455 382.283 120.323 382.453 120.153 382.612C119.985 382.768 119.774 382.895 119.518 382.991C119.265 383.085 118.968 383.132 118.627 383.132ZM119.028 381.999C119.337 381.999 119.606 381.937 119.833 381.815C120.06 381.69 120.235 381.526 120.357 381.321C120.482 381.116 120.545 380.893 120.545 380.652V379.881C120.497 379.92 120.414 379.957 120.298 379.991C120.184 380.026 120.056 380.055 119.914 380.081C119.772 380.107 119.632 380.129 119.492 380.149C119.353 380.169 119.232 380.186 119.13 380.2C118.9 380.232 118.694 380.283 118.512 380.354C118.33 380.425 118.187 380.524 118.082 380.652C117.977 380.777 117.924 380.939 117.924 381.138C117.924 381.422 118.028 381.636 118.235 381.781C118.443 381.926 118.707 381.999 119.028 381.999Z" fill="#081022"/>
<path d="M126.903 376.455V377.648H123.14V376.455H126.903ZM124.069 374.886H125.612V381.031C125.612 381.239 125.643 381.398 125.705 381.509C125.771 381.616 125.856 381.69 125.961 381.73C126.066 381.77 126.183 381.79 126.31 381.79C126.407 381.79 126.495 381.783 126.575 381.768C126.657 381.754 126.72 381.741 126.762 381.73L127.022 382.936C126.94 382.964 126.822 382.996 126.668 383.03C126.518 383.064 126.333 383.084 126.114 383.089C125.728 383.101 125.38 383.043 125.07 382.915C124.761 382.784 124.515 382.582 124.333 382.31C124.154 382.037 124.066 381.696 124.069 381.287V374.886Z" fill="#081022"/>
<path d="M128.193 383V376.455H129.736V383H128.193ZM128.969 375.526C128.724 375.526 128.514 375.445 128.338 375.283C128.162 375.118 128.074 374.92 128.074 374.69C128.074 374.457 128.162 374.26 128.338 374.098C128.514 373.933 128.724 373.851 128.969 373.851C129.216 373.851 129.426 373.933 129.599 374.098C129.775 374.26 129.863 374.457 129.863 374.69C129.863 374.92 129.775 375.118 129.599 375.283C129.426 375.445 129.216 375.526 128.969 375.526Z" fill="#081022"/>
<path d="M134.177 383.128C133.538 383.128 132.984 382.987 132.515 382.706C132.046 382.425 131.683 382.031 131.424 381.526C131.168 381.02 131.041 380.429 131.041 379.753C131.041 379.077 131.168 378.484 131.424 377.976C131.683 377.467 132.046 377.072 132.515 376.791C132.984 376.51 133.538 376.369 134.177 376.369C134.816 376.369 135.37 376.51 135.839 376.791C136.308 377.072 136.67 377.467 136.926 377.976C137.184 378.484 137.313 379.077 137.313 379.753C137.313 380.429 137.184 381.02 136.926 381.526C136.67 382.031 136.308 382.425 135.839 382.706C135.37 382.987 134.816 383.128 134.177 383.128ZM134.185 381.892C134.532 381.892 134.822 381.797 135.055 381.607C135.288 381.413 135.461 381.155 135.575 380.831C135.691 380.507 135.749 380.146 135.749 379.749C135.749 379.348 135.691 378.986 135.575 378.662C135.461 378.335 135.288 378.075 135.055 377.882C134.822 377.689 134.532 377.592 134.185 377.592C133.83 377.592 133.535 377.689 133.299 377.882C133.066 378.075 132.891 378.335 132.775 378.662C132.661 378.986 132.605 379.348 132.605 379.749C132.605 380.146 132.661 380.507 132.775 380.831C132.891 381.155 133.066 381.413 133.299 381.607C133.535 381.797 133.83 381.892 134.185 381.892Z" fill="#081022"/>
<path d="M140.165 379.165V383H138.623V376.455H140.097V377.567H140.174C140.324 377.2 140.564 376.909 140.894 376.693C141.226 376.477 141.637 376.369 142.125 376.369C142.577 376.369 142.971 376.466 143.306 376.659C143.644 376.852 143.905 377.132 144.09 377.499C144.277 377.865 144.37 378.31 144.367 378.832V383H142.824V379.071C142.824 378.634 142.711 378.291 142.483 378.044C142.259 377.797 141.948 377.673 141.55 377.673C141.28 377.673 141.04 377.733 140.83 377.852C140.623 377.969 140.459 378.138 140.34 378.359C140.223 378.581 140.165 378.849 140.165 379.165Z" fill="#081022"/>
<path d="M350.3 145.254H348.441C348.388 144.949 348.29 144.678 348.148 144.443C348.005 144.205 347.828 144.002 347.616 143.837C347.404 143.671 347.162 143.547 346.89 143.464C346.621 143.378 346.331 143.335 346.02 143.335C345.466 143.335 344.976 143.474 344.548 143.752C344.121 144.027 343.786 144.432 343.544 144.965C343.302 145.495 343.181 146.143 343.181 146.909C343.181 147.688 343.302 148.344 343.544 148.878C343.789 149.408 344.124 149.809 344.548 150.081C344.976 150.349 345.465 150.484 346.015 150.484C346.32 150.484 346.605 150.444 346.87 150.364C347.139 150.281 347.379 150.161 347.591 150.001C347.806 149.842 347.987 149.647 348.133 149.415C348.282 149.183 348.385 148.918 348.441 148.619L350.3 148.629C350.231 149.113 350.08 149.567 349.848 149.991C349.619 150.416 349.319 150.79 348.948 151.115C348.577 151.437 348.143 151.688 347.646 151.871C347.148 152.05 346.597 152.139 345.99 152.139C345.095 152.139 344.296 151.932 343.594 151.518C342.891 151.103 342.338 150.505 341.933 149.723C341.529 148.941 341.327 148.003 341.327 146.909C341.327 145.812 341.531 144.874 341.938 144.095C342.346 143.313 342.901 142.715 343.604 142.3C344.306 141.886 345.102 141.679 345.99 141.679C346.557 141.679 347.084 141.759 347.571 141.918C348.058 142.077 348.492 142.31 348.874 142.619C349.255 142.924 349.568 143.298 349.813 143.742C350.062 144.183 350.224 144.687 350.3 145.254Z" fill="#081022"/>
<path d="M355.241 152.149C354.495 152.149 353.849 151.985 353.302 151.657C352.755 151.329 352.331 150.87 352.029 150.28C351.731 149.69 351.582 149 351.582 148.212C351.582 147.423 351.731 146.732 352.029 146.138C352.331 145.545 352.755 145.085 353.302 144.756C353.849 144.428 354.495 144.264 355.241 144.264C355.987 144.264 356.633 144.428 357.18 144.756C357.727 145.085 358.149 145.545 358.448 146.138C358.749 146.732 358.9 147.423 358.9 148.212C358.9 149 358.749 149.69 358.448 150.28C358.149 150.87 357.727 151.329 357.18 151.657C356.633 151.985 355.987 152.149 355.241 152.149ZM355.251 150.707C355.655 150.707 355.993 150.596 356.265 150.374C356.537 150.149 356.739 149.847 356.872 149.469C357.008 149.092 357.075 148.671 357.075 148.207C357.075 147.739 357.008 147.317 356.872 146.939C356.739 146.558 356.537 146.254 356.265 146.029C355.993 145.804 355.655 145.691 355.251 145.691C354.837 145.691 354.492 145.804 354.217 146.029C353.945 146.254 353.741 146.558 353.605 146.939C353.473 147.317 353.406 147.739 353.406 148.207C353.406 148.671 353.473 149.092 353.605 149.469C353.741 149.847 353.945 150.149 354.217 150.374C354.492 150.596 354.837 150.707 355.251 150.707Z" fill="#081022"/>
<path d="M362.227 147.526V152H360.428V144.364H362.148V145.661H362.237C362.413 145.234 362.693 144.894 363.077 144.642C363.465 144.39 363.944 144.264 364.514 144.264C365.041 144.264 365.5 144.377 365.891 144.602C366.286 144.828 366.591 145.154 366.806 145.582C367.025 146.009 367.133 146.528 367.129 147.138V152H365.33V147.416C365.33 146.906 365.197 146.506 364.932 146.218C364.67 145.93 364.307 145.786 363.843 145.786C363.528 145.786 363.248 145.855 363.003 145.994C362.761 146.13 362.57 146.327 362.431 146.586C362.295 146.844 362.227 147.158 362.227 147.526Z" fill="#081022"/>
<path d="M372.772 144.364V145.756H368.382V144.364H372.772ZM369.466 142.534H371.266V149.703C371.266 149.945 371.302 150.131 371.375 150.26C371.451 150.386 371.551 150.472 371.673 150.518C371.796 150.565 371.932 150.588 372.081 150.588C372.194 150.588 372.296 150.58 372.389 150.563C372.485 150.547 372.558 150.532 372.608 150.518L372.911 151.925C372.815 151.959 372.678 151.995 372.499 152.035C372.323 152.075 372.108 152.098 371.852 152.104C371.402 152.118 370.996 152.05 370.634 151.901C370.273 151.748 369.986 151.513 369.774 151.195C369.565 150.876 369.463 150.479 369.466 150.001V142.534Z" fill="#081022"/>
<path d="M377.576 152.149C376.81 152.149 376.149 151.99 375.592 151.672C375.039 151.35 374.613 150.896 374.314 150.31C374.016 149.72 373.867 149.025 373.867 148.227C373.867 147.441 374.016 146.752 374.314 146.158C374.616 145.562 375.037 145.098 375.577 144.766C376.118 144.432 376.752 144.264 377.481 144.264C377.952 144.264 378.396 144.34 378.814 144.493C379.235 144.642 379.606 144.874 379.927 145.189C380.252 145.504 380.507 145.905 380.693 146.392C380.879 146.876 380.971 147.453 380.971 148.122V148.674H374.712V147.461H379.246C379.243 147.116 379.168 146.81 379.023 146.541C378.877 146.269 378.673 146.056 378.411 145.9C378.153 145.744 377.851 145.666 377.506 145.666C377.138 145.666 376.815 145.756 376.537 145.935C376.258 146.11 376.041 146.342 375.885 146.631C375.733 146.916 375.655 147.229 375.652 147.57V148.629C375.652 149.073 375.733 149.455 375.895 149.773C376.058 150.088 376.285 150.33 376.577 150.499C376.868 150.664 377.21 150.747 377.601 150.747C377.863 150.747 378.1 150.711 378.312 150.638C378.524 150.562 378.708 150.451 378.863 150.305C379.019 150.159 379.137 149.978 379.216 149.763L380.897 149.952C380.791 150.396 380.589 150.784 380.29 151.115C379.995 151.443 379.617 151.698 379.157 151.881C378.696 152.06 378.169 152.149 377.576 152.149Z" fill="#081022"/>
<path d="M384.294 147.526V152H382.494V144.364H384.214V145.661H384.304C384.479 145.234 384.759 144.894 385.144 144.642C385.532 144.39 386.011 144.264 386.581 144.264C387.108 144.264 387.567 144.377 387.958 144.602C388.352 144.828 388.657 145.154 388.873 145.582C389.091 146.009 389.199 146.528 389.196 147.138V152H387.396V147.416C387.396 146.906 387.263 146.506 386.998 146.218C386.736 145.93 386.373 145.786 385.909 145.786C385.595 145.786 385.315 145.855 385.069 145.994C384.827 146.13 384.637 146.327 384.498 146.586C384.362 146.844 384.294 147.158 384.294 147.526Z" fill="#081022"/>
<path d="M394.838 144.364V145.756H390.449V144.364H394.838ZM391.532 142.534H393.332V149.703C393.332 149.945 393.369 150.131 393.441 150.26C393.518 150.386 393.617 150.472 393.74 150.518C393.862 150.565 393.998 150.588 394.147 150.588C394.26 150.588 394.363 150.58 394.456 150.563C394.552 150.547 394.625 150.532 394.674 150.518L394.978 151.925C394.882 151.959 394.744 151.995 394.565 152.035C394.389 152.075 394.174 152.098 393.919 152.104C393.468 152.118 393.062 152.05 392.701 151.901C392.339 151.748 392.053 151.513 391.841 151.195C391.632 150.876 391.529 150.479 391.532 150.001V142.534Z" fill="#081022"/>
<path d="M363.616 279.545H367.485L372.667 292.193H372.872L378.054 279.545H381.923V297H378.889V285.009H378.727L373.903 296.949H371.636L366.812 284.983H366.65V297H363.616V279.545Z" fill="#081022"/>
<path d="M390.94 297.256C389.662 297.256 388.554 296.974 387.616 296.412C386.679 295.849 385.951 295.062 385.434 294.051C384.923 293.04 384.667 291.858 384.667 290.506C384.667 289.153 384.923 287.969 385.434 286.952C385.951 285.935 386.679 285.145 387.616 284.582C388.554 284.02 389.662 283.739 390.94 283.739C392.218 283.739 393.326 284.02 394.264 284.582C395.201 285.145 395.926 285.935 396.437 286.952C396.954 287.969 397.213 289.153 397.213 290.506C397.213 291.858 396.954 293.04 396.437 294.051C395.926 295.062 395.201 295.849 394.264 296.412C393.326 296.974 392.218 297.256 390.94 297.256ZM390.957 294.784C391.65 294.784 392.23 294.594 392.696 294.213C393.161 293.827 393.508 293.31 393.735 292.662C393.968 292.014 394.085 291.293 394.085 290.497C394.085 289.696 393.968 288.972 393.735 288.324C393.508 287.67 393.161 287.151 392.696 286.764C392.23 286.378 391.65 286.185 390.957 286.185C390.247 286.185 389.656 286.378 389.184 286.764C388.718 287.151 388.369 287.67 388.136 288.324C387.909 288.972 387.795 289.696 387.795 290.497C387.795 291.293 387.909 292.014 388.136 292.662C388.369 293.31 388.718 293.827 389.184 294.213C389.656 294.594 390.247 294.784 390.957 294.784Z" fill="#081022"/>
<path d="M399.968 297V279.545H403.053V286.074H403.181C403.34 285.756 403.564 285.418 403.854 285.06C404.144 284.696 404.536 284.386 405.03 284.131C405.524 283.869 406.155 283.739 406.922 283.739C407.934 283.739 408.845 283.997 409.658 284.514C410.476 285.026 411.124 285.784 411.601 286.79C412.084 287.79 412.326 289.017 412.326 290.472C412.326 291.909 412.09 293.131 411.618 294.136C411.147 295.142 410.505 295.909 409.692 296.438C408.88 296.966 407.959 297.23 406.931 297.23C406.181 297.23 405.559 297.105 405.064 296.855C404.57 296.605 404.172 296.304 403.871 295.952C403.576 295.594 403.345 295.256 403.181 294.938H403.002V297H399.968ZM402.993 290.455C402.993 291.301 403.112 292.043 403.351 292.679C403.595 293.315 403.945 293.813 404.399 294.17C404.86 294.523 405.416 294.699 406.07 294.699C406.752 294.699 407.323 294.517 407.783 294.153C408.243 293.784 408.59 293.281 408.823 292.645C409.061 292.003 409.181 291.273 409.181 290.455C409.181 289.642 409.064 288.92 408.831 288.29C408.598 287.659 408.252 287.165 407.791 286.807C407.331 286.449 406.757 286.27 406.07 286.27C405.411 286.27 404.851 286.443 404.391 286.79C403.931 287.136 403.581 287.622 403.343 288.247C403.11 288.872 402.993 289.608 402.993 290.455Z" fill="#081022"/>
<path d="M414.948 297V283.909H418.034V297H414.948ZM416.5 282.051C416.011 282.051 415.59 281.889 415.238 281.565C414.886 281.236 414.71 280.841 414.71 280.381C414.71 279.915 414.886 279.52 415.238 279.196C415.59 278.866 416.011 278.702 416.5 278.702C416.994 278.702 417.414 278.866 417.761 279.196C418.113 279.52 418.289 279.915 418.289 280.381C418.289 280.841 418.113 281.236 417.761 281.565C417.414 281.889 416.994 282.051 416.5 282.051Z" fill="#081022"/>
<path d="M424.291 279.545V297H421.206V279.545H424.291Z" fill="#081022"/>
<path d="M433.26 297.256C431.947 297.256 430.813 296.983 429.859 296.438C428.91 295.886 428.18 295.108 427.669 294.102C427.157 293.091 426.902 291.901 426.902 290.531C426.902 289.185 427.157 288.003 427.669 286.986C428.186 285.963 428.907 285.168 429.833 284.599C430.76 284.026 431.848 283.739 433.098 283.739C433.904 283.739 434.666 283.869 435.382 284.131C436.103 284.386 436.74 284.784 437.291 285.324C437.848 285.864 438.285 286.551 438.603 287.386C438.921 288.216 439.081 289.205 439.081 290.352V291.298H428.35V289.219H436.123C436.117 288.628 435.99 288.102 435.74 287.642C435.49 287.176 435.14 286.81 434.691 286.543C434.248 286.276 433.731 286.142 433.14 286.142C432.51 286.142 431.956 286.295 431.478 286.602C431.001 286.903 430.629 287.301 430.362 287.795C430.1 288.284 429.967 288.821 429.961 289.406V291.222C429.961 291.983 430.1 292.636 430.379 293.182C430.657 293.722 431.046 294.136 431.546 294.426C432.046 294.71 432.632 294.852 433.302 294.852C433.751 294.852 434.157 294.79 434.521 294.665C434.885 294.534 435.2 294.344 435.467 294.094C435.734 293.844 435.936 293.534 436.072 293.165L438.953 293.489C438.771 294.25 438.424 294.915 437.913 295.483C437.407 296.045 436.76 296.483 435.97 296.795C435.18 297.102 434.277 297.256 433.26 297.256Z" fill="#081022"/>
<path d="M24.5363 244.508C24.4767 243.95 24.2253 243.515 23.7821 243.204C23.3432 242.893 22.7721 242.737 22.069 242.737C21.5747 242.737 21.1507 242.812 20.797 242.961C20.4433 243.11 20.1727 243.312 19.9852 243.568C19.7977 243.824 19.7018 244.116 19.6976 244.444C19.6976 244.717 19.7593 244.953 19.8829 245.153C20.0108 245.354 20.1833 245.524 20.4007 245.665C20.618 245.801 20.8588 245.916 21.123 246.01C21.3872 246.104 21.6535 246.183 21.922 246.246L23.1493 246.553C23.6436 246.668 24.1187 246.824 24.5747 247.02C25.0349 247.216 25.4461 247.463 25.8083 247.761C26.1748 248.06 26.4646 248.42 26.6777 248.842C26.8907 249.263 26.9973 249.758 26.9973 250.325C26.9973 251.092 26.8012 251.767 26.4092 252.351C26.0172 252.93 25.4504 253.384 24.7089 253.712C23.9717 254.036 23.0789 254.198 22.0307 254.198C21.0122 254.198 20.128 254.04 19.378 253.725C18.6322 253.41 18.0484 252.95 17.6265 252.344C17.2089 251.739 16.9831 251.002 16.949 250.133H19.2821C19.3162 250.589 19.4568 250.968 19.7039 251.271C19.9511 251.573 20.2728 251.799 20.6691 251.948C21.0697 252.097 21.5172 252.172 22.0115 252.172C22.5271 252.172 22.9788 252.095 23.3666 251.942C23.7586 251.784 24.0655 251.567 24.287 251.29C24.5086 251.009 24.6216 250.68 24.6258 250.305C24.6216 249.964 24.5214 249.683 24.3254 249.462C24.1294 249.236 23.8545 249.048 23.5008 248.899C23.1514 248.746 22.7423 248.609 22.2735 248.49L20.7842 248.107C19.7061 247.83 18.8538 247.41 18.2274 246.847C17.6052 246.281 17.2941 245.528 17.2941 244.591C17.2941 243.82 17.503 243.144 17.9206 242.565C18.3424 241.985 18.9156 241.535 19.64 241.216C20.3645 240.892 21.1848 240.73 22.101 240.73C23.0299 240.73 23.8439 240.892 24.5427 241.216C25.2459 241.535 25.7977 241.981 26.1983 242.552C26.5988 243.119 26.8055 243.771 26.8183 244.508H24.5363Z" fill="#081022"/>
<path d="M33.3558 254.192C32.3714 254.192 31.5212 253.987 30.8053 253.578C30.0937 253.165 29.5461 252.581 29.1626 251.827C28.7791 251.068 28.5873 250.175 28.5873 249.148C28.5873 248.138 28.7791 247.252 29.1626 246.489C29.5504 245.722 30.0916 245.126 30.7862 244.7C31.4808 244.269 32.2968 244.054 33.2343 244.054C33.8394 244.054 34.4104 244.152 34.9474 244.348C35.4886 244.54 35.9658 244.838 36.3792 245.243C36.7968 245.648 37.1249 246.163 37.3636 246.79C37.6022 247.412 37.7215 248.153 37.7215 249.014V249.724H29.6739V248.164H35.5035C35.4992 247.721 35.4033 247.327 35.2158 246.982C35.0283 246.632 34.7663 246.357 34.4296 246.157C34.0972 245.957 33.7094 245.857 33.2663 245.857C32.7933 245.857 32.3778 245.972 32.0198 246.202C31.6619 246.428 31.3827 246.726 31.1825 247.097C30.9864 247.463 30.8863 247.866 30.882 248.305V249.666C30.882 250.237 30.9864 250.727 31.1952 251.136C31.4041 251.541 31.696 251.852 32.071 252.07C32.446 252.283 32.8849 252.389 33.3877 252.389C33.7244 252.389 34.0291 252.342 34.3018 252.249C34.5745 252.151 34.811 252.008 35.0113 251.82C35.2116 251.633 35.3629 251.401 35.4651 251.124L37.6256 251.366C37.4893 251.937 37.2293 252.436 36.8458 252.862C36.4666 253.284 35.9808 253.612 35.3884 253.847C34.7961 254.077 34.1185 254.192 33.3558 254.192Z" fill="#081022"/>
<path d="M43.9618 254.192C42.9816 254.192 42.14 253.977 41.4369 253.546C40.738 253.116 40.199 252.521 39.8197 251.763C39.4447 251 39.2572 250.122 39.2572 249.129C39.2572 248.132 39.449 247.252 39.8325 246.489C40.216 245.722 40.7572 245.126 41.4561 244.7C42.1592 244.269 42.9902 244.054 43.949 244.054C44.7458 244.054 45.4511 244.201 46.0647 244.495C46.6826 244.785 47.1748 245.196 47.5413 245.729C47.9078 246.257 48.1166 246.875 48.1677 247.582H45.9561C45.8666 247.109 45.6535 246.715 45.3169 246.4C44.9845 246.08 44.5392 245.92 43.9809 245.92C43.5079 245.92 43.0924 246.048 42.7345 246.304C42.3765 246.555 42.0974 246.918 41.8971 247.391C41.7011 247.864 41.6031 248.43 41.6031 249.091C41.6031 249.76 41.7011 250.335 41.8971 250.817C42.0932 251.294 42.368 251.663 42.7217 251.923C43.0797 252.178 43.4994 252.306 43.9809 252.306C44.3218 252.306 44.6265 252.242 44.895 252.114C45.1677 251.982 45.3957 251.793 45.5789 251.545C45.7622 251.298 45.8879 250.998 45.9561 250.644H48.1677C48.1123 251.339 47.9078 251.955 47.5541 252.491C47.2004 253.024 46.7189 253.442 46.1095 253.744C45.5001 254.043 44.7842 254.192 43.9618 254.192Z" fill="#081022"/>
<path d="M56.3256 249.871V244.182H58.6395V254H56.3959V252.255H56.2936C56.072 252.805 55.7077 253.254 55.2006 253.604C54.6977 253.953 54.0777 254.128 53.3405 254.128C52.697 254.128 52.1281 253.985 51.6338 253.7C51.1438 253.41 50.7602 252.99 50.4832 252.44C50.2063 251.886 50.0678 251.217 50.0678 250.433V244.182H52.3817V250.075C52.3817 250.697 52.5521 251.192 52.893 251.558C53.234 251.925 53.6814 252.108 54.2354 252.108C54.5763 252.108 54.9065 252.025 55.2261 251.859C55.5457 251.692 55.8078 251.445 56.0124 251.117C56.2212 250.785 56.3256 250.369 56.3256 249.871Z" fill="#081022"/>
<path d="M61.0189 254V244.182H63.2625V245.818H63.3648C63.5438 245.251 63.8506 244.815 64.2853 244.508C64.7242 244.197 65.2249 244.041 65.7874 244.041C65.9152 244.041 66.058 244.048 66.2157 244.06C66.3776 244.069 66.5118 244.084 66.6184 244.105V246.234C66.5204 246.2 66.3648 246.17 66.1517 246.144C65.9429 246.114 65.7405 246.099 65.5445 246.099C65.1226 246.099 64.7434 246.191 64.4067 246.374C64.0743 246.553 63.8123 246.803 63.6205 247.122C63.4287 247.442 63.3329 247.81 63.3329 248.228V254H61.0189Z" fill="#081022"/>
<path d="M68.1557 254V244.182H70.4696V254H68.1557ZM69.319 242.788C68.9525 242.788 68.6372 242.667 68.373 242.424C68.1088 242.177 67.9767 241.881 67.9767 241.536C67.9767 241.186 68.1088 240.89 68.373 240.647C68.6372 240.4 68.9525 240.276 69.319 240.276C69.6897 240.276 70.0051 240.4 70.265 240.647C70.5292 240.89 70.6613 241.186 70.6613 241.536C70.6613 241.881 70.5292 242.177 70.265 242.424C70.0051 242.667 69.6897 242.788 69.319 242.788Z" fill="#081022"/>
<path d="M77.7517 244.182V245.972H72.1075V244.182H77.7517ZM73.501 241.83H75.8149V251.047C75.8149 251.358 75.8618 251.597 75.9555 251.763C76.0536 251.925 76.1814 252.036 76.3391 252.095C76.4967 252.155 76.6715 252.185 76.8632 252.185C77.0081 252.185 77.1402 252.174 77.2595 252.153C77.3831 252.131 77.4769 252.112 77.5408 252.095L77.9307 253.904C77.8071 253.947 77.6303 253.994 77.4001 254.045C77.1743 254.096 76.8973 254.126 76.5692 254.134C75.9896 254.151 75.4676 254.064 75.0031 253.872C74.5386 253.676 74.17 253.374 73.8973 252.964C73.6288 252.555 73.4967 252.044 73.501 251.43V241.83Z" fill="#081022"/>
<path d="M81.1251 257.682C80.8098 257.682 80.5179 257.656 80.2494 257.605C79.9852 257.558 79.7743 257.503 79.6166 257.439L80.1535 255.636C80.4902 255.734 80.7906 255.781 81.0548 255.777C81.319 255.773 81.5512 255.69 81.7515 255.528C81.9561 255.37 82.1287 255.106 82.2693 254.735L82.4674 254.205L78.9071 244.182H81.3616L83.6244 251.597H83.7267L85.9958 244.182H88.4568L84.5257 255.189C84.3424 255.709 84.0995 256.154 83.797 256.525C83.4944 256.9 83.1237 257.185 82.6848 257.381C82.2501 257.582 81.7302 257.682 81.1251 257.682Z" fill="#081022"/>
<path d="M148.522 264.222V246.768H155.068C156.409 246.768 157.534 247.018 158.443 247.518C159.357 248.018 160.048 248.705 160.514 249.58C160.985 250.449 161.221 251.438 161.221 252.546C161.221 253.665 160.985 254.66 160.514 255.529C160.042 256.398 159.346 257.083 158.426 257.583C157.505 258.077 156.372 258.324 155.025 258.324H150.687V255.725H154.599C155.383 255.725 156.025 255.589 156.525 255.316C157.025 255.043 157.394 254.668 157.633 254.191C157.877 253.714 158 253.165 158 252.546C158 251.927 157.877 251.381 157.633 250.91C157.394 250.438 157.022 250.072 156.517 249.81C156.017 249.543 155.372 249.41 154.582 249.41H151.684V264.222H148.522Z" fill="#081022"/>
<path d="M169.439 264.478C168.127 264.478 166.993 264.205 166.039 263.66C165.09 263.109 164.36 262.33 163.848 261.324C163.337 260.313 163.081 259.123 163.081 257.753C163.081 256.407 163.337 255.225 163.848 254.208C164.365 253.185 165.087 252.39 166.013 251.822C166.939 251.248 168.027 250.961 169.277 250.961C170.084 250.961 170.845 251.092 171.561 251.353C172.283 251.609 172.919 252.006 173.47 252.546C174.027 253.086 174.465 253.773 174.783 254.609C175.101 255.438 175.26 256.427 175.26 257.574V258.521H164.53V256.441H172.303C172.297 255.85 172.169 255.324 171.919 254.864C171.669 254.398 171.32 254.032 170.871 253.765C170.428 253.498 169.911 253.364 169.32 253.364C168.689 253.364 168.135 253.518 167.658 253.824C167.181 254.126 166.808 254.523 166.541 255.018C166.28 255.506 166.147 256.043 166.141 256.628V258.444C166.141 259.205 166.28 259.859 166.558 260.404C166.837 260.944 167.226 261.359 167.726 261.648C168.226 261.932 168.811 262.074 169.482 262.074C169.931 262.074 170.337 262.012 170.701 261.887C171.064 261.756 171.379 261.566 171.647 261.316C171.914 261.066 172.115 260.756 172.252 260.387L175.132 260.711C174.951 261.472 174.604 262.137 174.093 262.705C173.587 263.268 172.939 263.705 172.149 264.018C171.36 264.324 170.456 264.478 169.439 264.478Z" fill="#081022"/>
<path d="M177.87 264.222V251.131H180.862V253.313H180.998C181.237 252.557 181.646 251.975 182.225 251.566C182.811 251.151 183.478 250.944 184.228 250.944C184.399 250.944 184.589 250.952 184.799 250.969C185.015 250.981 185.194 251.001 185.336 251.029V253.867C185.206 253.822 184.998 253.782 184.714 253.748C184.436 253.708 184.166 253.688 183.904 253.688C183.342 253.688 182.836 253.81 182.387 254.055C181.944 254.293 181.595 254.626 181.339 255.052C181.083 255.478 180.955 255.969 180.955 256.526V264.222H177.87Z" fill="#081022"/>
<path d="M194.72 251.131V253.518H186.981V251.131H194.72ZM188.916 264.222V249.896C188.916 249.015 189.098 248.282 189.461 247.697C189.83 247.111 190.325 246.674 190.944 246.384C191.563 246.094 192.251 245.949 193.007 245.949C193.541 245.949 194.015 245.992 194.43 246.077C194.845 246.163 195.152 246.239 195.35 246.307L194.737 248.694C194.606 248.654 194.441 248.614 194.242 248.574C194.044 248.529 193.822 248.506 193.578 248.506C193.004 248.506 192.598 248.646 192.359 248.924C192.126 249.197 192.009 249.589 192.009 250.1V264.222H188.916Z" fill="#081022"/>
<path d="M202.354 264.478C201.076 264.478 199.968 264.197 199.03 263.634C198.093 263.072 197.365 262.285 196.848 261.273C196.337 260.262 196.081 259.08 196.081 257.728C196.081 256.376 196.337 255.191 196.848 254.174C197.365 253.157 198.093 252.367 199.03 251.805C199.968 251.242 201.076 250.961 202.354 250.961C203.632 250.961 204.74 251.242 205.678 251.805C206.615 252.367 207.34 253.157 207.851 254.174C208.368 255.191 208.627 256.376 208.627 257.728C208.627 259.08 208.368 260.262 207.851 261.273C207.34 262.285 206.615 263.072 205.678 263.634C204.74 264.197 203.632 264.478 202.354 264.478ZM202.371 262.006C203.064 262.006 203.644 261.816 204.11 261.435C204.576 261.049 204.922 260.532 205.149 259.884C205.382 259.236 205.499 258.515 205.499 257.719C205.499 256.918 205.382 256.194 205.149 255.546C204.922 254.893 204.576 254.373 204.11 253.986C203.644 253.6 203.064 253.407 202.371 253.407C201.661 253.407 201.07 253.6 200.598 253.986C200.132 254.373 199.783 254.893 199.55 255.546C199.323 256.194 199.209 256.918 199.209 257.719C199.209 258.515 199.323 259.236 199.55 259.884C199.783 260.532 200.132 261.049 200.598 261.435C201.07 261.816 201.661 262.006 202.371 262.006Z" fill="#081022"/>
<path d="M211.245 264.222V251.131H214.237V253.313H214.373C214.612 252.557 215.021 251.975 215.6 251.566C216.186 251.151 216.853 250.944 217.603 250.944C217.774 250.944 217.964 250.952 218.174 250.969C218.39 250.981 218.569 251.001 218.711 251.029V253.867C218.581 253.822 218.373 253.782 218.089 253.748C217.811 253.708 217.541 253.688 217.279 253.688C216.717 253.688 216.211 253.81 215.762 254.055C215.319 254.293 214.97 254.626 214.714 255.052C214.458 255.478 214.33 255.969 214.33 256.526V264.222H211.245Z" fill="#081022"/>
<path d="M220.761 264.222V251.131H223.71V253.356H223.863C224.136 252.606 224.588 252.021 225.218 251.6C225.849 251.174 226.602 250.961 227.477 250.961C228.363 250.961 229.11 251.177 229.718 251.609C230.332 252.035 230.764 252.617 231.014 253.356H231.15C231.44 252.628 231.929 252.049 232.616 251.617C233.309 251.18 234.13 250.961 235.079 250.961C236.284 250.961 237.267 251.342 238.028 252.103C238.789 252.864 239.17 253.975 239.17 255.435V264.222H236.076V255.913C236.076 255.1 235.86 254.506 235.429 254.131C234.997 253.751 234.468 253.56 233.843 253.56C233.099 253.56 232.517 253.793 232.096 254.259C231.681 254.719 231.474 255.319 231.474 256.057V264.222H228.448V255.785C228.448 255.109 228.244 254.569 227.835 254.165C227.431 253.762 226.903 253.56 226.25 253.56C225.806 253.56 225.403 253.674 225.039 253.901C224.676 254.123 224.386 254.438 224.17 254.847C223.954 255.251 223.846 255.722 223.846 256.262V264.222H220.761Z" fill="#081022"/>
<path d="M246.067 264.486C245.237 264.486 244.49 264.339 243.826 264.043C243.166 263.742 242.644 263.299 242.257 262.714C241.877 262.128 241.686 261.407 241.686 260.549C241.686 259.81 241.823 259.199 242.095 258.717C242.368 258.234 242.74 257.847 243.212 257.557C243.683 257.268 244.215 257.049 244.806 256.901C245.402 256.748 246.019 256.637 246.655 256.569C247.422 256.489 248.044 256.418 248.522 256.356C248.999 256.288 249.345 256.185 249.561 256.049C249.783 255.907 249.894 255.688 249.894 255.393V255.342C249.894 254.699 249.703 254.202 249.323 253.85C248.942 253.498 248.394 253.322 247.678 253.322C246.922 253.322 246.323 253.486 245.88 253.816C245.442 254.146 245.147 254.535 244.993 254.984L242.112 254.574C242.34 253.779 242.715 253.114 243.237 252.58C243.76 252.04 244.399 251.637 245.155 251.37C245.911 251.097 246.746 250.961 247.661 250.961C248.291 250.961 248.919 251.035 249.544 251.182C250.169 251.33 250.74 251.574 251.257 251.915C251.774 252.251 252.189 252.708 252.502 253.288C252.82 253.867 252.979 254.592 252.979 255.461V264.222H250.013V262.424H249.911C249.723 262.788 249.459 263.128 249.118 263.447C248.783 263.759 248.36 264.012 247.848 264.205C247.343 264.393 246.749 264.486 246.067 264.486ZM246.868 262.219C247.487 262.219 248.024 262.097 248.479 261.853C248.933 261.603 249.283 261.273 249.527 260.864C249.777 260.455 249.902 260.009 249.902 259.526V257.984C249.806 258.063 249.641 258.137 249.408 258.205C249.181 258.273 248.925 258.333 248.641 258.384C248.357 258.435 248.076 258.481 247.797 258.521C247.519 258.56 247.277 258.594 247.073 258.623C246.612 258.685 246.201 258.788 245.837 258.93C245.473 259.072 245.186 259.271 244.976 259.526C244.766 259.776 244.661 260.1 244.661 260.498C244.661 261.066 244.868 261.495 245.283 261.785C245.698 262.074 246.226 262.219 246.868 262.219Z" fill="#081022"/>
<path d="M259.166 256.552V264.222H256.081V251.131H259.03V253.356H259.183C259.485 252.623 259.965 252.04 260.624 251.609C261.289 251.177 262.11 250.961 263.087 250.961C263.99 250.961 264.777 251.154 265.448 251.54C266.124 251.927 266.647 252.486 267.016 253.219C267.391 253.952 267.576 254.842 267.57 255.887V264.222H264.485V256.364C264.485 255.489 264.257 254.805 263.803 254.31C263.354 253.816 262.732 253.569 261.936 253.569C261.397 253.569 260.916 253.688 260.496 253.927C260.081 254.16 259.755 254.498 259.516 254.941C259.283 255.384 259.166 255.921 259.166 256.552Z" fill="#081022"/>
<path d="M276.416 264.478C275.11 264.478 273.987 264.191 273.05 263.617C272.118 263.043 271.399 262.251 270.894 261.239C270.394 260.222 270.144 259.052 270.144 257.728C270.144 256.398 270.399 255.225 270.911 254.208C271.422 253.185 272.144 252.39 273.076 251.822C274.013 251.248 275.121 250.961 276.399 250.961C277.462 250.961 278.402 251.157 279.22 251.549C280.044 251.935 280.701 252.484 281.189 253.194C281.678 253.898 281.956 254.722 282.024 255.665H279.076C278.956 255.035 278.672 254.509 278.223 254.089C277.78 253.663 277.186 253.449 276.442 253.449C275.811 253.449 275.257 253.62 274.78 253.961C274.303 254.296 273.931 254.779 273.664 255.41C273.402 256.04 273.272 256.796 273.272 257.677C273.272 258.569 273.402 259.336 273.664 259.978C273.925 260.614 274.291 261.106 274.763 261.452C275.24 261.793 275.8 261.964 276.442 261.964C276.897 261.964 277.303 261.878 277.661 261.708C278.024 261.532 278.328 261.279 278.573 260.949C278.817 260.62 278.985 260.219 279.076 259.748H282.024C281.951 260.674 281.678 261.495 281.206 262.211C280.735 262.921 280.093 263.478 279.28 263.881C278.468 264.279 277.513 264.478 276.416 264.478Z" fill="#081022"/>
<path d="M290.353 264.478C289.041 264.478 287.907 264.205 286.953 263.66C286.004 263.109 285.274 262.33 284.762 261.324C284.251 260.313 283.995 259.123 283.995 257.753C283.995 256.407 284.251 255.225 284.762 254.208C285.279 253.185 286.001 252.39 286.927 251.822C287.853 251.248 288.941 250.961 290.191 250.961C290.998 250.961 291.759 251.092 292.475 251.353C293.197 251.609 293.833 252.006 294.384 252.546C294.941 253.086 295.379 253.773 295.697 254.609C296.015 255.438 296.174 256.427 296.174 257.574V258.521H285.444V256.441H293.217C293.211 255.85 293.083 255.324 292.833 254.864C292.583 254.398 292.234 254.032 291.785 253.765C291.342 253.498 290.825 253.364 290.234 253.364C289.603 253.364 289.049 253.518 288.572 253.824C288.095 254.126 287.723 254.523 287.456 255.018C287.194 255.506 287.061 256.043 287.055 256.628V258.444C287.055 259.205 287.194 259.859 287.473 260.404C287.751 260.944 288.14 261.359 288.64 261.648C289.14 261.932 289.725 262.074 290.396 262.074C290.845 262.074 291.251 262.012 291.615 261.887C291.978 261.756 292.294 261.566 292.561 261.316C292.828 261.066 293.029 260.756 293.166 260.387L296.046 260.711C295.865 261.472 295.518 262.137 295.007 262.705C294.501 263.268 293.853 263.705 293.063 264.018C292.274 264.324 291.37 264.478 290.353 264.478Z" fill="#081022"/>
<path d="M203 208.995L205.82 186.734C206.018 185.172 207.364 184 208.967 184H225.652C227.136 184 228.333 185.181 228.333 186.646C228.333 186.958 228.274 187.281 228.165 187.574L223.583 199.622H237.368C239.367 199.622 241 201.223 241 203.205C241 203.928 240.782 204.631 240.367 205.226L221.347 232.662C220.763 233.502 219.803 234 218.784 234H218.497C216.943 234 215.677 232.75 215.677 231.217C215.677 230.993 215.706 230.768 215.766 230.544L220.417 212.12H206.167C204.415 212.12 203 210.723 203 208.995Z" fill="#081022"/>
</svg>
