<svg width="50" height="50" viewBox="0 0 50 50" fill="none" xmlns="http://www.w3.org/2000/svg">
<circle cx="25" cy="25" r="25" fill="#11A4F4"/>
<path d="M18.6505 12.1245C19.0467 11.9243 19.5261 11.9682 19.8782 12.2368L35.5302 23.9522C35.9362 24.255 36.0976 24.7824 35.9411 25.261C35.7845 25.7395 35.3346 26.0618 34.8259 26.0618H27.3765L31.7248 34.7397C32.1112 35.5113 31.7982 36.4489 31.0254 36.8347C30.2526 37.2205 29.3134 36.908 28.927 36.1364L24.5787 27.4585L20.113 33.4065C19.8098 33.8119 19.2815 33.973 18.8022 33.8167C18.3228 33.6605 18 33.2112 18 32.7082V13.1745C18 12.7301 18.2495 12.3247 18.6505 12.1245Z" fill="white"/>
</svg>
