<svg width="50" height="50" viewBox="0 0 50 50" fill="none" xmlns="http://www.w3.org/2000/svg">
<circle cx="25" cy="25" r="25" fill="#11A4F4"/>
<path d="M19.125 15.3438H24.5938V19.6406C24.5938 21.584 26.166 23.1562 28.1094 23.1562H32.4062V34.875C32.4062 35.3047 32.0547 35.6562 31.625 35.6562H19.125C18.6953 35.6562 18.3438 35.3047 18.3438 34.875V16.125C18.3438 15.6953 18.6953 15.3438 19.125 15.3438ZM26.9375 16.3154L31.4346 20.8125H28.1094C27.46 20.8125 26.9375 20.29 26.9375 19.6406V16.3154ZM19.125 13C17.4014 13 16 14.4014 16 16.125V34.875C16 36.5986 17.4014 38 19.125 38H31.625C33.3486 38 34.75 36.5986 34.75 34.875V22.1064C34.75 21.2764 34.4229 20.4805 33.8369 19.8945L27.8506 13.9131C27.2646 13.3271 26.4736 13 25.6436 13H19.125ZM21.8594 25.5C21.21 25.5 20.6875 26.0225 20.6875 26.6719C20.6875 27.3213 21.21 27.8438 21.8594 27.8438H28.8906C29.54 27.8438 30.0625 27.3213 30.0625 26.6719C30.0625 26.0225 29.54 25.5 28.8906 25.5H21.8594ZM21.8594 30.1875C21.21 30.1875 20.6875 30.71 20.6875 31.3594C20.6875 32.0088 21.21 32.5312 21.8594 32.5312H28.8906C29.54 32.5312 30.0625 32.0088 30.0625 31.3594C30.0625 30.71 29.54 30.1875 28.8906 30.1875H21.8594Z" fill="white"/>
</svg>
