<svg width="50" height="50" viewBox="0 0 50 50" fill="none" xmlns="http://www.w3.org/2000/svg">
<circle cx="25" cy="25" r="25" fill="#11A4F4"/>
<path d="M16 25.4976L17.4102 14.3669C17.5091 13.5858 18.182 13 18.9836 13H27.3258C28.068 13 28.6667 13.5907 28.6667 14.323C28.6667 14.4792 28.637 14.6403 28.5826 14.7868L26.2917 20.811H33.1841C34.1836 20.811 35 21.6116 35 22.6026C35 22.9639 34.8911 23.3154 34.6833 23.6132L25.1734 37.3312C24.8815 37.751 24.4016 38 23.8919 38H23.7484C22.9716 38 22.3383 37.3751 22.3383 36.6087C22.3383 36.4964 22.3531 36.3841 22.3828 36.2718L24.7083 27.0598H17.5833C16.7076 27.0598 16 26.3616 16 25.4976Z" fill="white"/>
</svg>
