<svg width="50" height="50" viewBox="0 0 50 50" fill="none" xmlns="http://www.w3.org/2000/svg">
<circle cx="25" cy="25" r="25" fill="#11A4F4"/>
<path d="M38 36.2697L29.808 27.9643C30.9241 26.407 31.5882 24.4925 31.5882 22.4273C31.5882 17.2309 27.4196 13 22.2969 13C17.1685 12.9944 13 17.2253 13 22.4217C13 27.6182 17.1685 31.8491 22.2913 31.8491C24.5123 31.8491 26.5491 31.0565 28.1507 29.7336L36.298 38L38 36.2697ZM22.2913 29.6722C18.3516 29.6722 15.1429 26.4182 15.1429 22.4217C15.1429 18.4253 18.3516 15.1712 22.2913 15.1712C26.231 15.1712 29.4397 18.4253 29.4397 22.4217C29.4397 26.4182 26.2366 29.6722 22.2913 29.6722Z" fill="white"/>
</svg>
