<svg width="50" height="50" viewBox="0 0 50 50" fill="none" xmlns="http://www.w3.org/2000/svg">
<circle cx="25" cy="25" r="25" fill="#11A4F4"/>
<path d="M25.5781 12.6052C25.5365 12.324 25.3229 12.0949 25.0417 12.0532C23.8907 11.8918 22.7189 12.1001 21.6878 12.6469L17.8339 14.704C16.8079 15.2508 15.9798 16.1101 15.4695 17.1569L13.5581 21.0941C13.0478 22.1408 12.8811 23.3282 13.0842 24.474L13.8394 28.7861C14.0425 29.937 14.5997 30.989 15.4382 31.8014L18.5786 34.8428C19.4171 35.6553 20.4847 36.176 21.6357 36.3375L25.9583 36.9468C27.1093 37.1082 28.2811 36.8999 29.3122 36.3531L33.1661 34.296C34.1921 33.7492 35.0201 32.8899 35.5305 31.8379L37.4419 27.9059C37.9522 26.8592 38.1189 25.6718 37.9158 24.526C37.8689 24.25 37.6398 24.0417 37.3637 24C34.6816 23.573 32.5307 21.5471 31.9214 18.9276C31.8277 18.5318 31.5048 18.2297 31.1038 18.1672C28.2602 17.7141 26.0156 15.4591 25.5729 12.6052H25.5781ZM23.0002 18.6672C23.922 18.6672 24.6667 19.4119 24.6667 20.3337C24.6667 21.2555 23.922 22.0002 23.0002 22.0002C22.0784 22.0002 21.3336 21.2555 21.3336 20.3337C21.3336 19.4119 22.0784 18.6672 23.0002 18.6672ZM19.6671 28.6663C19.6671 27.7445 20.4118 26.9998 21.3336 26.9998C22.2554 26.9998 23.0002 27.7445 23.0002 28.6663C23.0002 29.5881 22.2554 30.3328 21.3336 30.3328C20.4118 30.3328 19.6671 29.5881 19.6671 28.6663ZM31.3329 25.3333C32.2547 25.3333 32.9995 26.078 32.9995 26.9998C32.9995 27.9216 32.2547 28.6663 31.3329 28.6663C30.4111 28.6663 29.6664 27.9216 29.6664 26.9998C29.6664 26.078 30.4111 25.3333 31.3329 25.3333Z" fill="white"/>
</svg>
