<svg width="50" height="50" viewBox="0 0 50 50" fill="none" xmlns="http://www.w3.org/2000/svg">
<circle cx="25" cy="25" r="25" fill="#11A4F4"/>
<path d="M13 24.5C13 17.5957 18.5957 12 25.5 12C32.4043 12 38 17.5957 38 24.5C38 31.4043 32.4043 37 25.5 37C18.5957 37 13 31.4043 13 24.5ZM20.8857 20.2959C20.29 20.042 19.6016 20.3154 19.3477 20.9111C19.0938 21.5068 19.3672 22.1953 19.9629 22.4492L20.5439 22.6982C21.3887 23.0596 22.2627 23.3281 23.1611 23.4941V25.9404C23.1611 26.1504 23.127 26.3604 23.0586 26.5557L21.6572 30.7598C21.4521 31.375 21.7842 32.0391 22.3994 32.2441C23.0146 32.4492 23.6787 32.1172 23.8838 31.502L25.0752 27.9277C25.1387 27.7422 25.3096 27.6152 25.5049 27.6152C25.7002 27.6152 25.876 27.7422 25.9346 27.9277L27.126 31.502C27.3311 32.1172 27.9951 32.4492 28.6104 32.2441C29.2256 32.0391 29.5527 31.3848 29.3477 30.7695L27.9463 26.5654C27.8779 26.3652 27.8438 26.1602 27.8438 25.9502V23.5039C28.7422 23.333 29.6162 23.0693 30.4609 22.708L31.042 22.459C31.6377 22.2051 31.9111 21.5166 31.6572 20.9209C31.4033 20.3252 30.7148 20.0518 30.1191 20.3057L29.5381 20.5449C28.2637 21.0918 26.8916 21.375 25.5 21.375C24.1084 21.375 22.7412 21.0918 21.4619 20.5449L20.8809 20.2959H20.8857ZM25.5 19.8125C26.5791 19.8125 27.4531 18.9385 27.4531 17.8594C27.4531 16.7803 26.5791 15.9062 25.5 15.9062C24.4209 15.9062 23.5469 16.7803 23.5469 17.8594C23.5469 18.9385 24.4209 19.8125 25.5 19.8125Z" fill="white"/>
</svg>
