<svg width="50" height="50" viewBox="0 0 50 50" fill="none" xmlns="http://www.w3.org/2000/svg">
<circle cx="25" cy="25" r="25" fill="#11A4F4"/>
<path d="M22 17.8824V20.8235H28V17.8824C28 16.2601 26.6547 14.9412 25 14.9412C23.3453 14.9412 22 16.2601 22 17.8824ZM19 20.8235V17.8824C19 14.6333 21.6859 12 25 12C28.3141 12 31 14.6333 31 17.8824V20.8235C32.6547 20.8235 34 22.1425 34 23.7647V34.0588C34 35.6811 32.6547 37 31 37H19C17.3453 37 16 35.6811 16 34.0588V23.7647C16 22.1425 17.3453 20.8235 19 20.8235Z" fill="white"/>
</svg>
