<svg width="50" height="50" viewBox="0 0 50 50" fill="none" xmlns="http://www.w3.org/2000/svg">
<circle cx="25" cy="25" r="25" fill="#11A4F4"/>
<path d="M17 16.125C17 14.4014 18.3861 13 20.0909 13H30.9091C32.6139 13 34 14.4014 34 16.125V34.875C34 36.5986 32.6139 38 30.9091 38H20.0909C18.3861 38 17 36.5986 17 34.875V16.125ZM22.4091 34.4844C22.4091 35.1338 22.9259 35.6562 23.5682 35.6562H27.4318C28.0741 35.6562 28.5909 35.1338 28.5909 34.4844C28.5909 33.835 28.0741 33.3125 27.4318 33.3125H23.5682C22.9259 33.3125 22.4091 33.835 22.4091 34.4844ZM30.9091 16.125H20.0909V30.9688H30.9091V16.125Z" fill="white"/>
</svg>
