<svg width="230" height="230" viewBox="0 0 230 230" fill="none" xmlns="http://www.w3.org/2000/svg">
<path d="M159.33 0V79.2097C159.33 122.957 123.624 158.47 79.6395 158.47C57.6471 158.47 37.7374 149.63 23.3129 135.283C12.1898 124.22 4.3681 109.873 1.37146 93.9098C12.9517 104.215 28.2397 110.53 45.0005 110.53C81.4679 110.53 111.13 81.0282 111.13 44.7574V0H159.33Z" fill="#11A4F4"/>
<path d="M90.8133 0V44.7574C90.8133 69.9146 70.294 90.3233 45.0002 90.3233C19.7067 90.3233 0 70.2683 0 45.5657V0H90.8133Z" fill="white"/>
<path d="M229.37 0V113.965C229.37 177.009 177.97 228.183 114.583 228.183C82.9409 228.183 54.2952 215.402 33.5726 194.791C19.6561 180.949 9.34563 163.622 4.01263 144.174C22.3479 165.289 49.4701 178.676 79.6395 178.676C134.798 178.676 179.646 134.07 179.646 79.2097V0H229.37Z" fill="#11A4F4"/>
</svg>
