<svg width="111" height="111" viewBox="0 0 111 111" fill="none" xmlns="http://www.w3.org/2000/svg">
<path d="M76.8938 0V38.2273C76.8938 59.34 59.662 76.4789 38.4347 76.4789C27.821 76.4789 18.2124 72.2125 11.251 65.2886C5.8829 59.9495 2.10807 53.0257 0.661865 45.3217C6.25058 50.2952 13.6287 53.3426 21.7176 53.3426C39.3171 53.3426 53.6321 39.1049 53.6321 21.6003V0H76.8938Z" fill="#11A4F4"/>
<path d="M43.8273 0V21.6003C43.8273 33.7414 33.9245 43.5908 21.7175 43.5908C9.51061 43.5908 0 33.9121 0 21.9904V0H43.8273Z" fill="#081022"/>
<path d="M110.696 0V55.0004C110.696 85.4262 85.8897 110.123 55.2989 110.123C40.028 110.123 26.2033 103.955 16.2024 94.0078C9.48619 87.3278 4.51027 78.9656 1.93652 69.5794C10.7853 79.7701 23.8747 86.2307 38.4347 86.2307C65.0546 86.2307 86.6986 64.7035 86.6986 38.2273V0H110.696Z" fill="#11A4F4"/>
</svg>
