<svg width="100" height="82" viewBox="0 0 100 82" fill="none" xmlns="http://www.w3.org/2000/svg">
<path d="M47.3711 52.534C45.6868 50.6407 44.0785 48.8373 42.4786 47.0283C41.4326 45.8457 41.4129 44.5507 42.4139 43.6995C43.3756 42.8821 44.6127 43.0591 45.639 44.2024C47.4667 46.2361 49.2887 48.2755 51.0967 50.3261C52.407 51.8121 52.4126 53.2391 51.0995 54.7307C49.2719 56.8094 47.4273 58.8768 45.5744 60.9359C44.5874 62.0342 43.2631 62.1634 42.3352 61.2982C41.4298 60.4555 41.4439 59.2027 42.3999 58.1156C44.0223 56.2757 45.6587 54.4526 47.3683 52.534H47.3711Z" fill="#11A4F4"/>
<path d="M16.5461 52.534C18.1713 54.3571 19.7375 56.1043 21.2868 57.8656C21.6073 58.2308 21.9363 58.6269 22.1135 59.0679C22.4818 59.9836 22.0741 61.0286 21.2446 61.5483C20.4067 62.0736 19.2961 61.95 18.5537 61.1606C17.4487 59.9836 16.3915 58.7589 15.3174 57.5538C14.4289 56.5566 13.5263 55.5734 12.6631 54.5566C11.5609 53.256 11.5271 51.8121 12.6237 50.5509C14.5357 48.3514 16.4815 46.18 18.4385 44.0198C19.3467 43.017 20.626 42.9243 21.5286 43.7277C22.4312 44.5282 22.4818 45.812 21.6102 46.8345C20.7891 47.7952 19.9315 48.725 19.0908 49.6688C18.2754 50.5846 17.46 51.5031 16.5461 52.534Z" fill="#11A4F4"/>
<path d="M36.1666 44.0422C35.7617 45.7361 35.295 47.6771 34.8338 49.621C33.9003 53.5424 32.9696 57.4667 32.0361 61.3881C32.0024 61.5257 31.9546 61.6578 31.9152 61.7898C31.53 63.0258 30.484 63.6915 29.3593 63.4134C28.2121 63.1325 27.5317 62.0735 27.8213 60.815C28.6929 57.0228 29.6096 53.2419 30.5121 49.4553C31.0183 47.3428 31.4991 45.222 32.0614 43.1237C32.351 42.0394 33.3942 41.4298 34.4008 41.6124C35.4693 41.8062 36.1948 42.6911 36.1723 44.0394L36.1666 44.0422Z" fill="#11A4F4"/>
<path d="M72.5166 22.8074C69.283 22.8074 66.0495 22.872 62.8215 22.7906C59.2421 22.7007 56.4022 19.9984 55.958 16.4197C55.5418 13.0713 57.8025 9.7566 61.1598 8.83242C61.7306 8.67511 62.3351 8.55994 62.9228 8.55994C69.3168 8.54309 75.7136 8.48691 82.1047 8.5768C85.5014 8.62455 88.1276 10.9195 88.8755 14.1668C89.5672 17.1697 88.1979 20.4141 85.403 21.8383C84.2867 22.4057 82.9427 22.7232 81.6858 22.7765C78.635 22.9086 75.573 22.8187 72.5166 22.8187C72.5166 22.8159 72.5166 22.8102 72.5166 22.8074ZM72.5391 12.81C69.4124 12.81 66.2857 12.7763 63.1618 12.8241C61.396 12.8494 60.1532 14.1162 60.1757 15.7118C60.1981 17.2792 61.4072 18.5433 63.1112 18.5545C69.3617 18.5939 75.6151 18.5826 81.8685 18.5602C83.086 18.5545 84.0308 17.9674 84.5397 16.8298C85.4198 14.8663 84.0252 12.855 81.7083 12.8213C78.6519 12.7763 75.5955 12.81 72.5419 12.8128L72.5391 12.81Z" fill="white"/>
<path d="M44.475 15.7033C44.4666 19.5995 41.278 22.7934 37.3809 22.8102C33.45 22.8271 30.1968 19.5798 30.2137 15.6584C30.2306 11.7707 33.4304 8.56553 37.3219 8.54587C41.2527 8.5262 44.4863 11.7594 44.4779 15.7033H44.475ZM37.35 12.8212C35.7501 12.8212 34.482 14.1078 34.4988 15.7146C34.5157 17.268 35.7585 18.5292 37.305 18.5601C38.8627 18.591 40.2152 17.2708 40.2321 15.7061C40.2489 14.1359 38.9386 12.824 37.35 12.824V12.8212Z" fill="white"/>
<path d="M25.977 15.6471C25.9939 19.6107 22.7969 22.8186 18.8436 22.8102C14.9352 22.8017 11.7663 19.6275 11.7522 15.7145C11.7382 11.7566 14.9492 8.52897 18.8829 8.54301C22.7885 8.55987 25.963 11.7341 25.977 15.6471ZM15.998 15.6527C15.9868 17.2286 17.2971 18.5601 18.8604 18.5601C20.4322 18.5601 21.7284 17.2426 21.72 15.6555C21.7116 14.0965 20.48 12.8521 18.9167 12.8212C17.3224 12.7903 16.0093 14.0628 15.998 15.6527Z" fill="white"/>
<mask id="path-7-inside-1_196_44" fill="white">
<path d="M0 11C0 4.92486 4.92487 0 11 0H89C95.0751 0 100 4.92487 100 11V27.6753V71C100 77.0751 95.0751 82 89 82H11C4.92487 82 0 77.0751 0 71V27.6753V11Z"/>
</mask>
<path d="M0 27.6753V30.1753H100V27.6753V25.1753H0V27.6753ZM11 0V5H89V0V-5H11V0ZM89 82V77H11V82V87H89V82ZM100 11H95V27.6753H100H105V11H100ZM100 27.6753H95V71H100H105V27.6753H100ZM0 71H5V27.6753H0H-5V71H0ZM0 27.6753H5V11H0H-5V27.6753H0ZM11 82V77C7.68629 77 5 74.3137 5 71H0H-5C-5 79.8366 2.16345 87 11 87V82ZM89 82V87C97.8365 87 105 79.8366 105 71H100H95C95 74.3137 92.3137 77 89 77V82ZM89 0V5C92.3137 5 95 7.68629 95 11H100H105C105 2.16344 97.8366 -5 89 -5V0ZM11 0V-5C2.16345 -5 -5 2.16343 -5 11H0H5C5 7.68629 7.68629 5 11 5V0Z" fill="white" mask="url(#path-7-inside-1_196_44)"/>
</svg>
