<svg width="61" height="61" viewBox="0 0 61 61" fill="none" xmlns="http://www.w3.org/2000/svg">
<path d="M55.0301 60.1027C53.5897 59.798 52.5502 58.8922 51.544 57.88C46.7992 53.1028 42.0293 48.3506 37.2698 43.588C37.1195 43.4377 36.9984 43.2541 36.917 43.156C35.4099 43.9032 34.0363 44.69 32.5855 45.2848C28.7946 46.8375 24.843 47.3384 20.7787 46.7707C14.7668 45.9338 9.78813 43.1706 5.88246 38.5478C3.01426 35.1543 1.28165 31.214 0.655402 26.8041C0.584428 26.3053 0.503018 25.8086 0.425781 25.3098C0.425781 24.139 0.425781 22.9661 0.425781 21.7953C0.519718 21.142 0.594867 20.4867 0.709679 19.8356C1.71793 14.1067 4.41078 9.32528 8.86129 5.57489C12.0238 2.90976 15.6748 1.22135 19.7475 0.484633C24.2398 -0.329308 28.6109 0.163231 32.8172 1.90799C36.583 3.46908 39.7351 5.87125 42.2652 9.07901C44.7806 12.268 46.3775 15.8744 47.01 19.871C47.7761 24.7004 47.0893 29.3482 44.9497 33.756C44.5008 34.6827 43.9644 35.5655 43.4049 36.5839C43.5469 36.6883 43.7389 36.7968 43.8913 36.9471C48.8783 41.9267 53.8611 46.9106 58.846 51.8902C60.2467 53.2906 60.7874 54.931 60.1778 56.8552C59.6998 58.3683 58.6665 59.368 57.1572 59.8689C56.9172 59.9482 56.6771 60.0254 56.4391 60.1027H55.0322H55.0301ZM24.509 44.6127C36.3409 44.2663 46.0101 33.9626 44.8348 21.5031C43.8329 10.8801 34.4058 1.46345 21.8099 2.58836C11.1742 3.54004 1.74298 13.0131 2.89944 25.5978C3.90143 36.5088 13.2701 44.9091 24.509 44.6107V44.6127ZM43.8287 46.7999C43.8099 46.7791 43.8809 46.8688 43.9623 46.9502C47.273 50.2602 50.5838 53.5682 53.8945 56.8761C54.0323 57.0139 54.1763 57.1453 54.3308 57.2643C55.2075 57.9405 56.3995 57.9029 57.2386 57.1787C58.3429 56.225 58.3617 54.7557 57.2428 53.6308C53.9133 50.2853 50.5712 46.9523 47.2334 43.6172C47.1582 43.5421 47.0643 43.4816 46.9808 43.4148C47.0121 43.469 47.0455 43.5233 47.0768 43.5776C46.0017 44.6461 44.9246 45.7126 43.8287 46.802V46.7999ZM38.9294 41.8307C39.8666 42.7636 40.9396 43.8322 42.0898 44.9801C43.1523 43.9157 44.2378 42.8262 45.2586 41.8015C44.0959 40.6328 43.0271 39.56 42.1316 38.6585C41.0878 39.6936 40.0107 40.758 38.9294 41.8307Z" fill="white"/>
<path d="M24.5091 44.6128C13.2722 44.9112 3.90361 36.5109 2.89953 25.5999C1.74306 13.0131 11.1764 3.54215 21.81 2.59046C34.4059 1.46347 43.8329 10.8822 44.8349 21.5052C46.0102 33.9648 36.3389 44.2684 24.5091 44.6149V44.6128ZM42.6055 23.5234C42.5888 13.2072 34.1783 4.80897 23.862 4.80897C13.5227 4.80897 5.09765 13.2447 5.11435 23.5776C5.13105 33.8938 13.5415 42.292 23.8578 42.292C34.1971 42.292 42.6222 33.8562 42.6055 23.5234Z" fill="#09192E"/>
<path d="M42.6054 23.5232C42.6221 33.8582 34.195 42.2939 23.8578 42.2919C13.5414 42.2919 5.13098 33.8916 5.11428 23.5775C5.09758 13.2425 13.5247 4.80675 23.8619 4.80884C34.1783 4.80884 42.5887 13.2091 42.6054 23.5232ZM23.2545 39.921C31.7213 40.2779 39.8186 33.7434 40.2299 24.1577C40.5931 15.6927 34.053 7.59711 24.4631 7.18596C15.9963 6.82282 7.89898 13.3615 7.48775 22.9493C7.12453 31.4143 13.6646 39.5057 23.2545 39.9231V39.921Z" fill="white"/>
</svg>
