<svg width="51" height="51" viewBox="0 0 51 51" fill="none" xmlns="http://www.w3.org/2000/svg">
<path d="M29.8672 50.5637H20.6875C19.9492 50.2737 19.6143 49.7034 19.4756 48.9436C19.293 47.9387 19.042 46.9475 18.8379 45.9465C18.7803 45.6624 18.6514 45.5051 18.3721 45.3997C17.6143 45.1145 16.8613 44.8098 16.125 44.4729C15.8486 44.3459 15.6621 44.3723 15.4209 44.5325C14.5137 45.134 13.5957 45.718 12.6768 46.302C11.8008 46.8586 11.1406 46.7922 10.4053 46.0598C8.52637 44.1897 6.65234 42.3147 4.78223 40.4368C4.0498 39.7014 3.9834 39.0413 4.53906 38.1653C5.12305 37.2463 5.70703 36.3284 6.30859 35.4211C6.46875 35.1799 6.49512 34.9934 6.36816 34.717C6.03125 33.9807 5.72656 33.2278 5.44141 32.47C5.33594 32.1907 5.17871 32.0618 4.89453 32.0042C3.89355 31.801 2.90137 31.552 1.89648 31.3694C1.13574 31.2317 0.571289 30.886 0.276367 30.1536V20.9739C0.571289 20.2415 1.13574 19.8967 1.89648 19.7581C2.90137 19.5754 3.89355 19.3274 4.89453 19.1233C5.17871 19.0657 5.33594 18.9368 5.44141 18.6575C5.72656 17.8997 6.03125 17.1467 6.36816 16.4104C6.49512 16.134 6.46777 15.9475 6.30859 15.7063C5.70703 14.7991 5.12305 13.8811 4.53906 12.9622C3.98242 12.0862 4.04883 11.427 4.78223 10.6907C6.65234 8.81177 8.52637 6.93677 10.4043 5.06567C11.1357 4.33716 11.8027 4.26978 12.6768 4.82544C13.5957 5.40942 14.5137 5.99341 15.4209 6.59497C15.6621 6.75513 15.8486 6.78149 16.125 6.65454C16.8613 6.31763 17.6143 6.01294 18.3721 5.72778C18.6514 5.62231 18.7803 5.46509 18.8379 5.18091C19.043 4.17993 19.293 3.18774 19.4756 2.18384C19.6143 1.42407 19.9492 0.85376 20.6875 0.563721H29.8672C30.6035 0.854736 30.9443 1.42212 31.082 2.18286C31.2646 3.18774 31.5127 4.17993 31.7168 5.18091C31.7744 5.46411 31.9023 5.62231 32.1816 5.72876C32.9541 6.02075 33.707 6.36645 34.4814 6.65454C34.6553 6.71899 34.9268 6.70337 35.082 6.60864C36.0244 6.03345 36.9443 5.42017 37.876 4.82739C38.75 4.27075 39.416 4.33813 40.1484 5.06763C42.0264 6.93872 43.9014 8.81274 45.7725 10.6917C46.502 11.4241 46.5693 12.0901 46.0146 12.9641C45.4307 13.8831 44.8467 14.801 44.2451 15.7083C44.0859 15.9485 44.0576 16.136 44.1846 16.4124C44.5225 17.1487 44.8262 17.9016 45.1113 18.6594C45.2168 18.9387 45.374 19.0676 45.6582 19.1252C46.6592 19.3284 47.6514 19.5774 48.6563 19.76C49.417 19.8977 49.9814 20.2434 50.2764 20.9758V30.1555C49.9814 30.8879 49.417 31.2327 48.6563 31.3713C47.6514 31.554 46.6592 31.802 45.6582 32.0061C45.374 32.0637 45.2168 32.1926 45.1113 32.4719C44.8262 33.2297 44.5215 33.9827 44.1846 34.719C44.0576 34.9954 44.085 35.1819 44.2451 35.4231C44.8467 36.3303 45.4316 37.2483 46.0146 38.1672C46.5703 39.0413 46.502 39.7083 45.7734 40.4397C43.9023 42.3176 42.0273 44.1916 40.1484 46.0618C39.4131 46.7942 38.752 46.8596 37.877 46.303C36.9453 45.7102 36.0254 45.0969 35.083 44.5217C34.9277 44.427 34.6563 44.4114 34.4824 44.4758C33.708 44.7639 32.9551 45.1096 32.1826 45.4016C31.9023 45.5071 31.7754 45.6653 31.7178 45.9495C31.5137 46.9504 31.2656 47.9426 31.083 48.9475C30.9443 49.7073 30.6035 50.2747 29.8682 50.5667L29.8672 50.5637ZM22.25 47.5374H28.2998C28.5322 46.4729 28.7822 45.4192 28.9883 44.3567C29.1396 43.5745 29.5703 43.1194 30.3232 42.844C31.5391 42.3997 32.7432 41.9084 33.915 41.3596C34.6416 41.0198 35.2627 41.0217 35.9258 41.47C36.8272 42.0793 37.7539 42.6516 38.6064 43.1995C40.0527 41.7532 41.4736 40.3333 42.9141 38.8928C42.3379 37.9973 41.7363 37.052 41.124 36.1125C40.7783 35.5833 40.7041 35.0471 40.959 34.4514C41.5381 33.0959 42.1025 31.7336 42.6563 30.3674C42.8672 29.8459 43.2109 29.4983 43.7588 29.3635C44.0264 29.2981 44.2959 29.2395 44.5654 29.1799C45.4619 28.9797 46.3594 28.7805 47.249 28.5833V22.5393C46.1787 22.3059 45.123 22.0579 44.0586 21.8489C43.2764 21.6956 42.8272 21.26 42.5547 20.5061C42.1191 19.304 41.6318 18.1165 41.0869 16.9602C40.7383 16.2209 40.7266 15.5852 41.1895 14.9045C41.8008 14.0051 42.3721 13.0774 42.9463 12.1838C41.5107 10.7483 40.0977 9.33423 38.6592 7.89575C37.8643 8.40649 37.0146 8.89185 36.2334 9.46899C35.3525 10.1194 34.5391 10.1672 33.5811 9.60181C32.8184 9.15161 31.9844 8.72974 31.1289 8.55298C29.582 8.23364 28.9316 7.32056 28.7793 5.83618C28.7012 5.07446 28.459 4.32935 28.2949 3.59399H22.25C22.0186 4.65454 21.7676 5.69458 21.5693 6.74536C21.4131 7.57056 20.959 8.02466 20.1611 8.30103C18.999 8.70337 17.8555 9.17798 16.75 9.71606C15.9639 10.0989 15.2939 10.1252 14.5654 9.62036C13.6865 9.01099 12.7695 8.4563 11.9102 7.90454C10.4658 9.34692 9.05176 10.76 7.61621 12.1946C8.18555 13.0803 8.75684 14.0081 9.36816 14.9075C9.83203 15.5891 9.81543 16.2249 9.46582 16.9631C8.92578 18.1038 8.43066 19.2727 8.01172 20.4631C7.73047 21.261 7.2666 21.7034 6.44336 21.8577C5.39453 22.054 4.35645 22.3098 3.31152 22.5403V28.5901C4.37793 28.8235 5.41992 29.0725 6.4707 29.2747C7.27344 29.429 7.73047 29.8684 8.00586 30.6448C8.42285 31.8186 8.89453 32.9797 9.4375 34.1008C9.81934 34.8899 9.83203 35.5598 9.32813 36.2854C8.71973 37.1624 8.16602 38.0784 7.62988 38.9133C9.08398 40.3674 10.4961 41.7786 11.9297 43.2122C12.791 42.6575 13.7051 42.095 14.5908 41.4905C15.2842 41.0178 15.9326 41.0178 16.6904 41.3801C17.8291 41.9241 19.001 42.4104 20.1904 42.8333C20.9658 43.1086 21.4111 43.5598 21.5654 44.3635C21.7676 45.4143 22.0146 46.4573 22.25 47.5383V47.5374Z" fill="white"/>
<path d="M22.2502 47.5372C22.0149 46.4562 21.7678 45.4142 21.5657 44.3624C21.4114 43.5587 20.9661 43.1085 20.1907 42.8322C19.0012 42.4093 17.8293 41.923 16.6907 41.379C15.9329 41.0177 15.2844 41.0167 14.5911 41.4894C13.7053 42.0939 12.7922 42.6564 11.9299 43.2111C10.4963 41.7775 9.08423 40.3654 7.63013 38.9122C8.16626 38.0773 8.71997 37.1613 9.32837 36.2843C9.83228 35.5587 9.81958 34.8878 9.43774 34.0997C8.89478 32.9786 8.4231 31.8175 8.0061 30.6437C7.73071 29.8673 7.27466 29.4279 6.47095 29.2736C5.42017 29.0714 4.37817 28.8224 3.31177 28.589V22.5392C4.35669 22.3087 5.3938 22.0538 6.4436 21.8566C7.26685 21.7023 7.73071 21.2599 8.01196 20.462C8.43091 19.2716 8.92603 18.1036 9.46606 16.962C9.81567 16.2247 9.83228 15.588 9.36841 14.9064C8.7561 14.007 8.18579 13.0792 7.61646 12.1935C9.052 10.7589 10.4661 9.3468 11.9104 7.90344C12.7688 8.4552 13.6858 9.00989 14.5657 9.61926C15.2942 10.1241 15.9651 10.0978 16.7502 9.71497C17.8557 9.17688 18.9993 8.70227 20.1614 8.29993C20.9592 8.02356 21.4133 7.56946 21.5696 6.74426C21.7678 5.69348 22.0188 4.65247 22.2502 3.5929H28.2952C28.4592 4.32825 28.7014 5.07336 28.7795 5.83508C28.9319 7.31848 29.5823 8.23254 31.1292 8.55188C31.9846 8.72864 32.8196 9.15051 33.5813 9.60071C34.5393 10.1661 35.3528 10.1183 36.2336 9.4679C37.0149 8.89075 37.8645 8.4054 38.6594 7.89465C40.0979 9.33313 41.511 10.7472 42.9465 12.1827C42.3713 13.0773 41.801 14.004 41.1897 14.9034C40.7268 15.5841 40.7395 16.2189 41.0872 16.9591C41.6321 18.1154 42.1194 19.3029 42.5549 20.505C42.8284 21.2589 43.2776 21.6945 44.0588 21.8478C45.1223 22.0568 46.179 22.3048 47.2493 22.5382V28.5822C46.3596 28.7804 45.4631 28.9796 44.5657 29.1788C44.2961 29.2384 44.0266 29.297 43.759 29.3624C43.2112 29.4972 42.8674 29.8449 42.6565 30.3663C42.1028 31.7325 41.5383 33.0949 40.9592 34.4503C40.7043 35.046 40.7786 35.5822 41.1243 36.1115C41.7366 37.0509 42.3391 37.9962 42.9143 38.8917C41.4739 40.3322 40.053 41.7521 38.6067 43.1984C37.7532 42.6505 36.8274 42.0773 35.926 41.4689C35.2639 41.0206 34.6418 41.0187 33.9153 41.3585C32.7424 41.9074 31.5393 42.3986 30.3235 42.8429C29.5706 43.1183 29.1409 43.5734 28.9885 44.3556C28.7825 45.4181 28.5325 46.4728 28.3 47.5363H22.2502V47.5372ZM37.2317 25.5841C37.2805 19.045 31.9475 13.6876 25.3098 13.6095C18.7922 13.5323 13.4348 18.8556 13.3225 25.5197C13.2131 32.0284 18.6575 37.4962 25.2688 37.5187C31.8313 37.5411 37.1809 32.2033 37.2317 25.5841Z" fill="#09192E"/>
<path d="M37.2323 25.5841C37.1825 32.2022 31.8319 37.5401 25.2694 37.5186C18.6581 37.4962 13.2138 32.0284 13.3232 25.5196C13.4355 18.8555 18.7919 13.5333 25.3105 13.6095C31.9482 13.6876 37.2821 19.045 37.2323 25.5841ZM34.2353 25.5714C34.2519 20.671 30.2704 16.6729 25.3095 16.6065C20.4296 16.5411 16.3368 20.6163 16.3202 25.5567C16.3036 30.4669 20.3964 34.5557 25.2948 34.5216C30.2314 34.4874 34.2187 30.4952 34.2353 25.5714Z" fill="#27ACF3"/>
<path d="M34.2347 25.5714C34.2181 30.4953 30.2308 34.4865 25.2942 34.5216C20.3958 34.5558 16.303 30.4679 16.3196 25.5568C16.3362 20.6164 20.429 16.5421 25.3089 16.6066C30.2698 16.673 34.2513 20.671 34.2347 25.5714Z" fill="#09192E"/>
</svg>
