<svg width="100" height="82" viewBox="0 0 100 82" fill="none" xmlns="http://www.w3.org/2000/svg">
<path d="M72.7006 22.454C69.4671 22.454 66.2335 22.5186 63.0056 22.4372C59.4262 22.3473 56.5863 19.6451 56.1421 16.0666C55.7259 12.7184 57.9866 9.40387 61.3439 8.47974C61.9147 8.32244 62.5192 8.20728 63.1068 8.20728C69.5008 8.19042 75.8976 8.13425 82.2888 8.22413C85.6855 8.27188 88.3117 10.5668 89.0596 13.8138C89.7513 16.8166 88.382 20.0608 85.587 21.4849C84.4708 22.0523 83.1267 22.3697 81.8699 22.4231C78.8191 22.5551 75.757 22.4652 72.7006 22.4652C72.7006 22.4624 72.7006 22.4568 72.7006 22.454ZM72.7231 12.4571C69.5964 12.4571 66.4697 12.4234 63.3458 12.4712C61.5801 12.4965 60.3372 13.7633 60.3597 15.3587C60.3822 16.9261 61.5913 18.1901 63.2952 18.2013C69.5458 18.2407 75.7992 18.2294 82.0526 18.207C83.2701 18.2013 84.2149 17.6143 84.7238 16.4767C85.6039 14.5133 84.2093 12.5021 81.8924 12.4684C78.836 12.4234 75.7795 12.4571 72.7259 12.4599L72.7231 12.4571Z" fill="white"/>
<path d="M44.6591 15.3502C44.6507 19.2461 41.4621 22.4398 37.565 22.4567C33.6341 22.4735 30.3809 19.2264 30.3978 15.3052C30.4146 11.4177 33.6144 8.21274 37.506 8.19308C41.4368 8.17342 44.6704 11.4065 44.6619 15.3502H44.6591ZM37.5341 12.4682C35.9342 12.4682 34.6661 13.7547 34.6829 15.3614C34.6998 16.9147 35.9426 18.1759 37.4891 18.2068C39.0468 18.2377 40.3993 16.9175 40.4161 15.353C40.433 13.7828 39.1227 12.471 37.5341 12.471V12.4682Z" fill="white"/>
<path d="M26.1614 15.2941C26.1782 19.2574 22.9812 22.4652 19.0279 22.4567C15.1195 22.4483 11.9506 19.2743 11.9366 15.3615C11.9225 11.4037 15.1336 8.17631 19.0672 8.19035C22.9728 8.20721 26.1473 11.3813 26.1614 15.2941ZM16.1824 15.2997C16.1711 16.8755 17.4814 18.2069 19.0448 18.2069C20.6165 18.2069 21.9128 16.8895 21.9043 15.3025C21.8959 13.7435 20.6643 12.4992 19.101 12.4683C17.5067 12.4374 16.1936 13.7098 16.1824 15.2997Z" fill="white"/>
<mask id="path-4-inside-1_196_45" fill="white">
<path d="M0 9.46415C0 4.23724 4.23725 0 9.46415 0H90.5358C95.7627 0 100 4.23725 100 9.46415V27.6753V72.5359C100 77.7628 95.7628 82 90.5358 82H9.46416C4.23725 82 0 77.7628 0 72.5358V27.6753V9.46415Z"/>
</mask>
<path d="M0 27.6753V29.8263H100V27.6753V25.5244H0V27.6753ZM9.46415 0V4.30189H90.5358V0V-4.30189H9.46415V0ZM90.5358 82V77.6981H9.46416V82V86.3019H90.5358V82ZM100 9.46415H95.6981V27.6753H100H104.302V9.46415H100ZM100 27.6753H95.6981V72.5359H100H104.302V27.6753H100ZM0 72.5358H4.30189V27.6753H0H-4.30189V72.5358H0ZM0 27.6753H4.30189V9.46415H0H-4.30189V27.6753H0ZM9.46416 82V77.6981C6.61311 77.6981 4.30189 75.3869 4.30189 72.5358H0H-4.30189C-4.30189 80.1386 1.86138 86.3019 9.46416 86.3019V82ZM90.5358 82V86.3019C98.1386 86.3019 104.302 80.1386 104.302 72.5359H100H95.6981C95.6981 75.3869 93.3869 77.6981 90.5358 77.6981V82ZM90.5358 0V4.30189C93.3869 4.30189 95.6981 6.61311 95.6981 9.46415H100H104.302C104.302 1.86138 98.1386 -4.30189 90.5358 -4.30189V0ZM9.46415 0V-4.30189C1.86138 -4.30189 -4.30189 1.86137 -4.30189 9.46415H0H4.30189C4.30189 6.61311 6.61311 4.30189 9.46415 4.30189V0Z" fill="white" mask="url(#path-4-inside-1_196_45)"/>
<path d="M21.7807 64.2336C21.7807 63.8608 21.7807 63.5846 21.7807 63.3066C21.7807 61.1065 21.7924 58.9063 21.774 56.7045C21.7674 56.0055 21.9911 55.473 22.5405 55.0186C27.6367 50.8047 32.7179 46.5758 37.8092 42.3552C38.9663 41.3966 39.6443 41.4998 40.4775 42.743C42.5965 45.9051 44.7104 49.0705 46.8261 52.2326C46.9697 52.4457 47.1216 52.6537 47.3187 52.935C48.7564 51.6651 50.1707 50.4219 51.58 49.1721C53.6572 47.3331 55.7295 45.4874 57.8084 43.65C58.832 42.7447 59.5099 42.8129 60.3298 43.8914C61.2532 45.1063 62.1699 46.3229 63.0332 47.4645C66.7184 43.7932 70.3803 40.1468 74.0622 36.4787C73.9219 36.4704 73.6865 36.4455 73.4527 36.4421C72.5961 36.4288 71.7362 36.4654 70.8846 36.3989C70.0981 36.3373 69.6539 35.7897 69.6673 35.0541C69.6807 34.3784 70.1532 33.7776 70.8696 33.7643C73.1538 33.7211 75.4398 33.7161 77.7241 33.7643C78.4955 33.781 78.9764 34.3751 78.9848 35.1889C79.0082 37.3375 79.0098 39.4861 78.9848 41.6346C78.9748 42.4867 78.4037 43.0326 77.6339 43.0309C76.8508 43.0309 76.3281 42.5217 76.2947 41.6296C76.2563 40.6228 76.2864 39.6142 76.2864 38.361C75.8572 38.7771 75.5734 39.045 75.2962 39.3213C74.4312 40.1801 73.5579 41.0305 72.7164 41.9109C72.5227 42.1139 72.3306 42.4268 72.329 42.6898C72.3123 49.7828 72.3189 56.8759 72.3239 63.969C72.3239 64.0173 72.3523 64.0639 72.4058 64.2303C73.4193 64.2303 74.4713 64.2253 75.525 64.2336C75.8873 64.237 76.2563 64.237 76.6087 64.3085C77.2048 64.43 77.5521 64.8244 77.6139 65.4352C77.6773 66.0776 77.4118 66.5669 76.809 66.7899C76.4801 66.9114 76.101 66.9314 75.7437 66.9314C57.0453 66.9381 38.3468 66.9364 19.6484 66.9364C19.4664 66.9364 19.2827 66.9464 19.104 66.9281C18.3142 66.8482 17.7715 66.2873 17.7799 65.5667C17.7866 64.8661 18.2792 64.3268 19.0589 64.2586C19.6517 64.207 20.2529 64.2353 20.849 64.2303C21.1278 64.2286 21.4067 64.2303 21.7807 64.2303V64.2336ZM69.6239 45.038C69.3868 45.2477 69.2315 45.3709 69.0929 45.5107C67.6585 46.937 66.2125 48.3516 64.8115 49.8095C64.561 50.0708 64.3774 50.5135 64.3757 50.8746C64.3456 55.0685 64.3573 59.2625 64.3573 63.4564V64.1787H69.6255V45.0397L69.6239 45.038ZM61.5955 64.1904C61.6239 64.0023 61.6673 63.8525 61.6673 63.7027C61.6706 59.3274 61.6723 54.9504 61.6673 50.575C61.6673 50.3753 61.6506 50.1323 61.542 49.9842C60.6604 48.7793 59.7554 47.591 58.8203 46.3478C58.1356 46.9536 57.4794 47.4645 56.915 48.0637C56.6478 48.3466 56.4124 48.7926 56.4107 49.1671C56.3773 53.9319 56.3874 58.695 56.3907 63.4598C56.3907 63.7061 56.4141 63.9507 56.4274 64.1904H61.5955ZM37.6839 45.9451C36.0358 47.3131 34.5113 48.5979 32.96 49.8527C32.5626 50.174 32.3973 50.5068 32.4007 51.0261C32.4224 55.1667 32.4124 59.3074 32.4124 63.4481C32.4124 63.6944 32.4124 63.9407 32.4124 64.1887H37.6822V45.9434L37.6839 45.9451ZM45.6155 64.187C45.6422 64.0639 45.6806 63.9674 45.6806 63.8708C45.6856 61.1547 45.6923 58.437 45.6739 55.7209C45.6722 55.4613 45.5437 55.1717 45.3967 54.9487C43.8856 52.6604 42.361 50.382 40.8365 48.1019C40.7447 47.9638 40.6278 47.8423 40.4441 47.6176V64.1887H45.6155V64.187ZM53.6005 64.187V50.9728C51.9674 52.4157 50.4228 53.7471 48.9284 55.1335C48.6495 55.3914 48.4324 55.8624 48.4257 56.2385C48.3807 58.6434 48.4024 61.0482 48.4057 63.4548C48.4057 63.7011 48.4341 63.9457 48.4491 64.1887H53.6021L53.6005 64.187ZM29.7273 52.5572C28.3247 53.7188 27.0974 54.8389 25.7615 55.8075C24.7396 56.5481 24.3339 57.3752 24.424 58.655C24.5526 60.4774 24.4574 62.3147 24.4574 64.1754H29.729V52.5572H29.7273Z" fill="#27ACF3"/>
</svg>
