<svg width="471" height="425" viewBox="0 0 471 425" fill="none" xmlns="http://www.w3.org/2000/svg">
<path d="M154.708 149.293L154 150L137 133L137.707 132.293L154.708 149.293Z" fill="white"/>
<path d="M312.182 132.017L312 133L155 104L155.182 103.017L312.182 132.017Z" fill="white"/>
<path d="M62.9791 178.204L62.0001 178L67.0001 154L67.9791 154.204L62.9791 178.204Z" fill="white"/>
<path d="M120.998 310.938L120 311L110 151L110.998 150.938L120.998 310.938Z" fill="white"/>
<path d="M201.865 62.0092L202 63L158 69L157.865 68.0092L201.865 62.0092Z" fill="white"/>
<path d="M248.015 108.826L249 109L246 126L245.015 125.826L248.015 108.826Z" fill="white"/>
<path d="M297.41 89.8076L298 89.0002L324 108L323.41 108.807L297.41 89.8076Z" fill="white"/>
<path d="M366.069 173.364L367 173L376 196L375.069 196.364L366.069 173.364Z" fill="white"/>
<path d="M310.646 176.763L310 176L323 165L323.646 165.763L310.646 176.763Z" fill="white"/>
<path d="M288.07 99.3674L289 98.9998L340 228L339.07 228.368L288.07 99.3674Z" fill="white"/>
<path d="M347.795 305.021L348.001 306L172 343L171.794 342.021L347.795 305.021Z" fill="white"/>
<path d="M153.814 317.582L153 317L163 303L163.814 303.581L153.814 317.582Z" fill="white"/>
<path d="M158 81C158 40.1309 124.869 7 84.0001 7C43.1311 7 10.0001 40.1309 10.0001 81C10.0001 121.869 43.1311 155 84.0001 155V156C42.5788 156 9.00012 122.421 9.00012 81C9.00012 39.5786 42.5788 6 84.0001 6C125.421 6 159 39.5786 159 81C159 122.421 125.421 156 84.0001 156V155C124.869 155 158 121.869 158 81Z" fill="white"/>
<path d="M64.4788 95.348C64.3765 94.3167 63.9376 93.5156 63.162 92.9446C62.3864 92.3736 61.3339 92.088 60.0043 92.088C59.1009 92.088 58.3381 92.2159 57.716 92.4716C57.0938 92.7187 56.6165 93.0639 56.2842 93.5071C55.9603 93.9503 55.7984 94.4531 55.7984 95.0156C55.7813 95.4844 55.8793 95.8934 56.0924 96.2429C56.314 96.5923 56.6165 96.8949 57.0001 97.1505C57.3836 97.3977 57.8268 97.615 58.3296 97.8025C58.8325 97.9815 59.3694 98.1349 59.9404 98.2628L62.2927 98.8253C63.4347 99.0809 64.483 99.4219 65.4376 99.848C66.3921 100.274 67.2188 100.798 67.9177 101.42C68.6165 102.043 69.1577 102.776 69.5413 103.619C69.9333 104.463 70.1336 105.43 70.1421 106.521C70.1336 108.124 69.7245 109.513 68.9148 110.689C68.1137 111.857 66.9546 112.764 65.4376 113.412C63.929 114.051 62.1094 114.371 59.9788 114.371C57.8651 114.371 56.0242 114.047 54.456 113.399C52.8964 112.751 51.6776 111.793 50.7998 110.523C49.9305 109.244 49.4745 107.663 49.4319 105.78H54.7884C54.8481 106.658 55.0995 107.391 55.5427 107.979C55.9944 108.558 56.5952 108.997 57.3452 109.295C58.1038 109.585 58.9603 109.73 59.9148 109.73C60.8523 109.73 61.6663 109.594 62.3566 109.321C63.0555 109.048 63.5967 108.669 63.9802 108.183C64.3637 107.697 64.5555 107.139 64.5555 106.509C64.5555 105.92 64.3807 105.426 64.0313 105.026C63.6904 104.625 63.1876 104.284 62.5228 104.003C61.8665 103.722 61.0611 103.466 60.1066 103.236L57.2557 102.52C55.0484 101.983 53.3055 101.143 52.0271 100.001C50.7486 98.8594 50.1137 97.321 50.1222 95.3863C50.1137 93.8011 50.5356 92.4162 51.3879 91.2315C52.2486 90.0469 53.429 89.1221 54.929 88.4574C56.429 87.7926 58.1336 87.4602 60.0427 87.4602C61.9859 87.4602 63.6819 87.7926 65.1307 88.4574C66.5881 89.1221 67.7217 90.0469 68.5313 91.2315C69.341 92.4162 69.7586 93.7883 69.7842 95.348H64.4788Z" fill="url(#paint0_linear_213_57)"/>
<path d="M73.8655 114V87.8182H91.5075V92.3821H79.401V98.6207H90.5999V103.185H79.401V109.436H91.5587V114H73.8655Z" fill="url(#paint1_linear_213_57)"/>
<path d="M119.968 100.909C119.968 103.764 119.427 106.193 118.345 108.196C117.271 110.199 115.805 111.729 113.947 112.785C112.097 113.834 110.018 114.358 107.708 114.358C105.381 114.358 103.293 113.83 101.444 112.773C99.5945 111.716 98.1329 110.186 97.059 108.183C95.9852 106.18 95.4482 103.756 95.4482 100.909C95.4482 98.054 95.9852 95.625 97.059 93.6221C98.1329 91.6193 99.5945 90.0937 101.444 89.0454C103.293 87.9886 105.381 87.4602 107.708 87.4602C110.018 87.4602 112.097 87.9886 113.947 89.0454C115.805 90.0937 117.271 91.6193 118.345 93.6221C119.427 95.625 119.968 98.054 119.968 100.909ZM114.356 100.909C114.356 99.0596 114.079 97.5 113.525 96.2301C112.979 94.9602 112.208 93.9971 111.211 93.3409C110.214 92.6846 109.046 92.3565 107.708 92.3565C106.37 92.3565 105.202 92.6846 104.205 93.3409C103.208 93.9971 102.433 94.9602 101.879 96.2301C101.333 97.5 101.06 99.0596 101.06 100.909C101.06 102.759 101.333 104.318 101.879 105.588C102.433 106.858 103.208 107.821 104.205 108.477C105.202 109.134 106.37 109.462 107.708 109.462C109.046 109.462 110.214 109.134 111.211 108.477C112.208 107.821 112.979 106.858 113.525 105.588C114.079 104.318 114.356 102.759 114.356 100.909Z" fill="url(#paint2_linear_213_57)"/>
<path d="M102 71.5776L90.5314 59.95C92.0939 57.7698 93.0236 55.0895 93.0236 52.1983C93.0236 44.9232 87.1876 39 80.0157 39C72.8361 38.9922 67.0001 44.9154 67.0001 52.1904C67.0001 59.4655 72.8361 65.3887 80.0079 65.3887C83.1173 65.3887 85.9689 64.2791 88.2111 62.4271L99.6173 74L102 71.5776ZM80.0079 62.3411C74.4923 62.3411 70.0001 57.7854 70.0001 52.1904C70.0001 46.5955 74.4923 42.0397 80.0079 42.0397C85.5236 42.0397 90.0157 46.5955 90.0157 52.1904C90.0157 57.7854 85.5314 62.3411 80.0079 62.3411Z" fill="white"/>
<path d="M310 55C310 25.1766 285.824 1 256 1C226.177 1 202 25.1766 202 55C202 84.8234 226.177 109 256 109V110C225.624 110 201 85.3757 201 55C201 24.6243 225.624 0 256 0C286.376 0 311 24.6243 311 55C311 85.3757 286.376 110 256 110V109C285.824 109 310 84.8234 310 55Z" fill="white"/>
<path d="M214.418 73H212.111L215.626 62.8182H218.401L221.91 73H219.604L217.053 65.1449H216.974L214.418 73ZM214.274 68.9979H219.723V70.6783H214.274V68.9979Z" fill="url(#paint3_linear_213_57)"/>
<path d="M226.191 73.1492C225.409 73.1492 224.736 72.9834 224.173 72.652C223.612 72.3172 223.182 71.8532 222.88 71.2599C222.582 70.6667 222.432 69.9839 222.432 69.2117C222.432 68.4295 222.583 67.7434 222.885 67.1534C223.19 66.5601 223.622 66.0978 224.182 65.7663C224.743 65.4316 225.409 65.2642 226.181 65.2642C226.847 65.2642 227.431 65.3852 227.931 65.6271C228.432 65.8691 228.828 66.2088 229.119 66.6463C229.411 67.0838 229.572 67.5975 229.602 68.1875H227.603C227.547 67.8064 227.397 67.4998 227.155 67.2678C226.917 67.0324 226.604 66.9148 226.216 66.9148C225.888 66.9148 225.601 67.0043 225.356 67.1832C225.114 67.3589 224.925 67.6158 224.789 67.9538C224.653 68.2919 224.585 68.7012 224.585 69.1818C224.585 69.669 224.651 70.0833 224.784 70.4247C224.92 70.7661 225.111 71.0263 225.356 71.2053C225.601 71.3842 225.888 71.4737 226.216 71.4737C226.458 71.4737 226.675 71.424 226.867 71.3246C227.063 71.2251 227.223 71.081 227.349 70.8921C227.479 70.6998 227.563 70.4695 227.603 70.201H229.602C229.568 70.7843 229.409 71.2981 229.124 71.7422C228.843 72.183 228.453 72.5277 227.956 72.7763C227.459 73.0249 226.87 73.1492 226.191 73.1492Z" fill="url(#paint4_linear_213_57)"/>
<path d="M234.408 73.1492C233.626 73.1492 232.953 72.9834 232.389 72.652C231.829 72.3172 231.398 71.8532 231.097 71.2599C230.798 70.6667 230.649 69.9839 230.649 69.2117C230.649 68.4295 230.8 67.7434 231.102 67.1534C231.407 66.5601 231.839 66.0978 232.399 65.7663C232.959 65.4316 233.626 65.2642 234.398 65.2642C235.064 65.2642 235.647 65.3852 236.148 65.6271C236.648 65.8691 237.044 66.2088 237.336 66.6463C237.628 67.0838 237.788 67.5975 237.818 68.1875H235.82C235.763 67.8064 235.614 67.4998 235.372 67.2678C235.134 67.0324 234.82 66.9148 234.433 66.9148C234.105 66.9148 233.818 67.0043 233.573 67.1832C233.331 67.3589 233.142 67.6158 233.006 67.9538C232.87 68.2919 232.802 68.7012 232.802 69.1818C232.802 69.669 232.868 70.0833 233.001 70.4247C233.137 70.7661 233.327 71.0263 233.573 71.2053C233.818 71.3842 234.105 71.4737 234.433 71.4737C234.675 71.4737 234.892 71.424 235.084 71.3246C235.279 71.2251 235.44 71.081 235.566 70.8921C235.695 70.6998 235.78 70.4695 235.82 70.201H237.818C237.785 70.7843 237.626 71.2981 237.341 71.7422C237.059 72.183 236.67 72.5277 236.173 72.7763C235.676 73.0249 235.087 73.1492 234.408 73.1492Z" fill="url(#paint5_linear_213_57)"/>
<path d="M242.654 73.1492C241.869 73.1492 241.193 72.9901 240.626 72.6719C240.063 72.3504 239.628 71.8963 239.323 71.3097C239.019 70.7197 238.866 70.022 238.866 69.2166C238.866 68.4311 239.019 67.7417 239.323 67.1484C239.628 66.5552 240.058 66.0928 240.611 65.7614C241.168 65.4299 241.821 65.2642 242.57 65.2642C243.074 65.2642 243.543 65.3454 243.977 65.5078C244.414 65.6669 244.796 65.9072 245.12 66.2287C245.448 66.5502 245.704 66.9546 245.886 67.4418C246.068 67.9257 246.159 68.4924 246.159 69.1421V69.7237H239.711V68.4112H244.166C244.166 68.1063 244.099 67.8362 243.967 67.6009C243.834 67.3655 243.65 67.1816 243.415 67.049C243.183 66.9131 242.913 66.8452 242.605 66.8452C242.283 66.8452 241.998 66.9198 241.75 67.0689C241.504 67.2147 241.312 67.4119 241.173 67.6605C241.034 67.9058 240.962 68.1792 240.959 68.4808V69.7287C240.959 70.1065 241.029 70.433 241.168 70.7081C241.31 70.9832 241.511 71.1953 241.769 71.3445C242.028 71.4936 242.335 71.5682 242.689 71.5682C242.925 71.5682 243.14 71.535 243.336 71.4688C243.531 71.4025 243.698 71.303 243.838 71.1705C243.977 71.0379 244.083 70.8755 244.156 70.6832L246.115 70.8125C246.015 71.2831 245.811 71.6941 245.503 72.0455C245.198 72.3935 244.804 72.6653 244.32 72.8608C243.839 73.053 243.284 73.1492 242.654 73.1492Z" fill="url(#paint6_linear_213_57)"/>
<path d="M253.895 67.5412L251.956 67.6605C251.923 67.4948 251.852 67.3456 251.742 67.2131C251.633 67.0772 251.489 66.9695 251.31 66.8899C251.134 66.8071 250.924 66.7656 250.679 66.7656C250.35 66.7656 250.074 66.8352 249.848 66.9744C249.623 67.1103 249.51 67.2926 249.51 67.5213C249.51 67.7036 249.583 67.8577 249.729 67.9837C249.875 68.1096 250.125 68.2107 250.48 68.2869L251.862 68.5653C252.604 68.7178 253.158 68.9631 253.522 69.3011C253.887 69.6392 254.069 70.0833 254.069 70.6335C254.069 71.134 253.922 71.5732 253.627 71.951C253.335 72.3288 252.934 72.6238 252.424 72.8359C251.916 73.0448 251.332 73.1492 250.669 73.1492C249.658 73.1492 248.852 72.9387 248.252 72.5178C247.656 72.0935 247.306 71.5168 247.203 70.7876L249.287 70.6783C249.349 70.9865 249.502 71.2218 249.744 71.3842C249.986 71.5433 250.296 71.6229 250.674 71.6229C251.045 71.6229 251.343 71.5516 251.568 71.4091C251.797 71.2633 251.913 71.076 251.916 70.8473C251.913 70.6551 251.832 70.4976 251.673 70.375C251.514 70.2491 251.269 70.1529 250.937 70.0867L249.615 69.8232C248.869 69.674 248.314 69.4155 247.949 69.0476C247.588 68.6797 247.407 68.2107 247.407 67.6406C247.407 67.1501 247.54 66.7275 247.805 66.3729C248.073 66.0182 248.45 65.7448 248.934 65.5526C249.421 65.3603 249.991 65.2642 250.644 65.2642C251.608 65.2642 252.367 65.468 252.921 65.8757C253.478 66.2834 253.802 66.8385 253.895 67.5412Z" fill="url(#paint7_linear_213_57)"/>
<path d="M261.757 67.5412L259.818 67.6605C259.784 67.4948 259.713 67.3456 259.604 67.2131C259.494 67.0772 259.35 66.9695 259.171 66.8899C258.996 66.8071 258.785 66.7656 258.54 66.7656C258.212 66.7656 257.935 66.8352 257.71 66.9744C257.484 67.1103 257.372 67.2926 257.372 67.5213C257.372 67.7036 257.444 67.8577 257.59 67.9837C257.736 68.1096 257.986 68.2107 258.341 68.2869L259.723 68.5653C260.466 68.7178 261.019 68.9631 261.384 69.3011C261.748 69.6392 261.931 70.0833 261.931 70.6335C261.931 71.134 261.783 71.5732 261.488 71.951C261.196 72.3288 260.795 72.6238 260.285 72.8359C259.778 73.0448 259.193 73.1492 258.53 73.1492C257.519 73.1492 256.714 72.9387 256.114 72.5178C255.517 72.0935 255.167 71.5168 255.065 70.7876L257.148 70.6783C257.211 70.9865 257.363 71.2218 257.605 71.3842C257.847 71.5433 258.157 71.6229 258.535 71.6229C258.906 71.6229 259.204 71.5516 259.43 71.4091C259.659 71.2633 259.775 71.076 259.778 70.8473C259.775 70.6551 259.693 70.4976 259.534 70.375C259.375 70.2491 259.13 70.1529 258.798 70.0867L257.476 69.8232C256.73 69.674 256.175 69.4155 255.81 69.0476C255.449 68.6797 255.269 68.2107 255.269 67.6406C255.269 67.1501 255.401 66.7275 255.666 66.3729C255.935 66.0182 256.311 65.7448 256.795 65.5526C257.282 65.3603 257.852 65.2642 258.505 65.2642C259.47 65.2642 260.229 65.468 260.782 65.8757C261.339 66.2834 261.664 66.8385 261.757 67.5412Z" fill="url(#paint8_linear_213_57)"/>
<path d="M263.264 73V65.3636H265.382V73H263.264ZM264.328 64.3793C264.013 64.3793 263.743 64.2749 263.518 64.0661C263.296 63.8539 263.185 63.6004 263.185 63.3054C263.185 63.0137 263.296 62.7635 263.518 62.5547C263.743 62.3426 264.013 62.2365 264.328 62.2365C264.643 62.2365 264.911 62.3426 265.133 62.5547C265.359 62.7635 265.472 63.0137 265.472 63.3054C265.472 63.6004 265.359 63.8539 265.133 64.0661C264.911 64.2749 264.643 64.3793 264.328 64.3793Z" fill="url(#paint9_linear_213_57)"/>
<path d="M267.118 73V62.8182H269.236V66.6463H269.301C269.394 66.4408 269.528 66.232 269.704 66.0199C269.883 65.8045 270.115 65.6255 270.4 65.483C270.688 65.3371 271.046 65.2642 271.473 65.2642C272.03 65.2642 272.544 65.41 273.015 65.7017C273.485 65.9901 273.862 66.4259 274.143 67.0092C274.425 67.5893 274.566 68.3168 274.566 69.1918C274.566 70.0436 274.428 70.7628 274.153 71.3494C273.881 71.9328 273.51 72.3752 273.04 72.6769C272.572 72.9751 272.049 73.1243 271.469 73.1243C271.058 73.1243 270.708 73.0564 270.42 72.9205C270.134 72.7846 269.901 72.6139 269.719 72.4084C269.536 72.1996 269.397 71.9891 269.301 71.777H269.206V73H267.118ZM269.192 69.1818C269.192 69.6359 269.255 70.032 269.38 70.37C269.506 70.7081 269.689 70.9716 269.927 71.1605C270.166 71.3461 270.456 71.4389 270.797 71.4389C271.142 71.4389 271.434 71.3445 271.672 71.1555C271.911 70.9633 272.092 70.6982 272.214 70.3601C272.34 70.0187 272.403 69.626 272.403 69.1818C272.403 68.741 272.342 68.3532 272.219 68.0185C272.097 67.6837 271.916 67.4219 271.677 67.233C271.439 67.044 271.145 66.9496 270.797 66.9496C270.453 66.9496 270.161 67.0407 269.922 67.223C269.687 67.4053 269.506 67.6638 269.38 67.9986C269.255 68.3333 269.192 68.7278 269.192 69.1818Z" fill="url(#paint10_linear_213_57)"/>
<path d="M275.979 73V65.3636H278.097V73H275.979ZM277.043 64.3793C276.728 64.3793 276.458 64.2749 276.233 64.0661C276.01 63.8539 275.899 63.6004 275.899 63.3054C275.899 63.0137 276.01 62.7635 276.233 62.5547C276.458 62.3426 276.728 62.2365 277.043 62.2365C277.358 62.2365 277.626 62.3426 277.848 62.5547C278.074 62.7635 278.186 63.0137 278.186 63.3054C278.186 63.6004 278.074 63.8539 277.848 64.0661C277.626 64.2749 277.358 64.3793 277.043 64.3793Z" fill="url(#paint11_linear_213_57)"/>
<path d="M281.911 62.8182V73H279.793V62.8182H281.911Z" fill="url(#paint12_linear_213_57)"/>
<path d="M283.608 73V65.3636H285.726V73H283.608ZM284.672 64.3793C284.357 64.3793 284.087 64.2749 283.861 64.0661C283.639 63.8539 283.528 63.6004 283.528 63.3054C283.528 63.0137 283.639 62.7635 283.861 62.5547C284.087 62.3426 284.357 62.2365 284.672 62.2365C284.987 62.2365 285.255 62.3426 285.477 62.5547C285.703 62.7635 285.815 63.0137 285.815 63.3054C285.815 63.6004 285.703 63.8539 285.477 64.0661C285.255 64.2749 284.987 64.3793 284.672 64.3793Z" fill="url(#paint13_linear_213_57)"/>
<path d="M291.484 65.3636V66.9546H286.885V65.3636H291.484ZM287.929 63.5341H290.047V70.6534C290.047 70.849 290.077 71.0014 290.137 71.1108C290.197 71.2169 290.279 71.2914 290.385 71.3345C290.495 71.3776 290.621 71.3992 290.763 71.3992C290.863 71.3992 290.962 71.3909 291.062 71.3743C291.161 71.3544 291.237 71.3395 291.29 71.3296L291.623 72.9055C291.517 72.9387 291.368 72.9768 291.176 73.0199C290.984 73.0663 290.75 73.0945 290.475 73.1044C289.964 73.1243 289.517 73.0564 289.133 72.9006C288.751 72.7448 288.455 72.5028 288.243 72.1747C288.031 71.8466 287.926 71.4323 287.929 70.9318V63.5341Z" fill="url(#paint14_linear_213_57)"/>
<path d="M294.171 75.8636C293.903 75.8636 293.651 75.8421 293.416 75.799C293.184 75.7592 292.991 75.7079 292.839 75.6449L293.316 74.0639C293.565 74.1402 293.788 74.1816 293.987 74.1882C294.19 74.1948 294.364 74.1484 294.509 74.049C294.659 73.9496 294.779 73.7805 294.872 73.5419L294.997 73.2188L292.257 65.3636H294.484L296.065 70.9716H296.145L297.741 65.3636H299.983L297.015 73.8253C296.873 74.2363 296.679 74.5942 296.433 74.8992C296.191 75.2074 295.885 75.4444 295.514 75.6101C295.142 75.7791 294.695 75.8636 294.171 75.8636Z" fill="url(#paint15_linear_213_57)"/>
<path d="M244 40.5C244 33.5957 249.596 28 256.5 28C263.404 28 269 33.5957 269 40.5C269 47.4043 263.404 53 256.5 53C249.596 53 244 47.4043 244 40.5ZM251.886 36.2959C251.29 36.042 250.602 36.3154 250.348 36.9111C250.094 37.5068 250.367 38.1953 250.963 38.4492L251.544 38.6982C252.389 39.0596 253.263 39.3281 254.161 39.4941V41.9404C254.161 42.1504 254.127 42.3604 254.059 42.5557L252.657 46.7598C252.452 47.375 252.784 48.0391 253.4 48.2441C254.015 48.4492 254.679 48.1172 254.884 47.502L256.075 43.9277C256.139 43.7422 256.31 43.6152 256.505 43.6152C256.7 43.6152 256.876 43.7422 256.935 43.9277L258.126 47.502C258.331 48.1172 258.995 48.4492 259.61 48.2441C260.226 48.0391 260.553 47.3848 260.348 46.7695L258.946 42.5654C258.878 42.3652 258.844 42.1602 258.844 41.9502V39.5039C259.742 39.333 260.616 39.0693 261.461 38.708L262.042 38.459C262.638 38.2051 262.911 37.5166 262.657 36.9209C262.403 36.3252 261.715 36.0518 261.119 36.3057L260.538 36.5449C259.264 37.0918 257.892 37.375 256.5 37.375C255.109 37.375 253.741 37.0918 252.462 36.5449L251.881 36.2959H251.886ZM256.5 35.8125C257.579 35.8125 258.453 34.9385 258.453 33.8594C258.453 32.7803 257.579 31.9062 256.5 31.9062C255.421 31.9062 254.547 32.7803 254.547 33.8594C254.547 34.9385 255.421 35.8125 256.5 35.8125Z" fill="#FDFEFF"/>
<path d="M340 375C340 347.938 318.062 326 291 326C263.938 326 242 347.938 242 375C242 402.062 263.938 424 291 424V425C263.386 425 241 402.614 241 375C241 347.386 263.386 325 291 325C318.614 325 341 347.386 341 375C341 402.614 318.614 425 291 425V424C318.062 424 340 402.062 340 375Z" fill="white"/>
<path d="M259.976 384.383H257.799C257.759 384.101 257.678 383.851 257.555 383.632C257.432 383.41 257.275 383.221 257.083 383.065C256.891 382.91 256.668 382.79 256.417 382.707C256.168 382.625 255.898 382.583 255.606 382.583C255.079 382.583 254.62 382.714 254.229 382.976C253.838 383.234 253.535 383.612 253.319 384.109C253.104 384.603 252.996 385.203 252.996 385.909C252.996 386.635 253.104 387.245 253.319 387.739C253.538 388.232 253.843 388.605 254.234 388.857C254.625 389.109 255.078 389.235 255.591 389.235C255.88 389.235 256.146 389.197 256.392 389.121C256.64 389.045 256.861 388.933 257.053 388.788C257.245 388.639 257.404 388.458 257.53 388.246C257.659 388.034 257.749 387.792 257.799 387.52L259.976 387.53C259.92 387.997 259.779 388.448 259.554 388.882C259.332 389.313 259.032 389.699 258.654 390.04C258.279 390.379 257.832 390.647 257.311 390.846C256.794 391.041 256.209 391.139 255.556 391.139C254.648 391.139 253.836 390.934 253.12 390.523C252.408 390.112 251.844 389.517 251.43 388.738C251.019 387.959 250.814 387.016 250.814 385.909C250.814 384.799 251.022 383.854 251.44 383.075C251.858 382.296 252.424 381.703 253.14 381.295C253.856 380.884 254.662 380.679 255.556 380.679C256.146 380.679 256.693 380.762 257.197 380.928C257.704 381.093 258.153 381.335 258.544 381.653C258.936 381.968 259.254 382.354 259.499 382.812C259.748 383.269 259.907 383.793 259.976 384.383Z" fill="url(#paint16_linear_213_57)"/>
<path d="M264.93 391.149C264.158 391.149 263.49 390.985 262.927 390.657C262.367 390.326 261.934 389.865 261.629 389.275C261.324 388.682 261.172 387.994 261.172 387.212C261.172 386.423 261.324 385.733 261.629 385.143C261.934 384.55 262.367 384.089 262.927 383.761C263.49 383.43 264.158 383.264 264.93 383.264C265.703 383.264 266.369 383.43 266.929 383.761C267.492 384.089 267.927 384.55 268.232 385.143C268.536 385.733 268.689 386.423 268.689 387.212C268.689 387.994 268.536 388.682 268.232 389.275C267.927 389.865 267.492 390.326 266.929 390.657C266.369 390.985 265.703 391.149 264.93 391.149ZM264.94 389.509C265.292 389.509 265.585 389.409 265.82 389.21C266.056 389.008 266.233 388.733 266.352 388.385C266.475 388.037 266.536 387.641 266.536 387.197C266.536 386.753 266.475 386.357 266.352 386.009C266.233 385.661 266.056 385.385 265.82 385.183C265.585 384.981 265.292 384.88 264.94 384.88C264.586 384.88 264.287 384.981 264.045 385.183C263.807 385.385 263.626 385.661 263.504 386.009C263.384 386.357 263.325 386.753 263.325 387.197C263.325 387.641 263.384 388.037 263.504 388.385C263.626 388.733 263.807 389.008 264.045 389.21C264.287 389.409 264.586 389.509 264.94 389.509Z" fill="url(#paint17_linear_213_57)"/>
<path d="M270.066 391V383.364H272.085V384.711H272.174C272.333 384.264 272.598 383.911 272.969 383.652C273.341 383.393 273.785 383.264 274.302 383.264C274.826 383.264 275.271 383.395 275.639 383.657C276.007 383.915 276.252 384.267 276.375 384.711H276.455C276.61 384.273 276.892 383.924 277.3 383.662C277.711 383.397 278.196 383.264 278.756 383.264C279.469 383.264 280.047 383.491 280.492 383.945C280.939 384.396 281.163 385.036 281.163 385.864V391H279.05V386.282C279.05 385.858 278.937 385.54 278.712 385.327C278.486 385.115 278.205 385.009 277.867 385.009C277.482 385.009 277.182 385.132 276.967 385.377C276.751 385.619 276.643 385.939 276.643 386.337V391H274.59V386.237C274.59 385.863 274.483 385.564 274.267 385.342C274.055 385.12 273.775 385.009 273.427 385.009C273.192 385.009 272.979 385.069 272.791 385.188C272.605 385.304 272.457 385.468 272.348 385.68C272.239 385.889 272.184 386.134 272.184 386.416V391H270.066Z" fill="url(#paint18_linear_213_57)"/>
<path d="M282.836 393.864V383.364H284.924V384.646H285.018C285.111 384.441 285.245 384.232 285.421 384.02C285.6 383.804 285.832 383.625 286.117 383.483C286.405 383.337 286.763 383.264 287.191 383.264C287.748 383.264 288.261 383.41 288.732 383.702C289.203 383.99 289.579 384.426 289.86 385.009C290.142 385.589 290.283 386.317 290.283 387.192C290.283 388.044 290.146 388.763 289.87 389.349C289.599 389.933 289.227 390.375 288.757 390.677C288.289 390.975 287.766 391.124 287.186 391.124C286.775 391.124 286.425 391.056 286.137 390.92C285.852 390.785 285.618 390.614 285.436 390.408C285.253 390.2 285.114 389.989 285.018 389.777H284.954V393.864H282.836ZM284.909 387.182C284.909 387.636 284.972 388.032 285.098 388.37C285.224 388.708 285.406 388.972 285.645 389.161C285.883 389.346 286.173 389.439 286.515 389.439C286.859 389.439 287.151 389.344 287.39 389.156C287.628 388.963 287.809 388.698 287.931 388.36C288.057 388.019 288.12 387.626 288.12 387.182C288.12 386.741 288.059 386.353 287.936 386.018C287.814 385.684 287.633 385.422 287.395 385.233C287.156 385.044 286.863 384.95 286.515 384.95C286.17 384.95 285.878 385.041 285.64 385.223C285.404 385.405 285.224 385.664 285.098 385.999C284.972 386.333 284.909 386.728 284.909 387.182Z" fill="url(#paint19_linear_213_57)"/>
<path d="M293.813 380.818V391H291.695V380.818H293.813Z" fill="url(#paint20_linear_213_57)"/>
<path d="M295.509 391V383.364H297.627V391H295.509ZM296.573 382.379C296.258 382.379 295.988 382.275 295.763 382.066C295.541 381.854 295.43 381.6 295.43 381.305C295.43 381.014 295.541 380.764 295.763 380.555C295.988 380.343 296.258 380.237 296.573 380.237C296.888 380.237 297.157 380.343 297.379 380.555C297.604 380.764 297.717 381.014 297.717 381.305C297.717 381.6 297.604 381.854 297.379 382.066C297.157 382.275 296.888 382.379 296.573 382.379Z" fill="url(#paint21_linear_213_57)"/>
<path d="M301.501 391.144C301.014 391.144 300.58 391.06 300.199 390.891C299.818 390.718 299.516 390.465 299.294 390.13C299.075 389.792 298.966 389.371 298.966 388.867C298.966 388.443 299.044 388.087 299.2 387.798C299.355 387.51 299.568 387.278 299.836 387.102C300.104 386.927 300.409 386.794 300.751 386.705C301.095 386.615 301.457 386.552 301.835 386.516C302.279 386.469 302.637 386.426 302.908 386.386C303.18 386.343 303.377 386.28 303.5 386.197C303.623 386.115 303.684 385.992 303.684 385.83V385.8C303.684 385.485 303.585 385.241 303.386 385.069C303.19 384.897 302.912 384.81 302.55 384.81C302.169 384.81 301.866 384.895 301.641 385.064C301.415 385.23 301.266 385.438 301.193 385.69L299.234 385.531C299.334 385.067 299.529 384.666 299.821 384.328C300.113 383.987 300.489 383.725 300.95 383.543C301.414 383.357 301.951 383.264 302.56 383.264C302.985 383.264 303.391 383.314 303.778 383.413C304.17 383.513 304.516 383.667 304.818 383.876C305.122 384.085 305.363 384.353 305.538 384.681C305.714 385.006 305.802 385.395 305.802 385.849V391H303.793V389.941H303.734C303.611 390.18 303.447 390.39 303.242 390.572C303.036 390.751 302.789 390.892 302.501 390.995C302.212 391.094 301.879 391.144 301.501 391.144ZM302.108 389.683C302.42 389.683 302.695 389.621 302.933 389.499C303.172 389.373 303.359 389.204 303.495 388.991C303.631 388.779 303.699 388.539 303.699 388.271V387.46C303.633 387.503 303.541 387.543 303.425 387.58C303.313 387.613 303.185 387.644 303.043 387.674C302.9 387.701 302.758 387.725 302.615 387.749C302.473 387.768 302.343 387.787 302.227 387.803C301.979 387.84 301.762 387.898 301.576 387.977C301.39 388.057 301.246 388.165 301.143 388.3C301.041 388.433 300.989 388.599 300.989 388.798C300.989 389.086 301.094 389.306 301.303 389.459C301.515 389.608 301.783 389.683 302.108 389.683Z" fill="url(#paint22_linear_213_57)"/>
<path d="M309.563 386.585V391H307.445V383.364H309.463V384.711H309.553C309.722 384.267 310.005 383.915 310.403 383.657C310.801 383.395 311.283 383.264 311.85 383.264C312.38 383.264 312.842 383.38 313.237 383.612C313.631 383.844 313.938 384.176 314.157 384.607C314.375 385.034 314.485 385.545 314.485 386.138V391H312.367V386.516C312.37 386.048 312.251 385.684 312.009 385.422C311.767 385.157 311.434 385.024 311.01 385.024C310.725 385.024 310.473 385.085 310.254 385.208C310.039 385.331 309.869 385.51 309.747 385.745C309.628 385.977 309.566 386.257 309.563 386.585Z" fill="url(#paint23_linear_213_57)"/>
<path d="M319.604 391.149C318.822 391.149 318.149 390.983 317.586 390.652C317.026 390.317 316.595 389.853 316.293 389.26C315.995 388.667 315.846 387.984 315.846 387.212C315.846 386.429 315.997 385.743 316.298 385.153C316.603 384.56 317.036 384.098 317.596 383.766C318.156 383.432 318.822 383.264 319.594 383.264C320.261 383.264 320.844 383.385 321.344 383.627C321.845 383.869 322.241 384.209 322.533 384.646C322.824 385.084 322.985 385.598 323.015 386.188H321.016C320.96 385.806 320.811 385.5 320.569 385.268C320.33 385.032 320.017 384.915 319.629 384.915C319.301 384.915 319.014 385.004 318.769 385.183C318.527 385.359 318.338 385.616 318.202 385.954C318.066 386.292 317.998 386.701 317.998 387.182C317.998 387.669 318.065 388.083 318.197 388.425C318.333 388.766 318.524 389.026 318.769 389.205C319.014 389.384 319.301 389.474 319.629 389.474C319.871 389.474 320.088 389.424 320.28 389.325C320.476 389.225 320.637 389.081 320.763 388.892C320.892 388.7 320.976 388.469 321.016 388.201H323.015C322.982 388.784 322.823 389.298 322.537 389.742C322.256 390.183 321.866 390.528 321.369 390.776C320.872 391.025 320.284 391.149 319.604 391.149Z" fill="url(#paint24_linear_213_57)"/>
<path d="M327.851 391.149C327.065 391.149 326.389 390.99 325.822 390.672C325.259 390.35 324.825 389.896 324.52 389.31C324.215 388.72 324.063 388.022 324.063 387.217C324.063 386.431 324.215 385.742 324.52 385.148C324.825 384.555 325.254 384.093 325.808 383.761C326.364 383.43 327.017 383.264 327.766 383.264C328.27 383.264 328.739 383.345 329.173 383.508C329.611 383.667 329.992 383.907 330.317 384.229C330.645 384.55 330.9 384.955 331.082 385.442C331.265 385.926 331.356 386.492 331.356 387.142V387.724H324.908V386.411H329.362C329.362 386.106 329.296 385.836 329.163 385.601C329.031 385.366 328.847 385.182 328.612 385.049C328.38 384.913 328.109 384.845 327.801 384.845C327.48 384.845 327.195 384.92 326.946 385.069C326.701 385.215 326.509 385.412 326.369 385.661C326.23 385.906 326.159 386.179 326.156 386.481V387.729C326.156 388.107 326.225 388.433 326.364 388.708C326.507 388.983 326.707 389.195 326.966 389.344C327.224 389.494 327.531 389.568 327.886 389.568C328.121 389.568 328.336 389.535 328.532 389.469C328.728 389.402 328.895 389.303 329.034 389.17C329.173 389.038 329.279 388.875 329.352 388.683L331.311 388.813C331.212 389.283 331.008 389.694 330.7 390.045C330.395 390.393 330 390.665 329.516 390.861C329.036 391.053 328.481 391.149 327.851 391.149Z" fill="url(#paint25_linear_213_57)"/>
<path d="M291.578 346.605C291.537 346.324 291.323 346.095 291.042 346.053C289.891 345.892 288.719 346.1 287.688 346.647L283.834 348.704C282.808 349.251 281.98 350.11 281.47 351.157L279.558 355.094C279.048 356.141 278.881 357.328 279.084 358.474L279.839 362.786C280.043 363.937 280.6 364.989 281.438 365.801L284.579 368.843C285.417 369.655 286.485 370.176 287.636 370.337L291.958 370.947C293.109 371.108 294.281 370.9 295.312 370.353L299.166 368.296C300.192 367.749 301.02 366.89 301.531 365.838L303.442 361.906C303.952 360.859 304.119 359.672 303.916 358.526C303.869 358.25 303.64 358.042 303.364 358C300.682 357.573 298.531 355.547 297.922 352.928C297.828 352.532 297.505 352.23 297.104 352.167C294.26 351.714 292.016 349.459 291.573 346.605H291.578ZM289 352.667C289.922 352.667 290.667 353.412 290.667 354.334C290.667 355.255 289.922 356 289 356C288.078 356 287.334 355.255 287.334 354.334C287.334 353.412 288.078 352.667 289 352.667ZM285.667 362.666C285.667 361.745 286.412 361 287.334 361C288.256 361 289 361.745 289 362.666C289 363.588 288.256 364.333 287.334 364.333C286.412 364.333 285.667 363.588 285.667 362.666ZM297.333 359.333C298.255 359.333 299 360.078 299 361C299 361.922 298.255 362.666 297.333 362.666C296.411 362.666 295.666 361.922 295.666 361C295.666 360.078 296.411 359.333 297.333 359.333Z" fill="#FDFEFF"/>
<path d="M173 355C173 330.699 153.301 311 129 311C104.7 311 85.0001 330.699 85.0001 355C85.0001 379.301 104.7 399 129 399V400C104.147 400 84.0001 379.853 84.0001 355C84.0001 330.147 104.147 310 129 310C153.853 310 174 330.147 174 355C174 379.853 153.853 400 129 400V399C153.301 399 173 379.301 173 355Z" fill="white"/>
<path d="M105.476 361.273V370H103.883L100.086 364.507H100.022V370H98.1766V361.273H99.796L103.563 366.761H103.64V361.273H105.476Z" fill="url(#paint26_linear_213_57)"/>
<path d="M108.833 370.124C108.416 370.124 108.043 370.051 107.717 369.906C107.39 369.759 107.132 369.541 106.941 369.254C106.754 368.964 106.66 368.604 106.66 368.172C106.66 367.808 106.727 367.503 106.86 367.256C106.994 367.009 107.176 366.81 107.406 366.659C107.636 366.509 107.897 366.395 108.19 366.318C108.485 366.241 108.795 366.187 109.119 366.156C109.499 366.116 109.806 366.08 110.039 366.045C110.272 366.009 110.441 365.955 110.546 365.884C110.651 365.812 110.704 365.707 110.704 365.568V365.543C110.704 365.273 110.619 365.064 110.448 364.916C110.281 364.768 110.042 364.695 109.732 364.695C109.406 364.695 109.146 364.767 108.953 364.912C108.759 365.054 108.632 365.233 108.569 365.449L106.89 365.312C106.975 364.915 107.143 364.571 107.393 364.281C107.643 363.989 107.965 363.764 108.36 363.608C108.758 363.449 109.218 363.369 109.741 363.369C110.105 363.369 110.453 363.412 110.785 363.497C111.12 363.582 111.417 363.714 111.676 363.893C111.937 364.072 112.143 364.303 112.293 364.584C112.444 364.862 112.519 365.196 112.519 365.585V370H110.798V369.092H110.747C110.641 369.297 110.501 369.477 110.325 369.634C110.149 369.787 109.937 369.908 109.69 369.996C109.443 370.081 109.157 370.124 108.833 370.124ZM109.353 368.871C109.62 368.871 109.856 368.818 110.061 368.713C110.265 368.605 110.426 368.46 110.542 368.278C110.659 368.097 110.717 367.891 110.717 367.661V366.966C110.66 367.003 110.582 367.037 110.482 367.068C110.386 367.097 110.276 367.124 110.154 367.149C110.032 367.172 109.91 367.193 109.788 367.213C109.666 367.23 109.555 367.246 109.455 367.26C109.242 367.291 109.056 367.341 108.897 367.409C108.738 367.477 108.614 367.57 108.526 367.686C108.438 367.8 108.394 367.942 108.394 368.112C108.394 368.359 108.484 368.548 108.663 368.679C108.845 368.807 109.075 368.871 109.353 368.871Z" fill="url(#paint27_linear_213_57)"/>
<path d="M119.796 363.455L117.507 370H115.462L113.173 363.455H115.091L116.45 368.138H116.519L117.874 363.455H119.796Z" fill="url(#paint28_linear_213_57)"/>
<path d="M120.725 370V363.455H122.54V370H120.725ZM121.637 362.611C121.367 362.611 121.135 362.521 120.942 362.342C120.752 362.161 120.656 361.943 120.656 361.69C120.656 361.44 120.752 361.226 120.942 361.047C121.135 360.865 121.367 360.774 121.637 360.774C121.906 360.774 122.137 360.865 122.327 361.047C122.52 361.226 122.617 361.44 122.617 361.69C122.617 361.943 122.52 362.161 122.327 362.342C122.137 362.521 121.906 362.611 121.637 362.611Z" fill="url(#paint29_linear_213_57)"/>
<path d="M126.943 372.591C126.355 372.591 125.851 372.51 125.43 372.348C125.013 372.189 124.68 371.972 124.433 371.696C124.186 371.42 124.025 371.111 123.951 370.767L125.63 370.541C125.682 370.672 125.763 370.794 125.873 370.908C125.984 371.021 126.13 371.112 126.312 371.18C126.497 371.251 126.721 371.287 126.986 371.287C127.38 371.287 127.706 371.19 127.961 370.997C128.22 370.807 128.349 370.487 128.349 370.038V368.841H128.273C128.193 369.023 128.074 369.195 127.915 369.357C127.755 369.518 127.551 369.651 127.301 369.753C127.051 369.855 126.753 369.906 126.406 369.906C125.915 369.906 125.467 369.793 125.064 369.565C124.663 369.335 124.344 368.984 124.105 368.513C123.869 368.038 123.751 367.439 123.751 366.714C123.751 365.973 123.872 365.354 124.113 364.857C124.355 364.359 124.676 363.987 125.076 363.74C125.48 363.493 125.922 363.369 126.402 363.369C126.768 363.369 127.075 363.432 127.322 363.557C127.569 363.679 127.768 363.832 127.919 364.017C128.072 364.199 128.19 364.378 128.273 364.554H128.341V363.455H130.143V370.064C130.143 370.621 130.007 371.087 129.734 371.462C129.461 371.837 129.084 372.118 128.601 372.305C128.121 372.496 127.568 372.591 126.943 372.591ZM126.981 368.543C127.274 368.543 127.521 368.47 127.723 368.325C127.927 368.178 128.084 367.967 128.192 367.695C128.302 367.419 128.358 367.089 128.358 366.706C128.358 366.322 128.304 365.99 128.196 365.709C128.088 365.425 127.932 365.205 127.727 365.048C127.523 364.892 127.274 364.814 126.981 364.814C126.683 364.814 126.432 364.895 126.227 365.057C126.023 365.216 125.868 365.437 125.763 365.722C125.657 366.006 125.605 366.334 125.605 366.706C125.605 367.084 125.657 367.411 125.763 367.686C125.871 367.959 126.025 368.17 126.227 368.321C126.432 368.469 126.683 368.543 126.981 368.543Z" fill="url(#paint30_linear_213_57)"/>
<path d="M133.454 370.124C133.037 370.124 132.665 370.051 132.338 369.906C132.011 369.759 131.753 369.541 131.562 369.254C131.375 368.964 131.281 368.604 131.281 368.172C131.281 367.808 131.348 367.503 131.481 367.256C131.615 367.009 131.797 366.81 132.027 366.659C132.257 366.509 132.518 366.395 132.811 366.318C133.106 366.241 133.416 366.187 133.74 366.156C134.121 366.116 134.427 366.08 134.66 366.045C134.893 366.009 135.062 365.955 135.167 365.884C135.273 365.812 135.325 365.707 135.325 365.568V365.543C135.325 365.273 135.24 365.064 135.069 364.916C134.902 364.768 134.663 364.695 134.353 364.695C134.027 364.695 133.767 364.767 133.574 364.912C133.38 365.054 133.253 365.233 133.19 365.449L131.511 365.312C131.596 364.915 131.764 364.571 132.014 364.281C132.264 363.989 132.586 363.764 132.981 363.608C133.379 363.449 133.839 363.369 134.362 363.369C134.726 363.369 135.074 363.412 135.406 363.497C135.741 363.582 136.038 363.714 136.297 363.893C136.558 364.072 136.764 364.303 136.915 364.584C137.065 364.862 137.14 365.196 137.14 365.585V370H135.419V369.092H135.368C135.263 369.297 135.122 369.477 134.946 369.634C134.77 369.787 134.558 369.908 134.311 369.996C134.064 370.081 133.778 370.124 133.454 370.124ZM133.974 368.871C134.241 368.871 134.477 368.818 134.682 368.713C134.886 368.605 135.047 368.46 135.163 368.278C135.28 368.097 135.338 367.891 135.338 367.661V366.966C135.281 367.003 135.203 367.037 135.103 367.068C135.007 367.097 134.898 367.124 134.775 367.149C134.653 367.172 134.531 367.193 134.409 367.213C134.287 367.23 134.176 367.246 134.076 367.26C133.863 367.291 133.677 367.341 133.518 367.409C133.359 367.477 133.236 367.57 133.148 367.686C133.059 367.8 133.015 367.942 133.015 368.112C133.015 368.359 133.105 368.548 133.284 368.679C133.466 368.807 133.696 368.871 133.974 368.871Z" fill="url(#paint31_linear_213_57)"/>
<path d="M142.03 363.455V364.818H138.089V363.455H142.03ZM138.983 361.886H140.799V367.989C140.799 368.156 140.824 368.287 140.875 368.381C140.927 368.472 140.998 368.536 141.089 368.572C141.182 368.609 141.29 368.628 141.412 368.628C141.498 368.628 141.583 368.621 141.668 368.607C141.753 368.589 141.819 368.577 141.864 368.568L142.15 369.919C142.059 369.947 141.931 369.98 141.766 370.017C141.601 370.057 141.401 370.081 141.165 370.089C140.728 370.107 140.344 370.048 140.015 369.915C139.688 369.781 139.434 369.574 139.252 369.293C139.07 369.011 138.981 368.656 138.983 368.227V361.886Z" fill="url(#paint32_linear_213_57)"/>
<path d="M143.213 370V363.455H145.028V370H143.213ZM144.125 362.611C143.855 362.611 143.623 362.521 143.43 362.342C143.24 362.161 143.145 361.943 143.145 361.69C143.145 361.44 143.24 361.226 143.43 361.047C143.623 360.865 143.855 360.774 144.125 360.774C144.395 360.774 144.625 360.865 144.815 361.047C145.008 361.226 145.105 361.44 145.105 361.69C145.105 361.943 145.008 362.161 144.815 362.342C144.625 362.521 144.395 362.611 144.125 362.611Z" fill="url(#paint33_linear_213_57)"/>
<path d="M149.44 370.128C148.778 370.128 148.205 369.987 147.722 369.706C147.242 369.422 146.872 369.027 146.61 368.521C146.349 368.013 146.218 367.423 146.218 366.753C146.218 366.077 146.349 365.486 146.61 364.98C146.872 364.472 147.242 364.077 147.722 363.795C148.205 363.511 148.778 363.369 149.44 363.369C150.102 363.369 150.673 363.511 151.153 363.795C151.636 364.077 152.008 364.472 152.269 364.98C152.531 365.486 152.661 366.077 152.661 366.753C152.661 367.423 152.531 368.013 152.269 368.521C152.008 369.027 151.636 369.422 151.153 369.706C150.673 369.987 150.102 370.128 149.44 370.128ZM149.448 368.722C149.749 368.722 150.001 368.636 150.203 368.466C150.404 368.293 150.556 368.057 150.659 367.759C150.764 367.46 150.816 367.121 150.816 366.74C150.816 366.359 150.764 366.02 150.659 365.722C150.556 365.423 150.404 365.187 150.203 365.014C150.001 364.841 149.749 364.754 149.448 364.754C149.144 364.754 148.889 364.841 148.681 365.014C148.477 365.187 148.322 365.423 148.217 365.722C148.114 366.02 148.063 366.359 148.063 366.74C148.063 367.121 148.114 367.46 148.217 367.759C148.322 368.057 148.477 368.293 148.681 368.466C148.889 368.636 149.144 368.722 149.448 368.722Z" fill="url(#paint34_linear_213_57)"/>
<path d="M155.657 366.216V370H153.842V363.455H155.572V364.609H155.649C155.793 364.229 156.036 363.928 156.377 363.706C156.718 363.482 157.132 363.369 157.617 363.369C158.072 363.369 158.468 363.469 158.806 363.668C159.144 363.866 159.407 364.151 159.595 364.52C159.782 364.886 159.876 365.324 159.876 365.832V370H158.061V366.156C158.063 365.756 157.961 365.443 157.754 365.219C157.546 364.991 157.261 364.878 156.897 364.878C156.653 364.878 156.437 364.93 156.249 365.036C156.065 365.141 155.92 365.294 155.815 365.496C155.713 365.695 155.66 365.935 155.657 366.216Z" fill="url(#paint35_linear_213_57)"/>
<path d="M122.506 331.1C122.814 330.939 123.187 330.975 123.461 331.189L135.635 340.562C135.95 340.804 136.076 341.226 135.954 341.609C135.833 341.992 135.483 342.249 135.087 342.249H129.293L132.675 349.192C132.976 349.809 132.732 350.559 132.131 350.868C131.53 351.176 130.799 350.926 130.499 350.309L127.117 343.367L123.644 348.125C123.408 348.449 122.997 348.578 122.624 348.453C122.251 348.328 122 347.969 122 347.567V331.94C122 331.584 122.194 331.26 122.506 331.1Z" fill="#FDFEFF"/>
<path d="M390 137C390 115.461 372.539 98 351 98C329.461 98 312 115.461 312 137C312 158.539 329.461 176 351 176V177C328.909 177 311 159.091 311 137C311 114.909 328.909 97 351 97C373.092 97 391 114.909 391 137C391 159.091 373.092 177 351 177V176C372.539 176 390 158.539 390 137Z" fill="white"/>
<path d="M333.019 148.383H330.842C330.802 148.101 330.721 147.851 330.598 147.632C330.475 147.41 330.318 147.221 330.126 147.065C329.934 146.91 329.711 146.79 329.46 146.707C329.211 146.625 328.941 146.583 328.649 146.583C328.122 146.583 327.663 146.714 327.272 146.976C326.881 147.234 326.578 147.612 326.362 148.109C326.147 148.603 326.039 149.203 326.039 149.909C326.039 150.635 326.147 151.245 326.362 151.739C326.581 152.232 326.886 152.605 327.277 152.857C327.668 153.109 328.121 153.235 328.634 153.235C328.923 153.235 329.189 153.197 329.435 153.121C329.683 153.045 329.904 152.933 330.096 152.788C330.288 152.639 330.447 152.458 330.573 152.246C330.702 152.034 330.792 151.792 330.842 151.52L333.019 151.53C332.963 151.997 332.822 152.448 332.597 152.882C332.375 153.313 332.075 153.699 331.697 154.04C331.322 154.379 330.875 154.647 330.354 154.846C329.837 155.041 329.252 155.139 328.599 155.139C327.691 155.139 326.879 154.934 326.163 154.523C325.451 154.112 324.887 153.517 324.473 152.738C324.062 151.959 323.857 151.016 323.857 149.909C323.857 148.799 324.065 147.854 324.483 147.075C324.901 146.296 325.467 145.703 326.183 145.295C326.899 144.884 327.705 144.679 328.599 144.679C329.189 144.679 329.736 144.762 330.24 144.928C330.747 145.093 331.196 145.335 331.587 145.653C331.978 145.968 332.297 146.354 332.542 146.812C332.791 147.269 332.95 147.793 333.019 148.383Z" fill="url(#paint36_linear_213_57)"/>
<path d="M337.973 155.149C337.201 155.149 336.533 154.985 335.97 154.657C335.41 154.326 334.977 153.865 334.672 153.275C334.367 152.682 334.215 151.994 334.215 151.212C334.215 150.423 334.367 149.733 334.672 149.143C334.977 148.55 335.41 148.089 335.97 147.761C336.533 147.43 337.201 147.264 337.973 147.264C338.746 147.264 339.412 147.43 339.972 147.761C340.535 148.089 340.97 148.55 341.275 149.143C341.579 149.733 341.732 150.423 341.732 151.212C341.732 151.994 341.579 152.682 341.275 153.275C340.97 153.865 340.535 154.326 339.972 154.657C339.412 154.985 338.746 155.149 337.973 155.149ZM337.983 153.509C338.335 153.509 338.628 153.409 338.863 153.21C339.099 153.008 339.276 152.733 339.395 152.385C339.518 152.037 339.579 151.641 339.579 151.197C339.579 150.753 339.518 150.357 339.395 150.009C339.276 149.661 339.099 149.385 338.863 149.183C338.628 148.981 338.335 148.88 337.983 148.88C337.629 148.88 337.33 148.981 337.088 149.183C336.85 149.385 336.669 149.661 336.547 150.009C336.427 150.357 336.368 150.753 336.368 151.197C336.368 151.641 336.427 152.037 336.547 152.385C336.669 152.733 336.85 153.008 337.088 153.21C337.33 153.409 337.629 153.509 337.983 153.509Z" fill="url(#paint37_linear_213_57)"/>
<path d="M345.227 150.585V155H343.109V147.364H345.128V148.711H345.217C345.386 148.267 345.669 147.915 346.067 147.657C346.465 147.395 346.947 147.264 347.514 147.264C348.044 147.264 348.507 147.38 348.901 147.612C349.295 147.844 349.602 148.176 349.821 148.607C350.039 149.034 350.149 149.545 350.149 150.138V155H348.031V150.516C348.034 150.048 347.915 149.684 347.673 149.422C347.431 149.157 347.098 149.024 346.674 149.024C346.389 149.024 346.137 149.085 345.918 149.208C345.703 149.331 345.534 149.51 345.411 149.745C345.292 149.977 345.23 150.257 345.227 150.585Z" fill="url(#paint38_linear_213_57)"/>
<path d="M355.88 147.364V148.955H351.281V147.364H355.88ZM352.325 145.534H354.443V152.653C354.443 152.849 354.473 153.001 354.533 153.111C354.592 153.217 354.675 153.291 354.781 153.335C354.89 153.378 355.016 153.399 355.159 153.399C355.258 153.399 355.358 153.391 355.457 153.374C355.557 153.354 355.633 153.339 355.686 153.33L356.019 154.906C355.913 154.939 355.764 154.977 355.572 155.02C355.379 155.066 355.146 155.094 354.871 155.104C354.36 155.124 353.913 155.056 353.528 154.901C353.147 154.745 352.85 154.503 352.638 154.175C352.426 153.847 352.322 153.432 352.325 152.932V145.534Z" fill="url(#paint39_linear_213_57)"/>
<path d="M360.658 155.149C359.872 155.149 359.196 154.99 358.629 154.672C358.066 154.35 357.631 153.896 357.327 153.31C357.022 152.72 356.869 152.022 356.869 151.217C356.869 150.431 357.022 149.742 357.327 149.148C357.631 148.555 358.061 148.093 358.614 147.761C359.171 147.43 359.824 147.264 360.573 147.264C361.077 147.264 361.546 147.345 361.98 147.508C362.417 147.667 362.799 147.907 363.123 148.229C363.452 148.55 363.707 148.955 363.889 149.442C364.071 149.926 364.162 150.492 364.162 151.142V151.724H357.714V150.411H362.169C362.169 150.106 362.103 149.836 361.97 149.601C361.837 149.366 361.653 149.182 361.418 149.049C361.186 148.913 360.916 148.845 360.608 148.845C360.286 148.845 360.001 148.92 359.753 149.069C359.507 149.215 359.315 149.412 359.176 149.661C359.037 149.906 358.966 150.179 358.962 150.481V151.729C358.962 152.107 359.032 152.433 359.171 152.708C359.314 152.983 359.514 153.195 359.773 153.344C360.031 153.494 360.338 153.568 360.692 153.568C360.928 153.568 361.143 153.535 361.339 153.469C361.534 153.402 361.702 153.303 361.841 153.17C361.98 153.038 362.086 152.875 362.159 152.683L364.118 152.813C364.018 153.283 363.814 153.694 363.506 154.045C363.201 154.393 362.807 154.665 362.323 154.861C361.842 155.053 361.287 155.149 360.658 155.149Z" fill="url(#paint40_linear_213_57)"/>
<path d="M367.662 150.585V155H365.545V147.364H367.563V148.711H367.653C367.822 148.267 368.105 147.915 368.503 147.657C368.9 147.395 369.383 147.264 369.949 147.264C370.48 147.264 370.942 147.38 371.337 147.612C371.731 147.844 372.037 148.176 372.256 148.607C372.475 149.034 372.584 149.545 372.584 150.138V155H370.466V150.516C370.47 150.048 370.35 149.684 370.109 149.422C369.867 149.157 369.533 149.024 369.109 149.024C368.824 149.024 368.572 149.085 368.354 149.208C368.138 149.331 367.969 149.51 367.846 149.745C367.727 149.977 367.666 150.257 367.662 150.585Z" fill="url(#paint41_linear_213_57)"/>
<path d="M378.315 147.364V148.955H373.717V147.364H378.315ZM374.761 145.534H376.879V152.653C376.879 152.849 376.908 153.001 376.968 153.111C377.028 153.217 377.111 153.291 377.217 153.335C377.326 153.378 377.452 153.399 377.594 153.399C377.694 153.399 377.793 153.391 377.893 153.374C377.992 153.354 378.068 153.339 378.121 153.33L378.455 154.906C378.349 154.939 378.199 154.977 378.007 155.02C377.815 155.066 377.581 155.094 377.306 155.104C376.796 155.124 376.348 155.056 375.964 154.901C375.583 154.745 375.286 154.503 375.074 154.175C374.862 153.847 374.757 153.432 374.761 152.932V145.534Z" fill="url(#paint42_linear_213_57)"/>
<path d="M345.833 115.062H350.792V118.844C350.792 120.554 352.217 121.938 353.979 121.938H357.875V132.25C357.875 132.628 357.556 132.938 357.167 132.938H345.833C345.444 132.938 345.125 132.628 345.125 132.25V115.75C345.125 115.372 345.444 115.062 345.833 115.062ZM352.917 115.918L356.994 119.875H353.979C353.39 119.875 352.917 119.415 352.917 118.844V115.918ZM345.833 113C344.271 113 343 114.233 343 115.75V132.25C343 133.767 344.271 135 345.833 135H357.167C358.73 135 360 133.767 360 132.25V121.014C360 120.283 359.704 119.583 359.172 119.067L353.745 113.804C353.213 113.288 352.496 113 351.744 113H345.833ZM348.313 124C347.724 124 347.25 124.46 347.25 125.031C347.25 125.603 347.724 126.062 348.313 126.062H354.688C355.276 126.062 355.75 125.603 355.75 125.031C355.75 124.46 355.276 124 354.688 124H348.313ZM348.313 128.125C347.724 128.125 347.25 128.585 347.25 129.156C347.25 129.728 347.724 130.188 348.313 130.188H354.688C355.276 130.188 355.75 129.728 355.75 129.156C355.75 128.585 355.276 128.125 354.688 128.125H348.313Z" fill="#FDFEFF"/>
<path d="M470 261C470 222.892 439.108 192 401 192C362.892 192 332 222.892 332 261C332 299.108 362.892 330 401 330V331C362.34 331 331 299.66 331 261C331 222.34 362.34 191 401 191C439.66 191 471 222.34 471 261C471 299.66 439.66 331 401 331V330C439.108 330 470 299.108 470 261Z" fill="white"/>
<path d="M388 227.75C388 225.13 390.12 223 392.727 223H409.273C411.88 223 414 225.13 414 227.75V256.25C414 258.87 411.88 261 409.273 261H392.727C390.12 261 388 258.87 388 256.25V227.75ZM396.273 255.656C396.273 256.643 397.063 257.438 398.046 257.438H403.955C404.937 257.438 405.727 256.643 405.727 255.656C405.727 254.669 404.937 253.875 403.955 253.875H398.046C397.063 253.875 396.273 254.669 396.273 255.656ZM409.273 227.75H392.727V250.312H409.273V227.75Z" fill="#FDFEFF"/>
<path d="M362.838 273.545H367.389L372.195 285.273H372.4L377.207 273.545H381.758V291H378.178V279.639H378.034L373.517 290.915H371.079L366.562 279.597H366.417V291H362.838V273.545Z" fill="url(#paint43_linear_213_57)"/>
<path d="M390.645 291.256C389.321 291.256 388.176 290.974 387.21 290.412C386.25 289.844 385.509 289.054 384.986 288.043C384.463 287.026 384.202 285.847 384.202 284.506C384.202 283.153 384.463 281.972 384.986 280.96C385.509 279.943 386.25 279.153 387.21 278.591C388.176 278.023 389.321 277.739 390.645 277.739C391.969 277.739 393.111 278.023 394.071 278.591C395.037 279.153 395.781 279.943 396.304 280.96C396.827 281.972 397.088 283.153 397.088 284.506C397.088 285.847 396.827 287.026 396.304 288.043C395.781 289.054 395.037 289.844 394.071 290.412C393.111 290.974 391.969 291.256 390.645 291.256ZM390.662 288.443C391.264 288.443 391.767 288.273 392.171 287.932C392.574 287.585 392.878 287.114 393.083 286.517C393.293 285.92 393.398 285.241 393.398 284.48C393.398 283.719 393.293 283.04 393.083 282.443C392.878 281.847 392.574 281.375 392.171 281.028C391.767 280.682 391.264 280.509 390.662 280.509C390.054 280.509 389.543 280.682 389.128 281.028C388.719 281.375 388.409 281.847 388.199 282.443C387.994 283.04 387.892 283.719 387.892 284.48C387.892 285.241 387.994 285.92 388.199 286.517C388.409 287.114 388.719 287.585 389.128 287.932C389.543 288.273 390.054 288.443 390.662 288.443Z" fill="url(#paint44_linear_213_57)"/>
<path d="M399.517 291V273.545H403.148V280.108H403.259C403.418 279.756 403.648 279.398 403.949 279.034C404.256 278.665 404.654 278.358 405.142 278.114C405.637 277.864 406.25 277.739 406.983 277.739C407.938 277.739 408.818 277.989 409.625 278.489C410.432 278.983 411.077 279.73 411.56 280.73C412.043 281.724 412.284 282.972 412.284 284.472C412.284 285.932 412.048 287.165 411.577 288.17C411.111 289.17 410.475 289.929 409.668 290.446C408.867 290.957 407.969 291.213 406.975 291.213C406.27 291.213 405.671 291.097 405.176 290.864C404.688 290.631 404.287 290.338 403.975 289.986C403.662 289.628 403.423 289.267 403.259 288.903H403.097V291H399.517ZM403.071 284.455C403.071 285.233 403.179 285.912 403.395 286.491C403.611 287.071 403.923 287.523 404.333 287.847C404.742 288.165 405.239 288.324 405.824 288.324C406.415 288.324 406.915 288.162 407.324 287.838C407.733 287.509 408.043 287.054 408.253 286.474C408.469 285.889 408.577 285.216 408.577 284.455C408.577 283.699 408.472 283.034 408.262 282.46C408.051 281.886 407.742 281.437 407.333 281.114C406.923 280.79 406.421 280.628 405.824 280.628C405.233 280.628 404.733 280.784 404.324 281.097C403.921 281.409 403.611 281.852 403.395 282.426C403.179 283 403.071 283.676 403.071 284.455Z" fill="url(#paint45_linear_213_57)"/>
<path d="M414.707 291V277.909H418.338V291H414.707ZM416.531 276.222C415.991 276.222 415.528 276.043 415.142 275.685C414.761 275.321 414.57 274.886 414.57 274.381C414.57 273.881 414.761 273.452 415.142 273.094C415.528 272.73 415.991 272.548 416.531 272.548C417.07 272.548 417.531 272.73 417.911 273.094C418.298 273.452 418.491 273.881 418.491 274.381C418.491 274.886 418.298 275.321 417.911 275.685C417.531 276.043 417.07 276.222 416.531 276.222Z" fill="url(#paint46_linear_213_57)"/>
<path d="M424.877 273.545V291H421.246V273.545H424.877Z" fill="url(#paint47_linear_213_57)"/>
<path d="M433.751 291.256C432.404 291.256 431.245 290.983 430.274 290.437C429.308 289.886 428.563 289.108 428.041 288.102C427.518 287.091 427.257 285.895 427.257 284.514C427.257 283.168 427.518 281.986 428.041 280.969C428.563 279.952 429.299 279.159 430.248 278.591C431.203 278.023 432.322 277.739 433.606 277.739C434.47 277.739 435.274 277.878 436.018 278.156C436.768 278.429 437.421 278.841 437.978 279.392C438.541 279.943 438.978 280.636 439.291 281.472C439.603 282.301 439.759 283.273 439.759 284.386V285.384H428.705V283.134H436.342C436.342 282.611 436.228 282.148 436.001 281.744C435.774 281.341 435.458 281.026 435.055 280.798C434.657 280.565 434.194 280.449 433.666 280.449C433.115 280.449 432.626 280.577 432.2 280.832C431.779 281.082 431.45 281.42 431.211 281.847C430.972 282.267 430.85 282.736 430.845 283.253V285.392C430.845 286.04 430.964 286.599 431.203 287.071C431.447 287.543 431.791 287.906 432.234 288.162C432.677 288.418 433.203 288.545 433.811 288.545C434.214 288.545 434.583 288.489 434.918 288.375C435.254 288.261 435.541 288.091 435.779 287.864C436.018 287.636 436.2 287.358 436.325 287.028L439.683 287.25C439.512 288.057 439.163 288.761 438.634 289.364C438.112 289.96 437.436 290.426 436.606 290.761C435.782 291.091 434.83 291.256 433.751 291.256Z" fill="url(#paint48_linear_213_57)"/>
<path d="M103.712 229.356C103.712 200.993 80.7194 178 52.3565 178C23.9933 178 1 200.993 1 229.356C1.00024 257.719 23.9935 280.712 52.3565 280.712V281.712L51.6797 281.708C23.301 281.349 0.363115 258.411 0.00390625 230.032L0 229.356C0 200.441 23.441 177 52.3565 177L53.0323 177.004C81.6361 177.366 104.712 200.667 104.712 229.356L104.708 230.032C104.346 258.636 81.046 281.712 52.3565 281.712V280.712C80.7193 280.712 103.712 257.719 103.712 229.356Z" fill="white"/>
<path d="M23.676 238.674C23.6249 238.158 23.4054 237.758 23.0176 237.472C22.6299 237.187 22.1036 237.044 21.4388 237.044C20.9871 237.044 20.6057 237.108 20.2946 237.236C19.9836 237.359 19.7449 237.532 19.5787 237.754C19.4168 237.975 19.3358 238.227 19.3358 238.508C19.3273 238.742 19.3763 238.947 19.4828 239.121C19.5936 239.296 19.7449 239.447 19.9367 239.575C20.1284 239.699 20.35 239.808 20.6015 239.901C20.8529 239.991 21.1213 240.067 21.4068 240.131L22.583 240.413C23.154 240.54 23.6782 240.711 24.1554 240.924C24.6327 241.137 25.0461 241.399 25.3955 241.71C25.7449 242.021 26.0155 242.388 26.2073 242.81C26.4033 243.232 26.5034 243.715 26.5077 244.261C26.5034 245.062 26.2989 245.756 25.8941 246.344C25.4935 246.928 24.914 247.382 24.1554 247.706C23.4012 248.026 22.4914 248.185 21.426 248.185C20.3692 248.185 19.4488 248.023 18.6647 247.7C17.8848 247.376 17.2755 246.896 16.8365 246.261C16.4019 245.622 16.1739 244.832 16.1526 243.89H18.8309C18.8607 244.329 18.9864 244.695 19.208 244.989C19.4338 245.279 19.7343 245.499 20.1093 245.648C20.4885 245.793 20.9168 245.865 21.3941 245.865C21.8628 245.865 22.2698 245.797 22.6149 245.661C22.9644 245.524 23.235 245.335 23.4267 245.092C23.6185 244.849 23.7144 244.57 23.7144 244.254C23.7144 243.96 23.627 243.713 23.4523 243.513C23.2818 243.313 23.0304 243.142 22.698 243.001C22.3699 242.861 21.9672 242.733 21.4899 242.618L20.0645 242.26C18.9608 241.991 18.0894 241.572 17.4502 241.001C16.811 240.43 16.4935 239.661 16.4978 238.693C16.4935 237.901 16.7044 237.208 17.1306 236.616C17.561 236.023 18.1512 235.561 18.9012 235.229C19.6512 234.896 20.5034 234.73 21.458 234.73C22.4296 234.73 23.2776 234.896 24.002 235.229C24.7307 235.561 25.2975 236.023 25.7023 236.616C26.1071 237.208 26.3159 237.894 26.3287 238.674H23.676Z" fill="url(#paint49_linear_213_57)"/>
<path d="M32.7927 248.192C31.7827 248.192 30.9134 247.987 30.1847 247.578C29.4603 247.165 28.9021 246.581 28.51 245.827C28.118 245.068 27.9219 244.171 27.9219 243.136C27.9219 242.126 28.118 241.239 28.51 240.477C28.9021 239.714 29.4539 239.119 30.1656 238.693C30.8815 238.267 31.7209 238.054 32.684 238.054C33.3317 238.054 33.9347 238.158 34.493 238.367C35.0555 238.572 35.5455 238.881 35.9631 239.294C36.385 239.707 36.7131 240.227 36.9475 240.854C37.1819 241.476 37.2991 242.205 37.2991 243.04V243.788H29.0086V242.1H34.7359C34.7359 241.708 34.6506 241.361 34.4802 241.058C34.3097 240.756 34.0732 240.519 33.7707 240.349C33.4724 240.174 33.1251 240.087 32.7288 240.087C32.3154 240.087 31.9489 240.183 31.6293 240.374C31.314 240.562 31.0668 240.815 30.8879 241.135C30.7089 241.45 30.6173 241.802 30.613 242.19V243.794C30.613 244.28 30.7025 244.7 30.8815 245.053C31.0647 245.407 31.3225 245.68 31.6549 245.871C31.9873 246.063 32.3815 246.159 32.8374 246.159C33.14 246.159 33.417 246.116 33.6684 246.031C33.9198 245.946 34.135 245.818 34.314 245.648C34.493 245.477 34.6293 245.268 34.7231 245.021L37.2415 245.188C37.1137 245.793 36.8516 246.321 36.4553 246.773C36.0633 247.22 35.5562 247.57 34.934 247.821C34.3161 248.068 33.6023 248.192 32.7927 248.192Z" fill="url(#paint50_linear_213_57)"/>
<path d="M43.5121 248.192C42.5065 248.192 41.6414 247.979 40.917 247.553C40.1968 247.122 39.6428 246.526 39.255 245.763C38.8715 245 38.6798 244.122 38.6798 243.129C38.6798 242.124 38.8736 241.241 39.2614 240.483C39.6535 239.72 40.2096 239.126 40.9298 238.7C41.6499 238.269 42.5065 238.054 43.4994 238.054C44.3559 238.054 45.1059 238.21 45.7494 238.521C46.3928 238.832 46.9021 239.268 47.2771 239.831C47.6521 240.393 47.8587 241.054 47.8971 241.813H45.3275C45.255 241.322 45.0633 240.928 44.7522 240.63C44.4454 240.327 44.0427 240.176 43.5441 240.176C43.1222 240.176 42.7536 240.291 42.4383 240.521C42.1272 240.747 41.8843 241.077 41.7096 241.512C41.5349 241.947 41.4475 242.473 41.4475 243.091C41.4475 243.717 41.5327 244.25 41.7032 244.689C41.8779 245.128 42.1229 245.462 42.4383 245.692C42.7536 245.923 43.1222 246.038 43.5441 246.038C43.8552 246.038 44.1343 245.974 44.3815 245.846C44.6329 245.718 44.8396 245.533 45.0015 245.29C45.1677 245.043 45.2763 244.746 45.3275 244.401H47.8971C47.8545 245.151 47.6499 245.812 47.2834 246.383C46.9212 246.95 46.4205 247.393 45.7813 247.712C45.1421 248.032 44.3857 248.192 43.5121 248.192Z" fill="url(#paint51_linear_213_57)"/>
<path d="M55.9367 243.82V238.182H58.6597V248H56.0453V246.217H55.9431C55.7215 246.792 55.3529 247.254 54.8372 247.604C54.3259 247.953 53.7016 248.128 52.9644 248.128C52.3081 248.128 51.7307 247.979 51.2321 247.68C50.7336 247.382 50.3436 246.958 50.0624 246.408C49.7854 245.859 49.6448 245.2 49.6405 244.433V238.182H52.3635V243.947C52.3678 244.527 52.5233 244.985 52.8301 245.322C53.137 245.658 53.5482 245.827 54.0638 245.827C54.3919 245.827 54.6988 245.752 54.9843 245.603C55.2698 245.45 55.4999 245.224 55.6746 244.925C55.8536 244.627 55.9409 244.259 55.9367 243.82Z" fill="url(#paint52_linear_213_57)"/>
<path d="M60.8378 248V238.182H63.4777V239.895H63.58C63.7589 239.286 64.0594 238.825 64.4812 238.514C64.9031 238.199 65.3889 238.041 65.9386 238.041C66.075 238.041 66.222 238.05 66.3797 238.067C66.5374 238.084 66.6758 238.107 66.7952 238.137V240.553C66.6673 240.515 66.4905 240.481 66.2646 240.451C66.0388 240.421 65.8321 240.406 65.6446 240.406C65.244 240.406 64.8861 240.494 64.5707 240.668C64.2597 240.839 64.0125 241.077 63.8293 241.384C63.6503 241.691 63.5608 242.045 63.5608 242.445V248H60.8378Z" fill="url(#paint53_linear_213_57)"/>
<path d="M68.203 248V238.182H70.926V248H68.203ZM69.5709 236.916C69.1661 236.916 68.8188 236.782 68.529 236.513C68.2435 236.241 68.1007 235.915 68.1007 235.536C68.1007 235.161 68.2435 234.839 68.529 234.57C68.8188 234.298 69.1661 234.161 69.5709 234.161C69.9757 234.161 70.3209 234.298 70.6064 234.57C70.8962 234.839 71.0411 235.161 71.0411 235.536C71.0411 235.915 70.8962 236.241 70.6064 236.513C70.3209 236.782 69.9757 236.916 69.5709 236.916Z" fill="url(#paint54_linear_213_57)"/>
<path d="M78.3296 238.182V240.227H72.417V238.182H78.3296ZM73.7593 235.83H76.4823V244.983C76.4823 245.234 76.5207 245.43 76.5974 245.571C76.6741 245.707 76.7806 245.803 76.917 245.859C77.0576 245.914 77.2195 245.942 77.4028 245.942C77.5306 245.942 77.6584 245.931 77.7863 245.91C77.9141 245.884 78.0121 245.865 78.0803 245.852L78.5086 247.879C78.3722 247.921 78.1805 247.97 77.9333 248.026C77.6861 248.085 77.3857 248.121 77.032 248.134C76.3758 248.16 75.8005 248.072 75.3062 247.872C74.8161 247.672 74.4347 247.361 74.162 246.939C73.8893 246.517 73.755 245.984 73.7593 245.341V235.83Z" fill="url(#paint55_linear_213_57)"/>
<path d="M81.7845 251.682C81.4393 251.682 81.1155 251.654 80.8129 251.599C80.5146 251.548 80.2675 251.482 80.0714 251.401L80.6851 249.368C81.0047 249.466 81.2923 249.519 81.548 249.528C81.8079 249.536 82.0317 249.477 82.2192 249.349C82.4109 249.221 82.5665 249.004 82.6858 248.697L82.8456 248.281L79.3236 238.182H82.1872L84.2199 245.392H84.3222L86.374 238.182H89.2568L85.4408 249.061C85.2575 249.589 85.0082 250.05 84.6929 250.442C84.3818 250.838 83.9876 251.143 83.5104 251.356C83.0331 251.573 82.4578 251.682 81.7845 251.682Z" fill="url(#paint56_linear_213_57)"/>
<path d="M50.0001 205.882V208.824H56.0001V205.882C56.0001 204.26 54.6548 202.941 53.0001 202.941C51.3454 202.941 50.0001 204.26 50.0001 205.882ZM47.0001 208.824V205.882C47.0001 202.633 49.6861 200 53.0001 200C56.3142 200 59.0001 202.633 59.0001 205.882V208.824C60.6548 208.824 62.0001 210.142 62.0001 211.765V222.059C62.0001 223.681 60.6548 225 59.0001 225H47.0001C45.3454 225 44.0001 223.681 44.0001 222.059V211.765C44.0001 210.142 45.3454 208.824 47.0001 208.824Z" fill="#FDFEFF"/>
<path d="M321 223C321 168.324 276.676 124 222 124C167.324 124 123 168.324 123 223C123 277.676 167.324 322 222 322V323C166.772 323 122 278.228 122 223C122 167.772 166.772 123 222 123C277.229 123 322 167.772 322 223C322 278.228 277.229 323 222 323V322C276.676 322 321 277.676 321 223Z" fill="white"/>
<path d="M147.193 258.222V240.768H154.079C155.403 240.768 156.531 241.021 157.463 241.526C158.395 242.026 159.105 242.722 159.593 243.614C160.088 244.501 160.335 245.523 160.335 246.682C160.335 247.842 160.085 248.864 159.585 249.751C159.085 250.637 158.36 251.327 157.412 251.822C156.468 252.316 155.326 252.563 153.985 252.563H149.596V249.606H153.389C154.099 249.606 154.684 249.484 155.145 249.239C155.61 248.989 155.957 248.646 156.184 248.208C156.417 247.765 156.534 247.256 156.534 246.682C156.534 246.103 156.417 245.597 156.184 245.165C155.957 244.728 155.61 244.39 155.145 244.151C154.679 243.907 154.088 243.785 153.372 243.785H150.883V258.222H147.193Z" fill="url(#paint57_linear_213_57)"/>
<path d="M168.419 258.478C167.072 258.478 165.913 258.205 164.941 257.66C163.976 257.109 163.231 256.33 162.708 255.324C162.186 254.313 161.924 253.117 161.924 251.736C161.924 250.39 162.186 249.208 162.708 248.191C163.231 247.174 163.967 246.381 164.916 245.813C165.87 245.245 166.99 244.961 168.274 244.961C169.137 244.961 169.941 245.1 170.686 245.378C171.436 245.651 172.089 246.063 172.646 246.614C173.208 247.165 173.646 247.859 173.958 248.694C174.271 249.523 174.427 250.495 174.427 251.609V252.606H163.373V250.356H171.01C171.01 249.833 170.896 249.37 170.669 248.967C170.441 248.563 170.126 248.248 169.723 248.021C169.325 247.788 168.862 247.671 168.333 247.671C167.782 247.671 167.294 247.799 166.868 248.055C166.447 248.305 166.118 248.643 165.879 249.069C165.64 249.489 165.518 249.958 165.512 250.475V252.614C165.512 253.262 165.632 253.822 165.87 254.293C166.115 254.765 166.458 255.128 166.902 255.384C167.345 255.64 167.87 255.768 168.478 255.768C168.882 255.768 169.251 255.711 169.586 255.597C169.922 255.484 170.208 255.313 170.447 255.086C170.686 254.859 170.868 254.58 170.993 254.251L174.351 254.472C174.18 255.279 173.831 255.984 173.302 256.586C172.78 257.182 172.103 257.648 171.274 257.984C170.45 258.313 169.498 258.478 168.419 258.478Z" fill="url(#paint58_linear_213_57)"/>
<path d="M176.797 258.222V245.131H180.316V247.415H180.453C180.691 246.603 181.092 245.989 181.655 245.574C182.217 245.154 182.865 244.944 183.598 244.944C183.78 244.944 183.976 244.955 184.186 244.978C184.396 245.001 184.581 245.032 184.74 245.072V248.293C184.569 248.242 184.333 248.197 184.032 248.157C183.731 248.117 183.456 248.097 183.206 248.097C182.672 248.097 182.194 248.214 181.774 248.447C181.359 248.674 181.03 248.992 180.785 249.401C180.547 249.81 180.427 250.282 180.427 250.816V258.222H176.797Z" fill="url(#paint59_linear_213_57)"/>
<path d="M194.313 245.131V247.859H186.233V245.131H194.313ZM188.083 258.222V244.185C188.083 243.236 188.267 242.449 188.637 241.824C189.012 241.199 189.523 240.731 190.171 240.418C190.819 240.106 191.554 239.949 192.378 239.949C192.935 239.949 193.444 239.992 193.904 240.077C194.37 240.163 194.716 240.239 194.944 240.307L194.296 243.035C194.154 242.989 193.978 242.947 193.767 242.907C193.563 242.867 193.353 242.847 193.137 242.847C192.603 242.847 192.231 242.972 192.02 243.222C191.81 243.467 191.705 243.81 191.705 244.253V258.222H188.083Z" fill="url(#paint60_linear_213_57)"/>
<path d="M201.977 258.478C200.653 258.478 199.508 258.197 198.542 257.634C197.582 257.066 196.841 256.276 196.318 255.265C195.795 254.248 195.534 253.069 195.534 251.728C195.534 250.376 195.795 249.194 196.318 248.182C196.841 247.165 197.582 246.376 198.542 245.813C199.508 245.245 200.653 244.961 201.977 244.961C203.301 244.961 204.443 245.245 205.403 245.813C206.369 246.376 207.113 247.165 207.636 248.182C208.159 249.194 208.42 250.376 208.42 251.728C208.42 253.069 208.159 254.248 207.636 255.265C207.113 256.276 206.369 257.066 205.403 257.634C204.443 258.197 203.301 258.478 201.977 258.478ZM201.994 255.665C202.596 255.665 203.099 255.495 203.503 255.154C203.906 254.807 204.21 254.336 204.414 253.739C204.625 253.143 204.73 252.464 204.73 251.702C204.73 250.941 204.625 250.262 204.414 249.665C204.21 249.069 203.906 248.597 203.503 248.251C203.099 247.904 202.596 247.731 201.994 247.731C201.386 247.731 200.875 247.904 200.46 248.251C200.051 248.597 199.741 249.069 199.531 249.665C199.326 250.262 199.224 250.941 199.224 251.702C199.224 252.464 199.326 253.143 199.531 253.739C199.741 254.336 200.051 254.807 200.46 255.154C200.875 255.495 201.386 255.665 201.994 255.665Z" fill="url(#paint61_linear_213_57)"/>
<path d="M210.781 258.222V245.131H214.301V247.415H214.437C214.676 246.603 215.076 245.989 215.639 245.574C216.201 245.154 216.849 244.944 217.582 244.944C217.764 244.944 217.96 244.955 218.17 244.978C218.38 245.001 218.565 245.032 218.724 245.072V248.293C218.554 248.242 218.318 248.197 218.017 248.157C217.716 248.117 217.44 248.097 217.19 248.097C216.656 248.097 216.179 248.214 215.758 248.447C215.343 248.674 215.014 248.992 214.77 249.401C214.531 249.81 214.412 250.282 214.412 250.816V258.222H210.781Z" fill="url(#paint62_linear_213_57)"/>
<path d="M220.601 258.222V245.131H224.061V247.441H224.215C224.488 246.674 224.942 246.069 225.579 245.626C226.215 245.182 226.976 244.961 227.863 244.961C228.76 244.961 229.525 245.185 230.155 245.634C230.786 246.077 231.206 246.68 231.417 247.441H231.553C231.82 246.691 232.303 246.092 233.002 245.643C233.706 245.188 234.539 244.961 235.499 244.961C236.721 244.961 237.712 245.35 238.473 246.128C239.24 246.901 239.624 247.998 239.624 249.418V258.222H236.002V250.134C236.002 249.407 235.809 248.861 235.422 248.498C235.036 248.134 234.553 247.952 233.973 247.952C233.314 247.952 232.8 248.163 232.431 248.583C232.061 248.998 231.877 249.546 231.877 250.228V258.222H228.357V250.057C228.357 249.415 228.172 248.904 227.803 248.523C227.439 248.143 226.959 247.952 226.363 247.952C225.959 247.952 225.596 248.055 225.272 248.259C224.954 248.458 224.701 248.739 224.513 249.103C224.326 249.461 224.232 249.881 224.232 250.364V258.222H220.601Z" fill="url(#paint63_linear_213_57)"/>
<path d="M246.225 258.469C245.39 258.469 244.645 258.324 243.992 258.035C243.338 257.739 242.821 257.305 242.441 256.731C242.066 256.151 241.878 255.43 241.878 254.566C241.878 253.839 242.012 253.228 242.279 252.734C242.546 252.239 242.909 251.842 243.37 251.54C243.83 251.239 244.353 251.012 244.938 250.859C245.529 250.705 246.148 250.597 246.796 250.535C247.557 250.455 248.171 250.381 248.637 250.313C249.103 250.239 249.441 250.131 249.651 249.989C249.861 249.847 249.966 249.637 249.966 249.359V249.307C249.966 248.768 249.796 248.35 249.455 248.055C249.12 247.759 248.642 247.611 248.023 247.611C247.37 247.611 246.85 247.756 246.463 248.046C246.077 248.33 245.821 248.688 245.696 249.12L242.338 248.847C242.509 248.052 242.844 247.364 243.344 246.785C243.844 246.199 244.489 245.751 245.279 245.438C246.074 245.12 246.995 244.961 248.04 244.961C248.767 244.961 249.463 245.046 250.128 245.217C250.799 245.387 251.392 245.651 251.909 246.009C252.432 246.367 252.844 246.827 253.145 247.39C253.446 247.947 253.597 248.614 253.597 249.393V258.222H250.154V256.407H250.052C249.841 256.816 249.56 257.177 249.208 257.489C248.856 257.796 248.432 258.038 247.938 258.214C247.444 258.384 246.873 258.469 246.225 258.469ZM247.265 255.964C247.799 255.964 248.27 255.859 248.679 255.648C249.088 255.432 249.409 255.143 249.642 254.779C249.875 254.415 249.992 254.003 249.992 253.543V252.154C249.878 252.228 249.722 252.296 249.523 252.359C249.33 252.415 249.111 252.469 248.867 252.521C248.623 252.566 248.378 252.609 248.134 252.648C247.89 252.682 247.668 252.714 247.469 252.742C247.043 252.805 246.671 252.904 246.353 253.04C246.034 253.177 245.787 253.361 245.611 253.594C245.435 253.822 245.347 254.106 245.347 254.447C245.347 254.941 245.526 255.319 245.884 255.58C246.248 255.836 246.708 255.964 247.265 255.964Z" fill="url(#paint64_linear_213_57)"/>
<path d="M260.044 250.654V258.222H256.414V245.131H259.874V247.441H260.027C260.317 246.68 260.803 246.077 261.485 245.634C262.167 245.185 262.993 244.961 263.965 244.961C264.874 244.961 265.667 245.16 266.343 245.557C267.019 245.955 267.544 246.523 267.919 247.262C268.294 247.995 268.482 248.87 268.482 249.887V258.222H264.851V250.535C264.857 249.734 264.652 249.109 264.238 248.66C263.823 248.205 263.252 247.978 262.525 247.978C262.036 247.978 261.604 248.083 261.229 248.293C260.86 248.503 260.57 248.81 260.36 249.214C260.155 249.611 260.05 250.092 260.044 250.654Z" fill="url(#paint65_linear_213_57)"/>
<path d="M277.258 258.478C275.917 258.478 274.764 258.194 273.798 257.626C272.838 257.052 272.099 256.256 271.582 255.239C271.071 254.222 270.815 253.052 270.815 251.728C270.815 250.387 271.074 249.211 271.591 248.199C272.113 247.182 272.855 246.39 273.815 245.822C274.775 245.248 275.917 244.961 277.241 244.961C278.383 244.961 279.383 245.168 280.241 245.583C281.099 245.998 281.778 246.58 282.278 247.33C282.778 248.08 283.054 248.961 283.105 249.972H279.679C279.582 249.319 279.326 248.793 278.912 248.396C278.503 247.992 277.966 247.79 277.301 247.79C276.738 247.79 276.247 247.944 275.826 248.251C275.412 248.552 275.088 248.992 274.855 249.572C274.622 250.151 274.505 250.853 274.505 251.677C274.505 252.512 274.619 253.222 274.846 253.807C275.079 254.393 275.406 254.839 275.826 255.146C276.247 255.452 276.738 255.606 277.301 255.606C277.716 255.606 278.088 255.521 278.417 255.35C278.753 255.18 279.028 254.932 279.244 254.609C279.466 254.279 279.61 253.884 279.679 253.424H283.105C283.048 254.424 282.775 255.305 282.287 256.066C281.804 256.822 281.136 257.413 280.284 257.839C279.432 258.265 278.423 258.478 277.258 258.478Z" fill="url(#paint66_linear_213_57)"/>
<path d="M291.395 258.478C290.049 258.478 288.89 258.205 287.918 257.66C286.952 257.109 286.208 256.33 285.685 255.324C285.162 254.313 284.901 253.117 284.901 251.736C284.901 250.39 285.162 249.208 285.685 248.191C286.208 247.174 286.944 246.381 287.892 245.813C288.847 245.245 289.966 244.961 291.25 244.961C292.114 244.961 292.918 245.1 293.662 245.378C294.412 245.651 295.066 246.063 295.623 246.614C296.185 247.165 296.623 247.859 296.935 248.694C297.248 249.523 297.404 250.495 297.404 251.609V252.606H286.35V250.356H293.986C293.986 249.833 293.873 249.37 293.645 248.967C293.418 248.563 293.103 248.248 292.699 248.021C292.302 247.788 291.838 247.671 291.31 247.671C290.759 247.671 290.27 247.799 289.844 248.055C289.424 248.305 289.094 248.643 288.856 249.069C288.617 249.489 288.495 249.958 288.489 250.475V252.614C288.489 253.262 288.608 253.822 288.847 254.293C289.091 254.765 289.435 255.128 289.878 255.384C290.321 255.64 290.847 255.768 291.455 255.768C291.858 255.768 292.228 255.711 292.563 255.597C292.898 255.484 293.185 255.313 293.424 255.086C293.662 254.859 293.844 254.58 293.969 254.251L297.327 254.472C297.157 255.279 296.807 255.984 296.279 256.586C295.756 257.182 295.08 257.648 294.25 257.984C293.427 258.313 292.475 258.478 291.395 258.478Z" fill="url(#paint67_linear_213_57)"/>
<path d="M203 202.995L205.82 180.734C206.018 179.172 207.364 178 208.967 178H225.652C227.136 178 228.333 179.181 228.333 180.646C228.333 180.958 228.274 181.281 228.165 181.574L223.583 193.622H237.368C239.367 193.622 241 195.223 241 197.205C241 197.928 240.782 198.631 240.367 199.226L221.347 226.662C220.763 227.502 219.803 228 218.784 228H218.497C216.943 228 215.677 226.75 215.677 225.217C215.677 224.993 215.706 224.768 215.766 224.544L220.417 206.12H206.167C204.415 206.12 203 204.723 203 202.995Z" fill="#FDFEFF"/>
<defs>
<linearGradient id="paint0_linear_213_57" x1="84.7" y1="87.4602" x2="84.7" y2="114.371" gradientUnits="userSpaceOnUse">
<stop stop-color="#FDFEFF"/>
<stop offset="1" stop-color="#11A4F4"/>
</linearGradient>
<linearGradient id="paint1_linear_213_57" x1="84.7" y1="87.4602" x2="84.7" y2="114.371" gradientUnits="userSpaceOnUse">
<stop stop-color="#FDFEFF"/>
<stop offset="1" stop-color="#11A4F4"/>
</linearGradient>
<linearGradient id="paint2_linear_213_57" x1="84.7" y1="87.4602" x2="84.7" y2="114.371" gradientUnits="userSpaceOnUse">
<stop stop-color="#FDFEFF"/>
<stop offset="1" stop-color="#11A4F4"/>
</linearGradient>
<linearGradient id="paint3_linear_213_57" x1="256.047" y1="62.2365" x2="256.047" y2="75.8636" gradientUnits="userSpaceOnUse">
<stop stop-color="white"/>
<stop offset="1" stop-color="#11A4F4"/>
</linearGradient>
<linearGradient id="paint4_linear_213_57" x1="256.047" y1="62.2365" x2="256.047" y2="75.8636" gradientUnits="userSpaceOnUse">
<stop stop-color="white"/>
<stop offset="1" stop-color="#11A4F4"/>
</linearGradient>
<linearGradient id="paint5_linear_213_57" x1="256.047" y1="62.2365" x2="256.047" y2="75.8636" gradientUnits="userSpaceOnUse">
<stop stop-color="white"/>
<stop offset="1" stop-color="#11A4F4"/>
</linearGradient>
<linearGradient id="paint6_linear_213_57" x1="256.047" y1="62.2365" x2="256.047" y2="75.8636" gradientUnits="userSpaceOnUse">
<stop stop-color="white"/>
<stop offset="1" stop-color="#11A4F4"/>
</linearGradient>
<linearGradient id="paint7_linear_213_57" x1="256.047" y1="62.2365" x2="256.047" y2="75.8636" gradientUnits="userSpaceOnUse">
<stop stop-color="white"/>
<stop offset="1" stop-color="#11A4F4"/>
</linearGradient>
<linearGradient id="paint8_linear_213_57" x1="256.047" y1="62.2365" x2="256.047" y2="75.8636" gradientUnits="userSpaceOnUse">
<stop stop-color="white"/>
<stop offset="1" stop-color="#11A4F4"/>
</linearGradient>
<linearGradient id="paint9_linear_213_57" x1="256.047" y1="62.2365" x2="256.047" y2="75.8636" gradientUnits="userSpaceOnUse">
<stop stop-color="white"/>
<stop offset="1" stop-color="#11A4F4"/>
</linearGradient>
<linearGradient id="paint10_linear_213_57" x1="256.047" y1="62.2365" x2="256.047" y2="75.8636" gradientUnits="userSpaceOnUse">
<stop stop-color="white"/>
<stop offset="1" stop-color="#11A4F4"/>
</linearGradient>
<linearGradient id="paint11_linear_213_57" x1="256.047" y1="62.2365" x2="256.047" y2="75.8636" gradientUnits="userSpaceOnUse">
<stop stop-color="white"/>
<stop offset="1" stop-color="#11A4F4"/>
</linearGradient>
<linearGradient id="paint12_linear_213_57" x1="256.047" y1="62.2365" x2="256.047" y2="75.8636" gradientUnits="userSpaceOnUse">
<stop stop-color="white"/>
<stop offset="1" stop-color="#11A4F4"/>
</linearGradient>
<linearGradient id="paint13_linear_213_57" x1="256.047" y1="62.2365" x2="256.047" y2="75.8636" gradientUnits="userSpaceOnUse">
<stop stop-color="white"/>
<stop offset="1" stop-color="#11A4F4"/>
</linearGradient>
<linearGradient id="paint14_linear_213_57" x1="256.047" y1="62.2365" x2="256.047" y2="75.8636" gradientUnits="userSpaceOnUse">
<stop stop-color="white"/>
<stop offset="1" stop-color="#11A4F4"/>
</linearGradient>
<linearGradient id="paint15_linear_213_57" x1="256.047" y1="62.2365" x2="256.047" y2="75.8636" gradientUnits="userSpaceOnUse">
<stop stop-color="white"/>
<stop offset="1" stop-color="#11A4F4"/>
</linearGradient>
<linearGradient id="paint16_linear_213_57" x1="291.085" y1="380.237" x2="291.085" y2="393.864" gradientUnits="userSpaceOnUse">
<stop stop-color="#FDFEFF"/>
<stop offset="1" stop-color="#11A4F4"/>
</linearGradient>
<linearGradient id="paint17_linear_213_57" x1="291.085" y1="380.237" x2="291.085" y2="393.864" gradientUnits="userSpaceOnUse">
<stop stop-color="#FDFEFF"/>
<stop offset="1" stop-color="#11A4F4"/>
</linearGradient>
<linearGradient id="paint18_linear_213_57" x1="291.085" y1="380.237" x2="291.085" y2="393.864" gradientUnits="userSpaceOnUse">
<stop stop-color="#FDFEFF"/>
<stop offset="1" stop-color="#11A4F4"/>
</linearGradient>
<linearGradient id="paint19_linear_213_57" x1="291.085" y1="380.237" x2="291.085" y2="393.864" gradientUnits="userSpaceOnUse">
<stop stop-color="#FDFEFF"/>
<stop offset="1" stop-color="#11A4F4"/>
</linearGradient>
<linearGradient id="paint20_linear_213_57" x1="291.085" y1="380.237" x2="291.085" y2="393.864" gradientUnits="userSpaceOnUse">
<stop stop-color="#FDFEFF"/>
<stop offset="1" stop-color="#11A4F4"/>
</linearGradient>
<linearGradient id="paint21_linear_213_57" x1="291.085" y1="380.237" x2="291.085" y2="393.864" gradientUnits="userSpaceOnUse">
<stop stop-color="#FDFEFF"/>
<stop offset="1" stop-color="#11A4F4"/>
</linearGradient>
<linearGradient id="paint22_linear_213_57" x1="291.085" y1="380.237" x2="291.085" y2="393.864" gradientUnits="userSpaceOnUse">
<stop stop-color="#FDFEFF"/>
<stop offset="1" stop-color="#11A4F4"/>
</linearGradient>
<linearGradient id="paint23_linear_213_57" x1="291.085" y1="380.237" x2="291.085" y2="393.864" gradientUnits="userSpaceOnUse">
<stop stop-color="#FDFEFF"/>
<stop offset="1" stop-color="#11A4F4"/>
</linearGradient>
<linearGradient id="paint24_linear_213_57" x1="291.085" y1="380.237" x2="291.085" y2="393.864" gradientUnits="userSpaceOnUse">
<stop stop-color="#FDFEFF"/>
<stop offset="1" stop-color="#11A4F4"/>
</linearGradient>
<linearGradient id="paint25_linear_213_57" x1="291.085" y1="380.237" x2="291.085" y2="393.864" gradientUnits="userSpaceOnUse">
<stop stop-color="#FDFEFF"/>
<stop offset="1" stop-color="#11A4F4"/>
</linearGradient>
<linearGradient id="paint26_linear_213_57" x1="129.026" y1="360.774" x2="129.026" y2="372.591" gradientUnits="userSpaceOnUse">
<stop stop-color="#FDFEFF"/>
<stop offset="1" stop-color="#11A4F4"/>
</linearGradient>
<linearGradient id="paint27_linear_213_57" x1="129.026" y1="360.774" x2="129.026" y2="372.591" gradientUnits="userSpaceOnUse">
<stop stop-color="#FDFEFF"/>
<stop offset="1" stop-color="#11A4F4"/>
</linearGradient>
<linearGradient id="paint28_linear_213_57" x1="129.026" y1="360.774" x2="129.026" y2="372.591" gradientUnits="userSpaceOnUse">
<stop stop-color="#FDFEFF"/>
<stop offset="1" stop-color="#11A4F4"/>
</linearGradient>
<linearGradient id="paint29_linear_213_57" x1="129.026" y1="360.774" x2="129.026" y2="372.591" gradientUnits="userSpaceOnUse">
<stop stop-color="#FDFEFF"/>
<stop offset="1" stop-color="#11A4F4"/>
</linearGradient>
<linearGradient id="paint30_linear_213_57" x1="129.026" y1="360.774" x2="129.026" y2="372.591" gradientUnits="userSpaceOnUse">
<stop stop-color="#FDFEFF"/>
<stop offset="1" stop-color="#11A4F4"/>
</linearGradient>
<linearGradient id="paint31_linear_213_57" x1="129.026" y1="360.774" x2="129.026" y2="372.591" gradientUnits="userSpaceOnUse">
<stop stop-color="#FDFEFF"/>
<stop offset="1" stop-color="#11A4F4"/>
</linearGradient>
<linearGradient id="paint32_linear_213_57" x1="129.026" y1="360.774" x2="129.026" y2="372.591" gradientUnits="userSpaceOnUse">
<stop stop-color="#FDFEFF"/>
<stop offset="1" stop-color="#11A4F4"/>
</linearGradient>
<linearGradient id="paint33_linear_213_57" x1="129.026" y1="360.774" x2="129.026" y2="372.591" gradientUnits="userSpaceOnUse">
<stop stop-color="#FDFEFF"/>
<stop offset="1" stop-color="#11A4F4"/>
</linearGradient>
<linearGradient id="paint34_linear_213_57" x1="129.026" y1="360.774" x2="129.026" y2="372.591" gradientUnits="userSpaceOnUse">
<stop stop-color="#FDFEFF"/>
<stop offset="1" stop-color="#11A4F4"/>
</linearGradient>
<linearGradient id="paint35_linear_213_57" x1="129.026" y1="360.774" x2="129.026" y2="372.591" gradientUnits="userSpaceOnUse">
<stop stop-color="#FDFEFF"/>
<stop offset="1" stop-color="#11A4F4"/>
</linearGradient>
<linearGradient id="paint36_linear_213_57" x1="351.156" y1="144.679" x2="351.156" y2="155.149" gradientUnits="userSpaceOnUse">
<stop stop-color="#FDFEFF"/>
<stop offset="1" stop-color="#11A4F4"/>
</linearGradient>
<linearGradient id="paint37_linear_213_57" x1="351.156" y1="144.679" x2="351.156" y2="155.149" gradientUnits="userSpaceOnUse">
<stop stop-color="#FDFEFF"/>
<stop offset="1" stop-color="#11A4F4"/>
</linearGradient>
<linearGradient id="paint38_linear_213_57" x1="351.156" y1="144.679" x2="351.156" y2="155.149" gradientUnits="userSpaceOnUse">
<stop stop-color="#FDFEFF"/>
<stop offset="1" stop-color="#11A4F4"/>
</linearGradient>
<linearGradient id="paint39_linear_213_57" x1="351.156" y1="144.679" x2="351.156" y2="155.149" gradientUnits="userSpaceOnUse">
<stop stop-color="#FDFEFF"/>
<stop offset="1" stop-color="#11A4F4"/>
</linearGradient>
<linearGradient id="paint40_linear_213_57" x1="351.156" y1="144.679" x2="351.156" y2="155.149" gradientUnits="userSpaceOnUse">
<stop stop-color="#FDFEFF"/>
<stop offset="1" stop-color="#11A4F4"/>
</linearGradient>
<linearGradient id="paint41_linear_213_57" x1="351.156" y1="144.679" x2="351.156" y2="155.149" gradientUnits="userSpaceOnUse">
<stop stop-color="#FDFEFF"/>
<stop offset="1" stop-color="#11A4F4"/>
</linearGradient>
<linearGradient id="paint42_linear_213_57" x1="351.156" y1="144.679" x2="351.156" y2="155.149" gradientUnits="userSpaceOnUse">
<stop stop-color="#FDFEFF"/>
<stop offset="1" stop-color="#11A4F4"/>
</linearGradient>
<linearGradient id="paint43_linear_213_57" x1="401.298" y1="272.548" x2="401.298" y2="291.256" gradientUnits="userSpaceOnUse">
<stop stop-color="#FDFEFF"/>
<stop offset="1" stop-color="#11A4F4"/>
</linearGradient>
<linearGradient id="paint44_linear_213_57" x1="401.298" y1="272.548" x2="401.298" y2="291.256" gradientUnits="userSpaceOnUse">
<stop stop-color="#FDFEFF"/>
<stop offset="1" stop-color="#11A4F4"/>
</linearGradient>
<linearGradient id="paint45_linear_213_57" x1="401.298" y1="272.548" x2="401.298" y2="291.256" gradientUnits="userSpaceOnUse">
<stop stop-color="#FDFEFF"/>
<stop offset="1" stop-color="#11A4F4"/>
</linearGradient>
<linearGradient id="paint46_linear_213_57" x1="401.298" y1="272.548" x2="401.298" y2="291.256" gradientUnits="userSpaceOnUse">
<stop stop-color="#FDFEFF"/>
<stop offset="1" stop-color="#11A4F4"/>
</linearGradient>
<linearGradient id="paint47_linear_213_57" x1="401.298" y1="272.548" x2="401.298" y2="291.256" gradientUnits="userSpaceOnUse">
<stop stop-color="#FDFEFF"/>
<stop offset="1" stop-color="#11A4F4"/>
</linearGradient>
<linearGradient id="paint48_linear_213_57" x1="401.298" y1="272.548" x2="401.298" y2="291.256" gradientUnits="userSpaceOnUse">
<stop stop-color="#FDFEFF"/>
<stop offset="1" stop-color="#11A4F4"/>
</linearGradient>
<linearGradient id="paint49_linear_213_57" x1="52.7047" y1="234.161" x2="52.7047" y2="251.682" gradientUnits="userSpaceOnUse">
<stop stop-color="white"/>
<stop offset="1" stop-color="#11A4F4"/>
</linearGradient>
<linearGradient id="paint50_linear_213_57" x1="52.7047" y1="234.161" x2="52.7047" y2="251.682" gradientUnits="userSpaceOnUse">
<stop stop-color="white"/>
<stop offset="1" stop-color="#11A4F4"/>
</linearGradient>
<linearGradient id="paint51_linear_213_57" x1="52.7047" y1="234.161" x2="52.7047" y2="251.682" gradientUnits="userSpaceOnUse">
<stop stop-color="white"/>
<stop offset="1" stop-color="#11A4F4"/>
</linearGradient>
<linearGradient id="paint52_linear_213_57" x1="52.7047" y1="234.161" x2="52.7047" y2="251.682" gradientUnits="userSpaceOnUse">
<stop stop-color="white"/>
<stop offset="1" stop-color="#11A4F4"/>
</linearGradient>
<linearGradient id="paint53_linear_213_57" x1="52.7047" y1="234.161" x2="52.7047" y2="251.682" gradientUnits="userSpaceOnUse">
<stop stop-color="white"/>
<stop offset="1" stop-color="#11A4F4"/>
</linearGradient>
<linearGradient id="paint54_linear_213_57" x1="52.7047" y1="234.161" x2="52.7047" y2="251.682" gradientUnits="userSpaceOnUse">
<stop stop-color="white"/>
<stop offset="1" stop-color="#11A4F4"/>
</linearGradient>
<linearGradient id="paint55_linear_213_57" x1="52.7047" y1="234.161" x2="52.7047" y2="251.682" gradientUnits="userSpaceOnUse">
<stop stop-color="white"/>
<stop offset="1" stop-color="#11A4F4"/>
</linearGradient>
<linearGradient id="paint56_linear_213_57" x1="52.7047" y1="234.161" x2="52.7047" y2="251.682" gradientUnits="userSpaceOnUse">
<stop stop-color="white"/>
<stop offset="1" stop-color="#11A4F4"/>
</linearGradient>
<linearGradient id="paint57_linear_213_57" x1="222.298" y1="239.949" x2="222.298" y2="258.478" gradientUnits="userSpaceOnUse">
<stop stop-color="#FDFEFF"/>
<stop offset="1" stop-color="#11A4F4"/>
</linearGradient>
<linearGradient id="paint58_linear_213_57" x1="222.298" y1="239.949" x2="222.298" y2="258.478" gradientUnits="userSpaceOnUse">
<stop stop-color="#FDFEFF"/>
<stop offset="1" stop-color="#11A4F4"/>
</linearGradient>
<linearGradient id="paint59_linear_213_57" x1="222.298" y1="239.949" x2="222.298" y2="258.478" gradientUnits="userSpaceOnUse">
<stop stop-color="#FDFEFF"/>
<stop offset="1" stop-color="#11A4F4"/>
</linearGradient>
<linearGradient id="paint60_linear_213_57" x1="222.298" y1="239.949" x2="222.298" y2="258.478" gradientUnits="userSpaceOnUse">
<stop stop-color="#FDFEFF"/>
<stop offset="1" stop-color="#11A4F4"/>
</linearGradient>
<linearGradient id="paint61_linear_213_57" x1="222.298" y1="239.949" x2="222.298" y2="258.478" gradientUnits="userSpaceOnUse">
<stop stop-color="#FDFEFF"/>
<stop offset="1" stop-color="#11A4F4"/>
</linearGradient>
<linearGradient id="paint62_linear_213_57" x1="222.298" y1="239.949" x2="222.298" y2="258.478" gradientUnits="userSpaceOnUse">
<stop stop-color="#FDFEFF"/>
<stop offset="1" stop-color="#11A4F4"/>
</linearGradient>
<linearGradient id="paint63_linear_213_57" x1="222.298" y1="239.949" x2="222.298" y2="258.478" gradientUnits="userSpaceOnUse">
<stop stop-color="#FDFEFF"/>
<stop offset="1" stop-color="#11A4F4"/>
</linearGradient>
<linearGradient id="paint64_linear_213_57" x1="222.298" y1="239.949" x2="222.298" y2="258.478" gradientUnits="userSpaceOnUse">
<stop stop-color="#FDFEFF"/>
<stop offset="1" stop-color="#11A4F4"/>
</linearGradient>
<linearGradient id="paint65_linear_213_57" x1="222.298" y1="239.949" x2="222.298" y2="258.478" gradientUnits="userSpaceOnUse">
<stop stop-color="#FDFEFF"/>
<stop offset="1" stop-color="#11A4F4"/>
</linearGradient>
<linearGradient id="paint66_linear_213_57" x1="222.298" y1="239.949" x2="222.298" y2="258.478" gradientUnits="userSpaceOnUse">
<stop stop-color="#FDFEFF"/>
<stop offset="1" stop-color="#11A4F4"/>
</linearGradient>
<linearGradient id="paint67_linear_213_57" x1="222.298" y1="239.949" x2="222.298" y2="258.478" gradientUnits="userSpaceOnUse">
<stop stop-color="#FDFEFF"/>
<stop offset="1" stop-color="#11A4F4"/>
</linearGradient>
</defs>
</svg>
