<svg width="16" height="16" viewBox="0 0 16 16" fill="none" xmlns="http://www.w3.org/2000/svg">
<path d="M15.5068 1.37441C15.4566 1.67103 15.402 1.96683 15.3575 2.26426C15.1475 3.6656 14.9399 5.06694 14.7315 6.46828C14.5352 7.78991 14.3398 9.11193 14.1431 10.4336C14.0043 11.3663 13.8671 12.299 13.7235 13.231C13.6725 13.5616 13.3921 13.738 13.0764 13.6308C10.8306 12.866 8.5859 12.0967 6.31616 11.3198C8.48919 8.70161 10.6541 6.09276 12.8191 3.48431L12.7972 3.46165C12.7673 3.48269 12.7353 3.50171 12.7074 3.52559C9.97267 5.86372 7.23757 8.20185 4.5053 10.5432C4.40413 10.6298 4.32361 10.6448 4.19735 10.6011C2.93117 10.1624 1.66296 9.72985 0.393943 9.29929C0.172998 9.22443 0.0208455 9.09332 0.00182645 8.85335C-0.0171926 8.61258 0.113918 8.46083 0.320699 8.35279C5.12888 5.84349 9.93626 3.33297 14.7436 0.822451C14.7962 0.794934 14.8484 0.766608 14.901 0.738281C14.982 0.738281 15.0625 0.738281 15.1434 0.738281C15.3134 0.810716 15.4352 0.931305 15.5068 1.10167V1.37441Z" fill="#11A4F4"/>
<path d="M5.65409 12.1191C6.54191 12.4226 7.40222 12.7168 8.27224 13.0143C8.24432 13.0575 8.22449 13.0919 8.20102 13.1235C7.65554 13.8669 7.10884 14.6094 6.56417 15.3536C6.44601 15.5151 6.29871 15.617 6.09193 15.5968C5.82243 15.5701 5.6553 15.3714 5.65449 15.0756C5.65247 14.1785 5.65368 13.2809 5.65368 12.3838C5.65368 12.3037 5.65368 12.2235 5.65368 12.1195L5.65409 12.1191Z" fill="#11A4F4"/>
</svg>
