<svg width="14" height="14" viewBox="0 0 14 14" fill="none" xmlns="http://www.w3.org/2000/svg">
<g clip-path="url(#clip0_108_478)">
<path d="M10.5635 14.0001C10.2215 13.9265 9.87507 13.8696 9.53889 13.7758C8.84562 13.5827 8.20002 13.2724 7.57913 12.9142C5.81764 11.8986 4.31239 10.5761 2.97661 9.05467C2.1101 8.06744 1.35302 7.00418 0.768827 5.82485C0.409325 5.09923 0.12632 4.34588 0.0295834 3.53637C-0.031134 3.0282 -0.0146683 2.52311 0.235405 2.05809C0.313961 1.91153 0.416528 1.77182 0.532475 1.65265C0.939316 1.23386 1.36091 0.829445 1.76912 0.412362C2.33582 -0.166349 3.21536 -0.106765 3.7505 0.413389C4.3882 1.03353 5.01527 1.66429 5.63994 2.29779C6.19017 2.85562 6.19463 3.69184 5.64818 4.20069C5.53154 4.30924 5.38198 4.39553 5.23276 4.45443C4.85096 4.60476 4.54943 4.83351 4.3834 5.21737C4.2726 5.47317 4.25785 5.7341 4.32989 6.00428C4.53331 6.76448 4.96588 7.3901 5.48558 7.96197C6.02654 8.55711 6.63886 9.0646 7.36747 9.41867C7.68856 9.57448 8.0189 9.71317 8.38938 9.66488C8.89158 9.59948 9.27407 9.35772 9.47269 8.87969C9.5955 8.58382 9.7406 8.31296 10.0229 8.13627C10.5519 7.80582 11.204 7.86574 11.6709 8.31981C12.3281 8.95879 12.9789 9.6053 13.6176 10.2628C14.1411 10.8014 14.1215 11.6606 13.5908 12.1996C13.1716 12.6252 12.7449 13.044 12.323 13.4669C12.0235 13.7665 11.6558 13.9186 11.2417 13.9747C11.2067 13.9795 11.1731 13.9919 11.1388 14.0008H10.5635V14.0001Z" fill="#11A4F4"/>
</g>
<defs>
<clipPath id="clip0_108_478">
<rect width="14" height="14" fill="white"/>
</clipPath>
</defs>
</svg>
