<svg width="12" height="12" viewBox="0 0 12 12" fill="none" xmlns="http://www.w3.org/2000/svg">
<g clip-path="url(#clip0_658_54)">
<path d="M0 3.48584H12C12 3.55254 12 3.61285 12 3.67317C12 6.00129 12 8.32941 12 10.6575C12 11.3405 11.5725 11.8723 10.938 11.9756C10.8445 11.9908 10.749 11.9986 10.6541 11.9986C7.46393 11.9997 4.27406 11.9997 1.08385 11.9993C0.440108 11.9993 0.0315074 11.5786 0.00198994 10.886C0 10.8335 0 10.7803 0 10.7271C0 8.36347 0 5.99987 0 3.63662V3.48584ZM9.60743 5.79019C9.60743 5.62663 9.60942 5.46343 9.60677 5.29987C9.60345 5.087 9.48903 4.9646 9.28904 4.96282C8.99187 4.96034 8.69438 4.96069 8.39721 4.96282C8.2022 4.96424 8.08081 5.07848 8.0765 5.28391C8.06921 5.61492 8.06954 5.94665 8.0765 6.27767C8.08081 6.4728 8.19092 6.59307 8.374 6.59804C8.68741 6.60656 9.00182 6.60656 9.31524 6.59804C9.51457 6.59236 9.60378 6.48167 9.6071 6.26773C9.60942 6.10879 9.60743 5.94984 9.60743 5.79054V5.79019ZM5.85838 10.1977C6.00696 10.1977 6.15555 10.1999 6.30446 10.1974C6.51075 10.1938 6.61224 10.0963 6.61688 9.87522C6.62385 9.54846 6.62351 9.22135 6.61754 8.89494C6.61356 8.68455 6.50113 8.56428 6.30711 8.56073C6.00166 8.5547 5.69587 8.55434 5.39042 8.56108C5.1954 8.5657 5.08894 8.69058 5.08728 8.90133C5.08496 9.21922 5.08496 9.53746 5.08728 9.85535C5.08894 10.076 5.20303 10.1949 5.41264 10.1977C5.56122 10.1999 5.7098 10.1981 5.85871 10.1977H5.85838ZM9.60776 9.3881C9.60776 9.22454 9.60975 9.06134 9.6071 8.89778C9.60378 8.69129 9.49467 8.56463 9.30065 8.56073C8.99519 8.55434 8.6894 8.55434 8.38395 8.56073C8.19457 8.56463 8.08048 8.68349 8.0765 8.8843C8.06987 9.21531 8.06954 9.54704 8.07717 9.87806C8.08181 10.0789 8.20087 10.1949 8.38793 10.197C8.69338 10.2002 8.99917 10.2002 9.30463 10.197C9.50661 10.1949 9.60411 10.0853 9.60743 9.86529C9.60975 9.70634 9.60776 9.54739 9.60809 9.3881H9.60776ZM5.08662 5.77884C5.08662 5.94239 5.0843 6.1056 5.08728 6.26915C5.0906 6.45932 5.1881 6.58846 5.36322 6.59414C5.69289 6.60514 6.02355 6.60372 6.35355 6.59307C6.51871 6.58775 6.60693 6.49231 6.61191 6.31528C6.62152 5.96226 6.62219 5.60889 6.61224 5.25588C6.60726 5.07565 6.4872 4.96566 6.31872 4.96389C6.00896 4.95998 5.69952 4.96034 5.38975 4.96389C5.20436 4.96602 5.09159 5.08913 5.08761 5.28887C5.0843 5.45208 5.08695 5.61563 5.08662 5.77919V5.77884ZM2.13288 9.37426C2.13288 9.52895 2.13288 9.68363 2.13288 9.83832C2.13288 9.84719 2.13288 9.85606 2.13288 9.86493C2.13852 10.0707 2.25062 10.1949 2.44331 10.197C2.7365 10.2006 3.03001 10.2002 3.3232 10.197C3.51589 10.1949 3.65353 10.0728 3.66083 9.86741C3.67277 9.53214 3.66978 9.1958 3.66016 8.86017C3.65519 8.68349 3.54674 8.56853 3.38223 8.56357C3.0602 8.55434 2.73783 8.55399 2.41579 8.56321C2.24233 8.56818 2.13753 8.69732 2.13355 8.88359C2.1299 9.04714 2.13288 9.2107 2.13255 9.3739L2.13288 9.37426ZM2.90299 4.96247C2.7501 4.96247 2.5972 4.96034 2.44431 4.96318C2.25095 4.96673 2.13554 5.08735 2.13355 5.29349C2.13056 5.61599 2.13089 5.93884 2.13355 6.26135C2.13521 6.46393 2.23868 6.59166 2.42739 6.59733C2.73285 6.60656 3.03897 6.6062 3.34409 6.59627C3.53115 6.59024 3.65685 6.45825 3.66248 6.25922C3.67177 5.9282 3.67111 5.59612 3.66083 5.2651C3.65486 5.07281 3.53314 4.96566 3.34907 4.96282C3.20049 4.96034 3.05157 4.96247 2.90299 4.96247Z" fill="#11A4F4"/>
<path d="M2.09224 0C2.09224 0.0691837 2.09224 0.12524 2.09224 0.181297C2.09224 0.508766 2.09025 0.836236 2.0929 1.16406C2.09523 1.4227 2.25011 1.59797 2.46867 1.59726C2.68723 1.59655 2.8388 1.42306 2.84079 1.16158C2.84344 0.781244 2.84145 0.401265 2.84145 0.0106436H8.81459C8.81691 0.0564113 8.82155 0.102889 8.82155 0.149721C8.82222 0.494929 8.81923 0.840138 8.82354 1.18535C8.82587 1.38509 8.93299 1.53446 9.09484 1.58448C9.24276 1.6299 9.4192 1.57349 9.49813 1.42802C9.54324 1.345 9.56612 1.2375 9.56878 1.14029C9.57707 0.813174 9.57209 0.48535 9.57209 0.157881C9.57209 0.110339 9.57209 0.0627975 9.57209 0.0113532C9.60526 0.00674097 9.62516 0.00106436 9.64473 0.00141915C10.0623 0.00816013 10.4822 -0.0127724 10.8964 0.0305118C11.4214 0.0855039 11.8705 0.550631 11.9527 1.06046C11.9604 1.108 11.9637 1.15732 11.9637 1.20557C11.9643 1.67886 11.964 2.15179 11.964 2.63395H0.0193871C0.0193871 2.07374 -0.0141102 1.51849 0.0283419 0.970346C0.0761004 0.353724 0.493656 0 1.07406 0C1.40803 0 1.74234 0 2.09224 0Z" fill="#11A4F4"/>
</g>
<defs>
<clipPath id="clip0_658_54">
<rect width="12" height="12" fill="white"/>
</clipPath>
</defs>
</svg>
