<svg width="71" height="63" viewBox="0 0 71 63" fill="none" xmlns="http://www.w3.org/2000/svg">
<path d="M0 0.752978C0.428617 0.156389 1.00782 0 1.72604 0C24.2458 0.0115843 46.7656 0.0115867 69.2796 0.0115867C70.6524 0.0115867 70.9999 0.359112 70.9999 1.73764C70.9999 3.56216 70.9999 5.39247 70.9999 7.217C70.9999 8.70557 70.6871 9.01835 69.1638 9.0531C69.0016 9.0531 68.8452 9.0531 68.5672 9.0531V9.95667C68.5672 22.4387 68.5672 34.9265 68.5672 47.4086C68.5672 48.9029 68.2834 49.1867 66.7948 49.1867C57.0872 49.1867 47.3738 49.1867 37.6662 49.1867H36.78C36.7568 49.4184 36.7163 49.6154 36.7163 49.8123C36.7163 51.243 36.7221 52.6794 36.7047 54.1101C36.7047 54.4981 36.8032 54.7124 37.1912 54.8862C38.9926 55.6913 39.8382 57.5043 39.3922 59.4794C38.9752 61.3213 37.4519 62.526 35.5289 62.5376C33.6001 62.5492 32.071 61.3618 31.6366 59.5257C31.1674 57.5448 31.9841 55.7376 33.7739 54.9036C34.1678 54.7182 34.301 54.5213 34.2952 54.0869C34.2662 52.494 34.2836 50.9012 34.2836 49.1867C33.9882 49.1867 33.7217 49.1867 33.4553 49.1867C23.7014 49.1867 13.9416 49.1867 4.1877 49.1867C2.72808 49.1867 2.40951 48.8624 2.40951 47.3854C2.40951 34.9265 2.40951 22.4619 2.40951 10.003C2.40951 9.70761 2.40951 9.418 2.40951 9.09944C1.48856 9.00097 0.532846 9.20369 0.00576243 8.25378V0.764565L0 0.752978ZM66.1519 46.7541V9.08785H4.89432V46.7541H66.1519ZM68.544 2.46745H2.46742V6.55669H68.544V2.46745ZM35.4883 60.1281C36.4209 60.1281 37.0754 59.462 37.0696 58.5063C37.0696 57.5622 36.4614 56.9308 35.5405 56.9077C34.5906 56.8903 33.9245 57.5332 33.9071 58.4831C33.8897 59.4157 34.5674 60.1223 35.4825 60.1281H35.4883Z" fill="#11A4F4"/>
<path d="M20.013 20.0292C18.5476 21.9001 17.0995 23.7593 15.6457 25.6128C14.8348 26.6496 14.0239 27.6864 13.2072 28.7232C12.8771 29.1402 12.4137 29.3951 11.933 29.1808C11.5796 29.0244 11.2205 28.6653 11.0699 28.3062C10.9599 28.0339 11.0757 27.5474 11.2727 27.2925C13.7806 24.0605 16.3176 20.8517 18.8661 17.6486C19.3585 17.0289 19.9493 17.0231 20.7081 17.556C23.5867 19.5716 26.4596 21.5873 29.3325 23.6029C29.9407 24.0258 30.5604 24.4254 31.1396 24.883C31.5045 25.1726 31.7942 25.1436 32.1938 24.9467C40.7488 20.7416 49.3154 16.5481 57.8761 12.3546C58.9998 11.8044 59.579 11.8797 59.9671 12.6211C60.3725 13.3972 60.0713 13.9648 58.9477 14.5151C50.1205 18.8476 41.2875 23.1685 32.4603 27.5126C31.7015 27.8833 31.1049 27.8312 30.4156 27.3389C27.1605 25.0162 23.8821 22.7283 20.6096 20.4289C20.4242 20.2956 20.2331 20.174 20.0014 20.0176L20.013 20.0292Z" fill="#FDFEFF"/>
<path d="M26.2509 34.7876C26.2509 37.284 26.2509 39.7804 26.2509 42.271C26.2509 43.4178 25.8629 43.8059 24.7102 43.8175C23.2333 43.8291 21.7505 43.8291 20.2735 43.8175C19.1788 43.8059 18.7617 43.3831 18.7617 42.2942C18.7617 37.255 18.7617 32.2217 18.7617 27.1825C18.7617 26.1168 19.1788 25.6939 20.2155 25.6881C21.762 25.6765 23.3086 25.6765 24.8608 25.6881C25.8339 25.6939 26.2452 26.111 26.2452 27.0898C26.251 29.6557 26.2452 32.2159 26.2452 34.7818L26.2509 34.7876ZM21.2466 28.1208V41.35H23.8125V28.1208H21.2466Z" fill="#FDFEFF"/>
<path d="M36.0791 37.504C36.0791 39.0969 36.0791 40.6897 36.0791 42.2883C36.0791 43.412 35.7026 43.8116 34.6079 43.8232C33.1077 43.8348 31.6017 43.8348 30.1016 43.8232C29.0069 43.8116 28.5956 43.3946 28.5898 42.3057C28.5898 39.0968 28.5898 35.8822 28.5898 32.6734C28.5898 31.6018 29.0243 31.1732 30.119 31.1674C31.6191 31.1616 33.1251 31.1616 34.6252 31.1674C35.6736 31.1674 36.0791 31.5844 36.0791 32.656C36.0791 34.272 36.0791 35.888 36.0791 37.5098V37.504ZM33.6869 33.6349H31.0399V41.3616H33.6869V33.6349Z" fill="#FDFEFF"/>
<path d="M16.3861 38.3497C16.3861 39.6877 16.3861 41.0314 16.3861 42.3694C16.3861 43.383 15.9749 43.8059 14.9613 43.8175C13.4148 43.8348 11.8683 43.8348 10.316 43.8175C9.32555 43.8059 8.90271 43.3541 8.89692 42.3462C8.89113 39.6413 8.89113 36.9422 8.89692 34.2373C8.89692 33.1947 9.32553 32.7719 10.3739 32.7661C11.8972 32.7603 13.4206 32.7603 14.9497 32.7661C15.9691 32.7661 16.3803 33.1773 16.3861 34.1909C16.3919 35.5753 16.3861 36.9654 16.3861 38.3497ZM11.3528 41.3616H13.9418V35.2161H11.3528V41.3616Z" fill="#FDFEFF"/>
<path d="M51.097 41.408C54.3059 41.408 57.5147 41.408 60.7293 41.408C61.6503 41.408 62.2063 41.9524 62.0963 42.7459C62.0152 43.331 61.7082 43.7306 61.0768 43.7885C60.822 43.8117 60.5671 43.8175 60.3181 43.8175C54.1495 43.8175 47.9866 43.8175 41.818 43.8175C41.54 43.8175 41.262 43.8175 40.9897 43.7769C40.3352 43.6959 40.0341 43.2615 39.9877 42.6417C39.9414 42.0393 40.3816 41.518 40.9839 41.4195C41.1867 41.3848 41.401 41.4022 41.6037 41.4022C44.7662 41.4022 47.9287 41.4022 51.097 41.4022V41.408Z" fill="#FDFEFF"/>
<path d="M51.1326 36.0965C54.3183 36.0965 57.5039 36.0965 60.6896 36.0965C61.5468 36.0965 61.9407 36.3804 62.0739 37.0465C62.2187 37.7705 61.7669 38.396 61.0371 38.4829C60.9213 38.4945 60.8054 38.4945 60.6896 38.4945C54.2719 38.4945 47.8485 38.5061 41.4308 38.4713C41.008 38.4713 40.4461 38.2396 40.1913 37.9211C39.6005 37.1855 40.1797 36.1371 41.1528 36.1081C42.2822 36.0734 43.4175 36.0965 44.5469 36.0965C46.7422 36.0965 48.9316 36.0965 51.1268 36.0965H51.1326Z" fill="#FDFEFF"/>
<path d="M35.246 13.6231C38.4316 13.6231 41.6231 13.6231 44.8088 13.6231C45.4691 13.6231 46.0135 13.7737 46.1989 14.4861C46.4248 15.3608 45.8919 16.0153 44.9362 16.0211C42.8105 16.0327 40.6848 16.0211 38.5591 16.0211C34.215 16.0211 29.8767 16.0211 25.5326 16.0211C24.4379 16.0211 23.8355 15.1117 24.3104 14.2139C24.5942 13.6868 25.0808 13.6173 25.6137 13.6231C28.3186 13.6231 31.0177 13.6231 33.7226 13.6231C34.2323 13.6231 34.7363 13.6231 35.246 13.6231Z" fill="#FDFEFF"/>
</svg>
