<svg width="71" height="68" viewBox="0 0 71 68" fill="none" xmlns="http://www.w3.org/2000/svg">
<path d="M11.7121 44.3957C15.8375 41.9774 19.9155 39.6223 23.946 37.2198C25.2105 36.4611 26.4908 35.7498 28.024 36.0501C28.7353 36.1924 29.4307 36.4611 30.1262 36.7456C33.7774 38.2156 37.4286 39.6855 41.0798 41.1713C43.7194 42.2461 44.81 44.0954 44.4781 46.9247C44.4781 47.0353 44.4623 47.1618 44.4306 47.3989C44.8258 47.2092 45.1261 47.0511 45.4264 46.9089C49.0776 45.028 52.7288 43.1471 56.3958 41.2819C60.2367 39.3378 64.7414 39.9542 67.792 42.8151C68.8036 43.7635 68.7404 44.4432 67.5865 45.2335C59.4148 50.7656 51.2272 56.2977 43.0555 61.8456C42.4075 62.2882 41.8226 62.383 41.064 62.1775C34.9786 60.4705 28.8775 58.8108 22.7922 57.088C21.7332 56.7877 21.259 57.657 20.4213 57.9573C21.0377 58.9373 21.6226 59.8382 22.2074 60.7392C22.808 61.7033 22.7131 62.2407 21.7648 62.8414C19.6151 64.2323 17.4656 65.6232 15.3001 66.9984C14.336 67.6148 13.8144 67.5042 13.1979 66.54C8.91448 59.8856 4.64688 53.2313 0.379251 46.5928C-0.237184 45.6444 -0.110786 45.107 0.82177 44.4906C2.97139 43.0996 5.12105 41.7245 7.28648 40.3336C8.23484 39.733 8.77227 39.8436 9.38871 40.792C10.1474 41.9616 10.906 43.1471 11.7121 44.3957ZM19.1568 55.9816C19.7258 55.6338 20.2791 55.3493 20.7691 54.9858C21.4171 54.5116 22.0652 54.4484 22.8397 54.6697C28.8618 56.3609 34.8838 58.0047 40.9059 59.6802C41.475 59.8382 41.8859 59.8066 42.3917 59.4589C49.8047 54.4168 57.2335 49.3904 64.6623 44.3641C64.8678 44.2219 65.0733 44.0638 65.342 43.8583C62.655 42.2619 60.0312 42.1039 57.3441 43.4632C52.8868 45.7392 48.4453 48.0153 44.0039 50.3072C43.4032 50.6075 42.8501 50.7181 42.1704 50.5601C38.5034 49.6908 34.8363 48.8688 31.1535 48.0311C30.2368 47.8256 29.8259 47.304 29.9839 46.5454C30.1262 45.8183 30.7584 45.518 31.6752 45.7234C33.6667 46.1818 35.6583 46.6402 37.6499 47.0986C39.0566 47.4147 40.4634 47.7308 41.9017 48.0469C41.9808 47.4937 42.0598 47.0353 42.1072 46.577C42.2969 44.9331 41.7595 44.0164 40.2263 43.4C36.3064 41.8035 32.3707 40.2387 28.4508 38.6423C27.534 38.263 26.7121 38.3262 25.8586 38.832C21.8122 41.2345 17.7501 43.5896 13.6879 45.9763C13.4666 46.1028 13.2454 46.2608 12.9609 46.4189C15.0157 49.6275 17.0546 52.7887 19.1094 55.9816H19.1568ZM19.7575 61.3082C15.7585 55.0964 11.807 48.9479 7.83965 42.7835C6.11679 43.8899 4.48878 44.9331 2.81334 46.0079C6.79646 52.1881 10.7322 58.3367 14.7153 64.5326C16.4066 63.442 18.0346 62.3988 19.7416 61.2924L19.7575 61.3082Z" fill="#11A4F4"/>
<path d="M47.1018 34.5802C39.1671 34.5486 32.9079 28.2262 32.9553 20.2916C33.0028 12.4992 39.3727 6.27161 47.2441 6.30322C54.8942 6.33483 61.2482 12.7363 61.2324 20.4022C61.2324 28.242 54.8783 34.596 47.1018 34.5802ZM38.0291 27.8943C39.3094 24.9385 41.5064 23.0102 44.6044 22.0776C40.8425 19.7383 41.1271 15.771 42.8499 13.7004C44.8257 11.3137 48.3663 11.0134 50.6898 13.0682C51.812 14.064 52.4442 15.3285 52.5074 16.8142C52.618 19.1377 51.5117 20.8448 49.5201 22.0776C52.6971 23.0102 54.8309 24.9701 56.1112 27.9101C59.7308 23.7847 60.0469 16.7036 55.3209 12.0408C50.753 7.52029 43.3399 7.5519 38.7878 12.0724C34.0144 16.8142 34.5202 23.9586 38.0291 27.8943ZM45.9005 32.2093C49.4252 32.2093 51.7961 31.4822 53.677 30.2019C54.0722 29.9332 54.2145 29.6961 54.0565 29.1745C53.0923 26.2188 50.2788 24.164 47.1176 24.1324C43.9722 24.1166 41.0481 26.2504 40.1155 29.2062C39.9733 29.6645 40.0681 29.9016 40.4632 30.1545C42.4706 31.498 44.6518 32.1777 45.9005 32.1935V32.2093ZM50.1523 17.1936C50.1523 15.4707 48.8088 14.0956 47.0859 14.0798C45.3947 14.064 43.9722 15.4707 43.9722 17.162C43.9722 18.869 45.3631 20.2283 47.0859 20.2283C48.7614 20.2283 50.1365 18.869 50.1365 17.1936H50.1523Z" fill="#FDFEFF"/>
<path d="M67.3816 18.1262C67.6345 17.9681 67.8083 17.8417 67.9979 17.7469C68.5828 17.4307 69.1044 17.5414 69.5153 18.0472C69.9263 18.5688 69.8947 19.1536 69.4047 19.5804C68.6144 20.2442 67.7925 20.8923 66.9074 21.4139C66.5755 21.6035 65.9906 21.5245 65.5955 21.3664C64.8052 21.0345 64.0623 20.5919 63.3036 20.1652C62.6239 19.7858 62.4026 19.1536 62.7029 18.553C63.0191 17.9207 63.6513 17.7469 64.41 18.0788C64.5681 18.142 64.7103 18.2052 65.1055 18.3791C64.7894 17.0672 64.5839 15.9134 64.2204 14.8069C61.6914 7.06198 54.1835 1.86179 46.2489 2.35178C37.7769 2.87338 30.9328 8.75322 29.3206 16.9407C28.9097 19.0588 28.8622 21.1926 29.2258 23.3422C29.2416 23.4686 29.2573 23.5793 29.2732 23.7057C29.3522 24.5434 28.9887 25.0808 28.2932 25.1915C27.6293 25.3021 27.0129 24.828 26.9339 24.0377C26.7916 22.4412 26.5388 20.829 26.6652 19.2484C27.2975 11.5351 31.0277 5.73427 37.9349 2.19372C49.9633 -3.98644 64.8526 3.52142 67.1444 16.8301C67.2077 17.2253 67.2709 17.6046 67.3657 18.0946L67.3816 18.1262Z" fill="#11A4F4"/>
<path d="M66.3051 33.711C63.7287 33.711 61.6738 31.6404 61.6738 29.064C61.6738 26.456 63.7761 24.3538 66.3524 24.3696C68.9446 24.3854 71.0152 26.5192 70.9994 29.1114C70.9836 31.6562 68.8815 33.711 66.3051 33.711ZM66.3208 31.3401C67.5853 31.3401 68.6443 30.3285 68.6443 29.064C68.6443 27.7995 67.6169 26.7563 66.3524 26.7405C65.1038 26.7405 64.0605 27.7679 64.0447 29.0324C64.0447 30.3285 65.0247 31.3242 66.3208 31.3401Z" fill="#FDFEFF"/>
</svg>
