<svg width="69" height="71" viewBox="0 0 69 71" fill="none" xmlns="http://www.w3.org/2000/svg">
<path d="M38.2878 53.0099C38.9165 52.6889 39.3998 52.4681 39.8566 52.2019C43.3359 50.1838 46.8096 48.1543 50.2889 46.1343C51.8237 45.2433 53.4152 44.5089 55.2143 44.3163C57.4684 44.0766 59.377 45.1715 60.0604 47.1292C60.8023 49.2512 60.0226 51.4354 58.0838 52.6304C51.735 56.5439 45.3729 60.4348 39.0373 64.3728C36.6756 65.8416 34.2214 66.2135 31.5407 65.4678C27.4856 64.3407 23.3965 63.3383 19.3603 62.1546C18.1464 61.7997 17.2874 62.1018 16.3737 62.8286C16.6474 63.3232 16.9306 63.8084 17.1874 64.3049C17.8991 65.6849 17.5045 67.1744 16.1736 67.9824C15.1485 68.6054 14.1045 69.2001 13.0435 69.757C11.6749 70.4744 10.1419 70.0515 9.37357 68.7054C6.3549 63.4138 3.35133 58.1127 0.370421 52.8003C-0.399821 51.4297 0.0683648 49.8836 1.4295 49.0756C2.39986 48.4998 3.3872 47.9486 4.37832 47.4086C5.86406 46.5987 7.38189 47.0367 8.25407 48.5055C8.45796 48.8491 8.6543 49.1945 8.88273 49.5853C9.75869 49.0794 10.6101 48.5885 11.4615 48.0977C13.4796 46.9348 15.4883 45.7549 17.5196 44.6184C19.5207 43.5008 21.6484 42.774 23.9421 43.4291C26.0187 44.0218 28.0255 44.8525 30.087 45.5038C31.7219 46.0192 33.3794 46.4741 35.0502 46.8593C37.7876 47.4898 39.2053 49.8251 38.3992 52.5039C38.3728 52.5908 38.3596 52.6833 38.2897 53.0061L38.2878 53.0099ZM15.2202 60.8105C15.7998 60.4801 16.3492 60.2082 16.8513 59.8684C17.4064 59.4927 17.9538 59.4644 18.5882 59.6362C22.9661 60.8275 27.3666 61.9413 31.7276 63.1929C34.0666 63.865 36.1187 63.5535 38.1783 62.2603C44.3761 58.3695 50.6287 54.5655 56.8605 50.7294C57.9347 50.0686 58.3179 49.0454 57.9233 47.89C57.5873 46.9008 56.6641 46.4232 55.4012 46.5685C53.94 46.7366 52.6562 47.3728 51.4103 48.0939C47.8479 50.1592 44.2912 52.2321 40.7345 54.3068C39.094 55.264 37.3401 55.7114 35.4542 55.4056C34.0874 55.1847 32.7281 54.8958 31.3821 54.5692C29.7151 54.1652 28.0614 53.7046 26.4076 53.2402C25.677 53.0363 25.3315 52.4171 25.5279 51.7903C25.7167 51.1881 26.3057 50.8936 27.008 51.0597C27.2137 51.1088 27.4138 51.1806 27.6177 51.2353C29.7548 51.7941 31.8843 52.3963 34.0364 52.8928C35.1993 53.1609 36.1357 52.5058 36.349 51.4675C36.5661 50.4141 35.9186 49.4324 34.7953 49.1341C34.3177 49.0076 33.8193 48.9548 33.3511 48.8056C30.2626 47.8202 27.1722 46.8347 24.095 45.8153C22.8622 45.4056 21.6446 45.3396 20.4326 45.7983C19.6661 46.089 18.9072 46.4232 18.1955 46.8272C15.5959 48.2997 13.0171 49.8081 10.4308 51.307C10.2948 51.3863 10.174 51.4902 10.0079 51.6091C11.7504 54.6882 13.474 57.7295 15.2165 60.8086L15.2202 60.8105ZM15.3108 65.6452C15.2165 65.4451 15.1655 65.313 15.0956 65.1922C12.177 60.0327 9.25652 54.877 6.34357 49.7137C6.0906 49.2644 5.79421 49.1945 5.36189 49.4475C4.55012 49.9214 3.72513 50.3763 2.90769 50.8426C2.16765 51.2636 2.14122 51.3542 2.5641 52.1018C3.70814 54.1294 4.85406 56.1569 6.00187 58.1826C7.71604 61.2126 9.43209 64.2407 11.1463 67.2707C11.3501 67.6313 11.5408 68.0145 12.0619 67.7219C13.0247 67.1801 13.9931 66.6439 14.9446 66.0832C15.1051 65.9888 15.1995 65.7831 15.3108 65.6452Z" fill="#11A4F4"/>
<path d="M58.3228 33.2252C58.5455 31.2354 58.4776 29.3004 58.0868 27.4106C56.0083 17.339 50.0143 10.8825 40.0805 8.14137C39.0667 7.86197 38.002 7.74492 36.9523 7.62221C35.7422 7.48063 35.4156 7.17479 35.4137 5.98167C35.41 4.47517 35.4081 2.96678 35.4137 1.46028C35.4194 0.348337 35.8857 -0.0726528 36.992 0.0123003C51.1452 1.0997 62.8555 11.5527 65.4173 25.5133C65.8307 27.7637 65.7835 30.0989 65.9459 32.3964C65.9629 32.6494 65.9478 32.9062 65.9478 33.2573C66.3253 33.2573 66.6708 33.2422 67.0144 33.2611C67.7261 33.2969 68.2887 33.5952 68.5964 34.2616C68.9004 34.9205 68.8116 35.5491 68.3661 36.1174C66.8256 38.0807 65.2946 40.0517 63.7314 41.9961C62.9216 43.0043 61.7152 42.991 60.8959 41.9678C59.3497 40.0384 57.8319 38.0864 56.3047 36.1438C55.861 35.5794 55.7383 34.962 56.0366 34.2937C56.3367 33.6235 56.8861 33.3158 57.5997 33.2611C57.8093 33.246 58.0188 33.2403 58.3209 33.2252H58.3228ZM65.9685 35.5152C65.6004 35.5152 65.4381 35.5152 65.2757 35.5152C63.7862 35.5001 63.5181 35.1867 63.6219 33.7009C63.8088 31.0353 63.773 28.3678 63.1821 25.7569C60.658 14.6054 53.9883 7.13704 43.1313 3.49349C41.4095 2.91581 39.5821 2.6534 37.6754 2.21542C37.6754 3.22919 37.7037 4.02586 37.664 4.81876C37.6395 5.32093 37.8547 5.44553 38.3059 5.5116C39.2121 5.64564 40.1182 5.80799 41.0055 6.03453C53.42 9.1929 61.6397 20.739 60.5769 33.5103C60.4296 35.2886 60.4202 35.2999 58.7683 35.619C59.9633 37.1349 61.1281 38.6169 62.3307 40.1423C63.537 38.6093 64.6961 37.1368 65.9704 35.517L65.9685 35.5152Z" fill="#11A4F4"/>
<path d="M31.2611 27.3841C26.7283 23.7727 27.1455 18.0997 30.1736 15.0055C33.3641 11.7433 38.6142 11.7093 41.8387 14.9357C44.9215 18.0185 45.3859 23.7142 40.8532 27.3671C41.1345 27.4842 41.3799 27.5824 41.6253 27.6881C47.0491 30.0252 50.1697 34.1237 51.0117 39.961C51.1212 40.7199 50.6813 41.2353 49.9186 41.3013C49.7318 41.3164 49.543 41.3108 49.3542 41.3108C40.4775 41.3108 31.599 41.3127 22.7223 41.3032C22.3353 41.3032 21.9068 41.2655 21.5688 41.1031C21.0516 40.8539 21.0289 40.331 21.095 39.8099C21.5783 36.0607 23.2358 32.9287 26.0411 30.4047C27.5458 29.0511 29.2807 28.0789 31.2611 27.386V27.3841ZM48.5235 39.0076C47.7042 34.3295 43.2489 28.8736 36.0146 28.8869C28.7729 28.9001 24.3175 34.4164 23.5605 39.0076H48.5235ZM36.0184 26.6007C39.2995 26.612 41.9482 23.9803 41.9538 20.703C41.9576 17.4257 39.3184 14.7922 36.0298 14.7978C32.7732 14.8016 30.1529 17.4069 30.1378 20.6577C30.1208 23.9482 32.7355 26.5912 36.0184 26.6026V26.6007Z" fill="#FDFEFF"/>
<path d="M7.06654 30.4841C6.26609 30.4841 5.46565 30.4973 4.66709 30.4803C3.68541 30.4595 3.24176 29.9781 3.31916 29.0097C3.63443 25.0339 4.61611 21.2355 6.3737 17.6467C6.81357 16.7481 7.40069 16.548 8.25589 17.0332C9.66611 17.8336 11.0688 18.6473 12.4677 19.4666C13.2662 19.9348 13.4361 20.403 13.0642 21.2261C11.9032 23.7973 11.1669 26.4762 10.9102 29.2891C10.8366 30.0876 10.4212 30.4577 9.60758 30.4784C8.76183 30.5011 7.91418 30.4841 7.06654 30.4841ZM10.4609 20.9165C9.75861 20.5125 8.89775 20.0179 8.00103 19.5044C6.76449 22.3191 5.98103 25.1641 5.68275 28.2243C6.63234 28.2243 7.49886 28.2432 8.3616 28.2054C8.51452 28.1979 8.7505 27.9751 8.79015 27.8128C9.35084 25.5681 9.88321 23.3159 10.459 20.9165H10.4609Z" fill="#11A4F4"/>
<path d="M7.12862 32.1019C7.95361 32.1019 8.7786 32.0868 9.6017 32.1076C10.3795 32.1265 10.8137 32.4776 10.8779 33.2441C11.1195 36.1363 11.8784 38.8831 13.0867 41.5166C13.3736 42.1434 13.1999 42.6871 12.609 43.0345C11.1101 43.918 9.60359 44.7939 8.08198 45.6397C7.40236 46.0173 6.77937 45.8002 6.43389 45.0941C4.83111 41.8093 3.82111 38.3488 3.43221 34.7128C3.39068 34.3145 3.33971 33.9181 3.31517 33.5178C3.26042 32.623 3.69274 32.1322 4.58569 32.1076C5.43333 32.085 6.28098 32.1019 7.12862 32.1038V32.1019ZM8.00081 43.093C8.92774 42.555 9.77349 42.0641 10.4758 41.6582C9.81125 39.1644 9.17882 36.7951 8.54073 34.4013H5.68253C5.98836 37.4351 6.7586 40.2895 8.00081 43.0949V43.093Z" fill="#11A4F4"/>
<path d="M33.7941 3.78416C33.7941 4.60726 33.8092 5.43225 33.7904 6.25535C33.7715 7.08034 33.4354 7.49755 32.6142 7.56552C29.7485 7.80716 27.0224 8.5472 24.4096 9.74221C23.7262 10.0556 23.2184 9.89512 22.839 9.25703C21.963 7.78262 21.1021 6.29688 20.2639 4.79793C19.8694 4.09377 20.094 3.47455 20.8454 3.1102C24.1529 1.50175 27.6303 0.480425 31.2946 0.114182C31.6684 0.0764254 32.0422 0.0216778 32.4179 0.00279932C33.2787 -0.0387333 33.7583 0.382257 33.7866 1.24123C33.8149 2.08698 33.7922 2.93463 33.7922 3.78227L33.7941 3.78416ZM22.8069 4.69976C23.3298 5.59838 23.8112 6.42714 24.1907 7.08223C26.6071 6.51965 28.9103 5.98728 31.2097 5.43602C31.3324 5.40582 31.5098 5.23969 31.5136 5.13208C31.5382 4.2278 31.5268 3.32352 31.5268 2.35695C28.4402 2.69676 25.5971 3.44435 22.8069 4.69976Z" fill="#11A4F4"/>
<path d="M14.1903 18.4112C13.7919 18.247 13.5201 18.1677 13.2784 18.0317C11.8701 17.2294 10.4637 16.4195 9.06665 15.5983C8.2511 15.1188 8.11329 14.4939 8.64188 13.7142C10.8998 10.386 13.6919 7.59195 17.0202 5.3322C17.7998 4.80171 18.4266 4.93953 18.9061 5.75508C19.7273 7.15208 20.5391 8.55664 21.3395 9.96686C21.7832 10.7465 21.6756 11.2544 20.9318 11.783C18.6664 13.3952 16.7464 15.3397 15.1361 17.6051C14.8982 17.9392 14.4961 18.1563 14.1903 18.4112ZM11.1036 14.1598C12.0136 14.6865 12.8574 15.1773 13.5805 15.5964C15.3796 13.7841 17.1145 12.0359 18.8929 10.2444C18.4662 9.51189 17.9773 8.6718 17.4619 7.7864C14.97 9.61384 12.8858 11.6867 11.1018 14.1617L11.1036 14.1598Z" fill="#11A4F4"/>
<path d="M6.39126 52.4322C6.37993 53.008 5.87776 53.4969 5.29631 53.4969C4.68087 53.4969 4.18814 52.974 4.22023 52.3548C4.25044 51.7733 4.76771 51.2957 5.33973 51.3202C5.91552 51.3448 6.4007 51.8621 6.38937 52.4322H6.39126Z" fill="#11A4F4"/>
</svg>
