<svg width="58" height="65" viewBox="0 0 58 65" fill="none" xmlns="http://www.w3.org/2000/svg">
<path d="M53.894 64.2631H3.9438C3.65217 64.1625 3.35716 64.0703 3.06888 63.9614C1.55874 63.3932 -0.00501611 61.8563 1.20938e-05 59.1813C0.0318574 42.5999 0.0150926 26.0186 0.0167687 9.43724C0.0167687 9.20762 0.0167646 8.97633 0.0335253 8.74838C0.187723 6.79073 1.18498 5.40798 2.98843 4.68056C3.62701 4.42245 4.36784 4.35373 5.06676 4.32189C6.27018 4.26658 7.47695 4.3068 8.73903 4.3068C8.73903 3.75035 8.71557 3.27099 8.74239 2.79667C8.8396 1.0787 10.1033 -0.0057201 11.9604 0.0177448C13.6466 0.0395337 14.8449 1.21278 14.8852 2.88885C14.8969 3.34139 14.8868 3.7956 14.8868 4.25149H42.899C42.9459 3.51235 42.899 2.8084 43.0532 2.14803C43.4018 0.641242 44.8264 -0.178355 46.5645 0.0328295C47.9892 0.205464 49.035 1.3653 49.0987 2.857C49.1188 3.32798 49.1021 3.79895 49.1021 4.30513C50.4128 4.30513 51.6262 4.25484 52.833 4.32356C53.5722 4.36546 54.3599 4.4543 55.022 4.75264C57.0064 5.64598 57.8327 7.28015 57.8311 9.43557C57.816 25.9968 57.8227 42.5563 57.8227 59.1176C57.8227 59.3472 57.8193 59.5785 57.8076 59.8064C57.7104 61.754 56.4433 63.41 54.5912 64.0184C54.3582 64.0955 54.1269 64.1793 53.894 64.2614V64.2631ZM1.89899 17.7639H2.85772C16.8093 17.7639 30.7609 17.7639 44.7125 17.7639C44.984 17.7639 45.2605 17.7556 45.5237 17.8092C46.0231 17.9114 46.2712 18.2517 46.2478 18.7579C46.226 19.2372 45.9561 19.5356 45.4818 19.6093C45.2153 19.6512 44.9404 19.6428 44.6689 19.6428C30.7173 19.6428 16.7657 19.6428 2.81414 19.6428H1.94089C1.92078 19.8708 1.89899 20.0132 1.89899 20.1574C1.89899 31.9938 1.89396 43.8318 1.90234 55.6682C1.90234 57.4449 3.09236 58.6097 4.86732 58.6114C16.9568 58.6164 29.0463 58.6147 41.1374 58.6114C42.6073 58.6114 43.4755 57.7398 43.4806 56.2699C43.4856 54.3458 43.4806 52.4217 43.4822 50.4976C43.4856 47.851 45.1365 46.1766 47.7713 46.1616C49.6116 46.1498 51.4519 46.1599 53.2939 46.1599C55.1644 46.1599 55.9404 45.3973 55.9404 43.5502C55.9404 35.8336 55.9404 28.117 55.9404 20.3987V19.6428C55.6522 19.6428 55.4276 19.6428 55.2013 19.6428C53.4029 19.6428 51.6045 19.6428 49.8044 19.6428C49.5127 19.6428 49.2161 19.6478 48.9278 19.6076C48.4451 19.5389 48.1836 19.2037 48.1635 18.7478C48.1434 18.2584 48.4032 17.9081 48.906 17.8042C49.1088 17.7623 49.3217 17.7639 49.5295 17.7639C51.4335 17.7606 53.3358 17.7639 55.2398 17.7606C55.4594 17.7606 55.679 17.7388 55.9086 17.7271C55.9203 17.5109 55.9354 17.365 55.9354 17.2209C55.9354 14.5442 55.9471 11.8675 55.9321 9.19086C55.922 7.34551 54.7521 6.19741 52.8883 6.18903C50.3776 6.17897 47.8685 6.18567 45.3577 6.18903C45.1968 6.18903 45.0359 6.21752 44.8264 6.23596C44.8264 7.06393 44.8231 7.85671 44.8264 8.64782C44.8315 9.5663 44.9857 9.75235 45.8974 9.94845C46.4405 10.0658 46.7707 10.468 46.7288 10.9608C46.6852 11.4753 46.2662 11.8256 45.6796 11.8122C44.8851 11.7938 44.2231 11.467 43.6884 10.8904C43.1671 10.3272 42.9325 9.65513 42.9409 8.88749C42.9509 7.9975 42.9425 7.10919 42.9425 6.23093H10.6095C10.6095 7.02203 10.6095 7.76956 10.6095 8.51876C10.6112 9.54787 10.7386 9.70206 11.7543 9.96185C12.2638 10.0909 12.5454 10.4194 12.5219 10.9574C12.4984 11.4686 12.1096 11.8173 11.5498 11.8139C10.6078 11.8089 9.78992 11.4385 9.32062 10.639C8.99714 10.0892 8.82283 9.40708 8.75075 8.76514C8.65522 7.92878 8.72729 7.07399 8.72729 6.18735C7.38979 6.18735 6.15956 6.17897 4.92765 6.18903C3.06722 6.20411 1.90569 7.35222 1.89563 9.20092C1.88223 11.229 1.8923 13.2587 1.8923 15.2867C1.8923 16.0778 1.8923 16.8689 1.8923 17.7623L1.89899 17.7639ZM55.9404 49.4316C55.6706 49.683 55.5181 49.8154 55.3756 49.9595C52.4324 52.9027 49.4742 55.8291 46.5545 58.7958C45.398 59.9724 44.0622 60.5137 42.4096 60.5104C30.2162 60.4886 18.0211 60.4919 5.8277 60.507C4.47344 60.507 3.15102 60.4718 1.89062 59.5584C1.94258 59.9087 1.95095 60.1316 2.00962 60.3394C2.37835 61.6132 3.45942 62.3792 4.90251 62.3792C20.9039 62.3809 36.9037 62.3809 52.9051 62.3792C54.7672 62.3792 55.9237 61.2361 55.9371 59.3774C55.9505 57.7667 55.9404 56.1576 55.9404 54.5469C55.9404 52.8977 55.9404 51.2467 55.9404 49.4316ZM54.4152 48.0438C53.7951 48.0438 53.0291 48.0438 52.2631 48.0438C50.7999 48.0438 49.3367 48.0404 47.8735 48.0438C46.1773 48.0488 45.3678 48.8533 45.3661 50.5327C45.3645 52.4552 45.3661 54.3776 45.3661 56.3018C45.3661 56.5968 45.3661 56.8934 45.3661 57.0912C48.4082 54.0508 51.4586 51.0004 54.4169 48.0438H54.4152ZM12.9677 4.27663C13.0968 2.74135 13.0247 2.20166 12.4817 2.05081C12.0409 1.92846 11.4174 1.89662 11.0671 2.12121C10.2693 2.63409 10.7319 3.51402 10.5995 4.27663H12.9677ZM47.2349 4.28501C47.1092 3.47212 47.5852 2.54358 46.6919 2.0726C46.3114 1.87148 45.5891 1.90164 45.2388 2.14132C44.4728 2.66761 44.9471 3.53749 44.8197 4.28501H47.2349Z" fill="#11A4F4"/>
<path d="M18.3335 49.6495C21.1627 49.1785 23.8595 48.674 25.554 46.1632C24.307 44.9347 23.0768 43.7195 21.6907 42.3535C21.2549 42.8497 20.7722 43.391 20.3029 43.9408C19.8286 44.4956 19.2872 44.6146 18.8414 44.2475C18.3888 43.8737 18.3888 43.3491 18.8414 42.7558C18.9168 42.6569 18.9838 42.5463 19.0743 42.4608C20.0196 41.5591 21.0504 40.711 20.8811 39.0936C19.9509 38.6025 18.781 38.3243 17.5776 38.1986C16.8384 38.1215 16.2753 37.8382 16.0507 37.1158C15.816 36.3616 16.1462 35.8001 16.7379 35.3174C19.0961 33.3966 21.7728 32.3122 24.8132 32.1061C25.0663 32.0893 25.3964 31.8798 25.5305 31.6619C27.5569 28.3567 30.6492 26.803 34.3517 26.2449C36.3076 25.9499 38.2284 26.3287 40.1492 26.6086C40.8129 26.7058 41.2789 27.1248 41.3912 27.7785C41.8236 30.2993 42.1739 32.8301 41.4599 35.3593C40.6151 38.3561 39.0966 40.8719 36.3345 42.5077C36.1233 42.6335 35.9473 42.9821 35.9272 43.2419C35.6825 46.2722 34.6215 48.964 32.6756 51.3037C32.1292 51.9591 31.5191 52.1837 30.8638 51.9541C30.1364 51.6976 29.9269 51.106 29.7961 50.3987C29.5816 49.2405 29.2749 48.0991 29.0251 47.0298C28.3178 47.1421 27.7899 47.2175 27.2653 47.3181C27.1396 47.3432 26.9988 47.4337 26.9183 47.5359C25.2456 49.6897 22.9678 50.7456 20.3448 51.1948C19.79 51.2903 19.2419 51.4295 18.6905 51.5451C17.1887 51.8619 16.1714 50.8613 16.4764 49.3645C16.6524 48.5047 16.8334 47.6466 17.0178 46.7901C17.1837 46.0191 17.591 45.6839 18.2028 45.8029C18.7877 45.9169 19.0274 46.4063 18.8665 47.1957C18.7039 47.9902 18.5246 48.7796 18.3369 49.6495H18.3335ZM27.5871 45.4392C27.6893 45.3923 27.7681 45.3654 27.8368 45.3252C30.4431 43.7799 33.051 42.2379 35.6506 40.6842C37.32 39.6869 38.3591 38.1701 39.0899 36.4152C39.1553 36.2594 39.0983 35.956 38.9793 35.837C36.7317 33.5609 34.469 31.2982 32.1929 29.0472C32.0689 28.9249 31.7672 28.8478 31.6163 28.9115C30.0358 29.5819 28.5541 30.4468 27.6273 31.9318C25.9462 34.6252 24.3556 37.3756 22.7449 40.111C22.6712 40.235 22.7063 40.53 22.8052 40.6306C24.3858 42.2413 25.9847 43.8352 27.5854 45.4358L27.5871 45.4392ZM39.8341 33.8157C40.1693 32.101 39.8793 30.3747 39.6078 28.6517C39.5894 28.5394 39.3614 28.3986 39.2156 28.3785C38.3273 28.2494 37.4373 28.1019 36.5423 28.055C35.7495 28.0131 34.9517 28.0952 34.1573 28.1237C36.0931 30.0646 37.9569 31.9351 39.8341 33.8173V33.8157ZM30.5554 45.9051C30.9493 47.1538 31.3113 48.3053 31.6901 49.507C32.9102 47.8309 33.6662 46.0191 33.941 43.9006C32.7494 44.6062 31.6432 45.2615 30.5554 45.9051ZM24.0472 34.0939C21.9488 34.3537 20.1554 35.123 18.5112 36.3264C19.7263 36.7102 20.8895 37.0773 22.1063 37.4611C22.6829 36.4907 23.288 35.475 23.8897 34.4559C23.9399 34.3704 23.9701 34.2732 24.0472 34.0939Z" fill="#FDFEFF"/>
<path d="M33.852 37.6389C33.842 39.5463 32.3184 41.0564 30.4128 41.048C28.5121 41.0396 27.0053 39.5127 27.0137 37.6003C27.0221 35.7064 28.5708 34.1644 30.4513 34.1812C32.347 34.1979 33.8621 35.7382 33.852 37.6389ZM31.9665 37.6489C31.9799 36.7858 31.2994 36.0785 30.448 36.0684C29.6233 36.0584 28.9261 36.7305 28.901 37.5584C28.8741 38.4317 29.5312 39.1406 30.3876 39.1658C31.2475 39.1909 31.9514 38.5138 31.9665 37.6506V37.6489Z" fill="#FDFEFF"/>
</svg>
