<svg width="71" height="69" viewBox="0 0 71 69" fill="none" xmlns="http://www.w3.org/2000/svg">
<path d="M16.767 17.445C17.4129 17.8211 18.0261 18.1706 18.6332 18.5324C19.6654 19.1497 19.6919 20.0491 18.6597 20.648C13.8789 23.4237 9.09189 26.1871 4.29877 28.9424C3.29314 29.5208 2.50008 29.0773 2.49599 27.9184C2.47759 22.3833 2.47555 16.8482 2.48986 11.3111C2.4919 10.1256 3.29723 9.70043 4.35396 10.2911C5.42092 10.888 6.47356 11.5093 7.58753 12.1512C7.74696 11.9815 7.90435 11.8241 8.04947 11.6585C13.9484 4.90525 21.3333 0.870453 30.2736 0.140755C43.4634 -0.93642 53.8427 4.18373 61.4381 14.9943C62.3395 16.2779 62.0881 16.8646 60.5633 17.2713C58.0798 17.9356 55.5923 18.5856 53.115 19.2785C52.4058 19.4768 51.9091 19.3296 51.439 18.7634C47.5718 14.1195 42.654 11.2682 36.659 10.4935C29.0513 9.51034 22.4738 11.7853 16.9816 17.1589C16.9142 17.2243 16.8672 17.3122 16.765 17.4471L16.767 17.445ZM16.0864 19.6791C16.0312 19.5606 16.0271 19.5278 16.0107 19.5156C15.5774 19.2478 15.1441 18.9821 14.7108 18.7143C13.8155 18.1625 13.6949 17.5575 14.4042 16.7889C21.2065 9.42244 29.5459 6.73258 39.3325 8.82152C44.5446 9.93344 48.8901 12.658 52.4507 16.6295C52.6163 16.8134 52.9208 17.0628 53.0966 17.0199C55.0936 16.5253 57.0762 15.9795 59.1488 15.4256C58.8668 15.0393 58.6583 14.7225 58.4191 14.4302C50.139 4.26959 39.5205 0.3288 26.6844 2.84902C19.4753 4.26345 13.6316 8.15518 9.004 13.862C8.24773 14.794 7.96362 14.8328 6.93346 14.2442C6.19763 13.8231 5.45975 13.4062 4.67691 12.9606V26.2648C8.54002 24.0348 12.305 21.8641 16.0843 19.6832L16.0864 19.6791Z" fill="#11A4F4"/>
<path d="M22.5173 53.9645C22.7953 52.9446 23.018 52.1086 23.2511 51.2767C23.5822 50.1014 24.4284 49.8378 25.2787 50.684C29.2031 54.5879 33.1173 58.5042 37.0213 62.4286C37.8389 63.2503 37.5957 64.1333 36.4817 64.4338C31.1469 65.8727 25.8101 67.3055 20.4692 68.7241C19.3041 69.0327 18.6909 68.4011 18.9792 67.2258C19.1856 66.3858 19.3859 65.5396 19.6578 64.7179C19.8294 64.1946 19.7007 63.9677 19.206 63.7327C13.0169 60.7996 8.16244 56.3805 4.67337 50.4877C1.35396 44.8811 -0.158583 38.7982 0.0131109 32.2923C0.0437705 31.1354 0.581337 30.7368 1.70348 31.0311C4.09084 31.6607 6.4782 32.2943 8.86556 32.93C10.1492 33.2713 10.2412 33.3776 10.3413 34.7655C10.8625 41.946 13.9837 47.7263 19.6945 52.0963C20.5551 52.7565 21.5055 53.3002 22.5152 53.9645H22.5173ZM2.14498 33.3613C2.14498 33.7251 2.1368 34.0235 2.14498 34.3219C2.35755 40.46 4.15012 46.0932 7.62078 51.1643C11.0158 56.125 15.4819 59.8062 20.9945 62.2099C22.2025 62.7373 22.3292 63.0009 21.9879 64.2682C21.8264 64.8712 21.6649 65.4741 21.4585 66.2488C25.8346 65.0756 30.0371 63.9493 34.0759 62.866C30.9834 59.7756 27.8991 56.6953 24.8372 53.6375C24.7084 54.0953 24.5408 54.6779 24.3752 55.2625C24.0114 56.5563 23.5045 56.8118 22.3354 56.2027C13.9673 51.8327 9.29276 44.9343 8.23807 35.5585C8.21149 35.3194 8.00301 34.9597 7.80883 34.9045C5.95494 34.3669 4.08471 33.8825 2.14089 33.3613H2.14498Z" fill="#11A4F4"/>
<path d="M56.1898 38.0154C55.1106 38.0154 54.1438 38.0297 53.177 38.0113C51.922 37.9868 51.4907 37.2244 52.1203 36.1329C54.851 31.3847 57.5879 26.6386 60.3309 21.8986C60.9645 20.8031 61.8475 20.801 62.4812 21.8946C65.2385 26.657 67.9897 31.4236 70.7307 36.1962C71.3357 37.2489 70.8962 37.9888 69.6698 38.0133C68.8788 38.0297 68.0878 38.0379 67.2988 38.0092C66.8287 37.9909 66.655 38.1441 66.5609 38.6306C63.9549 52.3109 56.0263 61.3167 42.7895 65.6295C41.326 66.1057 40.8477 65.7235 40.8457 64.211C40.8457 61.7623 40.8457 59.3136 40.8457 56.8649C40.8457 55.5609 40.9152 55.4893 42.0844 54.9967C49.4754 51.8817 54.1213 46.4079 56.0856 38.6408C56.1285 38.4753 56.1428 38.3015 56.1898 38.0174V38.0154ZM68.096 35.8937C65.8292 31.9673 63.6503 28.192 61.4081 24.3064C59.1638 28.1941 56.9808 31.9754 54.7182 35.8958C55.6747 35.8958 56.4842 35.8815 57.2895 35.8999C58.2808 35.9223 58.6528 36.3863 58.4995 37.3756C57.8904 41.3266 56.4106 44.9261 54.0927 48.1739C51.3947 51.9573 47.9117 54.7821 43.6664 56.6769C43.4027 56.7934 43.0184 57.0611 43.0123 57.2676C42.9633 59.2523 42.9817 61.239 42.9817 63.236C43.1145 63.236 43.1922 63.2523 43.2617 63.2339C43.4579 63.1808 43.6541 63.1236 43.8442 63.0541C51.7789 60.1761 57.684 54.9824 61.5266 47.4688C63.1659 44.2638 64.1756 40.8565 64.5946 37.2755C64.7214 36.186 65.0259 35.906 66.1092 35.8978C66.7122 35.8937 67.3152 35.8978 68.0939 35.8978L68.096 35.8937Z" fill="#11A4F4"/>
<path d="M34.2289 50.4489C25.0371 50.825 16.9021 43.25 16.5444 33.9785C16.1765 24.423 23.5777 16.2593 32.9248 15.9119C42.7032 15.548 50.6972 22.8961 51.0794 32.5948C51.4534 42.1177 43.9684 50.0483 34.2289 50.4468V50.4489ZM34.282 48.3068C42.8074 47.8755 49.3277 40.8933 48.9332 32.6193C48.5224 24.0305 41.4625 17.6288 32.8717 18.0601C24.706 18.4709 18.294 25.6575 18.6906 33.954C19.081 42.1217 26.2431 48.7115 34.2841 48.3048L34.282 48.3068Z" fill="#FDFEFF"/>
<path d="M32.2788 38.3467C32.4648 38.0421 32.612 37.8091 32.7489 37.57C34.9401 33.7784 37.1292 29.9848 39.3224 26.1932C39.4613 25.952 39.5881 25.6904 39.7782 25.4921C40.1563 25.0915 40.6325 25.0261 41.0965 25.3184C41.5503 25.6066 41.7302 26.042 41.5278 26.5734C41.4563 26.7635 41.3541 26.9413 41.2519 27.1171C38.7316 31.483 36.2114 35.851 33.6871 40.2149C32.9758 41.4474 32.3851 41.5251 31.3815 40.5215C29.7402 38.8822 28.0968 37.245 26.4658 35.5975C25.8505 34.9762 25.8546 34.2363 26.4658 33.8336C27.0299 33.4636 27.5245 33.6374 27.9701 34.085C29.3007 35.4218 30.6355 36.7524 31.9702 38.0851C32.0417 38.1566 32.1235 38.2159 32.2768 38.3467H32.2788Z" fill="#FDFEFF"/>
</svg>
