<svg width="70" height="64" viewBox="0 0 70 64" fill="none" xmlns="http://www.w3.org/2000/svg">
<path d="M21.6785 5.04543C21.7416 4.259 21.7502 3.62469 21.8536 3.0076C22.1406 1.28836 23.5326 0.0283558 25.2777 0.0226155C31.5203 -0.00608633 37.763 -0.00895651 44.0056 0.0226155C45.9258 0.031226 47.3924 1.54668 47.5302 3.51849C47.5618 3.96911 47.5359 4.42547 47.5359 5.04543C47.9751 5.04543 48.3425 5.04543 48.7098 5.04543C53.305 5.04543 57.9001 5.03969 62.4924 5.04543C66.7719 5.05404 69.2689 7.56545 69.2718 11.8535C69.2907 36.9333 69.2819 31.8404 69.2718 56.9213C69.2718 61.2869 66.7834 63.7811 62.4436 63.7811C43.8908 63.7811 25.3351 63.7811 6.78224 63.7811C2.5315 63.7811 0 61.2352 0 56.9586C0 31.8761 0 36.9618 0 11.8793C0 7.59702 2.51428 5.05404 6.77076 5.04256C11.3315 5.03108 15.8893 5.04256 20.45 5.04256C20.8318 5.04256 21.2106 5.04256 21.6756 5.04256L21.6785 5.04543ZM21.7531 7.8582C21.2451 7.8582 20.9007 7.8582 20.5562 7.8582C16.0328 7.8582 11.5066 7.8582 6.98315 7.8582C4.09575 7.8582 2.87305 9.06942 2.87305 11.9396C2.87305 36.9848 2.87305 31.8675 2.87305 56.9127C2.87305 59.7226 4.11297 60.9798 6.89991 60.9798C25.4183 60.9826 43.9367 60.9826 62.458 60.9798C65.1474 60.9798 66.4562 59.6595 66.459 56.9644C66.4882 31.8762 66.4683 36.9524 66.4533 11.8621C66.4533 9.16988 65.1416 7.86107 62.4436 7.8582C57.8485 7.85246 53.2533 7.8582 48.661 7.8582H47.6134C47.5847 8.1854 47.5532 8.38919 47.5474 8.59297C47.4699 11.6267 46.1525 12.9327 43.1388 12.9413C40.9632 12.947 38.7905 12.9413 36.6149 12.9413C32.9669 12.9413 29.3189 12.9643 25.6709 12.9298C23.2628 12.9068 21.8392 11.4603 21.7502 9.05794C21.7387 8.71352 21.7502 8.36622 21.7502 7.8582H21.7531ZM34.6316 10.1199C37.5391 10.1199 40.4466 10.1027 43.3541 10.1285C44.2869 10.1371 44.6944 9.76974 44.6744 8.81971C44.637 7.24399 44.6399 5.66539 44.6744 4.08966C44.6916 3.20851 44.3414 2.79808 43.4431 2.80095C37.5936 2.80956 31.7442 2.80956 25.8948 2.80095C24.9533 2.80095 24.5831 3.23148 24.6089 4.16141C24.6462 5.5965 24.6175 7.03446 24.6204 8.46955C24.6204 9.94769 24.7869 10.117 26.2277 10.1199C29.029 10.1199 31.8332 10.1199 34.6345 10.1199H34.6316Z" fill="#11A4F4"/>
<path d="M32.2537 44.1257C28.9243 45.8564 25.7298 47.5183 22.5324 49.183C22.2225 49.3437 21.924 49.5992 21.5968 49.648C21.0801 49.7254 20.3827 49.8718 20.0526 49.6135C19.6709 49.3179 19.3752 48.5889 19.4355 48.0981C19.9636 43.678 20.552 39.2665 21.1921 34.8608C21.3356 33.8792 21.1978 33.3913 20.1502 33.0181C17.1164 31.9389 14.1429 30.6904 11.1378 29.5366C10.3428 29.2324 9.75727 28.8191 9.86921 27.869C9.9754 26.9592 10.6614 26.721 11.4248 26.566C26.7975 23.426 42.1673 20.2832 57.54 17.1403C57.7122 17.1059 57.9016 17.0255 58.0566 17.0657C58.6278 17.2178 59.4515 17.2494 59.6783 17.6282C59.9423 18.0702 59.8936 18.9514 59.6123 19.425C57.6376 22.7745 55.5682 26.0694 53.5304 29.3845C48.7745 37.1139 44.0186 44.8461 39.2627 52.5755C39.1709 52.7248 39.1106 52.9228 38.9757 53.0118C38.482 53.3361 37.9568 53.8642 37.4574 53.8528C37.0182 53.8413 36.4184 53.2902 36.1974 52.8281C35.0206 50.3626 33.9443 47.8512 32.8306 45.357C32.6613 44.9782 32.4805 44.6022 32.2566 44.12L32.2537 44.1257ZM54.1302 22.9582C54.0728 22.9008 54.0154 22.8405 53.958 22.7831C46.5444 27.14 39.1278 31.4969 31.6424 35.8941C33.7032 40.4347 35.7238 44.8921 37.819 49.5188C43.3326 40.538 48.7314 31.7495 54.1302 22.9582ZM16.3558 28.4689C16.8811 28.6928 17.1595 28.8219 17.4436 28.9339C21.2581 30.4235 25.0812 31.8988 28.887 33.4171C29.4697 33.6496 29.8944 33.6237 30.434 33.3023C36.6767 29.6084 42.9365 25.9431 49.1878 22.2636C49.4031 22.1373 49.5925 21.9708 49.7963 21.8216C49.7704 21.767 49.7475 21.7154 49.7216 21.6608C38.6829 23.9139 27.6442 26.1641 16.3587 28.4689H16.3558ZM31.0483 41.511C30.3221 39.875 29.662 38.371 28.9875 36.8757C28.9042 36.692 28.7837 36.4566 28.6201 36.3906C27.1506 35.7821 25.6638 35.2052 24.0852 34.5795C23.5657 38.4456 23.0749 42.1137 22.5583 45.9741C25.46 44.4501 28.201 43.0064 31.0483 41.511Z" fill="#FDFEFF"/>
</svg>
