<svg width="86" height="71" viewBox="0 0 86 71" fill="none" xmlns="http://www.w3.org/2000/svg">
<path d="M48.966 13.7855C47.0108 13.7855 45.0556 13.8246 43.1038 13.7754C40.9394 13.721 39.2223 12.087 38.9536 9.92309C38.702 7.89845 40.0689 5.89419 42.099 5.33537C42.4441 5.24025 42.8096 5.17061 43.165 5.17061C47.0312 5.16042 50.8991 5.12645 54.7636 5.18081C56.8174 5.20968 58.4054 6.59738 58.8576 8.56087C59.2759 10.3766 58.4479 12.3384 56.7579 13.1996C56.0829 13.5427 55.2702 13.7346 54.5103 13.7669C52.6656 13.8467 50.8141 13.7923 48.966 13.7923C48.966 13.7906 48.966 13.7872 48.966 13.7855ZM48.9796 7.74049C47.089 7.74049 45.1984 7.7201 43.3095 7.74898C42.2418 7.76427 41.4903 8.5303 41.5039 9.49506C41.5175 10.4428 42.2486 11.2072 43.2789 11.214C47.0584 11.2378 50.8396 11.231 54.6208 11.2174C55.357 11.214 55.9282 10.859 56.236 10.1711C56.7681 8.98381 55.9248 7.76766 54.5239 7.74728C52.6758 7.7201 50.8277 7.74049 48.9813 7.74218L48.9796 7.74049Z" fill="#11A4F4"/>
<path d="M32.0101 9.48989C32.005 11.8457 30.077 13.777 27.7205 13.7872C25.3437 13.7974 23.3766 11.8339 23.3868 9.46271C23.397 7.11195 25.3318 5.17393 27.6848 5.16204C30.0617 5.15015 32.0169 7.10516 32.0118 9.48989H32.0101ZM27.7018 7.7472C26.7344 7.7472 25.9676 8.52512 25.9778 9.49668C25.988 10.436 26.7395 11.1986 27.6746 11.2173C28.6165 11.236 29.4343 10.4377 29.4445 9.49159C29.4547 8.54211 28.6624 7.7489 27.7018 7.7489V7.7472Z" fill="#11A4F4"/>
<path d="M20.8239 9.456C20.8341 11.8526 18.901 13.7923 16.5105 13.7872C14.1473 13.7821 12.2312 11.8628 12.2227 9.49677C12.2142 7.10354 14.1558 5.15194 16.5343 5.16043C18.8959 5.17062 20.8154 7.08995 20.8239 9.456ZM14.79 9.4594C14.7832 10.4123 15.5754 11.2174 16.5207 11.2174C17.4711 11.2174 18.2549 10.4208 18.2498 9.4611C18.2447 8.51842 17.5 7.76597 16.5547 7.74728C15.5907 7.7286 14.7968 8.49803 14.79 9.4594Z" fill="#11A4F4"/>
<path d="M64.4111 18.3118V43.8928C64.4111 46.8222 62.0368 49.1975 59.1074 49.1975H11.3584C8.4292 49.1973 6.05469 46.8221 6.05469 43.8928V18.3118H64.4111ZM11.3584 1.5022H59.1074C62.0367 1.5022 64.4109 3.87671 64.4111 6.80591V16.2024H6.05469V6.80591C6.05491 3.87685 8.42934 1.50242 11.3584 1.5022Z" stroke="#11A4F4" stroke-width="2.10938"/>
<path d="M18.1751 39.0494C18.1751 38.824 18.1751 38.6569 18.1751 38.4889C18.1751 37.1584 18.1821 35.828 18.171 34.4966C18.167 34.0739 18.3023 33.7519 18.6345 33.4771C21.716 30.929 24.7884 28.3718 27.8669 25.8197C28.5666 25.24 28.9765 25.3024 29.4803 26.0541C30.7616 27.9663 32.0398 29.8804 33.3191 31.7925C33.4059 31.9213 33.4978 32.0471 33.6169 32.2172C34.4862 31.4493 35.3414 30.6975 36.1936 29.9418C37.4496 28.8297 38.7026 27.7137 39.9596 26.6026C40.5786 26.0552 40.9885 26.0964 41.4842 26.7485C42.0426 27.4832 42.5969 28.2188 43.1189 28.9092C45.3472 26.6892 47.5614 24.4842 49.7877 22.2662C49.7029 22.2611 49.5606 22.246 49.4192 22.244C48.9012 22.236 48.3813 22.2581 47.8663 22.2179C47.3908 22.1806 47.1222 21.8495 47.1303 21.4047C47.1384 20.9961 47.4241 20.6328 47.8573 20.6248C49.2385 20.5986 50.6207 20.5956 52.0019 20.6248C52.4684 20.6348 52.7592 20.9941 52.7642 21.4862C52.7784 22.7855 52.7794 24.0847 52.7642 25.3839C52.7582 25.8992 52.4129 26.2293 51.9474 26.2282C51.4739 26.2282 51.1578 25.9203 51.1377 25.3809C51.1144 24.772 51.1326 24.1622 51.1326 23.4044C50.8731 23.656 50.7015 23.818 50.5339 23.985C50.0109 24.5043 49.4828 25.0186 48.9739 25.551C48.8568 25.6737 48.7407 25.8629 48.7397 26.0219C48.7296 30.3111 48.7336 34.6002 48.7367 38.8894C48.7367 38.9186 48.7538 38.9468 48.7861 39.0474C49.399 39.0474 50.0351 39.0444 50.6722 39.0494C50.8913 39.0514 51.1144 39.0514 51.3275 39.0947C51.6879 39.1682 51.8979 39.4067 51.9353 39.776C51.9737 40.1645 51.8131 40.4603 51.4486 40.5952C51.2497 40.6687 51.0205 40.6807 50.8045 40.6807C39.4982 40.6848 28.192 40.6838 16.8857 40.6838C16.7757 40.6838 16.6646 40.6898 16.5566 40.6787C16.079 40.6304 15.7509 40.2913 15.7559 39.8555C15.76 39.4318 16.0578 39.1058 16.5293 39.0645C16.8878 39.0333 17.2512 39.0504 17.6117 39.0474C17.7803 39.0464 17.9489 39.0474 18.1751 39.0474V39.0494ZM47.104 27.4419C46.9607 27.5687 46.8668 27.6432 46.783 27.7277C45.9157 28.5902 45.0413 29.4456 44.1942 30.3272C44.0427 30.4852 43.9317 30.7529 43.9307 30.9713C43.9125 33.5073 43.9195 36.0434 43.9195 38.5794V39.0162H47.105V27.4429L47.104 27.4419ZM42.2496 39.0232C42.2667 38.9095 42.293 38.819 42.293 38.7284C42.295 36.0826 42.296 33.4359 42.293 30.7901C42.293 30.6694 42.2829 30.5224 42.2173 30.4329C41.6841 29.7043 41.1369 28.9857 40.5715 28.2339C40.1575 28.6003 39.7607 28.9092 39.4195 29.2715C39.2579 29.4426 39.1156 29.7123 39.1145 29.9387C39.0944 32.82 39.1004 35.7002 39.1024 38.5814C39.1024 38.7304 39.1166 38.8783 39.1246 39.0232H42.2496ZM27.7911 27.9904C26.7946 28.8176 25.8728 29.5946 24.9348 30.3534C24.6945 30.5476 24.5945 30.7489 24.5966 31.0629C24.6097 33.5667 24.6036 36.0706 24.6036 38.5744C24.6036 38.7233 24.6036 38.8723 24.6036 39.0222H27.7901V27.9894L27.7911 27.9904ZM32.5871 39.0212C32.6032 38.9468 32.6264 38.8884 32.6264 38.83C32.6295 37.1876 32.6335 35.5442 32.6224 33.9018C32.6214 33.7448 32.5436 33.5697 32.4548 33.4349C31.541 32.0511 30.6192 30.6734 29.6974 29.2947C29.6419 29.2111 29.5712 29.1377 29.4601 29.0018V39.0222H32.5871V39.0212ZM37.4153 39.0212V31.0307C36.4278 31.9032 35.4939 32.7083 34.5902 33.5466C34.4216 33.7026 34.2904 33.9874 34.2863 34.2148C34.2591 35.669 34.2722 37.1232 34.2742 38.5784C34.2742 38.7274 34.2914 38.8753 34.3005 39.0222H37.4163L37.4153 39.0212ZM22.9801 31.9887C22.132 32.6912 21.3899 33.3684 20.5821 33.9542C19.9642 34.402 19.7189 34.9022 19.7734 35.6761C19.8511 36.778 19.7936 37.8891 19.7936 39.0142H22.9811V31.9887H22.9801Z" fill="#09192E"/>
<path d="M82.3078 70.0811C81.3219 69.8732 80.6105 69.2551 79.9218 68.5645C76.6744 65.3048 73.4098 62.0623 70.1523 58.8126C70.0494 58.7101 69.9666 58.5847 69.9108 58.5178C68.8793 59.0276 67.9392 59.5645 66.9463 59.9703C64.3517 61.0298 61.6472 61.3716 58.8655 60.9843C54.7508 60.4132 51.3433 58.5278 48.6702 55.3735C46.7071 53.058 45.5213 50.3694 45.0927 47.3604C45.0441 47.0201 44.9884 46.6811 44.9355 46.3408C44.9355 45.5419 44.9355 44.7416 44.9355 43.9427C44.9998 43.497 45.0513 43.0498 45.1299 42.6055C45.8199 38.6965 47.663 35.434 50.709 32.875C52.8735 31.0565 55.3723 29.9044 58.1597 29.4017C61.2343 28.8464 64.226 29.1824 67.1049 30.3729C69.6822 31.4381 71.8396 33.0772 73.5712 35.266C75.2928 37.4419 76.3858 39.9027 76.8187 42.6297C77.343 45.925 76.8729 49.0963 75.4085 52.1039C75.1013 52.7362 74.7342 53.3386 74.3513 54.0335C74.4484 54.1047 74.5799 54.1787 74.6842 54.2813C78.0974 57.6791 81.5077 61.0797 84.9194 64.4775C85.8781 65.433 86.2481 66.5523 85.831 67.8653C85.5038 68.8977 84.7966 69.5798 83.7636 69.9216C83.5993 69.9757 83.435 70.0284 83.2721 70.0811H82.3092H82.3078ZM61.4186 59.5118C69.5165 59.2754 76.1343 52.2449 75.3299 43.7433C74.6442 36.4949 68.1921 30.0696 59.5713 30.8372C52.292 31.4866 45.8371 37.9503 46.6286 46.5373C47.3143 53.9822 53.7264 59.714 61.4186 59.5104V59.5118ZM74.6413 61.0042C74.6284 60.99 74.677 61.0512 74.7327 61.1067C76.9987 63.3653 79.2646 65.6224 81.5305 67.8795C81.6248 67.9735 81.7234 68.0632 81.8291 68.1444C82.4292 68.6058 83.245 68.5801 83.8193 68.086C84.5751 67.4352 84.588 66.4327 83.8222 65.6651C81.5434 63.3824 79.256 61.1082 76.9715 58.8325C76.9201 58.7813 76.8558 58.74 76.7987 58.6944C76.8201 58.7314 76.8429 58.7685 76.8644 58.8055C76.1286 59.5346 75.3914 60.2623 74.6413 61.0056V61.0042ZM71.2881 57.6135C71.9296 58.2501 72.664 58.9792 73.4512 59.7624C74.1784 59.0362 74.9213 58.2928 75.62 57.5936C74.8242 56.7961 74.0927 56.0642 73.4798 55.449C72.7654 56.1553 72.0282 56.8816 71.2881 57.6135Z" fill="#11A4F4"/>
<path d="M61.4165 59.5117C53.7257 59.7153 47.3137 53.9836 46.6265 46.5386C45.835 37.9502 52.2913 31.4879 59.5692 30.8385C68.19 30.0695 74.6421 36.4963 75.3278 43.7447C76.1322 52.2462 69.513 59.2767 61.4165 59.5131V59.5117ZM73.802 45.1217C73.7905 38.0827 68.0343 32.3523 60.9736 32.3523C53.8972 32.3523 48.1309 38.1083 48.1423 45.1587C48.1538 52.1978 53.91 57.9282 60.9707 57.9282C68.0471 57.9282 73.8134 52.1722 73.802 45.1217Z" fill="#FDFEFF"/>
<path d="M73.8022 45.1216C73.8137 52.1735 68.046 57.9295 60.971 57.9281C53.9103 57.9281 48.154 52.1963 48.1426 45.1586C48.1312 38.1067 53.8989 32.3507 60.9738 32.3522C68.0345 32.3522 73.7908 38.084 73.8022 45.1216ZM60.5581 56.3103C66.3529 56.5539 71.8949 52.0952 72.1764 45.5545C72.425 39.7786 67.9488 34.2547 61.3853 33.9742C55.5905 33.7264 50.0485 38.1879 49.767 44.73C49.5184 50.5059 53.9946 56.027 60.5581 56.3118V56.3103Z" fill="#11A4F4"/>
</svg>
