<svg width="87" height="70" viewBox="0 0 87 70" fill="none" xmlns="http://www.w3.org/2000/svg">
<path d="M56.6977 29.0692C55.7646 28.0202 54.8734 27.021 53.987 26.0187C53.4075 25.3634 53.3966 24.6459 53.9512 24.1744C54.484 23.7215 55.1694 23.8195 55.7381 24.453C56.7507 25.5798 57.7602 26.7097 58.7619 27.8459C59.4879 28.6692 59.491 29.4598 58.7634 30.2863C57.7508 31.438 56.7289 32.5835 55.7022 33.7243C55.1554 34.3329 54.4217 34.4045 53.9076 33.9251C53.4059 33.4582 53.4137 32.764 53.9434 32.1617C54.8423 31.1423 55.749 30.1322 56.6962 29.0692H56.6977Z" fill="#11A4F4"/>
<path d="M39.6193 29.0692C40.5197 30.0793 41.3875 31.0474 42.2459 32.0232C42.4235 32.2256 42.6057 32.445 42.7039 32.6894C42.908 33.1968 42.6821 33.7757 42.2225 34.0637C41.7582 34.3547 41.1429 34.2862 40.7316 33.8489C40.1194 33.1968 39.5336 32.5182 38.9385 31.8505C38.4462 31.298 37.9461 30.7532 37.4679 30.1898C36.8572 29.4692 36.8385 28.6692 37.4461 27.9704C38.5054 26.7518 39.5835 25.5487 40.6677 24.3518C41.1709 23.7962 41.8798 23.7448 42.3798 24.19C42.8799 24.6335 42.908 25.3448 42.425 25.9113C41.9701 26.4436 41.495 26.9588 41.0292 27.4817C40.5774 27.9891 40.1256 28.498 39.6193 29.0692Z" fill="#11A4F4"/>
<path d="M50.4888 24.364C50.2645 25.3025 50.0059 26.378 49.7504 27.455C49.2332 29.6277 48.7175 31.802 48.2003 33.9747C48.1816 34.051 48.1551 34.1241 48.1333 34.1973C47.9199 34.8821 47.3403 35.2509 46.7172 35.0968C46.0816 34.9412 45.7046 34.3545 45.865 33.6572C46.348 31.5561 46.8558 29.4612 47.3559 27.3632C47.6363 26.1928 47.9027 25.0177 48.2143 23.8551C48.3748 23.2543 48.9527 22.9166 49.5105 23.0178C50.1024 23.1252 50.5044 23.6154 50.4919 24.3625L50.4888 24.364Z" fill="#11A4F4"/>
<path d="M48.0973 13.284C46.1806 13.284 44.2639 13.3223 42.3505 13.274C40.2288 13.2207 38.5455 11.6189 38.2821 9.49765C38.0355 7.5129 39.3755 5.54812 41.3655 5.00031C41.7038 4.90707 42.0622 4.8388 42.4105 4.8388C46.2006 4.82881 49.9923 4.79551 53.7806 4.84879C55.794 4.8771 57.3507 6.23746 57.794 8.16227C58.204 9.94223 57.3924 11.8654 55.7357 12.7096C55.074 13.0459 54.2773 13.2341 53.5323 13.2657C51.724 13.344 49.9089 13.2907 48.0973 13.2907C48.0973 13.289 48.0973 13.2857 48.0973 13.284ZM48.1106 7.35805C46.2572 7.35805 44.4039 7.33807 42.5522 7.36637C41.5055 7.38136 40.7688 8.1323 40.7822 9.07806C40.7955 10.0072 41.5122 10.7564 42.5222 10.7631C46.2272 10.7864 49.9339 10.7798 53.6406 10.7664C54.3623 10.7631 54.9223 10.4151 55.224 9.74075C55.7457 8.57687 54.919 7.38469 53.5456 7.36471C51.734 7.33807 49.9223 7.35805 48.1123 7.35971L48.1106 7.35805Z" fill="#FDFEFF"/>
<path d="M31.4759 9.07296C31.4709 11.3824 29.5809 13.2756 27.2709 13.2856C24.9409 13.2956 23.0125 11.3708 23.0225 9.04632C23.0325 6.74187 24.9292 4.84203 27.2359 4.83038C29.5659 4.81872 31.4826 6.73521 31.4776 9.07296H31.4759ZM27.2525 7.3646C26.3042 7.3646 25.5525 8.1272 25.5625 9.07962C25.5725 10.0004 26.3092 10.748 27.2259 10.7663C28.1492 10.7846 28.9509 10.0021 28.9609 9.07463C28.9709 8.14385 28.1942 7.36627 27.2525 7.36627V7.3646Z" fill="#FDFEFF"/>
<path d="M20.6139 9.03983C20.6239 11.3892 18.7289 13.2907 16.3855 13.2857C14.0688 13.2808 12.1905 11.3992 12.1822 9.0798C12.1738 6.73372 14.0772 4.82056 16.4089 4.82888C18.7239 4.83887 20.6056 6.7204 20.6139 9.03983ZM14.6989 9.04316C14.6922 9.97727 15.4689 10.7665 16.3955 10.7665C17.3272 10.7665 18.0956 9.98559 18.0906 9.04483C18.0856 8.12072 17.3555 7.38309 16.4289 7.36478C15.4839 7.34646 14.7055 8.10074 14.6989 9.04316Z" fill="#FDFEFF"/>
<path d="M63.4116 17.4424V42.5898C63.4116 45.5 61.0522 47.8591 58.1421 47.8594H11.3335C8.42321 47.8593 6.06399 45.5001 6.06396 42.5898V17.4424H63.4116ZM11.3335 0.963867H58.1421C61.0522 0.964129 63.4115 3.32326 63.4116 6.2334V15.5146H6.06396V6.2334C6.06404 3.32314 8.42324 0.963942 11.3335 0.963867Z" stroke="#FDFEFF" stroke-width="1.92771"/>
<path d="M64.8363 53H61.1645C60.8691 52.884 60.7352 52.6559 60.6797 52.352C60.6066 51.95 60.5062 51.5535 60.4246 51.1531C60.4016 51.0395 60.35 50.9766 60.2383 50.9344C59.9352 50.8203 59.634 50.6984 59.3395 50.5637C59.2289 50.5129 59.1543 50.5234 59.0578 50.5875C58.6949 50.8281 58.3277 51.0617 57.9602 51.2953C57.6098 51.518 57.3457 51.4914 57.0516 51.1984C56.3 50.4504 55.5504 49.7004 54.8023 48.9492C54.5094 48.6551 54.4828 48.391 54.7051 48.0406C54.9387 47.673 55.1723 47.3059 55.4129 46.943C55.477 46.8465 55.4875 46.7719 55.4367 46.6613C55.302 46.3668 55.1801 46.0656 55.066 45.7625C55.0238 45.6508 54.9609 45.5992 54.8473 45.5762C54.4469 45.4949 54.05 45.3953 53.648 45.3223C53.3438 45.2672 53.118 45.1289 53 44.8359V41.1641C53.118 40.8711 53.3438 40.7332 53.648 40.6777C54.05 40.6047 54.4469 40.5055 54.8473 40.4238C54.9609 40.4008 55.0238 40.3492 55.066 40.2375C55.1801 39.9344 55.302 39.6332 55.4367 39.3387C55.4875 39.2281 55.4766 39.1535 55.4129 39.057C55.1723 38.6941 54.9387 38.327 54.7051 37.9594C54.4824 37.609 54.509 37.3453 54.8023 37.0508C55.5504 36.2992 56.3 35.5492 57.0512 34.8008C57.3437 34.5094 57.6105 34.4824 57.9602 34.7047C58.3277 34.9383 58.6949 35.1719 59.0578 35.4125C59.1543 35.4766 59.2289 35.4871 59.3395 35.4363C59.634 35.3016 59.9352 35.1797 60.2383 35.0656C60.35 35.0234 60.4016 34.9605 60.4246 34.8469C60.5066 34.4465 60.6066 34.0496 60.6797 33.648C60.7352 33.3441 60.8691 33.116 61.1645 33H64.8363C65.1309 33.1164 65.2672 33.3434 65.3223 33.6477C65.3953 34.0496 65.4945 34.4465 65.5762 34.8469C65.5992 34.9602 65.6504 35.0234 65.7621 35.066C66.0711 35.1828 66.3723 35.3211 66.682 35.4363C66.7516 35.4621 66.8602 35.4559 66.9223 35.418C67.2992 35.1879 67.6672 34.9426 68.0398 34.7055C68.3895 34.4828 68.6559 34.5098 68.9488 34.8016C69.7 35.55 70.45 36.2996 71.1984 37.0512C71.4902 37.3441 71.5172 37.6105 71.2953 37.9602C71.0617 38.3277 70.8281 38.6949 70.5875 39.0578C70.5238 39.1539 70.5125 39.2289 70.5633 39.3395C70.6984 39.634 70.8199 39.9352 70.934 40.2383C70.9762 40.35 71.0391 40.4016 71.1527 40.4246C71.5531 40.5059 71.95 40.6055 72.352 40.6785C72.6563 40.7336 72.882 40.8719 73 41.1648V44.8367C72.882 45.1297 72.6563 45.2676 72.352 45.323C71.95 45.3961 71.5531 45.4953 71.1527 45.577C71.0391 45.6 70.9762 45.6516 70.934 45.7633C70.8199 46.0664 70.698 46.3676 70.5633 46.6621C70.5125 46.7727 70.5234 46.8473 70.5875 46.9437C70.8281 47.3066 71.0621 47.6738 71.2953 48.0414C71.5176 48.391 71.4902 48.6578 71.1988 48.9504C70.4504 49.7016 69.7004 50.4512 68.9488 51.1992C68.6547 51.4922 68.3902 51.5184 68.0402 51.2957C67.6676 51.0586 67.2996 50.8133 66.9227 50.5832C66.8605 50.5453 66.752 50.5391 66.6824 50.5648C66.3727 50.6801 66.0715 50.8184 65.7625 50.9352C65.6504 50.9773 65.5996 51.0406 65.5766 51.1543C65.4949 51.5547 65.3957 51.9516 65.3227 52.3535C65.2672 52.6574 65.1309 52.8844 64.8367 53.0012L64.8363 53ZM61.7895 51.7895H64.2094C64.3023 51.3637 64.4023 50.9422 64.4848 50.5172C64.5453 50.2043 64.7176 50.0223 65.0188 49.9121C65.5051 49.7344 65.9867 49.5379 66.4555 49.3184C66.7461 49.1824 66.9945 49.1832 67.2598 49.3625C67.6203 49.6063 67.991 49.8352 68.332 50.0543C68.9105 49.4758 69.4789 48.9078 70.0551 48.3316C69.8246 47.9734 69.584 47.5953 69.3391 47.2195C69.2008 47.0078 69.1711 46.7934 69.273 46.5551C69.5047 46.0129 69.7305 45.468 69.952 44.9215C70.0363 44.7129 70.1738 44.5738 70.393 44.5199C70.5 44.4938 70.6078 44.4703 70.7156 44.4465C71.0742 44.3664 71.4332 44.2867 71.7891 44.2078V41.7902C71.3609 41.6969 70.9387 41.5977 70.5129 41.5141C70.2 41.4527 70.0203 41.2785 69.9113 40.977C69.7371 40.4961 69.5422 40.0211 69.3242 39.5586C69.1848 39.2629 69.1801 39.0086 69.3652 38.7363C69.6098 38.3766 69.8383 38.0055 70.068 37.648C69.4938 37.0738 68.9285 36.5082 68.3531 35.9328C68.0352 36.1371 67.6953 36.3313 67.3828 36.5621C67.0305 36.8223 66.7051 36.8414 66.3219 36.6152C66.0168 36.4352 65.6832 36.2664 65.341 36.1957C64.7223 36.068 64.4621 35.7027 64.4012 35.109C64.3699 34.8043 64.273 34.5063 64.2074 34.2121H61.7895C61.6969 34.6363 61.5965 35.0523 61.5172 35.4727C61.4547 35.8027 61.273 35.9844 60.9539 36.0949C60.4891 36.2559 60.0316 36.4457 59.5895 36.6609C59.275 36.8141 59.007 36.8246 58.7156 36.6227C58.3641 36.3789 57.9973 36.157 57.6535 35.9363C57.0758 36.5133 56.5102 37.0785 55.9359 37.6523C56.1637 38.0066 56.3922 38.3777 56.6367 38.7375C56.8223 39.0102 56.8156 39.2645 56.6758 39.5598C56.4598 40.016 56.2617 40.4836 56.0941 40.9598C55.9816 41.2789 55.7961 41.4559 55.4668 41.5176C55.0473 41.5961 54.632 41.6984 54.2141 41.7906V44.2105C54.6406 44.3039 55.0574 44.4035 55.4777 44.4844C55.7988 44.5461 55.9816 44.7219 56.0918 45.0324C56.2586 45.502 56.4473 45.9664 56.6645 46.4148C56.8172 46.7305 56.8223 46.9984 56.6207 47.2887C56.3773 47.6395 56.1559 48.0059 55.9414 48.3398C56.523 48.9215 57.0879 49.4859 57.6613 50.0594C58.0059 49.8375 58.3715 49.6125 58.7258 49.3707C59.0031 49.1816 59.2625 49.1816 59.5656 49.3266C60.0211 49.5441 60.4898 49.7387 60.9656 49.9078C61.2758 50.018 61.4539 50.1984 61.5156 50.5199C61.5965 50.9402 61.6953 51.3574 61.7895 51.7898V51.7895Z" fill="#FDFEFF"/>
<path d="M61.7888 51.7894C61.6946 51.357 61.5958 50.9402 61.5149 50.5195C61.4532 50.198 61.2751 50.0179 60.9649 49.9074C60.4892 49.7382 60.0204 49.5437 59.5649 49.3261C59.2618 49.1816 59.0024 49.1812 58.7251 49.3703C58.3708 49.6121 58.0056 49.8371 57.6606 50.0589C57.0872 49.4855 56.5224 48.9207 55.9407 48.3394C56.1552 48.0054 56.3767 47.639 56.62 47.2882C56.8216 46.998 56.8165 46.7296 56.6638 46.4144C56.4466 45.966 56.2579 45.5015 56.0911 45.032C55.981 44.7214 55.7985 44.5457 55.4771 44.4839C55.0567 44.4031 54.6399 44.3035 54.2134 44.2101V41.7902C54.6313 41.698 55.0462 41.596 55.4661 41.5171C55.7954 41.4554 55.981 41.2785 56.0935 40.9593C56.261 40.4832 56.4591 40.016 56.6751 39.5593C56.8149 39.2644 56.8216 39.0097 56.636 38.7371C56.3911 38.3773 56.163 38.0062 55.9353 37.6519C56.5095 37.0781 57.0751 36.5132 57.6528 35.9359C57.9962 36.1566 58.363 36.3785 58.7149 36.6222C59.0063 36.8242 59.2747 36.8136 59.5888 36.6605C60.031 36.4453 60.4884 36.2554 60.9532 36.0945C61.2724 35.9839 61.454 35.8023 61.5165 35.4722C61.5958 35.0519 61.6962 34.6355 61.7888 34.2117H64.2067C64.2724 34.5058 64.3692 34.8039 64.4005 35.1085C64.4614 35.7019 64.7216 36.0675 65.3403 36.1953C65.6825 36.266 66.0165 36.4347 66.3212 36.6148C66.7044 36.841 67.0298 36.8218 67.3821 36.5617C67.6946 36.3308 68.0345 36.1367 68.3524 35.9324C68.9278 36.5078 69.4931 37.0734 70.0673 37.6476C69.8372 38.0054 69.6091 38.3761 69.3646 38.7359C69.1794 39.0082 69.1845 39.2621 69.3235 39.5582C69.5415 40.0207 69.7364 40.4957 69.9106 40.9765C70.02 41.2781 70.1997 41.4523 70.5122 41.5136C70.9376 41.5972 71.3603 41.6964 71.7884 41.7898V44.2074C71.4325 44.2867 71.0739 44.3664 70.7149 44.446C70.6071 44.4699 70.4993 44.4933 70.3923 44.5195C70.1731 44.5734 70.0356 44.7125 69.9513 44.921C69.7298 45.4675 69.504 46.0125 69.2724 46.5546C69.1704 46.7929 69.2001 47.0074 69.3384 47.2191C69.5833 47.5949 69.8243 47.973 70.0544 48.3312C69.4782 48.9074 68.9099 49.4753 68.3313 50.0539C67.9899 49.8347 67.6196 49.6054 67.2591 49.3621C66.9942 49.1828 66.7454 49.182 66.4548 49.3179C65.9856 49.5375 65.5044 49.7339 65.0181 49.9117C64.7169 50.0218 64.545 50.2039 64.4841 50.5167C64.4017 50.9417 64.3017 51.3636 64.2087 51.789H61.7888V51.7894ZM67.7813 43.0082C67.8009 40.3925 65.6677 38.2496 63.0126 38.2183C60.4056 38.1875 58.2626 40.3167 58.2177 42.9824C58.1739 45.5859 60.3517 47.773 62.9962 47.782C65.6212 47.791 67.761 45.6558 67.7813 43.0082Z" fill="#081022"/>
<path d="M67.7816 43.0087C67.7617 45.6559 65.6214 47.7911 62.9964 47.7825C60.3519 47.7735 58.1742 45.5864 58.2179 42.9829C58.2629 40.3173 60.4054 38.1884 63.0129 38.2188C65.6679 38.2501 67.8015 40.393 67.7816 43.0087ZM66.5828 43.0036C66.5894 41.0434 64.9968 39.4442 63.0125 39.4177C61.0605 39.3915 59.4234 41.0216 59.4168 42.9977C59.4101 44.9618 61.0472 46.5973 63.0066 46.5837C64.9812 46.57 66.5761 44.9731 66.5828 43.0036Z" fill="#11A4F4"/>
<path d="M66.5835 43.003C66.5769 44.9725 64.982 46.569 63.0073 46.5831C61.048 46.5967 59.4109 44.9616 59.4175 42.9971C59.4241 41.021 61.0613 39.3913 63.0132 39.417C64.9976 39.4436 66.5902 41.0428 66.5835 43.003Z" fill="#081022"/>
<path d="M11.5398 38.0224C11.5398 37.8877 11.5398 37.7878 11.5398 37.6874C11.5398 36.8924 11.544 36.0974 11.5374 35.3018C11.535 35.0492 11.6154 34.8567 11.8128 34.6926C13.6441 33.1699 15.4699 31.6418 17.2994 30.1167C17.7152 29.7703 17.9589 29.8076 18.2583 30.2568C19.0197 31.3994 19.7793 32.5433 20.5396 33.6859C20.5912 33.7628 20.6458 33.838 20.7166 33.9397C21.2332 33.4808 21.7414 33.0316 22.2479 32.5799C22.9943 31.9154 23.7389 31.2485 24.486 30.5846C24.8538 30.2574 25.0974 30.2821 25.392 30.6718C25.7238 31.1108 26.0532 31.5504 26.3635 31.9629C27.6877 30.6363 29.0036 29.3187 30.3266 27.9933C30.2762 27.9902 30.1916 27.9812 30.1076 27.98C29.7998 27.9752 29.4908 27.9884 29.1848 27.9644C28.9022 27.9421 28.7426 27.7443 28.7474 27.4785C28.7522 27.2343 28.922 27.0172 29.1794 27.0124C30.0002 26.9968 30.8217 26.995 31.6425 27.0124C31.9197 27.0184 32.0925 27.2331 32.0955 27.5272C32.1039 28.3036 32.1045 29.0799 32.0955 29.8563C32.0919 30.1642 31.8867 30.3615 31.6101 30.3609C31.3287 30.3609 31.1409 30.1768 31.1289 29.8545C31.1151 29.4907 31.1259 29.1262 31.1259 28.6734C30.9717 28.8238 30.8697 28.9206 30.7701 29.0204C30.4592 29.3307 30.1454 29.638 29.843 29.9561C29.7734 30.0295 29.7044 30.1426 29.7038 30.2376C29.6978 32.8006 29.7002 35.3637 29.702 37.9268C29.702 37.9442 29.7122 37.961 29.7314 38.0212C30.0956 38.0212 30.4736 38.0194 30.8523 38.0224C30.9825 38.0236 31.1151 38.0236 31.2417 38.0494C31.4559 38.0933 31.5807 38.2359 31.6029 38.4566C31.6257 38.6887 31.5303 38.8655 31.3137 38.9461C31.1955 38.99 31.0593 38.9972 30.9309 38.9972C24.2118 38.9996 17.4926 38.999 10.7735 38.999C10.7081 38.999 10.6421 39.0026 10.5779 38.996C10.2941 38.9671 10.0991 38.7645 10.1021 38.5041C10.1045 38.2509 10.2815 38.0561 10.5617 38.0314C10.7747 38.0128 10.9907 38.023 11.2049 38.0212C11.3051 38.0206 11.4053 38.0212 11.5398 38.0212V38.0224ZM28.7318 31.0861C28.6466 31.1619 28.5908 31.2064 28.541 31.2569C28.0255 31.7723 27.5059 32.2835 27.0025 32.8103C26.9125 32.9047 26.8465 33.0647 26.8459 33.1951C26.8351 34.7106 26.8393 36.2261 26.8393 37.7415V38.0025H28.7324V31.0867L28.7318 31.0861ZM25.8468 38.0067C25.857 37.9388 25.8726 37.8847 25.8726 37.8305C25.8738 36.2495 25.8744 34.6679 25.8726 33.0869C25.8726 33.0147 25.8666 32.9269 25.8276 32.8734C25.5108 32.438 25.1856 32.0086 24.8496 31.5594C24.6036 31.7783 24.3678 31.9629 24.1649 32.1794C24.0689 32.2817 23.9843 32.4428 23.9837 32.5781C23.9717 34.2999 23.9753 36.021 23.9765 37.7427C23.9765 37.8318 23.9849 37.9202 23.9897 38.0067H25.8468ZM17.2544 31.4139C16.6622 31.9082 16.1144 32.3725 15.5569 32.8259C15.4141 32.942 15.3547 33.0622 15.3559 33.2499C15.3637 34.7461 15.3601 36.2423 15.3601 37.7385C15.3601 37.8275 15.3601 37.9165 15.3601 38.0061H17.2538V31.4133L17.2544 31.4139ZM20.1046 38.0055C20.1142 37.961 20.128 37.9262 20.128 37.8913C20.1298 36.9098 20.1322 35.9278 20.1256 34.9464C20.125 34.8525 20.0788 34.7479 20.026 34.6673C19.4829 33.8404 18.9351 33.0171 18.3873 32.1933C18.3543 32.1433 18.3123 32.0994 18.2463 32.0183V38.0061H20.1046V38.0055ZM22.9739 38.0055V33.2306C22.3871 33.752 21.832 34.2331 21.295 34.7341C21.1948 34.8273 21.1168 34.9975 21.1144 35.1334C21.0982 36.0024 21.106 36.8714 21.1072 37.7409C21.1072 37.8299 21.1174 37.9183 21.1228 38.0061H22.9745L22.9739 38.0055ZM14.3953 33.8031C13.8913 34.2229 13.4502 34.6276 12.9702 34.9776C12.603 35.2452 12.4572 35.5441 12.4896 36.0066C12.5358 36.6651 12.5016 37.329 12.5016 38.0013H14.3959V33.8031H14.3953Z" fill="#11A4F4"/>
<path d="M0.000243329 47.4496C0.108446 46.9366 0.430091 46.5663 0.789533 46.2079C2.48595 44.5178 4.17348 42.8188 5.86471 41.1236C5.91807 41.07 5.98328 41.0269 6.01812 40.9979C5.7528 40.4611 5.4734 39.9718 5.26218 39.455C4.71079 38.1048 4.53292 36.6972 4.7345 35.2496C5.03169 33.1081 6.01293 31.3348 7.6545 29.9436C8.85956 28.922 10.2588 28.3049 11.8248 28.0818C12.0019 28.0565 12.1783 28.0275 12.3554 28C12.7712 28 13.1877 28 13.6035 28C13.8354 28.0335 14.0681 28.0602 14.2994 28.1011C16.3337 28.4603 18.0316 29.4194 19.3634 31.0047C20.3098 32.1311 20.9094 33.4316 21.171 34.8822C21.46 36.4824 21.2851 38.0393 20.6656 39.5376C20.1112 40.8789 19.2582 42.0017 18.1191 42.9029C16.9867 43.7988 15.706 44.3676 14.2868 44.5929C12.5718 44.8658 10.9213 44.6212 9.35611 43.8591C9.02705 43.6992 8.71356 43.5081 8.35189 43.3088C8.31484 43.3594 8.2763 43.4278 8.22294 43.4821C6.45463 45.2584 4.68485 47.0332 2.91654 48.8088C2.41925 49.3077 1.83673 49.5003 1.15342 49.2832C0.616111 49.1129 0.261116 48.7449 0.0832481 48.2073C0.0550856 48.1218 0.0276646 48.0363 0.000243307 47.9515L0.000243329 47.4504L0.000243329 47.4496ZM5.50082 36.5783C5.62384 40.7927 9.28274 44.2368 13.7072 43.8182C17.4795 43.4613 20.8234 40.1034 20.424 35.6169C20.086 31.8285 16.7221 28.4692 12.2531 28.8811C8.37858 29.238 5.39558 32.575 5.50156 36.5783L5.50082 36.5783ZM4.72413 43.4598C4.73154 43.4531 4.69967 43.4784 4.67077 43.5074C3.49535 44.6866 2.32068 45.8659 1.14601 47.0451C1.0971 47.0942 1.05041 47.1455 1.00816 47.2005C0.768041 47.5128 0.781382 47.9374 1.03855 48.2363C1.37724 48.6296 1.89899 48.6363 2.29845 48.2378C3.48646 47.0518 4.67002 45.8614 5.85433 44.6725C5.88101 44.6457 5.9025 44.6123 5.92622 44.5825C5.90695 44.5937 5.88768 44.6056 5.86841 44.6167C5.48896 44.2338 5.11025 43.8501 4.72338 43.4598L4.72413 43.4598ZM6.48873 41.7147C6.15745 42.0485 5.778 42.4307 5.37038 42.8404C5.74835 43.2189 6.13521 43.6055 6.4991 43.9691C6.91413 43.5549 7.29506 43.1742 7.61522 42.8553C7.24763 42.4835 6.86966 42.0998 6.48873 41.7147Z" fill="#FDFEFF"/>
<path d="M5.50106 36.5772C5.39508 32.5747 8.37808 29.2377 12.2526 28.88C16.7223 28.4681 20.0855 31.8282 20.4235 35.6158C20.8237 40.1023 17.479 43.4602 13.7067 43.8171C9.28224 44.2357 5.62334 40.7908 5.50032 36.5772L5.50106 36.5772ZM12.99 43.023C16.6534 43.017 19.6356 40.0213 19.6356 36.3467C19.6356 32.6639 16.6401 29.663 12.9708 29.6689C9.30744 29.6749 6.32518 32.6706 6.32518 36.3452C6.32518 40.028 9.32078 43.0289 12.99 43.023Z" fill="#081022"/>
<path d="M12.9901 43.023C9.32013 43.029 6.32453 40.0273 6.32527 36.3452C6.32527 32.6706 9.30827 29.6749 12.9709 29.669C16.6409 29.663 19.6365 32.6647 19.6357 36.3467C19.6357 40.0213 16.6527 43.0171 12.9901 43.023ZM7.16718 36.1304C7.04045 39.1462 9.36089 42.0304 12.7648 42.1769C15.7708 42.3062 18.6456 39.9767 18.7916 36.5609C18.9206 33.5451 16.5986 30.6608 13.194 30.5144C10.188 30.385 7.31467 32.7145 7.16644 36.1304L7.16718 36.1304Z" fill="#FDFEFF"/>
</svg>
