<svg width="81" height="70" viewBox="0 0 81 70" fill="none" xmlns="http://www.w3.org/2000/svg">
<path d="M43.966 13.3382C42.0108 13.3382 40.0556 13.3772 38.1038 13.328C35.9394 13.2736 34.2223 11.6396 33.9536 9.4757C33.702 7.45106 35.0689 5.4468 37.099 4.88798C37.4441 4.79287 37.8096 4.72323 38.165 4.72323C42.0312 4.71304 45.8991 4.67907 49.7636 4.73342C51.8174 4.76229 53.4054 6.14999 53.8576 8.11349C54.2759 9.92921 53.4479 11.891 51.7579 12.7522C51.0829 13.0953 50.2702 13.2872 49.5103 13.3195C47.6656 13.3993 45.8141 13.3449 43.966 13.3449C43.966 13.3432 43.966 13.3399 43.966 13.3382ZM43.9796 7.2931C42.089 7.2931 40.1984 7.27272 38.3095 7.30159C37.2418 7.31688 36.4903 8.08291 36.5039 9.04768C36.5175 9.99545 37.2486 10.7598 38.2789 10.7666C42.0584 10.7904 45.8396 10.7836 49.6208 10.77C50.357 10.7666 50.9282 10.4116 51.236 9.72369C51.7681 8.53642 50.9248 7.32027 49.5239 7.29989C47.6758 7.27272 45.8277 7.2931 43.9813 7.2948L43.9796 7.2931Z" fill="#FDFEFF"/>
<path d="M27.0101 9.0425C27.005 11.3984 25.077 13.3296 22.7205 13.3398C20.3437 13.35 18.3766 11.3865 18.3868 9.01532C18.397 6.66456 20.3318 4.72654 22.6848 4.71465C25.0617 4.70276 27.0169 6.65777 27.0118 9.0425H27.0101ZM22.7018 7.29981C21.7344 7.29981 20.9676 8.07774 20.9778 9.04929C20.988 9.98858 21.7395 10.7512 22.6746 10.7699C23.6165 10.7886 24.4343 9.99028 24.4445 9.0442C24.4547 8.09472 23.6624 7.30151 22.7018 7.30151V7.29981Z" fill="#FDFEFF"/>
<path d="M15.8239 9.00849C15.8341 11.4051 13.901 13.3448 11.5105 13.3397C9.14729 13.3346 7.23118 11.4153 7.22268 9.04926C7.21418 6.65603 9.15579 4.70443 11.5343 4.71292C13.8959 4.72311 15.8154 6.64244 15.8239 9.00849ZM9.78995 9.01189C9.78315 9.96476 10.5754 10.7699 11.5207 10.7699C12.4711 10.7699 13.2549 9.97326 13.2498 9.01359C13.2447 8.07091 12.5 7.31846 11.5547 7.29977C10.5907 7.28109 9.79676 8.05052 9.78995 9.01189Z" fill="#FDFEFF"/>
<path d="M59.4111 17.8643V43.4453C59.4111 46.3747 57.0368 48.75 54.1074 48.75H6.3584C3.4292 48.7498 1.05469 46.3746 1.05469 43.4453V17.8643H59.4111ZM6.3584 1.05469H54.1074C57.0367 1.05469 59.4109 3.4292 59.4111 6.3584V15.7549H1.05469V6.3584C1.05491 3.42934 3.42934 1.05491 6.3584 1.05469Z" stroke="#FDFEFF" stroke-width="2.10938"/>
<path d="M13.1751 38.6019C13.1751 38.3765 13.1751 38.2094 13.1751 38.0414C13.1751 36.7109 13.1821 35.3805 13.171 34.0491C13.167 33.6264 13.3023 33.3044 13.6345 33.0296C16.716 30.4815 19.7884 27.9243 22.8669 25.3722C23.5666 24.7925 23.9765 24.8549 24.4803 25.6066C25.7616 27.5187 27.0398 29.4329 28.3191 31.345C28.4059 31.4738 28.4978 31.5996 28.6169 31.7697C29.4862 31.0018 30.3414 30.25 31.1936 29.4942C32.4496 28.3822 33.7026 27.2661 34.9596 26.1551C35.5786 25.6076 35.9885 25.6489 36.4842 26.301C37.0426 27.0357 37.5969 27.7713 38.1189 28.4617C40.3472 26.2417 42.5614 24.0367 44.7877 21.8187C44.7029 21.8136 44.5606 21.7985 44.4192 21.7965C43.9012 21.7885 43.3813 21.8106 42.8663 21.7704C42.3908 21.7331 42.1222 21.402 42.1303 20.9572C42.1384 20.5486 42.4241 20.1853 42.8573 20.1773C44.2385 20.1511 45.6207 20.1481 47.0019 20.1773C47.4684 20.1873 47.7592 20.5466 47.7642 21.0387C47.7784 22.3379 47.7794 23.6372 47.7642 24.9364C47.7582 25.4517 47.4129 25.7817 46.9474 25.7807C46.4739 25.7807 46.1578 25.4728 46.1377 24.9334C46.1144 24.3245 46.1326 23.7147 46.1326 22.9569C45.8731 23.2085 45.7015 23.3705 45.5339 23.5375C45.0109 24.0568 44.4828 24.5711 43.9739 25.1035C43.8568 25.2262 43.7407 25.4154 43.7397 25.5744C43.7296 29.8636 43.7336 34.1527 43.7367 38.4419C43.7367 38.4711 43.7538 38.4993 43.7861 38.5999C44.399 38.5999 45.0351 38.5969 45.6722 38.6019C45.8913 38.6039 46.1144 38.6039 46.3275 38.6472C46.6879 38.7207 46.8979 38.9592 46.9353 39.3285C46.9737 39.717 46.8131 40.0128 46.4486 40.1477C46.2497 40.2212 46.0205 40.2332 45.8045 40.2332C34.4982 40.2373 23.192 40.2362 11.8857 40.2362C11.7757 40.2362 11.6646 40.2423 11.5566 40.2312C11.079 40.1829 10.7509 39.8438 10.7559 39.408C10.76 38.9843 11.0578 38.6583 11.5293 38.617C11.8878 38.5858 12.2512 38.6029 12.6117 38.5999C12.7803 38.5989 12.9489 38.5999 13.1751 38.5999V38.6019ZM42.104 26.9944C41.9607 27.1212 41.8668 27.1957 41.783 27.2802C40.9157 28.1427 40.0413 28.9981 39.1942 29.8797C39.0427 30.0377 38.9317 30.3054 38.9307 30.5238C38.9125 33.0598 38.9195 35.5959 38.9195 38.1319V38.5687H42.105V26.9954L42.104 26.9944ZM37.2496 38.5757C37.2667 38.462 37.293 38.3714 37.293 38.2809C37.295 35.6351 37.296 32.9884 37.293 30.3426C37.293 30.2219 37.2829 30.0749 37.2173 29.9854C36.6841 29.2567 36.1369 28.5382 35.5715 27.7864C35.1575 28.1528 34.7607 28.4617 34.4195 28.824C34.2579 28.9951 34.1156 29.2648 34.1145 29.4912C34.0944 32.3725 34.1004 35.2527 34.1024 38.1339C34.1024 38.2829 34.1166 38.4308 34.1246 38.5757H37.2496ZM22.7911 27.5429C21.7946 28.3701 20.8728 29.147 19.9348 29.9059C19.6945 30.1001 19.5945 30.3014 19.5966 30.6153C19.6097 33.1192 19.6036 35.623 19.6036 38.1269C19.6036 38.2758 19.6036 38.4248 19.6036 38.5747H22.7901V27.5419L22.7911 27.5429ZM27.5871 38.5737C27.6032 38.4993 27.6264 38.4409 27.6264 38.3825C27.6295 36.7401 27.6335 35.0967 27.6224 33.4543C27.6214 33.2973 27.5436 33.1222 27.4548 32.9874C26.541 31.6036 25.6192 30.2259 24.6974 28.8472C24.6419 28.7636 24.5712 28.6902 24.4601 28.5543V38.5747H27.5871V38.5737ZM32.4153 38.5737V30.5831C31.4278 31.4557 30.4939 32.2608 29.5902 33.0991C29.4216 33.2551 29.2904 33.5399 29.2863 33.7673C29.2591 35.2215 29.2722 36.6757 29.2742 38.1309C29.2742 38.2799 29.2914 38.4278 29.3005 38.5747H32.4163L32.4153 38.5737ZM17.9801 31.5412C17.132 32.2437 16.3899 32.9209 15.5821 33.5066C14.9642 33.9545 14.7189 34.4546 14.7734 35.2285C14.8511 36.3305 14.7936 37.4416 14.7936 38.5667H17.9811V31.5412H17.9801Z" fill="#11A4F4"/>
<path d="M77.3078 69.6336C76.3219 69.4257 75.6105 68.8076 74.9218 68.117C71.6744 64.8573 68.4098 61.6148 65.1523 58.3651C65.0494 58.2626 64.9666 58.1372 64.9108 58.0703C63.8793 58.5801 62.9392 59.117 61.9463 59.5228C59.3517 60.5823 56.6472 60.9241 53.8655 60.5368C49.7508 59.9657 46.3433 58.0803 43.6702 54.926C41.7071 52.6105 40.5213 49.9219 40.0927 46.9129C40.0441 46.5725 39.9884 46.2336 39.9355 45.8933C39.9355 45.0944 39.9355 44.2941 39.9355 43.4952C39.9998 43.0495 40.0513 42.6023 40.1299 42.158C40.8199 38.249 42.663 34.9865 45.709 32.4275C47.8735 30.609 50.3723 29.4569 53.1597 28.9542C56.2343 28.3989 59.226 28.7349 62.1049 29.9254C64.6822 30.9906 66.8396 32.6297 68.5712 34.8185C70.2928 36.9944 71.3858 39.4552 71.8187 42.1822C72.343 45.4775 71.8729 48.6488 70.4085 51.6564C70.1013 52.2887 69.7342 52.891 69.3513 53.586C69.4484 53.6572 69.5799 53.7312 69.6842 53.8338C73.0974 57.2315 76.5077 60.6322 79.9194 64.0299C80.8781 64.9855 81.2481 66.1048 80.831 67.4178C80.5038 68.4502 79.7966 69.1323 78.7636 69.4741C78.5993 69.5282 78.435 69.5809 78.2721 69.6336H77.3092H77.3078ZM56.4186 59.0643C64.5165 58.8279 71.1343 51.7974 70.3299 43.2958C69.6442 36.0474 63.1921 29.6221 54.5713 30.3897C47.292 31.039 40.8371 37.5028 41.6286 46.0898C42.3143 53.5347 48.7264 59.2665 56.4186 59.0629V59.0643ZM69.6413 60.5567C69.6284 60.5425 69.677 60.6037 69.7327 60.6592C71.9987 62.9178 74.2646 65.1749 76.5305 67.432C76.6248 67.526 76.7234 67.6157 76.8291 67.6969C77.4292 68.1583 78.245 68.1326 78.8193 67.6385C79.5751 66.9877 79.588 65.9852 78.8222 65.2176C76.5434 62.9349 74.256 60.6606 71.9715 58.385C71.9201 58.3338 71.8558 58.2925 71.7987 58.2469C71.8201 58.2839 71.8429 58.3209 71.8644 58.358C71.1286 59.0871 70.3914 59.8148 69.6413 60.5581V60.5567ZM66.2881 57.166C66.9296 57.8026 67.664 58.5317 68.4512 59.3149C69.1784 58.5887 69.9213 57.8453 70.62 57.1461C69.8242 56.3486 69.0927 55.6167 68.4798 55.0015C67.7654 55.7078 67.0282 56.4341 66.2881 57.166Z" fill="#FDFEFF"/>
<path d="M56.4165 59.0642C48.7257 59.2678 42.3137 53.5361 41.6265 46.0911C40.835 37.5027 47.2913 31.0404 54.5692 30.391C63.19 29.622 69.6421 36.0488 70.3278 43.2972C71.1322 51.7987 64.513 58.8292 56.4165 59.0656V59.0642ZM68.802 44.6742C68.7905 37.6351 63.0343 31.9048 55.9736 31.9048C48.8972 31.9048 43.1309 37.6608 43.1423 44.7112C43.1538 51.7503 48.91 57.4807 55.9707 57.4807C63.0471 57.4807 68.8134 51.7247 68.802 44.6742Z" fill="#081022"/>
<path d="M68.8022 44.674C68.8137 51.7259 63.046 57.4819 55.971 57.4804C48.9103 57.4804 43.154 51.7486 43.1426 44.711C43.1312 37.6591 48.8989 31.9031 55.9738 31.9045C63.0345 31.9045 68.7908 37.6363 68.8022 44.674ZM55.5581 55.8627C61.3529 56.1062 66.8949 51.6475 67.1764 45.1069C67.425 39.3309 62.9488 33.8071 56.3853 33.5265C50.5905 33.2787 45.0485 37.7403 44.767 44.2824C44.5184 50.0583 48.9946 55.5793 55.5581 55.8641V55.8627Z" fill="#FDFEFF"/>
</svg>
