<svg width="86" height="71" viewBox="0 0 86 71" fill="none" xmlns="http://www.w3.org/2000/svg">
<g clip-path="url(#clip0_214_123)">
<path d="M48.966 13.7855C47.0108 13.7855 45.0556 13.8246 43.1038 13.7754C40.9394 13.721 39.2223 12.087 38.9536 9.92309C38.702 7.89845 40.0689 5.89419 42.099 5.33537C42.4441 5.24025 42.8096 5.17061 43.165 5.17061C47.0312 5.16042 50.8991 5.12645 54.7636 5.18081C56.8174 5.20968 58.4054 6.59738 58.8576 8.56087C59.2759 10.3766 58.4479 12.3384 56.7579 13.1996C56.0829 13.5427 55.2702 13.7346 54.5103 13.7669C52.6656 13.8467 50.8141 13.7923 48.966 13.7923V13.7855ZM48.9796 7.74049C47.089 7.74049 45.1984 7.7201 43.3095 7.74898C42.2418 7.76427 41.4903 8.5303 41.5039 9.49506C41.5175 10.4428 42.2486 11.2072 43.2789 11.214C47.0584 11.2378 50.8396 11.231 54.6208 11.2174C55.357 11.214 55.9282 10.859 56.236 10.1711C56.7681 8.98381 55.9248 7.76766 54.5239 7.74728C52.6758 7.7201 50.8277 7.74049 48.9813 7.74218L48.9796 7.74049Z" fill="#11A4F4"/>
<path d="M32.0101 9.48989C32.005 11.8457 30.077 13.777 27.7205 13.7872C25.3437 13.7974 23.3766 11.8339 23.3868 9.46271C23.397 7.11195 25.3318 5.17393 27.6848 5.16204C30.0617 5.15015 32.0169 7.10516 32.0118 9.48989H32.0101ZM27.7018 7.7472C26.7344 7.7472 25.9676 8.52512 25.9778 9.49668C25.988 10.436 26.7395 11.1986 27.6746 11.2173C28.6165 11.236 29.4343 10.4377 29.4445 9.49159C29.4547 8.54211 28.6624 7.7489 27.7018 7.7489V7.7472Z" fill="#11A4F4"/>
<path d="M20.8239 9.456C20.8341 11.8526 18.901 13.7923 16.5105 13.7872C14.1473 13.7821 12.2312 11.8628 12.2227 9.49677C12.2142 7.10354 14.1558 5.15194 16.5343 5.16043C18.8959 5.17062 20.8154 7.08995 20.8239 9.456ZM14.79 9.4594C14.7832 10.4123 15.5754 11.2174 16.5207 11.2174C17.4711 11.2174 18.2549 10.4208 18.2498 9.4611C18.2447 8.51842 17.5 7.76597 16.5547 7.74728C15.5907 7.7286 14.7968 8.49803 14.79 9.4594Z" fill="#11A4F4"/>
<path d="M64.4111 18.3118V43.8928C64.4111 46.8222 62.0368 49.1975 59.1074 49.1975H11.3584C8.4292 49.1973 6.05469 46.8221 6.05469 43.8928V18.3118H64.4111ZM11.3584 1.5022H59.1074C62.0367 1.5022 64.4109 3.87671 64.4111 6.80591V16.2024H6.05469V6.80591C6.05491 3.87685 8.42934 1.50242 11.3584 1.5022Z" stroke="#11A4F4" stroke-width="2.10938"/>
<path d="M82.3078 70.0811C81.3219 69.8732 80.6105 69.2551 79.9218 68.5645C76.6744 65.3048 73.4098 62.0623 70.1523 58.8126C70.0494 58.7101 69.9666 58.5847 69.9108 58.5178C68.8793 59.0276 67.9392 59.5645 66.9463 59.9703C64.3517 61.0298 61.6472 61.3716 58.8655 60.9843C54.7508 60.4132 51.3433 58.5278 48.6702 55.3735C46.7071 53.058 45.5213 50.3694 45.0927 47.3604C45.0441 47.0201 44.9884 46.6811 44.9355 46.3408C44.9355 45.5419 44.9355 44.7416 44.9355 43.9427C44.9998 43.497 45.0513 43.0498 45.1299 42.6055C45.8199 38.6965 47.663 35.434 50.709 32.875C52.8735 31.0565 55.3723 29.9044 58.1597 29.4017C61.2343 28.8464 64.226 29.1824 67.1049 30.3729C69.6822 31.4381 71.8396 33.0772 73.5712 35.266C75.2928 37.4419 76.3858 39.9027 76.8187 42.6297C77.343 45.925 76.8729 49.0963 75.4085 52.1039C75.1013 52.7362 74.7342 53.3386 74.3513 54.0335C74.4484 54.1047 74.5799 54.1787 74.6842 54.2813C78.0974 57.6791 81.5077 61.0797 84.9194 64.4775C85.8781 65.433 86.2481 66.5523 85.831 67.8653C85.5038 68.8977 84.7966 69.5798 83.7636 69.9216C83.5993 69.9757 83.435 70.0284 83.2721 70.0811H82.3092H82.3078ZM61.4186 59.5118C69.5165 59.2754 76.1343 52.2449 75.3299 43.7433C74.6442 36.4949 68.1921 30.0696 59.5713 30.8372C52.292 31.4866 45.8371 37.9503 46.6286 46.5373C47.3143 53.9822 53.7264 59.714 61.4186 59.5104V59.5118ZM74.6413 61.0042C74.6284 60.99 74.677 61.0512 74.7327 61.1067C76.9987 63.3653 79.2646 65.6224 81.5305 67.8795C81.6248 67.9735 81.7234 68.0632 81.8291 68.1444C82.4292 68.6058 83.245 68.5801 83.8193 68.086C84.5751 67.4352 84.588 66.4327 83.8222 65.6651C81.5434 63.3824 79.256 61.1082 76.9715 58.8325C76.9201 58.7813 76.8558 58.74 76.7987 58.6944C76.8201 58.7314 76.8429 58.7685 76.8644 58.8055C76.1286 59.5346 75.3914 60.2623 74.6413 61.0056V61.0042ZM71.2881 57.6135C71.9296 58.2501 72.664 58.9792 73.4512 59.7624C74.1784 59.0362 74.9213 58.2928 75.62 57.5936C74.8242 56.7961 74.0927 56.0642 73.4798 55.449C72.7654 56.1553 72.0282 56.8816 71.2881 57.6135Z" fill="#081022"/>
<path d="M61.4165 59.5117C53.7257 59.7153 47.3137 53.9836 46.6265 46.5386C45.835 37.9502 52.2913 31.4879 59.5692 30.8385C68.19 30.0695 74.6421 36.4963 75.3278 43.7447C76.1322 52.2462 69.513 59.2767 61.4165 59.5131V59.5117ZM73.802 45.1217C73.7905 38.0827 68.0343 32.3523 60.9736 32.3523C53.8972 32.3523 48.1309 38.1083 48.1423 45.1587C48.1538 52.1978 53.91 57.9282 60.9707 57.9282C68.0471 57.9282 73.8134 52.1722 73.802 45.1217Z" fill="#FDFEFF"/>
<path d="M73.8022 45.1216C73.8137 52.1735 68.046 57.9295 60.971 57.9281C53.9103 57.9281 48.154 52.1963 48.1426 45.1586C48.1312 38.1067 53.8989 32.3507 60.9738 32.3522C68.0345 32.3522 73.7908 38.084 73.8022 45.1216ZM60.5581 56.3103C66.3529 56.5539 71.8949 52.0952 72.1764 45.5545C72.425 39.7786 67.9488 34.2547 61.3853 33.9742C55.5905 33.7264 50.0485 38.1879 49.767 44.73C49.5184 50.5059 53.9946 56.027 60.5581 56.3118V56.3103Z" fill="#081022"/>
<path d="M36.0732 32.4928C35.0748 31.3705 34.1215 30.3015 33.1731 29.2292C32.5531 28.5282 32.5415 27.7607 33.1348 27.2561C33.7048 26.7716 34.4381 26.8765 35.0465 27.5542C36.1298 28.7597 37.2098 29.9685 38.2815 31.184C39.0582 32.0648 39.0615 32.9107 38.2832 33.7948C37.1998 35.027 36.1065 36.2525 35.0081 37.473C34.4231 38.124 33.6381 38.2006 33.0881 37.6878C32.5515 37.1882 32.5598 36.4456 33.1265 35.8013C34.0881 34.7106 35.0581 33.63 36.0715 32.4928H36.0732Z" fill="#09192E"/>
<path d="M17.8022 32.4928C18.7656 33.5734 19.6939 34.6091 20.6123 35.653C20.8023 35.8695 20.9973 36.1043 21.1023 36.3657C21.3206 36.9085 21.0789 37.5279 20.5873 37.8359C20.0906 38.1473 19.4323 38.0741 18.9923 37.6062C18.3372 36.9085 17.7106 36.1825 17.0739 35.4682C16.5472 34.8771 16.0122 34.2944 15.5006 33.6916C14.8472 32.9207 14.8272 32.0648 15.4772 31.3172C16.6106 30.0135 17.7639 28.7264 18.9239 27.4459C19.4623 26.8515 20.2206 26.7966 20.7556 27.2728C21.2906 27.7473 21.3206 28.5083 20.8039 29.1143C20.3173 29.6838 19.8089 30.2349 19.3106 30.7944C18.8273 31.3372 18.3439 31.8817 17.8022 32.4928Z" fill="#09192E"/>
<path d="M29.4315 27.4592C29.1915 28.4633 28.9148 29.6138 28.6415 30.7661C28.0882 33.0905 27.5365 35.4166 26.9832 37.741C26.9632 37.8226 26.9348 37.9009 26.9115 37.9791C26.6832 38.7117 26.0632 39.1064 25.3965 38.9415C24.7165 38.775 24.3131 38.1473 24.4848 37.4013C25.0015 35.1535 25.5448 32.9123 26.0798 30.6678C26.3798 29.4157 26.6648 28.1586 26.9982 26.9148C27.1698 26.272 27.7882 25.9107 28.3848 26.019C29.0182 26.1338 29.4482 26.6583 29.4349 27.4576L29.4315 27.4592Z" fill="#09192E"/>
</g>
<defs>
<clipPath id="clip0_214_123">
<rect width="86" height="71" fill="white"/>
</clipPath>
</defs>
</svg>
