<svg width="86" height="70" viewBox="0 0 86 70" fill="none" xmlns="http://www.w3.org/2000/svg">
<path d="M33.1943 31.3587C32.1959 30.2364 31.2426 29.1674 30.2942 28.0951C29.6742 27.3941 29.6626 26.6266 30.2559 26.122C30.8259 25.6375 31.5592 25.7424 32.1676 26.4201C33.2509 27.6256 34.3309 28.8344 35.4026 30.0499C36.1793 30.9307 36.1826 31.7766 35.4043 32.6607C34.3209 33.8929 33.2276 35.1184 32.1292 36.3389C31.5442 36.9899 30.7592 37.0665 30.2092 36.5537C29.6726 36.0541 29.6809 35.3115 30.2476 34.6672C31.2092 33.5765 32.1792 32.4959 33.1926 31.3587H33.1943Z" fill="#09192E"/>
<path d="M14.9233 31.3587C15.8867 32.4393 16.815 33.475 17.7334 34.5189C17.9234 34.7354 18.1184 34.9702 18.2234 35.2316C18.4417 35.7744 18.2 36.3938 17.7084 36.7018C17.2117 37.0132 16.5534 36.94 16.1134 36.4721C15.4583 35.7744 14.8317 35.0484 14.195 34.3341C13.6683 33.743 13.1333 33.1603 12.6217 32.5575C11.9683 31.7866 11.9483 30.9307 12.5983 30.1831C13.7317 28.8794 14.885 27.5923 16.045 26.3118C16.5834 25.7174 17.3417 25.6625 17.8767 26.1387C18.4117 26.6132 18.4417 27.3742 17.925 27.9802C17.4384 28.5497 16.93 29.1008 16.4317 29.6603C15.9484 30.2031 15.465 30.7476 14.9233 31.3587Z" fill="#09192E"/>
<path d="M26.5526 26.3251C26.3126 27.3292 26.0359 28.4797 25.7626 29.632C25.2093 31.9564 24.6576 34.2825 24.1043 36.6069C24.0843 36.6885 24.0559 36.7668 24.0326 36.845C23.8043 37.5776 23.1843 37.9723 22.5176 37.8074C21.8376 37.6409 21.4342 37.0132 21.6059 36.2672C22.1226 34.0194 22.6659 31.7782 23.2009 29.5337C23.5009 28.2816 23.7859 27.0245 24.1193 25.7807C24.2909 25.1379 24.9093 24.7766 25.5059 24.8849C26.1393 24.9997 26.5693 25.5242 26.556 26.3235L26.5526 26.3251Z" fill="#09192E"/>
<path d="M48.0982 13.7382C46.1815 13.7382 44.2649 13.7765 42.3515 13.7282C40.2298 13.675 38.5465 12.0732 38.2831 9.95188C38.0365 7.96712 39.3765 6.00234 41.3665 5.45454C41.7048 5.36129 42.0632 5.29303 42.4115 5.29303C46.2015 5.28304 49.9933 5.24973 53.7816 5.30302C55.795 5.33132 57.3517 6.69168 57.795 8.6165C58.205 10.3964 57.3933 12.3196 55.7366 13.1638C55.075 13.5001 54.2783 13.6883 53.5333 13.7199C51.7249 13.7982 49.9099 13.7449 48.0982 13.7449C48.0982 13.7432 48.0982 13.7399 48.0982 13.7382ZM48.1116 7.81227C46.2582 7.81227 44.4049 7.79229 42.5532 7.82059C41.5065 7.83558 40.7698 8.58652 40.7831 9.53228C40.7965 10.4614 41.5132 11.2107 42.5232 11.2173C46.2282 11.2406 49.9349 11.234 53.6416 11.2207C54.3633 11.2173 54.9233 10.8693 55.225 10.195C55.7466 9.0311 54.92 7.83891 53.5466 7.81893C51.7349 7.79229 49.9232 7.81227 48.1132 7.81393L48.1116 7.81227Z" fill="#11A4F4"/>
<path d="M31.4769 9.52731C31.4719 11.8368 29.5819 13.7299 27.2719 13.7399C24.9418 13.7499 23.0135 11.8251 23.0235 9.50067C23.0335 7.19622 24.9302 5.29638 27.2369 5.28472C29.5669 5.27307 31.4836 7.18956 31.4786 9.52731H31.4769ZM27.2535 7.81895C26.3052 7.81895 25.5535 8.58155 25.5635 9.53397C25.5735 10.4547 26.3102 11.2024 27.2269 11.2207C28.1502 11.239 28.9519 10.4564 28.9619 9.52897C28.9719 8.5982 28.1952 7.82061 27.2535 7.82061V7.81895Z" fill="#11A4F4"/>
<path d="M20.5138 9.49394C20.5238 11.8433 18.6288 13.7448 16.2854 13.7399C13.9687 13.7349 12.0904 11.8533 12.0821 9.5339C12.0737 7.18782 13.9771 5.27466 16.3088 5.28299C18.6238 5.29298 20.5055 7.1745 20.5138 9.49394ZM14.5988 9.49727C14.5921 10.4314 15.3688 11.2206 16.2954 11.2206C17.2271 11.2206 17.9955 10.4397 17.9905 9.49893C17.9855 8.57482 17.2554 7.8372 16.3288 7.81888C15.3838 7.80056 14.6054 8.55484 14.5988 9.49727Z" fill="#11A4F4"/>
<path d="M63.3115 17.8966V43.0441C63.3115 45.9542 60.9521 48.3133 58.042 48.3136H11.2334C8.32311 48.3135 5.96389 45.9544 5.96387 43.0441V17.8966H63.3115ZM11.2334 1.41809H58.042C60.9521 1.41835 63.3114 3.77748 63.3115 6.68762V15.9689H5.96387V6.68762C5.96394 3.77737 8.32315 1.41817 11.2334 1.41809Z" stroke="#11A4F4" stroke-width="1.92771"/>
<path d="M55.9381 59.1831H50.0631C49.5906 58.9975 49.3762 58.6325 49.2875 58.1462C49.1706 57.5031 49.01 56.8687 48.8794 56.2281C48.8425 56.0462 48.76 55.9456 48.5812 55.8781C48.0962 55.6956 47.6144 55.5006 47.1431 55.285C46.9662 55.2037 46.8469 55.2206 46.6925 55.3231C46.1119 55.7081 45.5244 56.0819 44.9363 56.4556C44.3756 56.8119 43.9531 56.7694 43.4825 56.3006C42.28 55.1037 41.0806 53.9037 39.8837 52.7019C39.415 52.2312 39.3725 51.8087 39.7281 51.2481C40.1019 50.66 40.4756 50.0725 40.8606 49.4919C40.9631 49.3375 40.98 49.2181 40.8987 49.0412C40.6831 48.57 40.4881 48.0881 40.3056 47.6031C40.2381 47.4244 40.1375 47.3419 39.9556 47.305C39.315 47.175 38.68 47.0156 38.0369 46.8987C37.55 46.8106 37.1887 46.5894 37 46.1206V40.2456C37.1887 39.7769 37.55 39.5562 38.0369 39.4675C38.68 39.3506 39.315 39.1919 39.9556 39.0612C40.1375 39.0244 40.2381 38.9419 40.3056 38.7631C40.4881 38.2781 40.6831 37.7962 40.8987 37.325C40.98 37.1481 40.9625 37.0287 40.8606 36.8744C40.4756 36.2937 40.1019 35.7062 39.7281 35.1181C39.3719 34.5575 39.4144 34.1356 39.8837 33.6644C41.0806 32.4619 42.28 31.2619 43.4819 30.0644C43.95 29.5981 44.3769 29.555 44.9363 29.9106C45.5244 30.2844 46.1119 30.6581 46.6925 31.0431C46.8469 31.1456 46.9662 31.1625 47.1431 31.0812C47.6144 30.8656 48.0962 30.6706 48.5812 30.4881C48.76 30.4206 48.8425 30.32 48.8794 30.1381C49.0106 29.4975 49.1706 28.8625 49.2875 28.22C49.3762 27.7337 49.5906 27.3687 50.0631 27.1831H55.9381C56.4094 27.3694 56.6275 27.7325 56.7156 28.2194C56.8325 28.8625 56.9913 29.4975 57.1219 30.1381C57.1588 30.3194 57.2406 30.4206 57.4194 30.4887C57.9138 30.6756 58.3956 30.8969 58.8913 31.0812C59.0025 31.1225 59.1763 31.1125 59.2756 31.0519C59.8788 30.6837 60.4675 30.2912 61.0638 29.9119C61.6231 29.5556 62.0494 29.5987 62.5181 30.0656C63.72 31.2631 64.92 32.4625 66.1175 33.665C66.5844 34.1337 66.6275 34.56 66.2725 35.1194C65.8988 35.7075 65.525 36.295 65.14 36.8756C65.0381 37.0294 65.02 37.1494 65.1012 37.3262C65.3175 37.7975 65.5119 38.2794 65.6944 38.7644C65.7619 38.9431 65.8625 39.0256 66.0444 39.0625C66.685 39.1925 67.32 39.3519 67.9631 39.4687C68.45 39.5569 68.8113 39.7781 69 40.2469V46.1219C68.8113 46.5906 68.45 46.8112 67.9631 46.9C67.32 47.0169 66.685 47.1756 66.0444 47.3062C65.8625 47.3431 65.7619 47.4256 65.6944 47.6044C65.5119 48.0894 65.3169 48.5712 65.1012 49.0425C65.02 49.2194 65.0375 49.3387 65.14 49.4931C65.525 50.0737 65.8994 50.6612 66.2725 51.2494C66.6281 51.8087 66.5844 52.2356 66.1181 52.7037C64.9206 53.9056 63.7206 55.105 62.5181 56.3019C62.0475 56.7706 61.6244 56.8125 61.0644 56.4562C60.4681 56.0769 59.8794 55.6844 59.2763 55.3162C59.1769 55.2556 59.0031 55.2456 58.8919 55.2869C58.3963 55.4712 57.9144 55.6925 57.42 55.8794C57.2406 55.9469 57.1594 56.0481 57.1225 56.23C56.9919 56.8706 56.8331 57.5056 56.7163 58.1487C56.6275 58.635 56.4094 58.9981 55.9388 59.185L55.9381 59.1831ZM51.0631 57.2462H54.935C55.0838 56.565 55.2438 55.8906 55.3756 55.2106C55.4725 54.71 55.7481 54.4187 56.23 54.2425C57.0081 53.9581 57.7788 53.6437 58.5288 53.2925C58.9938 53.075 59.3913 53.0762 59.8156 53.3631C60.3925 53.7531 60.9856 54.1194 61.5312 54.47C62.4569 53.5444 63.3663 52.6356 64.2881 51.7137C63.9194 51.1406 63.5344 50.5356 63.1425 49.9344C62.9212 49.5956 62.8737 49.2525 63.0369 48.8712C63.4075 48.0037 63.7688 47.1319 64.1231 46.2575C64.2581 45.9237 64.4781 45.7012 64.8288 45.615C65 45.5731 65.1725 45.5356 65.345 45.4975C65.9188 45.3694 66.4931 45.2419 67.0625 45.1156V41.2475C66.3775 41.0981 65.7019 40.9394 65.0206 40.8056C64.52 40.7075 64.2325 40.4287 64.0581 39.9462C63.7794 39.1769 63.4675 38.4169 63.1188 37.6769C62.8956 37.2037 62.8881 36.7969 63.1844 36.3612C63.5756 35.7856 63.9413 35.1919 64.3088 34.62C63.39 33.7012 62.4856 32.7962 61.565 31.8756C61.0563 32.2025 60.5125 32.5131 60.0125 32.8825C59.4488 33.2987 58.9281 33.3294 58.315 32.9675C57.8269 32.6794 57.2931 32.4094 56.7456 32.2962C55.7556 32.0919 55.3394 31.5075 55.2419 30.5575C55.1919 30.07 55.0369 29.5931 54.9319 29.1225H51.0631C50.915 29.8012 50.7544 30.4669 50.6275 31.1394C50.5275 31.6675 50.2369 31.9581 49.7262 32.135C48.9825 32.3925 48.2506 32.6962 47.5431 33.0406C47.04 33.2856 46.6112 33.3025 46.145 32.9794C45.5825 32.5894 44.9956 32.2344 44.4456 31.8812C43.5213 32.8044 42.6163 33.7087 41.6975 34.6269C42.0619 35.1937 42.4275 35.7875 42.8187 36.3631C43.1156 36.7994 43.105 37.2062 42.8812 37.6787C42.5356 38.4087 42.2187 39.1569 41.9506 39.9187C41.7706 40.4294 41.4737 40.7125 40.9469 40.8112C40.2756 40.9369 39.6112 41.1006 38.9425 41.2481V45.12C39.625 45.2694 40.2919 45.4287 40.9644 45.5581C41.4781 45.6569 41.7706 45.9381 41.9469 46.435C42.2138 47.1862 42.5156 47.9294 42.8631 48.6469C43.1075 49.1519 43.1156 49.5806 42.7931 50.045C42.4038 50.6062 42.0494 51.1925 41.7063 51.7269C42.6369 52.6575 43.5406 53.5606 44.4581 54.4781C45.0094 54.1231 45.5944 53.7631 46.1613 53.3762C46.605 53.0737 47.02 53.0737 47.505 53.3056C48.2338 53.6537 48.9837 53.965 49.745 54.2356C50.2412 54.4119 50.5262 54.7006 50.625 55.215C50.7544 55.8875 50.9125 56.555 51.0631 57.2469V57.2462Z" fill="#11A4F4"/>
<path d="M51.064 57.2463C50.9134 56.5544 50.7552 55.8876 50.6259 55.2144C50.5271 54.7001 50.2421 54.4119 49.7459 54.2351C48.9846 53.9644 48.2346 53.6532 47.5059 53.3051C47.0209 53.0738 46.6059 53.0732 46.1621 53.3757C45.5952 53.7626 45.0109 54.1226 44.459 54.4776C43.5415 53.5601 42.6377 52.6563 41.7071 51.7263C42.0502 51.1919 42.4046 50.6057 42.794 50.0444C43.1165 49.5801 43.1084 49.1507 42.864 48.6463C42.5165 47.9288 42.2146 47.1857 41.9477 46.4344C41.7715 45.9376 41.4796 45.6563 40.9652 45.5576C40.2927 45.4282 39.6259 45.2688 38.9434 45.1194V41.2476C39.6121 41.1001 40.2759 40.9369 40.9477 40.8107C41.4746 40.7119 41.7715 40.4288 41.9515 39.9182C42.2196 39.1563 42.5365 38.4088 42.8821 37.6782C43.1059 37.2063 43.1165 36.7988 42.8196 36.3626C42.4277 35.7869 42.0627 35.1932 41.6984 34.6263C42.6171 33.7082 43.5221 32.8044 44.4465 31.8807C44.9959 32.2338 45.5827 32.5888 46.1459 32.9788C46.6121 33.3019 47.0415 33.2851 47.544 33.0401C48.2515 32.6957 48.9834 32.3919 49.7271 32.1344C50.2377 31.9576 50.5284 31.6669 50.6284 31.1388C50.7552 30.4663 50.9159 29.8001 51.064 29.1219H54.9327C55.0377 29.5926 55.1927 30.0694 55.2427 30.5569C55.3402 31.5063 55.7565 32.0913 56.7465 32.2957C57.294 32.4088 57.8284 32.6788 58.3159 32.9669C58.929 33.3288 59.4496 33.2982 60.0134 32.8819C60.5134 32.5126 61.0571 32.2019 61.5659 31.8751C62.4865 32.7957 63.3909 33.7007 64.3096 34.6194C63.9415 35.1919 63.5765 35.7851 63.1852 36.3607C62.889 36.7963 62.8971 37.2026 63.1196 37.6763C63.4684 38.4163 63.7802 39.1763 64.059 39.9457C64.234 40.4282 64.5215 40.7069 65.0215 40.8051C65.7021 40.9388 66.3784 41.0976 67.0634 41.2469V45.1151C66.494 45.2419 65.9202 45.3694 65.3459 45.4969C65.1734 45.5351 65.0009 45.5726 64.8296 45.6144C64.479 45.7007 64.259 45.9232 64.124 46.2569C63.7696 47.1313 63.4084 48.0032 63.0377 48.8707C62.8746 49.2519 62.9221 49.5951 63.1434 49.9338C63.5352 50.5351 63.9209 51.1401 64.289 51.7132C63.3671 52.6351 62.4577 53.5438 61.5321 54.4694C60.9859 54.1188 60.3934 53.7519 59.8165 53.3626C59.3927 53.0757 58.9946 53.0744 58.5296 53.2919C57.779 53.6432 57.009 53.9576 56.2309 54.2419C55.749 54.4182 55.474 54.7094 55.3765 55.2101C55.2446 55.8901 55.0846 56.5651 54.9359 57.2457H51.064V57.2463ZM60.6521 43.1963C60.6834 39.0113 57.2702 35.5826 53.0221 35.5326C48.8509 35.4832 45.4221 38.8901 45.3502 43.1551C45.2802 47.3207 48.7646 50.8201 52.9959 50.8344C57.1959 50.8488 60.6196 47.4326 60.6521 43.1963Z" fill="#FDFEFF"/>
<path d="M60.6525 43.1962C60.6206 47.4319 57.1963 50.8481 52.9963 50.8344C48.765 50.82 45.2806 47.3206 45.3506 43.155C45.4225 38.89 48.8506 35.4837 53.0225 35.5325C57.2706 35.5825 60.6844 39.0112 60.6525 43.1962ZM58.7344 43.1881C58.745 40.0519 56.1969 37.4931 53.0219 37.4506C49.8988 37.4087 47.2794 40.0169 47.2688 43.1787C47.2581 46.3212 49.8775 48.9381 53.0125 48.9163C56.1719 48.8944 58.7238 46.3394 58.7344 43.1881Z" fill="#09192E"/>
<path d="M58.7352 43.1881C58.7246 46.3393 56.1727 48.8937 53.0133 48.9162C49.8783 48.9381 47.2589 46.3218 47.2696 43.1787C47.2802 40.0168 49.8996 37.4093 53.0227 37.4506C56.1977 37.4931 58.7458 40.0518 58.7352 43.1881Z" fill="#FDFEFF"/>
</svg>
