<svg width="64" height="59" viewBox="0 0 64 59" fill="none" xmlns="http://www.w3.org/2000/svg">
<path d="M28.1943 30.9044C27.1959 29.7822 26.2426 28.7132 25.2942 27.6409C24.6742 26.9399 24.6626 26.1723 25.2559 25.6678C25.8259 25.1833 26.5592 25.2882 27.1676 25.9659C28.2509 27.1714 29.3309 28.3802 30.4026 29.5957C31.1793 30.4765 31.1826 31.3224 30.4043 32.2065C29.3209 33.4387 28.2276 34.6642 27.1292 35.8847C26.5442 36.5357 25.7592 36.6123 25.2092 36.0994C24.6726 35.5999 24.6809 34.8573 25.2476 34.2129C26.2092 33.1223 27.1792 32.0417 28.1926 30.9044H28.1943Z" fill="#11A4F4"/>
<path d="M9.92334 30.9044C10.8867 31.9851 11.815 33.0207 12.7334 34.0647C12.9234 34.2812 13.1184 34.516 13.2234 34.7774C13.4417 35.3202 13.2 35.9396 12.7084 36.2476C12.2117 36.559 11.5534 36.4857 11.1134 36.0178C10.4583 35.3202 9.83167 34.5942 9.195 33.8799C8.66833 33.2888 8.13332 32.706 7.62165 32.1033C6.96831 31.3324 6.94831 30.4765 7.59832 29.7289C8.73166 28.4252 9.88501 27.1381 11.045 25.8576C11.5834 25.2632 12.3417 25.2082 12.8767 25.6845C13.4117 26.159 13.4417 26.9199 12.925 27.526C12.4384 28.0955 11.93 28.6466 11.4317 29.2061C10.9484 29.7489 10.465 30.2934 9.92334 30.9044Z" fill="#11A4F4"/>
<path d="M21.5526 25.8709C21.3126 26.8749 21.0359 28.0255 20.7626 29.1777C20.2093 31.5022 19.6576 33.8283 19.1043 36.1527C19.0843 36.2343 19.0559 36.3125 19.0326 36.3908C18.8043 37.1234 18.1843 37.518 17.5176 37.3532C16.8376 37.1867 16.4342 36.559 16.6059 35.813C17.1226 33.5652 17.6659 31.324 18.2009 29.0795C18.5009 27.8274 18.7859 26.5702 19.1193 25.3264C19.2909 24.6837 19.9093 24.3224 20.5059 24.4306C21.1393 24.5455 21.5693 25.07 21.556 25.8692L21.5526 25.8709Z" fill="#11A4F4"/>
<path d="M43.0982 13.284C41.1815 13.284 39.2649 13.3223 37.3515 13.274C35.2298 13.2207 33.5465 11.6189 33.2831 9.49765C33.0365 7.5129 34.3765 5.54812 36.3665 5.00031C36.7048 4.90707 37.0632 4.8388 37.4115 4.8388C41.2015 4.82881 44.9933 4.79551 48.7816 4.84879C50.795 4.8771 52.3517 6.23746 52.795 8.16227C53.205 9.94223 52.3933 11.8654 50.7366 12.7096C50.075 13.0459 49.2783 13.2341 48.5333 13.2657C46.7249 13.344 44.9099 13.2907 43.0982 13.2907C43.0982 13.289 43.0982 13.2857 43.0982 13.284ZM43.1116 7.35805C41.2582 7.35805 39.4049 7.33807 37.5532 7.36637C36.5065 7.38136 35.7698 8.1323 35.7831 9.07806C35.7965 10.0072 36.5132 10.7564 37.5232 10.7631C41.2282 10.7864 44.9349 10.7798 48.6416 10.7664C49.3633 10.7631 49.9233 10.4151 50.225 9.74075C50.7466 8.57687 49.92 7.38469 48.5466 7.36471C46.7349 7.33807 44.9232 7.35805 43.1132 7.35971L43.1116 7.35805Z" fill="#FDFEFF"/>
<path d="M26.4769 9.07296C26.4719 11.3824 24.5819 13.2756 22.2719 13.2856C19.9418 13.2956 18.0135 11.3708 18.0235 9.04632C18.0335 6.74187 19.9302 4.84203 22.2369 4.83038C24.5669 4.81872 26.4836 6.73521 26.4786 9.07296H26.4769ZM22.2535 7.3646C21.3052 7.3646 20.5535 8.1272 20.5635 9.07962C20.5735 10.0004 21.3102 10.748 22.2269 10.7663C23.1502 10.7846 23.9519 10.0021 23.9619 9.07463C23.9719 8.14385 23.1952 7.36627 22.2535 7.36627V7.3646Z" fill="#FDFEFF"/>
<path d="M15.5138 9.03983C15.5238 11.3892 13.6288 13.2907 11.2854 13.2857C8.96875 13.2808 7.09039 11.3992 7.08206 9.0798C7.07373 6.73372 8.97708 4.82056 11.3088 4.82888C13.6238 4.83887 15.5055 6.7204 15.5138 9.03983ZM9.59875 9.04316C9.59209 9.97727 10.3688 10.7665 11.2954 10.7665C12.2271 10.7665 12.9955 9.98559 12.9905 9.04483C12.9855 8.12072 12.2554 7.38309 11.3288 7.36478C10.3838 7.34646 9.60542 8.10074 9.59875 9.04316Z" fill="#FDFEFF"/>
<path d="M58.3115 17.4424V42.5898C58.3115 45.5 55.9521 47.8591 53.042 47.8594H6.2334C3.32311 47.8593 0.963895 45.5001 0.963867 42.5898V17.4424H58.3115ZM6.2334 0.963867H53.042C55.9521 0.964129 58.3114 3.32326 58.3115 6.2334V15.5146H0.963867V6.2334C0.963944 3.32314 3.32315 0.963942 6.2334 0.963867Z" stroke="#FDFEFF" stroke-width="1.92771"/>
<path d="M50.9381 58.7288H45.0631C44.5906 58.5431 44.3762 58.1781 44.2875 57.6919C44.1706 57.0488 44.01 56.4144 43.8794 55.7738C43.8425 55.5919 43.76 55.4913 43.5812 55.4238C43.0962 55.2413 42.6144 55.0463 42.1431 54.8306C41.9662 54.7494 41.8469 54.7663 41.6925 54.8688C41.1119 55.2538 40.5244 55.6275 39.9363 56.0013C39.3756 56.3575 38.9531 56.315 38.4825 55.8463C37.28 54.6494 36.0806 53.4494 34.8837 52.2475C34.415 51.7769 34.3725 51.3544 34.7281 50.7938C35.1019 50.2056 35.4756 49.6181 35.8606 49.0375C35.9631 48.8831 35.98 48.7638 35.8987 48.5869C35.6831 48.1156 35.4881 47.6338 35.3056 47.1488C35.2381 46.97 35.1375 46.8875 34.9556 46.8506C34.315 46.7206 33.68 46.5613 33.0369 46.4444C32.55 46.3563 32.1887 46.135 32 45.6663V39.7913C32.1887 39.3225 32.55 39.1019 33.0369 39.0131C33.68 38.8963 34.315 38.7375 34.9556 38.6069C35.1375 38.57 35.2381 38.4875 35.3056 38.3088C35.4881 37.8238 35.6831 37.3419 35.8987 36.8706C35.98 36.6938 35.9625 36.5744 35.8606 36.42C35.4756 35.8394 35.1019 35.2519 34.7281 34.6638C34.3719 34.1031 34.4144 33.6813 34.8837 33.21C36.0806 32.0075 37.28 30.8075 38.4819 29.61C38.95 29.1438 39.3769 29.1006 39.9363 29.4563C40.5244 29.83 41.1119 30.2038 41.6925 30.5888C41.8469 30.6913 41.9662 30.7081 42.1431 30.6269C42.6144 30.4113 43.0962 30.2163 43.5812 30.0338C43.76 29.9663 43.8425 29.8656 43.8794 29.6838C44.0106 29.0431 44.1706 28.4081 44.2875 27.7656C44.3762 27.2794 44.5906 26.9144 45.0631 26.7288H50.9381C51.4094 26.915 51.6275 27.2781 51.7156 27.765C51.8325 28.4081 51.9913 29.0431 52.1219 29.6838C52.1588 29.865 52.2406 29.9663 52.4194 30.0344C52.9138 30.2213 53.3956 30.4425 53.8913 30.6269C54.0025 30.6681 54.1763 30.6581 54.2756 30.5975C54.8788 30.2294 55.4675 29.8369 56.0638 29.4575C56.6231 29.1013 57.0494 29.1444 57.5181 29.6113C58.72 30.8088 59.92 32.0081 61.1175 33.2106C61.5844 33.6794 61.6275 34.1056 61.2725 34.665C60.8988 35.2531 60.525 35.8406 60.14 36.4213C60.0381 36.575 60.02 36.695 60.1012 36.8719C60.3175 37.3431 60.5119 37.825 60.6944 38.31C60.7619 38.4888 60.8625 38.5713 61.0444 38.6081C61.685 38.7381 62.32 38.8975 62.9631 39.0144C63.45 39.1025 63.8113 39.3238 64 39.7925V45.6675C63.8113 46.1363 63.45 46.3569 62.9631 46.4456C62.32 46.5625 61.685 46.7213 61.0444 46.8519C60.8625 46.8888 60.7619 46.9713 60.6944 47.15C60.5119 47.635 60.3169 48.1169 60.1012 48.5881C60.02 48.765 60.0375 48.8844 60.14 49.0388C60.525 49.6194 60.8994 50.2069 61.2725 50.795C61.6281 51.3544 61.5844 51.7813 61.1181 52.2494C59.9206 53.4513 58.7206 54.6506 57.5181 55.8475C57.0475 56.3163 56.6244 56.3581 56.0644 56.0019C55.4681 55.6225 54.8794 55.23 54.2763 54.8619C54.1769 54.8013 54.0031 54.7913 53.8919 54.8325C53.3963 55.0169 52.9144 55.2381 52.42 55.425C52.2406 55.4925 52.1594 55.5938 52.1225 55.7756C51.9919 56.4163 51.8331 57.0513 51.7163 57.6944C51.6275 58.1806 51.4094 58.5438 50.9388 58.7306L50.9381 58.7288ZM46.0631 56.7919H49.935C50.0838 56.1106 50.2438 55.4363 50.3756 54.7563C50.4725 54.2556 50.7481 53.9644 51.23 53.7881C52.0081 53.5038 52.7788 53.1894 53.5288 52.8381C53.9938 52.6206 54.3913 52.6219 54.8156 52.9088C55.3925 53.2988 55.9856 53.665 56.5312 54.0156C57.4569 53.09 58.3663 52.1813 59.2881 51.2594C58.9194 50.6863 58.5344 50.0813 58.1425 49.48C57.9212 49.1413 57.8737 48.7981 58.0369 48.4169C58.4075 47.5494 58.7688 46.6775 59.1231 45.8031C59.2581 45.4694 59.4781 45.2469 59.8288 45.1606C60 45.1188 60.1725 45.0813 60.345 45.0431C60.9188 44.915 61.4931 44.7875 62.0625 44.6613V40.7931C61.3775 40.6438 60.7019 40.485 60.0206 40.3513C59.52 40.2531 59.2325 39.9744 59.0581 39.4919C58.7794 38.7225 58.4675 37.9625 58.1188 37.2225C57.8956 36.7494 57.8881 36.3425 58.1844 35.9069C58.5756 35.3313 58.9413 34.7375 59.3088 34.1656C58.39 33.2469 57.4856 32.3419 56.565 31.4213C56.0563 31.7481 55.5125 32.0588 55.0125 32.4281C54.4488 32.8444 53.9281 32.875 53.315 32.5131C52.8269 32.225 52.2931 31.955 51.7456 31.8419C50.7556 31.6375 50.3394 31.0531 50.2419 30.1031C50.1919 29.6156 50.0369 29.1388 49.9319 28.6681H46.0631C45.915 29.3469 45.7544 30.0125 45.6275 30.685C45.5275 31.2131 45.2369 31.5038 44.7262 31.6806C43.9825 31.9381 43.2506 32.2419 42.5431 32.5863C42.04 32.8313 41.6112 32.8481 41.145 32.525C40.5825 32.135 39.9956 31.78 39.4456 31.4269C38.5213 32.35 37.6163 33.2544 36.6975 34.1725C37.0619 34.7394 37.4275 35.3331 37.8187 35.9088C38.1156 36.345 38.105 36.7519 37.8812 37.2244C37.5356 37.9544 37.2187 38.7025 36.9506 39.4644C36.7706 39.975 36.4737 40.2581 35.9469 40.3569C35.2756 40.4825 34.6112 40.6463 33.9425 40.7938V44.6656C34.625 44.815 35.2919 44.9744 35.9644 45.1038C36.4781 45.2025 36.7706 45.4838 36.9469 45.9806C37.2138 46.7319 37.5156 47.475 37.8631 48.1925C38.1075 48.6975 38.1156 49.1263 37.7931 49.5906C37.4038 50.1519 37.0494 50.7381 36.7063 51.2725C37.6369 52.2031 38.5406 53.1063 39.4581 54.0238C40.0094 53.6688 40.5944 53.3088 41.1613 52.9219C41.605 52.6194 42.02 52.6194 42.505 52.8513C43.2338 53.1994 43.9837 53.5106 44.745 53.7813C45.2412 53.9575 45.5262 54.2463 45.625 54.7606C45.7544 55.4331 45.9125 56.1006 46.0631 56.7925V56.7919Z" fill="#FDFEFF"/>
<path d="M46.064 56.7921C45.9134 56.1002 45.7552 55.4334 45.6259 54.7602C45.5271 54.2459 45.2421 53.9577 44.7459 53.7808C43.9846 53.5102 43.2346 53.199 42.5059 52.8509C42.0209 52.6196 41.6059 52.619 41.1621 52.9215C40.5952 53.3083 40.0109 53.6683 39.459 54.0233C38.5415 53.1058 37.6377 52.2021 36.7071 51.2721C37.0502 50.7377 37.4046 50.1515 37.794 49.5902C38.1165 49.1259 38.1084 48.6965 37.864 48.1921C37.5165 47.4746 37.2146 46.7315 36.9477 45.9802C36.7715 45.4833 36.4796 45.2021 35.9652 45.1033C35.2927 44.974 34.6259 44.8146 33.9434 44.6652V40.7933C34.6121 40.6458 35.2759 40.4827 35.9477 40.3565C36.4746 40.2577 36.7715 39.9746 36.9515 39.464C37.2196 38.7021 37.5365 37.9546 37.8821 37.224C38.1059 36.7521 38.1165 36.3446 37.8196 35.9083C37.4277 35.3327 37.0627 34.739 36.6984 34.1721C37.6171 33.254 38.5221 32.3502 39.4465 31.4265C39.9959 31.7796 40.5827 32.1346 41.1459 32.5246C41.6121 32.8477 42.0415 32.8308 42.544 32.5858C43.2515 32.2415 43.9834 31.9377 44.7271 31.6802C45.2377 31.5033 45.5284 31.2127 45.6284 30.6846C45.7552 30.0121 45.9159 29.3458 46.064 28.6677H49.9327C50.0377 29.1383 50.1927 29.6152 50.2427 30.1027C50.3402 31.0521 50.7565 31.6371 51.7465 31.8415C52.294 31.9546 52.8284 32.2246 53.3159 32.5127C53.929 32.8746 54.4496 32.844 55.0134 32.4277C55.5134 32.0583 56.0571 31.7477 56.5659 31.4208C57.4865 32.3415 58.3909 33.2465 59.3096 34.1652C58.9415 34.7377 58.5765 35.3308 58.1852 35.9065C57.889 36.3421 57.8971 36.7483 58.1196 37.2221C58.4684 37.9621 58.7802 38.7221 59.059 39.4915C59.234 39.974 59.5215 40.2527 60.0215 40.3508C60.7021 40.4846 61.3784 40.6433 62.0634 40.7927V44.6608C61.494 44.7877 60.9202 44.9152 60.3459 45.0427C60.1734 45.0808 60.0009 45.1183 59.8296 45.1602C59.479 45.2465 59.259 45.469 59.124 45.8027C58.7696 46.6771 58.4084 47.549 58.0377 48.4165C57.8746 48.7977 57.9221 49.1409 58.1434 49.4796C58.5352 50.0809 58.9209 50.6859 59.289 51.259C58.3671 52.1809 57.4577 53.0896 56.5321 54.0152C55.9859 53.6646 55.3934 53.2977 54.8165 52.9083C54.3927 52.6215 53.9946 52.6202 53.5296 52.8377C52.779 53.189 52.009 53.5034 51.2309 53.7877C50.749 53.964 50.474 54.2552 50.3765 54.7558C50.2446 55.4358 50.0846 56.1109 49.9359 56.7915H46.064V56.7921ZM55.6521 42.7421C55.6834 38.5571 52.2702 35.1283 48.0221 35.0783C43.8509 35.029 40.4221 38.4358 40.3502 42.7008C40.2802 46.8665 43.7646 50.3659 47.9959 50.3802C52.1959 50.3946 55.6196 46.9783 55.6521 42.7421Z" fill="#081022"/>
<path d="M55.6525 42.7419C55.6206 46.9775 52.1963 50.3938 47.9963 50.38C43.765 50.3657 40.2806 46.8663 40.3506 42.7007C40.4225 38.4357 43.8506 35.0294 48.0225 35.0782C52.2706 35.1282 55.6844 38.5569 55.6525 42.7419ZM53.7344 42.7338C53.745 39.5975 51.1969 37.0388 48.0219 36.9963C44.8988 36.9544 42.2794 39.5625 42.2688 42.7244C42.2581 45.8669 44.8775 48.4838 48.0125 48.4619C51.1719 48.44 53.7238 45.885 53.7344 42.7338Z" fill="#11A4F4"/>
<path d="M53.7352 42.7338C53.7246 45.8851 51.1727 48.4395 48.0133 48.462C44.8783 48.4838 42.2589 45.8676 42.2696 42.7245C42.2802 39.5626 44.8996 36.9551 48.0227 36.9963C51.1977 37.0388 53.7458 39.5976 53.7352 42.7338Z" fill="#081022"/>
</svg>
