<svg width="465" height="910" viewBox="0 0 465 910" fill="none" xmlns="http://www.w3.org/2000/svg">
<path d="M409.177 11L409.177 676.723C409.177 774.574 330 853.894 232.324 853.894C134.648 853.894 55.4716 774.574 55.4716 676.723L55.4716 11L99.6847 11L99.6847 676.723C99.6847 750.113 159.072 809.603 232.324 809.603C305.576 809.603 364.963 750.113 364.963 676.723L364.963 11L409.177 11Z" stroke="white" stroke-opacity="0.15" stroke-width="21.7187" stroke-miterlimit="10"/>
<path opacity="0.49" d="M364.705 11L364.705 676.572C364.705 749.944 305.438 809.422 232.324 809.422C159.21 809.422 99.9434 749.948 99.9434 676.572L99.9434 11L144.07 11L144.07 676.572C144.07 680.777 144.362 684.91 144.926 688.96C145.028 689.695 145.143 690.431 145.262 691.162C145.381 691.888 145.513 692.619 145.65 693.341C145.787 694.068 145.937 694.786 146.091 695.503C146.188 695.955 146.29 696.398 146.396 696.846C146.449 697.085 146.506 697.324 146.563 697.564L147.172 699.925C147.247 700.213 147.327 700.496 147.406 700.78L147.446 700.917C147.6 701.462 147.759 702.003 147.923 702.539L150.592 710.057C151.135 711.391 151.709 712.707 152.313 714.009L159.144 726.1C159.44 726.543 159.74 726.981 160.049 727.416C160.353 727.854 160.662 728.288 160.975 728.718L162.895 731.265C163.332 731.824 163.773 732.373 164.223 732.922L169.92 739.209C170.308 739.599 170.697 739.985 171.094 740.366C171.208 740.476 171.323 740.587 171.433 740.693C171.786 741.035 172.144 741.367 172.506 741.699C173.441 742.572 174.399 743.418 175.374 744.247C175.846 744.65 176.323 745.044 176.804 745.434C177.285 745.828 177.766 746.214 178.255 746.59C178.675 746.918 179.094 747.241 179.522 747.56C179.637 747.645 179.751 747.733 179.866 747.817C180.316 748.154 180.775 748.486 181.234 748.814C181.693 749.142 182.156 749.466 182.624 749.785C183.114 750.126 183.612 750.458 184.111 750.781C184.133 750.795 184.151 750.808 184.168 750.821C184.658 751.145 185.157 751.464 185.656 751.774C186.075 752.04 186.498 752.297 186.922 752.554C186.984 752.589 187.046 752.629 187.107 752.664C187.535 752.921 187.963 753.174 188.396 753.422C189.009 753.776 189.631 754.126 190.258 754.467C190.88 754.809 191.511 755.145 192.147 755.469C192.981 755.898 193.819 756.31 194.666 756.714C194.909 756.829 195.147 756.944 195.39 757.05C195.919 757.298 196.453 757.538 196.983 757.772C197.314 757.919 197.64 758.06 197.971 758.198C198.964 758.619 199.962 759.022 200.968 759.407C201.638 759.664 202.318 759.912 202.997 760.152C203.337 760.271 203.677 760.391 204.017 760.506C204.701 760.741 205.389 760.962 206.082 761.179C206.77 761.397 207.463 761.6 208.165 761.8C208.862 761.999 209.564 762.19 210.27 762.371C210.971 762.557 211.682 762.73 212.392 762.894C212.939 763.018 213.486 763.142 214.038 763.257C214.563 763.368 215.088 763.474 215.618 763.576C217.603 763.957 219.607 764.272 221.637 764.52C222.096 764.573 222.559 764.626 223.022 764.675C223.486 764.724 223.949 764.768 224.417 764.812C224.571 764.826 224.73 764.839 224.889 764.852C225.215 764.879 225.542 764.905 225.873 764.928C226.46 764.972 227.051 765.007 227.642 765.038C228.009 765.06 228.379 765.078 228.75 765.087C228.803 765.091 228.86 765.096 228.913 765.096C229.266 765.109 229.619 765.123 229.977 765.127C230.021 765.131 230.069 765.136 230.118 765.131C230.449 765.145 230.775 765.149 231.106 765.154C231.512 765.158 231.918 765.162 232.324 765.162C281.067 765.162 320.578 725.51 320.578 676.599L320.578 11L364.705 11Z" stroke="url(#paint0_linear_25_417)" stroke-width="21.7187" stroke-miterlimit="10"/>
<path d="M276.796 11L276.796 677.304C276.796 701.793 256.886 721.644 232.324 721.644C207.762 721.644 187.852 701.793 187.852 677.304L187.852 11L143.381 11L143.381 677.304L144.243 689.706C144.346 690.442 144.461 691.178 144.581 691.91C144.702 692.637 144.835 693.369 144.973 694.091C145.111 694.818 145.262 695.537 145.418 696.255C145.515 696.707 145.618 697.151 145.724 697.599C145.778 697.838 145.836 698.077 145.893 698.317L146.507 700.68C146.583 700.968 146.663 701.252 146.743 701.536L146.783 701.673C146.938 702.219 147.099 702.76 147.263 703.296L149.954 710.825L151.688 714.78L158.572 726.885C158.87 727.329 159.173 727.768 159.484 728.202C159.791 728.641 160.102 729.076 160.418 729.506L162.352 732.055C162.793 732.61 163.242 733.164 163.691 733.714L169.432 740.01C169.824 740.4 170.215 740.786 170.615 741.167C170.731 741.278 170.846 741.389 170.958 741.495C171.313 741.837 171.674 742.169 172.038 742.502C172.981 743.375 173.946 744.222 174.929 745.051C175.405 745.455 175.885 745.85 176.37 746.24C176.855 746.63 177.339 747.016 177.833 747.397C178.255 747.725 178.678 748.049 179.109 748.368C179.225 748.452 179.341 748.541 179.456 748.625C179.91 748.962 180.372 749.295 180.835 749.623C181.297 749.951 181.764 750.275 182.236 750.594C182.734 750.931 183.232 751.264 183.734 751.592C183.757 751.605 183.774 751.618 183.792 751.632C184.29 751.955 184.788 752.27 185.291 752.585C185.713 752.851 186.14 753.108 186.567 753.365C186.629 753.401 186.692 753.441 186.754 753.476C187.185 753.733 187.617 753.986 188.053 754.234C188.671 754.589 189.298 754.939 189.929 755.281C190.556 755.622 191.192 755.959 191.833 756.283C192.673 756.713 193.518 757.125 194.372 757.529C194.617 757.644 194.857 757.759 195.101 757.866C195.635 758.114 196.173 758.354 196.707 758.589C197.04 758.735 197.369 758.877 197.703 759.014C198.704 759.435 199.709 759.839 200.723 760.225C201.399 760.482 202.083 760.73 202.768 760.97C203.111 761.089 203.453 761.209 203.796 761.324C204.485 761.559 205.179 761.781 205.877 761.998C206.571 762.216 207.269 762.419 207.976 762.619C208.679 762.819 209.386 763.009 210.097 763.191C210.809 763.373 211.52 763.546 212.236 763.714C212.788 763.838 213.339 763.963 213.895 764.078C214.424 764.189 214.953 764.295 215.487 764.397C217.488 764.778 219.507 765.093 221.553 765.342C222.016 765.395 222.483 765.448 222.949 765.497C223.416 765.545 223.883 765.59 224.355 765.634C224.51 765.647 224.671 765.661 224.831 765.674C225.16 765.701 225.489 765.727 225.822 765.749C226.414 765.794 227.01 765.829 227.606 765.86C227.975 765.882 228.348 765.9 228.722 765.909C228.775 765.914 228.833 765.918 228.886 765.918C229.242 765.931 229.598 765.945 229.958 765.949C230.003 765.953 230.052 765.958 230.101 765.953C230.434 765.967 230.763 765.971 231.097 765.976C231.506 765.98 231.915 765.984 232.324 765.984C281.448 765.984 321.267 726.282 321.267 677.304L321.267 11L276.796 11Z" stroke="white" stroke-opacity="0.15" stroke-width="21.7187" stroke-miterlimit="10"/>
<path opacity="0.49" d="M55.2648 11L55.2648 676.855C55.2648 774.729 134.539 854.067 232.324 854.067C330.11 854.067 409.384 774.729 409.384 676.855L409.384 11" stroke="url(#paint1_linear_25_417)" stroke-width="21.7187" stroke-miterlimit="10"/>
<path d="M453.648 11L453.648 676.855C453.648 799.198 354.562 898.365 232.324 898.365C110.087 898.365 11 799.193 11 676.855L11 11" stroke="white" stroke-opacity="0.15" stroke-width="21.7187" stroke-miterlimit="10"/>
<defs>
<linearGradient id="paint0_linear_25_417" x1="232.324" y1="520.791" x2="232.324" y2="915.967" gradientUnits="userSpaceOnUse">
<stop stop-color="#27ACF3" stop-opacity="0"/>
<stop offset="1" stop-color="#27ACF3"/>
</linearGradient>
<linearGradient id="paint1_linear_25_417" x1="232.324" y1="549.296" x2="232.324" y2="966.57" gradientUnits="userSpaceOnUse">
<stop stop-color="#27ACF3" stop-opacity="0"/>
<stop offset="1" stop-color="#27ACF3"/>
</linearGradient>
</defs>
</svg>
