<svg width="677" height="309" viewBox="0 0 677 309" fill="none" xmlns="http://www.w3.org/2000/svg">
<g clip-path="url(#clip0_55_40)">
<path d="M260 30.9L523.447 30.9C591.293 30.9 646.29 86.2357 646.29 154.5C646.29 222.764 591.293 278.1 523.447 278.1L260 278.1L260 247.2L523.447 247.2C574.332 247.2 615.579 205.695 615.579 154.5C615.579 103.305 574.332 61.8 523.447 61.8L260 61.8L260 30.9Z" fill="#27ACF3"/>
<path d="M532.037 215.701C529.23 216.096 526.362 216.3 523.447 216.3L532.037 215.701Z" fill="#27ACF3"/>
<path d="M549.403 210.528C548.501 210.951 547.588 211.353 546.664 211.733L549.403 210.528Z" fill="#27ACF3"/>
<path d="M532.037 215.701C529.23 216.096 526.362 216.3 523.447 216.3L532.037 215.701Z" fill="#27ACF3"/>
<path d="M549.403 210.528C548.501 210.951 547.588 211.353 546.664 211.733L549.403 210.528Z" fill="#27ACF3"/>
<path d="M536.604 198.931C535.336 199.311 534.043 199.639 532.731 199.908L536.604 198.931Z" fill="#27ACF3"/>
<path d="M539.813 197.84C539.113 198.109 538.403 198.36 537.685 198.594L539.813 197.84Z" fill="#27ACF3"/>
<path d="M546.376 194.71C545.734 195.081 545.08 195.439 544.42 195.779C545.08 195.436 545.734 195.081 546.376 194.71Z" fill="#27ACF3"/>
<path d="M551.01 191.642C550.417 192.087 549.815 192.519 549.204 192.933L551.01 191.642Z" fill="#27ACF3"/>
<path d="M564.474 175.602C564.136 176.266 563.779 176.924 563.411 177.57C563.779 176.924 564.133 176.266 564.474 175.602Z" fill="#27ACF3"/>
<path d="M536.604 198.931C535.336 199.311 534.043 199.639 532.731 199.908L536.604 198.931Z" fill="#27ACF3"/>
<path d="M539.813 197.84C539.113 198.109 538.403 198.36 537.685 198.594L539.813 197.84Z" fill="#27ACF3"/>
<path d="M546.376 194.71C545.734 195.081 545.08 195.439 544.42 195.779C545.08 195.436 545.734 195.081 546.376 194.71Z" fill="#27ACF3"/>
<path d="M551.01 191.642C550.417 192.087 549.815 192.519 549.204 192.933L551.01 191.642Z" fill="#27ACF3"/>
<path d="M564.474 175.602C564.136 176.266 563.779 176.924 563.411 177.57C563.779 176.924 564.133 176.266 564.474 175.602Z" fill="#27ACF3"/>
<path d="M260 61.8001L523.447 61.8001C574.332 61.8001 615.579 103.302 615.579 154.5C615.579 205.698 574.332 247.2 523.447 247.2L260 247.2L260 216.3L523.447 216.3C526.362 216.3 529.23 216.096 532.037 215.701C532.547 215.63 533.057 215.549 533.563 215.466C534.067 215.382 534.574 215.29 535.074 215.194C535.578 215.098 536.075 214.993 536.573 214.885C536.886 214.817 537.193 214.746 537.504 214.672C537.669 214.635 537.835 214.594 538.001 214.554L539.638 214.128C539.838 214.075 540.034 214.02 540.231 213.964L540.326 213.936C540.704 213.828 541.078 213.717 541.45 213.602L546.664 211.733C547.589 211.353 548.501 210.951 549.404 210.528L557.788 205.745C558.095 205.538 558.399 205.327 558.7 205.111C559.004 204.898 559.305 204.682 559.603 204.462L561.369 203.118C561.756 202.812 562.136 202.503 562.517 202.188L566.878 198.199C567.148 197.927 567.416 197.655 567.68 197.377C567.756 197.297 567.833 197.216 567.907 197.139C568.143 196.892 568.374 196.641 568.604 196.388C569.209 195.733 569.796 195.062 570.37 194.38C570.649 194.049 570.923 193.715 571.193 193.378C571.466 193.042 571.733 192.705 571.995 192.362C572.222 192.068 572.446 191.775 572.667 191.475C572.725 191.395 572.787 191.314 572.845 191.234C573.079 190.919 573.309 190.597 573.536 190.276C573.763 189.955 573.988 189.63 574.209 189.303C574.445 188.96 574.676 188.611 574.9 188.261C574.909 188.246 574.918 188.234 574.927 188.221C575.152 187.878 575.373 187.529 575.588 187.18C575.772 186.886 575.95 186.59 576.128 186.293C576.153 186.25 576.18 186.207 576.205 186.163C576.383 185.864 576.558 185.564 576.73 185.261C576.976 184.832 577.218 184.396 577.455 183.957C577.691 183.521 577.925 183.079 578.149 182.635C578.447 182.051 578.732 181.463 579.012 180.87C579.092 180.7 579.172 180.533 579.245 180.363C579.417 179.993 579.583 179.619 579.746 179.248C579.847 179.016 579.945 178.787 580.041 178.556C580.332 177.86 580.612 177.162 580.879 176.458C581.057 175.988 581.229 175.512 581.395 175.036C581.478 174.798 581.561 174.56 581.641 174.322C581.803 173.843 581.957 173.361 582.108 172.876C582.258 172.394 582.399 171.909 582.537 171.418C582.676 170.93 582.808 170.438 582.934 169.944C583.063 169.453 583.182 168.955 583.296 168.458C583.382 168.074 583.468 167.691 583.548 167.305C583.625 166.937 583.698 166.57 583.769 166.199C584.033 164.808 584.251 163.405 584.423 161.984C584.46 161.663 584.497 161.338 584.531 161.014C584.564 160.689 584.595 160.365 584.626 160.037C584.635 159.929 584.644 159.818 584.653 159.707C584.672 159.478 584.69 159.249 584.706 159.018C584.736 158.607 584.761 158.193 584.782 157.779C584.798 157.522 584.81 157.263 584.816 157.003C584.819 156.966 584.822 156.926 584.822 156.889C584.832 156.641 584.841 156.394 584.844 156.144C584.847 156.113 584.85 156.079 584.847 156.045C584.856 155.813 584.859 155.585 584.862 155.353C584.865 155.069 584.868 154.784 584.868 154.5C584.868 120.368 557.37 92.7001 523.447 92.7001L260 92.7001L260 61.8001Z" fill="#58BEF5"/>
<path d="M260 123.6L523.447 123.6C540.409 123.6 554.158 137.434 554.158 154.5C554.158 171.566 540.409 185.4 523.447 185.4L260 185.4L260 216.3L523.447 216.3L532.037 215.701C532.547 215.63 533.057 215.549 533.563 215.466C534.067 215.382 534.574 215.29 535.074 215.194C535.578 215.098 536.076 214.993 536.573 214.885C536.886 214.817 537.193 214.746 537.504 214.672C537.669 214.635 537.835 214.594 538.001 214.554L539.638 214.128C539.838 214.075 540.034 214.02 540.231 213.964L540.326 213.936C540.704 213.828 541.078 213.717 541.45 213.602L546.665 211.733L549.404 210.528L557.788 205.745C558.095 205.538 558.399 205.327 558.7 205.111C559.004 204.898 559.305 204.682 559.603 204.462L561.369 203.118C561.753 202.812 562.137 202.5 562.517 202.188L566.878 198.199C567.148 197.927 567.416 197.655 567.68 197.377C567.757 197.297 567.833 197.216 567.907 197.139C568.143 196.892 568.374 196.641 568.604 196.388C569.209 195.733 569.796 195.062 570.37 194.38C570.649 194.049 570.923 193.715 571.193 193.378C571.463 193.042 571.73 192.705 571.995 192.362C572.222 192.068 572.446 191.775 572.667 191.475C572.725 191.395 572.787 191.314 572.845 191.234C573.079 190.919 573.309 190.597 573.536 190.276C573.764 189.955 573.988 189.63 574.209 189.303C574.442 188.957 574.673 188.611 574.9 188.261C574.909 188.246 574.918 188.234 574.927 188.221C575.152 187.875 575.37 187.529 575.588 187.18C575.772 186.886 575.95 186.59 576.128 186.293C576.153 186.25 576.18 186.207 576.205 186.163C576.383 185.864 576.558 185.564 576.73 185.261C576.976 184.831 577.218 184.396 577.455 183.957C577.691 183.521 577.925 183.079 578.149 182.634C578.447 182.05 578.732 181.463 579.012 180.87C579.092 180.7 579.172 180.533 579.245 180.363C579.417 179.993 579.583 179.619 579.746 179.248C579.847 179.016 579.946 178.787 580.041 178.556C580.333 177.86 580.612 177.162 580.879 176.458C581.057 175.988 581.229 175.512 581.395 175.036C581.478 174.798 581.561 174.56 581.641 174.322C581.804 173.843 581.957 173.361 582.108 172.876C582.258 172.394 582.399 171.909 582.538 171.418C582.676 170.93 582.808 170.438 582.934 169.944C583.06 169.449 583.179 168.955 583.296 168.458C583.382 168.074 583.468 167.691 583.548 167.305C583.625 166.937 583.698 166.57 583.769 166.199C584.033 164.808 584.251 163.405 584.423 161.984C584.46 161.663 584.497 161.338 584.531 161.014C584.564 160.689 584.595 160.365 584.626 160.037C584.635 159.929 584.644 159.818 584.654 159.707C584.672 159.478 584.69 159.249 584.706 159.018C584.736 158.607 584.761 158.193 584.782 157.779C584.798 157.522 584.81 157.263 584.816 157.003C584.819 156.966 584.822 156.926 584.822 156.889C584.832 156.641 584.841 156.394 584.844 156.144C584.847 156.113 584.85 156.079 584.847 156.045C584.856 155.813 584.859 155.585 584.862 155.353C584.865 155.069 584.868 154.784 584.868 154.5C584.868 120.368 557.37 92.7001 523.447 92.7001L260 92.7001L260 123.6ZM532.731 199.908L536.604 198.931C535.335 199.311 534.043 199.639 532.731 199.908ZM537.685 198.594L539.813 197.84C539.113 198.109 538.403 198.36 537.685 198.594ZM544.42 195.779C545.08 195.436 545.734 195.081 546.376 194.71C545.734 195.081 545.08 195.439 544.42 195.779ZM549.204 192.933L551.01 191.642C550.417 192.087 549.815 192.519 549.204 192.933ZM563.411 177.57C563.78 176.924 564.133 176.266 564.474 175.602C564.136 176.266 563.78 176.924 563.411 177.57Z" fill="#D7EFFC"/>
<path d="M260 3.05176e-05L523.447 1.90019e-05C608.254 1.52949e-05 677 69.1697 677 154.5C677 239.83 608.254 309 523.447 309L260 309L260 278.1L523.447 278.1C591.293 278.1 646.289 222.761 646.289 154.5C646.289 86.2388 591.293 30.9 523.447 30.9L260 30.9001L260 3.05176e-05Z" fill="#1091D8"/>
</g>
<g clip-path="url(#clip1_55_40)">
<path d="M262 30.9L-2.07912 30.9C-70.0875 30.9 -125.216 86.2357 -125.216 154.5C-125.216 222.764 -70.0876 278.1 -2.07913 278.1L262 278.1L262 247.2L-2.07913 247.2C-53.0854 247.2 -94.4317 205.695 -94.4317 154.5C-94.4317 103.305 -53.0854 61.8 -2.07912 61.8L262 61.8L262 30.9Z" fill="#27ACF3"/>
<path d="M262 61.8001L-2.07906 61.8001C-53.0854 61.8001 -94.4316 103.302 -94.4316 154.5C-94.4316 205.698 -53.0854 247.2 -2.07907 247.2L262 247.2L262 216.3L-2.07907 216.3C-5.00049 216.3 -7.87573 216.096 -10.6894 215.701C-11.2004 215.63 -11.7115 215.549 -12.2194 215.466C-12.7243 215.382 -13.2322 215.29 -13.734 215.194C-14.2388 215.098 -14.7375 214.993 -15.2362 214.885C-15.5502 214.817 -15.8581 214.746 -16.169 214.672C-16.3352 214.635 -16.5015 214.594 -16.6677 214.554L-18.3085 214.128C-18.5086 214.075 -18.7056 214.02 -18.9026 213.964L-18.9981 213.936C-19.3767 213.828 -19.7523 213.717 -20.1248 213.602L-25.3519 211.733C-26.2785 211.353 -27.1928 210.951 -28.0979 210.528L-36.502 205.745C-36.8098 205.538 -37.1146 205.327 -37.4162 205.111C-37.721 204.898 -38.0227 204.682 -38.3213 204.462L-40.0914 203.118C-40.4793 202.812 -40.861 202.503 -41.2427 202.188L-45.6141 198.199C-45.885 197.927 -46.1528 197.655 -46.4175 197.377C-46.4945 197.297 -46.5714 197.216 -46.6453 197.139C-46.8824 196.892 -47.1133 196.641 -47.3441 196.388C-47.9506 195.733 -48.5386 195.062 -49.1143 194.38C-49.3944 194.049 -49.6684 193.715 -49.9393 193.378C-50.2132 193.042 -50.481 192.705 -50.7427 192.362C-50.9705 192.068 -51.1952 191.775 -51.4169 191.475C-51.4754 191.395 -51.537 191.314 -51.5954 191.234C-51.8294 190.919 -52.0603 190.597 -52.2881 190.276C-52.5159 189.955 -52.7406 189.63 -52.9623 189.303C-53.1993 188.96 -53.4302 188.611 -53.6549 188.261C-53.6642 188.246 -53.6734 188.234 -53.6826 188.221C-53.9073 187.878 -54.129 187.529 -54.3444 187.18C-54.5292 186.886 -54.7077 186.59 -54.8863 186.293C-54.9109 186.25 -54.9386 186.207 -54.9632 186.163C-55.1418 185.864 -55.3172 185.564 -55.4896 185.261C-55.7359 184.832 -55.9791 184.396 -56.2161 183.957C-56.4532 183.521 -56.6871 183.079 -56.9119 182.635C-57.2105 182.051 -57.4968 181.463 -57.7769 180.87C-57.857 180.7 -57.937 180.533 -58.0109 180.363C-58.1833 179.993 -58.3495 179.619 -58.5127 179.248C-58.6143 179.016 -58.7127 178.787 -58.8082 178.556C-59.1006 177.86 -59.3808 177.162 -59.6486 176.458C-59.8271 175.988 -59.9995 175.512 -60.1658 175.036C-60.2489 174.798 -60.332 174.56 -60.412 174.322C-60.5752 173.843 -60.7291 173.361 -60.8799 172.876C-61.0308 172.394 -61.1724 171.909 -61.3109 171.418C-61.4495 170.93 -61.5818 170.438 -61.7081 169.944C-61.8374 169.453 -61.9574 168.955 -62.0713 168.458C-62.1575 168.074 -62.2437 167.691 -62.3238 167.305C-62.4007 166.937 -62.4746 166.57 -62.5454 166.199C-62.8101 164.808 -63.0287 163.405 -63.2011 161.984C-63.238 161.663 -63.275 161.338 -63.3088 161.014C-63.3427 160.689 -63.3735 160.365 -63.4043 160.037C-63.4135 159.929 -63.4227 159.818 -63.432 159.707C-63.4504 159.478 -63.4689 159.249 -63.4843 159.018C-63.5151 158.607 -63.5397 158.193 -63.5613 157.779C-63.5767 157.522 -63.589 157.263 -63.5951 157.003C-63.5982 156.966 -63.6013 156.926 -63.6013 156.889C-63.6105 156.641 -63.6197 156.394 -63.6228 156.144C-63.6259 156.113 -63.629 156.079 -63.6259 156.045C-63.6352 155.813 -63.6382 155.585 -63.6413 155.353C-63.6443 155.069 -63.6474 154.784 -63.6474 154.5C-63.6474 120.368 -36.0833 92.7001 -2.07906 92.7001L262 92.7001L262 61.8001Z" fill="#58BEF5"/>
<path d="M262 123.6L-2.07913 123.6C-19.0812 123.6 -32.8633 137.434 -32.8633 154.5C-32.8633 171.566 -19.0812 185.4 -2.07913 185.4L262 185.4L262 216.3L-2.07913 216.3L-10.6895 215.701C-11.2005 215.63 -11.7115 215.549 -12.2195 215.466C-12.7243 215.382 -13.2322 215.29 -13.734 215.194C-14.2389 215.098 -14.7376 214.993 -15.2363 214.885C-15.5503 214.817 -15.8581 214.746 -16.169 214.672C-16.3353 214.635 -16.5015 214.594 -16.6678 214.554L-18.3085 214.128C-18.5086 214.075 -18.7057 214.02 -18.9027 213.964L-18.9981 213.936C-19.3768 213.828 -19.7523 213.717 -20.1248 213.602L-25.352 211.733L-28.0979 210.528L-36.502 205.745C-36.8098 205.538 -37.1146 205.327 -37.4163 205.111C-37.7211 204.898 -38.0227 204.682 -38.3213 204.462L-40.0914 203.118C-40.4763 202.812 -40.8611 202.5 -41.2428 202.188L-45.6141 198.199C-45.885 197.927 -46.1528 197.655 -46.4176 197.377C-46.4945 197.297 -46.5715 197.216 -46.6454 197.139C-46.8824 196.892 -47.1133 196.641 -47.3442 196.388C-47.9507 195.733 -48.5386 195.062 -49.1143 194.38C-49.3944 194.049 -49.6684 193.715 -49.9393 193.378C-50.2102 193.042 -50.478 192.705 -50.7428 192.362C-50.9706 192.068 -51.1953 191.775 -51.4169 191.475C-51.4754 191.395 -51.537 191.314 -51.5955 191.234C-51.8295 190.919 -52.0603 190.597 -52.2881 190.276C-52.5159 189.955 -52.7407 189.63 -52.9623 189.303C-53.1963 188.957 -53.4272 188.611 -53.655 188.261C-53.6642 188.246 -53.6734 188.234 -53.6826 188.221C-53.9074 187.875 -54.1259 187.529 -54.3445 187.18C-54.5292 186.886 -54.7078 186.59 -54.8863 186.293C-54.9109 186.25 -54.9387 186.207 -54.9633 186.163C-55.1418 185.864 -55.3173 185.564 -55.4897 185.261C-55.736 184.831 -55.9792 184.396 -56.2162 183.957C-56.4532 183.521 -56.6872 183.079 -56.9119 182.634C-57.2105 182.05 -57.4968 181.463 -57.777 180.87C-57.857 180.7 -57.937 180.533 -58.0109 180.363C-58.1833 179.993 -58.3495 179.619 -58.5127 179.248C-58.6143 179.016 -58.7128 178.787 -58.8082 178.556C-59.1007 177.86 -59.3808 177.162 -59.6486 176.458C-59.8272 175.988 -59.9996 175.512 -60.1658 175.036C-60.2489 174.798 -60.332 174.56 -60.4121 174.322C-60.5752 173.843 -60.7292 173.361 -60.88 172.876C-61.0309 172.394 -61.1725 171.909 -61.311 171.418C-61.4495 170.93 -61.5819 170.438 -61.7081 169.944C-61.8343 169.449 -61.9544 168.955 -62.0713 168.458C-62.1575 168.074 -62.2437 167.691 -62.3238 167.305C-62.4008 166.937 -62.4746 166.57 -62.5454 166.199C-62.8102 164.808 -63.0287 163.405 -63.2011 161.984C-63.2381 161.663 -63.275 161.338 -63.3089 161.014C-63.3427 160.689 -63.3735 160.365 -63.4043 160.037C-63.4135 159.929 -63.4228 159.818 -63.432 159.707C-63.4505 159.478 -63.469 159.249 -63.4844 159.018C-63.5151 158.607 -63.5398 158.193 -63.5613 157.779C-63.5767 157.522 -63.589 157.263 -63.5952 157.003C-63.5983 156.966 -63.6013 156.926 -63.6013 156.889C-63.6105 156.641 -63.6198 156.394 -63.6229 156.144C-63.6259 156.113 -63.629 156.079 -63.6259 156.045C-63.6352 155.813 -63.6382 155.585 -63.6413 155.353C-63.6444 155.069 -63.6475 154.784 -63.6475 154.5C-63.6475 120.368 -36.0833 92.7001 -2.07913 92.7001L262 92.7001L262 123.6ZM-11.3852 199.908L-15.2671 198.931C-13.9957 199.311 -12.6997 199.639 -11.3852 199.908ZM-16.3507 198.594L-18.484 197.84C-17.7821 198.109 -17.071 198.36 -16.3507 198.594ZM-23.1017 195.779C-23.7635 195.436 -24.4192 195.081 -25.0626 194.71C-24.4192 195.081 -23.7635 195.439 -23.1017 195.779ZM-27.8978 192.933L-29.7079 191.642C-29.1138 192.087 -28.5104 192.519 -27.8978 192.933ZM-42.1386 177.57C-42.508 176.924 -42.862 176.266 -43.2037 175.602C-42.8651 176.266 -42.508 176.924 -42.1386 177.57Z" fill="#D7EFFC"/>
<path d="M262 3.05176e-05L-2.07906 1.89743e-05C-87.0896 1.52584e-05 -156 69.1697 -156 154.5C-156 239.83 -87.0896 309 -2.07907 309L262 309L262 278.1L-2.07907 278.1C-70.0875 278.1 -125.216 222.761 -125.216 154.5C-125.216 86.2388 -70.0875 30.9 -2.07906 30.9L262 30.9001L262 3.05176e-05Z" fill="#1091D8"/>
</g>
<defs>
<clipPath id="clip0_55_40">
<rect width="309" height="417" fill="white" transform="translate(260 309) rotate(-90)"/>
</clipPath>
<clipPath id="clip1_55_40">
<rect width="309" height="418" fill="white" transform="matrix(4.37114e-08 -1 -1 -4.37114e-08 262 309)"/>
</clipPath>
</defs>
</svg>
